<svg version="1.2" baseProfile="tiny-ps" xmlns="http://www.w3.org/2000/svg" viewBox="0 0 858 858" width="900" height="900">
	<title>sporting-charleroi-logo-1 (1)-svg</title>
	<style>
		tspan { white-space:pre }
		.shp0 { fill: #000000 } 
		.shp1 { fill: #ffe600 } 
		.shp2 { fill: #ffffff } 
	</style>
	<g id="Layer">
		<g id="Layer">
			<path id="Layer" class="shp0" d="M157.58 409.9L179.1 393.51L201.35 408.9L192.39 383.38L213.9 366.97L186.86 367.59L177.9 342.08L176.25 347.6L170.14 367.98L143.11 368.61L165.35 384L157.58 409.9Z" />
			<path id="Layer" class="shp0" d="M132.8 527.09L155.05 542.49L146.1 516.97L167.6 500.56L140.57 501.18L131.61 475.67L129.96 481.19L123.85 501.57L96.81 502.19L119.05 517.59L111.28 543.5L132.8 527.09Z" />
			<path id="Layer" class="shp0" d="M162.83 632.19L153.89 606.67L152.23 612.19L146.12 632.58L119.08 633.2L141.32 648.58L133.56 674.49L155.07 658.09L177.32 673.48L168.36 647.96L189.89 631.55L162.83 632.19Z" />
			<path id="Layer" class="shp0" d="M241.47 745.41L232.51 719.88L230.86 725.41L224.75 745.78L197.7 746.39L219.95 761.8L212.2 787.7L233.71 771.3L255.96 786.69L247 761.17L268.51 744.76L241.47 745.41Z" />
			<path id="Layer" class="shp0" d="M363.7 812.27L354.74 786.76L353.08 792.29L346.98 812.65L319.95 813.28L342.19 828.68L334.43 854.58L355.94 838.17L378.18 853.57L369.23 828.04L390.76 811.64L363.7 812.27Z" />
			<path id="Layer" class="shp0" d="M657.43 408.9L679.69 393.5L701.2 409.9L693.44 384L715.68 368.61L688.64 367.98L680.87 342.07L678.97 347.52L671.92 367.6L644.89 366.98L666.4 383.38L657.43 408.9Z" />
			<path id="Layer" class="shp0" d="M761.98 502.19L734.93 501.57L727.17 475.67L725.27 481.11L718.21 501.18L691.19 500.56L712.69 516.97L703.73 542.49L725.98 527.09L747.5 543.5L739.75 517.59L761.98 502.19Z" />
			<path id="Layer" class="shp0" d="M712.67 632.58L704.9 606.67L702.99 612.11L695.94 632.19L668.92 631.55L690.42 647.96L681.47 673.49L703.71 658.09L725.22 674.5L717.47 648.58L739.7 633.2L712.67 632.58Z" />
			<path id="Layer" class="shp0" d="M634.04 745.78L626.27 719.88L624.36 725.32L617.32 745.41L590.28 744.77L611.79 761.17L602.82 786.7L625.08 771.3L646.6 787.71L638.82 761.8L661.08 746.4L634.04 745.78Z" />
			<path id="Layer" class="shp0" d="M511.8 812.65L504.03 786.76L502.12 792.2L495.09 812.27L468.04 811.65L489.55 828.04L480.59 853.56L502.85 838.17L524.35 854.59L516.6 828.68L538.84 813.28L511.8 812.65Z" />
			<path id="Layer" class="shp1" d="M164.5 399.92L178.99 388.87L193.99 399.24L187.95 382.04L202.44 370.99L184.22 371.41L178.19 354.21L172.96 371.67L154.74 372.09L169.73 382.46L164.5 399.92Z" />
			<path id="Layer" class="shp1" d="M132.69 522.46L147.69 532.83L141.66 515.64L156.15 504.58L137.92 505L131.89 487.8L126.66 505.26L108.44 505.68L123.43 516.06L118.2 533.51L132.69 522.46Z" />
			<path id="Layer" class="shp1" d="M160.2 636L154.17 618.8L148.93 636.27L130.72 636.69L145.7 647.04L140.47 664.51L154.96 653.46L169.96 663.83L163.92 646.63L178.42 635.57L160.2 636Z" />
			<path id="Layer" class="shp1" d="M238.83 749.22L232.79 732.01L227.57 749.47L209.34 749.89L224.33 760.26L219.1 777.72L233.6 766.66L248.59 777.03L242.56 759.85L257.05 748.79L238.83 749.22Z" />
			<path id="Layer" class="shp1" d="M361.06 816.08L355.02 798.89L349.8 816.34L331.57 816.76L346.56 827.14L341.34 844.59L355.83 833.53L370.82 843.91L364.78 826.7L379.28 815.66L361.06 816.08Z" />
			<path id="Layer" class="shp1" d="M664.8 399.24L679.8 388.87L694.29 399.91L689.06 382.46L704.05 372.09L685.83 371.67L680.6 354.21L674.57 371.41L656.34 370.99L670.84 382.04L664.8 399.24Z" />
			<path id="Layer" class="shp1" d="M750.36 505.68L732.12 505.26L726.89 487.79L720.85 505L702.64 504.58L717.14 515.64L711.1 532.83L726.09 522.46L740.59 533.51L735.37 516.06L750.36 505.68Z" />
			<path id="Layer" class="shp1" d="M709.86 636.27L704.62 618.8L698.58 636.01L680.37 635.57L694.87 646.63L688.83 663.82L703.81 653.46L718.31 664.51L713.1 647.04L728.06 636.69L709.86 636.27Z" />
			<path id="Layer" class="shp1" d="M631.22 749.46L625.99 732.02L619.96 749.22L601.74 748.79L616.24 759.84L610.19 777.03L625.18 766.66L639.67 777.71L634.44 760.26L649.44 749.89L631.22 749.46Z" />
			<path id="Layer" class="shp1" d="M508.99 816.33L503.75 798.9L497.73 816.08L479.51 815.66L494 826.7L487.96 843.91L502.96 833.53L517.44 844.59L512.23 827.14L527.22 816.76L508.99 816.33Z" />
		</g>
		<g id="Layer">
			<path id="Layer" fill-rule="evenodd" class="shp0" d="M628.4 224.51L629.96 224.51L629.93 683.89L629.77 684.84C629.55 686.1 623.97 715.82 593.51 722.98C580.84 725.97 553.8 726.3 525 726.66C500.45 726.96 472.61 727.31 464.07 729.58C451.51 732.93 442.57 743.88 440.13 747.16L430.94 759.44L420.7 748.02C416.93 743.81 404.92 732.3 394.71 729.58C386.18 727.3 358.35 726.96 333.62 726.65C304.99 726.29 277.95 725.96 265.28 722.98C234.82 715.82 229.25 686.1 229.03 684.84C229.03 684.84 228.86 683.89 228.83 683.62L228.83 224.51L316.56 224.51C314.76 223.83 313.25 222.41 312.56 220.45C311.34 216.95 313.2 213.11 316.7 211.88C317.04 211.76 319.51 210.93 324.39 209.77L324.21 209.78L320.63 194.03C317.34 194.74 315.61 195.2 315.53 195.22C311.96 196.2 308.24 194.1 307.25 190.52C306.57 188.04 307.39 185.51 309.14 183.86L305.46 181.48C305.46 181.48 303.39 190.28 292.51 185.62C292.17 185.47 291.9 185.3 291.59 185.15C287.15 184.03 283.85 180.04 283.85 175.27C283.85 172.28 285.16 169.61 287.21 167.74C286.33 166.18 285.29 163.84 284.23 160.25C283.67 158.36 283.38 155.13 283.26 151.25C278.22 149.72 274.52 145.08 274.52 139.54C274.52 134.18 277.99 129.66 282.78 127.98C276.19 127.76 270.9 122.36 270.9 115.72C270.9 108.94 276.41 103.43 283.19 103.43C284.13 103.43 285.03 103.55 285.9 103.75C283.29 101.3 281.64 97.83 281.64 93.98C281.64 86.55 287.68 80.52 295.1 80.52C299.04 80.52 302.55 82.25 305.02 84.95C305.42 77.88 311.24 72.23 318.4 72.23C325.58 72.23 331.41 77.89 331.79 84.98L332.05 84.93C332.92 79.22 337.82 74.82 343.77 74.82C348.05 74.82 351.78 77.11 353.88 80.51C353.4 79.22 353.1 77.83 353.1 76.38C353.1 69.81 358.44 64.47 365 64.47C371.27 64.47 376.38 69.36 376.82 75.52C378.96 72.3 382.6 70.16 386.75 70.16C389.47 70.16 391.96 71.12 393.97 72.66L398.94 71.23L399.26 68.17C399.26 68.17 400.4 66.16 402.58 65.85C404.77 65.55 407.2 67.54 407.2 67.54C407.2 67.54 407.44 68.05 407.73 68.68L408.26 68.53C408.84 60.83 413.43 54.25 419.95 50.86C420.75 46.87 423.04 35.4 423.46 33.33C421.24 32.83 412.78 30.9 412.78 30.9L411.84 14.07C411.84 14.07 419.84 16.97 422.81 18.06C422.71 17.63 419.52 4.2 419.52 4.2L440.33 4.2L439.36 8.27C438.01 14.02 437.39 16.62 436.96 17.89C436.98 17.87 437.07 17.75 437.07 17.75C437.07 17.75 437.03 18 437.03 18.07C439.98 16.99 448.01 14.07 448.01 14.07L447.08 30.9C447.08 30.9 438.62 32.83 436.4 33.33C436.81 35.4 439.11 46.87 439.9 50.86C445.97 54.01 450.36 59.94 451.4 66.95L452.69 67.32C453.6 66.6 454.74 66.18 455.98 66.23L459.43 67.84L460 69.44L466.83 71.41C468.41 70.64 470.16 70.16 472.04 70.16C476.06 70.16 479.6 72.18 481.76 75.23L481.99 75.28C482.55 69.23 487.59 64.47 493.78 64.47C500.35 64.47 505.69 69.81 505.69 76.38C505.69 77.52 505.47 78.61 505.18 79.66L505.45 79.71C507.62 76.76 511.08 74.82 515.01 74.82C520.52 74.82 525.12 78.6 526.48 83.68L527.11 83.8C528.05 77.28 533.61 72.23 540.38 72.23C547.55 72.23 553.37 77.88 553.77 84.95C556.23 82.25 559.75 80.52 563.68 80.52C571.11 80.52 577.15 86.55 577.15 93.98C577.15 96.89 576.19 99.56 574.62 101.77L575.4 103.45C575.47 103.45 575.53 103.43 575.59 103.43C582.37 103.43 587.88 108.95 587.88 115.72C587.88 120.46 585.17 124.52 581.25 126.58C581.35 128.27 581.44 130.06 581.53 131.91C583.22 134.01 584.26 136.64 584.26 139.54C584.26 142.21 583.39 144.67 581.94 146.69C581.94 152.56 581.67 157.65 580.91 160.25C578.32 169.05 575.73 170.61 575.73 170.61C575.73 170.61 583.5 180.96 572.63 185.62C566.87 188.09 563.59 186.78 561.77 185C560.26 184.54 558.89 183.77 557.77 182.72L554.87 184.59C555.46 184.74 555.82 184.84 555.85 184.85C559.41 185.88 561.48 189.62 560.45 193.19C559.42 196.75 555.68 198.82 552.12 197.79C552.02 197.76 549.79 197.13 545.62 196.17L542.1 211.67C545.76 212.67 547.68 213.35 547.99 213.47C551.48 214.73 553.29 218.6 552.02 222.1C551.69 223.04 551.14 223.84 550.48 224.51L628.4 224.51L628.4 224.51ZM422.82 17.92C422.82 17.92 422.82 18 422.84 18.07C422.84 18.05 422.82 17.92 422.82 17.92ZM460.95 123.49L458.45 171.74C458.47 171.74 458.48 171.75 458.49 171.75C461.45 171.88 464.34 172.03 467.17 172.19C467.58 172.22 467.99 172.24 468.4 172.26C474.03 172.6 479.43 173 484.58 173.45C485.12 173.5 485.64 173.55 486.17 173.59C488.67 173.82 491.14 174.05 493.51 174.3C493.53 174.3 493.54 174.3 493.55 174.3C494.99 164.86 498.3 135.98 486.83 126.6C481.14 121.94 460.95 123.49 460.95 123.49ZM372.77 126.6C361.44 135.86 364.53 164.13 366 173.94C366 173.93 366.02 173.93 366.03 173.93C371.16 173.46 376.65 173.02 382.49 172.64C382.5 172.64 382.51 172.64 382.51 172.64C388.37 172.25 394.58 171.92 401.14 171.67L398.66 123.49C398.66 123.49 378.46 121.94 372.77 126.6Z" />
			<path id="Layer" fill-rule="evenodd" class="shp1" d="M626.85 227.62C626.85 230.7 626.85 683.49 626.85 683.58C626.83 683.58 626.71 684.3 626.71 684.3C626.49 685.48 621.29 713.26 592.8 719.96C580.46 722.87 553.59 723.2 525.13 723.55C500.22 723.85 472.19 724.2 463.28 726.58C449.74 730.19 440.24 741.82 437.64 745.3C437.64 745.3 432.4 752.31 430.72 754.55C428.85 752.47 423.01 745.94 423.01 745.94C419.07 741.55 406.45 729.5 395.51 726.58C386.6 724.2 358.56 723.85 333.83 723.55C305.2 723.2 278.33 722.87 265.99 719.96C237.5 713.26 232.29 685.48 232.08 684.3L231.91 683.35C231.91 683.35 231.94 230.71 231.94 227.62C235.01 227.62 623.78 227.62 626.85 227.62L626.85 227.62Z" />
			<path id="Layer" class="shp0" d="M617.4 345.46L617.4 237.07L241.39 237.07L241.39 345.46L617.4 345.46L617.4 345.46Z" />
			<path id="Layer" fill-rule="evenodd" class="shp2" d="M241.39 354.83L241.39 682.66C241.39 682.66 245.41 705.4 268.15 710.76C271.74 711.6 276.91 712.21 283.17 712.66L283.17 354.83L241.39 354.83L241.39 354.83Z" />
			<path id="Layer" fill-rule="evenodd" class="shp0" d="M283.17 354.83L283.17 712.66C294.55 713.48 309.5 713.78 324.95 713.98L324.95 354.83L283.17 354.83L283.17 354.83Z" />
			<path id="Layer" fill-rule="evenodd" class="shp2" d="M324.95 354.83L324.95 713.98C339.28 714.18 354.01 714.3 366.73 714.69L366.73 354.83L324.95 354.83L324.95 354.83Z" />
			<path id="Layer" fill-rule="evenodd" class="shp0" d="M366.73 354.83L366.73 714.69C380.63 715.13 392.12 715.89 397.95 717.44C401.54 718.4 405.11 720.05 408.5 722L408.5 354.83L366.73 354.83L366.73 354.83Z" />
			<path id="Layer" fill-rule="evenodd" class="shp2" d="M408.5 354.83L408.5 722C420.41 728.84 430.06 739.64 430.06 739.64C432.85 735.92 439.9 727.46 450.28 721.75L450.28 354.83L408.5 354.83L408.5 354.83Z" />
			<path id="Layer" fill-rule="evenodd" class="shp0" d="M450.28 354.83L450.28 721.75C453.49 719.98 457.02 718.47 460.84 717.44C466.67 715.89 478.16 715.13 492.07 714.69L492.07 354.83L450.28 354.83L450.28 354.83Z" />
			<path id="Layer" fill-rule="evenodd" class="shp2" d="M492.06 354.83L492.06 714.69C504.78 714.3 519.51 714.18 533.83 713.98L533.83 354.83L492.06 354.83L492.06 354.83Z" />
			<path id="Layer" fill-rule="evenodd" class="shp0" d="M533.84 713.98C549.29 713.78 564.24 713.48 575.61 712.66L575.61 354.83L533.84 354.83L533.84 713.98L533.84 713.98Z" />
			<path id="Layer" fill-rule="evenodd" class="shp2" d="M590.64 710.76C613.38 705.4 617.4 682.66 617.4 682.66L617.4 354.83L575.62 354.83L575.62 712.66C581.87 712.21 587.05 711.6 590.64 710.76L590.64 710.76Z" />
			<path id="Layer" fill-rule="evenodd" class="shp2" d="M310.64 297.74L332.06 325.67L310.01 325.67L293.28 299.45L293.1 299.45L293.1 325.67L275.38 325.67L275.38 257.5L301.87 257.5C315.34 257.5 325.55 263.92 325.55 278.48C325.55 287.88 320.31 296.02 310.64 297.74ZM293.1 271.07L293.1 288.06L294.82 288.06C300.6 288.06 307.12 286.98 307.12 279.56C307.12 272.15 300.6 271.07 294.82 271.07L293.1 271.07Z" />
			<path id="Layer" fill-rule="evenodd" class="shp2" d="M357.67 316.9C357.67 322.69 352.98 327.48 347.1 327.48C341.22 327.48 336.52 322.69 336.52 316.9C336.52 311.02 341.22 306.32 347.1 306.32C352.98 306.33 357.67 311.02 357.67 316.9L357.67 316.9Z" />
			<path id="Layer" fill-rule="evenodd" class="shp2" d="M408.49 280.38C404.87 275.5 399 272.87 392.94 272.87C382.09 272.87 374.77 281.19 374.77 291.77C374.77 302.53 382.18 310.3 393.21 310.3C399 310.3 404.78 307.5 408.49 303.07L408.49 324.31C402.61 326.12 398.36 327.48 392.85 327.48C383.36 327.48 374.32 323.86 367.26 317.44C359.76 310.66 356.33 301.8 356.33 291.68C356.33 282.37 359.85 273.42 366.36 266.73C373.05 259.86 382.72 255.7 392.31 255.7C398 255.7 403.24 256.97 408.49 259.13L408.49 280.38L408.49 280.38Z" />
			<path id="Layer" fill-rule="evenodd" class="shp2" d="M434.58 316.9C434.58 322.69 429.88 327.48 424 327.48C418.12 327.48 413.42 322.69 413.42 316.9C413.42 311.02 418.12 306.32 424 306.32C429.88 306.33 434.58 311.02 434.58 316.9L434.58 316.9Z" />
			<path id="Layer" fill-rule="evenodd" class="shp2" d="M477.48 275.04C474.22 272.33 470.07 270.52 465.73 270.52C462.47 270.52 458.14 272.42 458.14 276.22C458.14 280.2 462.92 281.73 466 282.73L470.51 284.08C480.01 286.89 487.33 291.68 487.33 302.71C487.33 309.49 485.71 316.45 480.28 321.06C474.95 325.58 467.8 327.48 460.93 327.48C452.34 327.48 443.94 324.59 436.97 319.7L444.57 305.42C449 309.3 454.24 312.47 460.3 312.47C464.46 312.47 468.89 310.39 468.89 305.6C468.89 300.62 461.93 298.91 458.14 297.82C447.01 294.66 439.69 291.77 439.69 278.57C439.69 264.74 449.54 255.7 463.19 255.7C470.07 255.7 478.47 257.87 484.52 261.3L477.48 275.04L477.48 275.04Z" />
			<path id="Layer" fill-rule="evenodd" class="shp2" d="M510.06 316.9C510.06 322.69 505.35 327.48 499.48 327.48C493.6 327.48 488.9 322.69 488.9 316.9C488.9 311.02 493.6 306.32 499.48 306.32C505.35 306.32 510.06 311.02 510.06 316.9L510.06 316.9Z" />
			<path id="Layer" fill-rule="evenodd" class="shp2" d="M559.08 280.38C555.46 275.5 549.6 272.87 543.53 272.87C532.68 272.87 525.37 281.19 525.37 291.77C525.37 302.53 532.78 310.3 543.8 310.3C549.6 310.3 555.38 307.5 559.08 303.07L559.08 324.31C553.2 326.12 548.96 327.48 543.45 327.48C533.95 327.48 524.91 323.86 517.86 317.44C510.36 310.66 506.92 301.8 506.92 291.68C506.92 282.37 510.44 273.42 516.95 266.73C523.64 259.86 533.32 255.7 542.9 255.7C548.59 255.7 553.84 256.97 559.08 259.13L559.08 280.38L559.08 280.38Z" />
			<path id="Layer" fill-rule="evenodd" class="shp2" d="M585.63 316.9C585.63 322.69 580.93 327.48 575.06 327.48C569.18 327.48 564.47 322.69 564.47 316.9C564.47 311.02 569.18 306.32 575.06 306.32C580.93 306.32 585.63 311.02 585.63 316.9L585.63 316.9Z" />
			<path id="Layer" fill-rule="evenodd" class="shp0" d="M411.29 110.55C411.29 120.83 419.65 129.19 429.93 129.19C440.2 129.19 448.57 120.83 448.57 110.55C448.57 100.27 440.2 91.91 429.93 91.91C419.65 91.91 411.29 100.27 411.29 110.55L411.29 110.55Z" />
			<path id="Layer" fill-rule="evenodd" class="shp1" d="M313.12 186.48C311.88 186.82 311.16 188.11 311.5 189.35C311.84 190.59 313.12 191.31 314.36 190.98C314.75 190.87 354.38 180.18 430.24 180.18C506.11 180.18 552.88 193.42 553.33 193.56C554.57 193.91 555.87 193.2 556.22 191.96C556.58 190.73 555.87 189.44 554.63 189.08C554.16 188.94 506.83 175.52 430.24 175.52C353.67 175.52 313.52 186.37 313.12 186.48L313.12 186.48Z" />
			<path id="Layer" fill-rule="evenodd" class="shp1" d="M318.15 216.04C316.93 216.47 316.3 217.8 316.72 219.01C317.14 220.22 318.47 220.87 319.69 220.44C319.99 220.34 351.49 209.7 430.75 209.7C510.03 209.7 544.57 221.87 544.91 221.98C546.11 222.43 547.45 221.8 547.89 220.59C548.33 219.38 547.71 218.05 546.49 217.61C545.08 217.09 511.01 205.04 430.75 205.04C350.51 205.04 319.43 215.59 318.15 216.04L318.15 216.04Z" />
			<path id="Layer" fill-rule="evenodd" class="shp1" d="M320.87 194.61L324.21 209.78C324.66 209.68 368.74 200.12 428.69 200.12C488.66 200.12 541.42 211.72 541.94 211.84L545.33 196.68C543.11 196.19 490.44 184.59 428.69 184.59C366.94 184.59 322.72 194.2 320.87 194.61L320.87 194.61Z" />
			<path id="Layer" fill-rule="evenodd" class="shp1" d="M436.14 7.31C436.14 7.31 436.35 7.31 436.4 7.31C436.39 7.36 434.02 17.34 434.02 17.34C433.97 17.55 433.62 20.19 433.62 20.19L433.28 22.73C433.28 22.73 441.8 19.64 444.65 18.6C444.49 21.44 444.19 26.82 444.1 28.39C442.27 28.81 432.76 30.97 432.76 30.97C432.76 30.97 435.79 46.13 436.39 49.14C433.79 49.14 426.06 49.14 423.46 49.14C424.06 46.13 427.09 30.97 427.09 30.97C427.09 30.97 417.58 28.81 415.75 28.39C415.66 26.82 415.36 21.44 415.2 18.6C418.05 19.64 426.56 22.73 426.56 22.73L425.91 17.76C425.89 17.6 424.26 10.74 423.45 7.31C426.39 7.31 436.14 7.31 436.14 7.31L436.14 7.31Z" />
			<path id="Layer" fill-rule="evenodd" class="shp1" d="M414.4 110.55C414.4 101.98 421.36 95.01 429.93 95.01C438.49 95.01 445.46 101.98 445.46 110.55C445.46 119.11 438.49 126.08 429.93 126.08C421.36 126.08 414.4 119.11 414.4 110.55L414.4 110.55Z" />
			<path id="Layer" fill-rule="evenodd" class="shp1" d="M377.95 82.07C377.95 77.22 381.89 73.27 386.75 73.27C391.6 73.27 395.55 77.22 395.55 82.07C395.55 86.92 391.6 90.87 386.75 90.87C381.89 90.87 377.95 86.92 377.95 82.07L377.95 82.07Z" />
			<path id="Layer" fill-rule="evenodd" class="shp1" d="M356.2 76.38C356.2 71.52 360.15 67.57 365 67.57C369.85 67.57 373.8 71.52 373.8 76.38C373.8 81.23 369.85 85.18 365 85.18C360.15 85.18 356.2 81.23 356.2 76.38L356.2 76.38Z" />
			<path id="Layer" fill-rule="evenodd" class="shp1" d="M334.97 86.73C334.97 81.88 338.92 77.93 343.77 77.93C348.62 77.93 352.57 81.88 352.57 86.73C352.57 91.58 348.63 95.53 343.77 95.53C338.91 95.53 334.97 91.58 334.97 86.73L334.97 86.73Z" />
			<path id="Layer" fill-rule="evenodd" class="shp1" d="M323.58 107.44C323.58 102.59 327.53 98.64 332.38 98.64C337.24 98.64 341.18 102.59 341.18 107.44C341.18 112.29 337.24 116.24 332.38 116.24C327.53 116.24 323.58 112.29 323.58 107.44L323.58 107.44Z" />
			<path id="Layer" fill-rule="evenodd" class="shp1" d="M324.61 132.81C324.61 127.96 328.56 124.01 333.42 124.01C338.27 124.01 342.22 127.96 342.22 132.81C342.22 137.66 338.27 141.61 333.42 141.61C328.56 141.61 324.61 137.66 324.61 132.81L324.61 132.81Z" />
			<path id="Layer" fill-rule="evenodd" class="shp1" d="M331.35 168.53C331.35 163.68 335.29 159.74 340.15 159.74C345 159.74 348.95 163.69 348.95 168.53C348.95 173.39 345 177.34 340.15 177.34C335.29 177.34 331.35 173.39 331.35 168.53L331.35 168.53Z" />
			<path id="Layer" fill-rule="evenodd" class="shp1" d="M308.05 85.7C308.05 79.99 312.69 75.34 318.4 75.34C324.11 75.34 328.76 79.99 328.76 85.7C328.76 91.4 324.11 96.05 318.4 96.05C312.69 96.05 308.05 91.4 308.05 85.7L308.05 85.7Z" />
			<path id="Layer" fill-rule="evenodd" class="shp1" d="M284.75 93.98C284.75 88.27 289.39 83.62 295.1 83.62C300.81 83.62 305.46 88.27 305.46 93.98C305.46 99.69 300.81 104.33 295.1 104.33C289.39 104.33 284.75 99.69 284.75 93.98L284.75 93.98Z" />
			<path id="Layer" fill-rule="evenodd" class="shp1" d="M273.74 115.72C273.74 110.51 277.98 106.27 283.19 106.27C288.41 106.27 292.65 110.51 292.65 115.72C292.65 120.94 288.41 125.19 283.19 125.19C277.98 125.19 273.74 120.94 273.74 115.72L273.74 115.72Z" />
			<path id="Layer" fill-rule="evenodd" class="shp1" d="M277.36 139.54C277.36 134.33 281.6 130.08 286.81 130.08C292.03 130.08 296.27 134.33 296.27 139.54C296.27 144.76 292.03 149.01 286.81 149.01C281.6 149.01 277.36 144.76 277.36 139.54L277.36 139.54Z" />
			<path id="Layer" fill-rule="evenodd" class="shp1" d="M286.68 175.27C286.68 171.2 289.99 167.89 294.06 167.89C298.14 167.89 301.44 171.2 301.44 175.27C301.44 179.34 298.14 182.65 294.06 182.65C289.99 182.65 286.68 179.34 286.68 175.27L286.68 175.27Z" />
			<path id="Layer" fill-rule="evenodd" class="shp1" d="M472.04 90.87C467.18 90.87 463.24 86.92 463.24 82.07C463.24 77.22 467.18 73.27 472.04 73.27C476.9 73.27 480.84 77.22 480.84 82.07C480.84 86.92 476.9 90.87 472.04 90.87L472.04 90.87Z" />
			<path id="Layer" fill-rule="evenodd" class="shp1" d="M493.78 85.18C488.93 85.18 484.98 81.23 484.98 76.38C484.98 71.52 488.93 67.57 493.78 67.57C498.64 67.57 502.58 71.52 502.58 76.38C502.58 81.23 498.64 85.18 493.78 85.18L493.78 85.18Z" />
			<path id="Layer" fill-rule="evenodd" class="shp1" d="M515.01 95.53C510.16 95.53 506.22 91.58 506.22 86.73C506.22 81.88 510.16 77.93 515.01 77.93C519.87 77.93 523.81 81.88 523.81 86.73C523.81 91.58 519.87 95.53 515.01 95.53L515.01 95.53Z" />
			<path id="Layer" fill-rule="evenodd" class="shp1" d="M526.4 116.24C521.55 116.24 517.6 112.29 517.6 107.44C517.6 102.59 521.55 98.64 526.4 98.64C531.26 98.64 535.21 102.59 535.21 107.44C535.21 112.29 531.26 116.24 526.4 116.24L526.4 116.24Z" />
			<path id="Layer" fill-rule="evenodd" class="shp1" d="M525.37 141.61C520.51 141.61 516.57 137.66 516.57 132.81C516.57 127.96 520.51 124.01 525.37 124.01C530.23 124.01 534.17 127.96 534.17 132.81C534.17 137.66 530.23 141.61 525.37 141.61L525.37 141.61Z" />
			<path id="Layer" fill-rule="evenodd" class="shp1" d="M518.63 177.34C513.79 177.34 509.84 173.39 509.84 168.53C509.84 163.68 513.79 159.74 518.63 159.74C523.49 159.74 527.44 163.69 527.44 168.53C527.44 173.39 523.49 177.34 518.63 177.34L518.63 177.34Z" />
			<path id="Layer" fill-rule="evenodd" class="shp1" d="M540.38 96.05C534.67 96.05 530.03 91.4 530.03 85.7C530.03 79.99 534.67 75.34 540.38 75.34C546.09 75.34 550.74 79.99 550.74 85.7C550.74 91.4 546.09 96.05 540.38 96.05L540.38 96.05Z" />
			<path id="Layer" fill-rule="evenodd" class="shp1" d="M563.68 104.33C557.97 104.33 553.33 99.69 553.33 93.98C553.33 88.27 557.97 83.62 563.68 83.62C569.4 83.62 574.04 88.27 574.04 93.98C574.04 99.69 569.4 104.33 563.68 104.33L563.68 104.33Z" />
			<path id="Layer" fill-rule="evenodd" class="shp1" d="M575.59 125.19C570.38 125.19 566.13 120.94 566.13 115.72C566.13 110.51 570.38 106.27 575.59 106.27C580.81 106.27 585.04 110.51 585.04 115.72C585.04 120.94 580.81 125.19 575.59 125.19L575.59 125.19Z" />
			<path id="Layer" fill-rule="evenodd" class="shp1" d="M571.97 149.01C566.75 149.01 562.51 144.76 562.51 139.54C562.51 134.33 566.75 130.08 571.97 130.08C577.18 130.08 581.43 134.33 581.43 139.54C581.43 144.76 577.18 149.01 571.97 149.01L571.97 149.01Z" />
			<path id="Layer" fill-rule="evenodd" class="shp1" d="M567.83 182.65C563.76 182.65 560.45 179.34 560.45 175.27C560.45 171.2 563.76 167.89 567.83 167.89C571.89 167.89 575.21 171.2 575.21 175.27C575.21 179.34 571.89 182.65 567.83 182.65L567.83 182.65Z" />
			<path id="Layer" fill-rule="evenodd" class="shp0" d="M411.29 122.37C411.29 132.65 419.65 141.01 429.93 141.01C440.2 141.01 448.57 132.65 448.57 122.37C448.57 112.1 440.2 103.73 429.93 103.73C419.65 103.73 411.29 112.09 411.29 122.37L411.29 122.37Z" />
			<path id="Layer" fill-rule="evenodd" class="shp1" d="M414.4 122.37C414.4 113.81 421.36 106.84 429.93 106.84C438.49 106.84 445.46 113.81 445.46 122.37C445.46 130.94 438.49 137.91 429.93 137.91C421.36 137.91 414.4 130.94 414.4 122.37L414.4 122.37Z" />
			<path id="Layer" fill-rule="evenodd" class="shp1" d="M403.73 68.87C402.44 68.93 401.45 70.02 401.51 71.3L405.13 153.11C405.18 154.39 406.27 155.39 407.56 155.33C408.84 155.27 409.84 154.18 409.78 152.9L406.16 71.09C406.11 69.81 405.02 68.81 403.73 68.87L403.73 68.87Z" />
			<path id="Layer" fill-rule="evenodd" class="shp1" d="M453.44 71.09L449.81 152.9C449.76 154.19 450.75 155.27 452.04 155.33C453.32 155.39 454.41 154.39 454.47 153.11L458.09 71.3C458.14 70.02 457.15 68.93 455.87 68.87C454.58 68.81 453.49 69.81 453.44 71.09L453.44 71.09Z" />
			<path id="Layer" fill-rule="evenodd" class="shp1" d="M439.56 192.35C439.56 196.07 436.55 199.09 432.83 199.09L422.47 199.09C418.75 199.09 415.74 196.07 415.74 192.35C415.74 188.64 418.75 185.63 422.47 185.63L432.83 185.63C436.55 185.63 439.56 188.64 439.56 192.35L439.56 192.35Z" />
			<path id="Layer" class="shp1" d="M369.14 193.91L382.6 186.14L396.58 192.35L383.64 201.16L369.14 193.91L369.14 193.91Z" />
			<path id="Layer" class="shp1" d="M484.61 193.91L471.15 186.14L457.16 192.35L470.11 201.16L484.61 193.91L484.61 193.91Z" />
			<path id="Layer" fill-rule="evenodd" class="shp1" d="M360.86 197.53C360.86 201.82 357.38 205.3 353.09 205.3C348.8 205.3 345.32 201.82 345.32 197.53C345.32 193.24 348.8 189.77 353.09 189.77C357.38 189.77 360.86 193.24 360.86 197.53L360.86 197.53Z" />
			<path id="Layer" fill-rule="evenodd" class="shp1" d="M513.47 197.53C513.47 201.82 509.99 205.3 505.7 205.3C501.42 205.3 497.94 201.82 497.94 197.53C497.94 193.24 501.42 189.77 505.7 189.77C509.99 189.77 513.47 193.24 513.47 197.53L513.47 197.53Z" />
			<path id="Layer" class="shp1" d="M314.65 202.71L322.93 192.35L333.8 197.53L326.56 208.92L314.65 202.71L314.65 202.71Z" />
			<path id="Layer" class="shp1" d="M549.84 205.82L541.56 195.46L530.69 200.64L537.93 212.03L549.84 205.82L549.84 205.82Z" />
			<path id="Layer" fill-rule="evenodd" class="shp1" d="M297.3 113.28C295.04 120.83 302.51 146.71 304.03 151.82C304.52 153.47 306.25 154.4 307.9 153.91C309.54 153.42 310.48 151.69 309.99 150.05C306.42 138.08 301.98 119.31 303.25 115.06C304.4 111.23 308.82 104.99 318.11 105.87C319.81 106.04 321.33 104.78 321.49 103.08C321.66 101.37 320.4 99.85 318.7 99.69C305.41 98.42 299 107.63 297.3 113.28L297.3 113.28Z" />
			<path id="Layer" fill-rule="evenodd" class="shp1" d="M353.96 95.54C349.68 98.39 346.95 103.63 345.38 112.05C343.74 120.79 352.69 153.27 353.72 156.95C354.18 158.6 355.9 159.56 357.55 159.1C359.2 158.64 360.17 156.92 359.71 155.27C355.98 141.93 350.45 118.71 351.48 113.19C352.71 106.62 354.65 102.54 357.4 100.71C359.77 99.13 364.62 96.68 370.51 98.04C375.77 99.25 390.9 106.14 396.29 108.69C397.84 109.43 399.69 108.77 400.42 107.22C401.16 105.67 400.5 103.82 398.95 103.08C398.13 102.69 378.89 93.6 371.91 91.99C363.75 90.1 357.16 93.4 353.96 95.54L353.96 95.54Z" />
			<path id="Layer" fill-rule="evenodd" class="shp1" d="M563.28 113.28C565.56 120.83 558.08 146.71 556.56 151.82C556.07 153.47 554.34 154.4 552.69 153.91C551.05 153.42 550.11 151.69 550.61 150.05C554.16 138.08 558.61 119.31 557.33 115.06C556.19 111.23 551.77 104.99 542.49 105.87C540.77 106.04 539.26 104.78 539.1 103.08C538.93 101.37 540.18 99.85 541.89 99.69C555.18 98.42 561.6 107.63 563.28 113.28L563.28 113.28Z" />
			<path id="Layer" fill-rule="evenodd" class="shp1" d="M506.64 95.54C510.91 98.39 513.64 103.63 515.21 112.05C516.85 120.79 507.9 153.27 506.86 156.95C506.4 158.6 504.69 159.56 503.04 159.1C501.38 158.64 500.42 156.92 500.88 155.27C504.61 141.93 510.14 118.71 509.11 113.19C507.88 106.62 505.94 102.54 503.19 100.71C500.81 99.13 495.97 96.68 490.08 98.04C484.83 99.25 469.69 106.14 464.3 108.69C462.75 109.43 460.9 108.77 460.16 107.22C459.43 105.67 460.09 103.82 461.64 103.08C462.46 102.69 481.7 93.6 488.68 91.99C496.84 90.1 503.43 93.4 506.64 95.54L506.64 95.54Z" />
			<path id="Layer" fill-rule="evenodd" class="shp1" d="M448.56 70.16C448.56 69.51 448.53 68.86 448.46 68.22L431.87 68.22L431.87 51.62C431.23 51.56 430.58 51.52 429.93 51.52C429.27 51.52 428.62 51.56 427.99 51.62L427.99 68.22L411.39 68.22C411.32 68.86 411.29 69.51 411.29 70.16C411.29 70.82 411.32 71.46 411.39 72.1L448.46 72.1C448.53 71.46 448.56 70.82 448.56 70.16L448.56 70.16Z" />
			<path id="Layer" fill-rule="evenodd" class="shp1" d="M434.51 65.58C437.38 65.58 444.51 65.58 447.97 65.58C446.29 58.98 441.11 53.79 434.51 52.12C434.51 54.34 434.51 62.37 434.51 65.58L434.51 65.58Z" />
			<path id="Layer" fill-rule="evenodd" class="shp1" d="M425.34 65.58C425.34 62.36 425.34 54.34 425.34 52.12C418.75 53.79 413.56 58.98 411.88 65.58C414.1 65.58 422.13 65.58 425.34 65.58L425.34 65.58Z" />
			<path id="Layer" fill-rule="evenodd" class="shp1" d="M411.88 74.75C413.93 82.81 421.23 88.8 429.93 88.8C438.62 88.8 445.92 82.81 447.97 74.75L411.88 74.75L411.88 74.75Z" />
			<path id="Layer" fill-rule="evenodd" class="shp1" d="M321.44 159.01C320.07 155.64 320.83 152.19 322.47 149.75C324.61 146.53 332.12 146.79 332.12 146.79C327.46 146.79 319.69 141.87 322.08 133.88L320.93 134.32C320.93 134.32 306.53 141.52 317.84 164.66C317.84 164.66 322.54 177.86 324.1 180.44C324.1 180.44 328.75 179.41 331.34 178.89C331.34 178.89 322.54 166.98 328.24 163.36C328.24 163.36 323.32 163.65 321.44 159.01L321.44 159.01Z" />
			<path id="Layer" fill-rule="evenodd" class="shp1" d="M540.14 159.01C541.5 155.64 540.74 152.19 539.11 149.75C536.96 146.53 529.45 146.79 529.45 146.79C534.11 146.79 541.88 141.87 539.49 133.88L540.65 134.32C540.65 134.32 555.04 141.52 543.74 164.66C543.74 164.66 539.03 177.86 537.48 180.44C537.48 180.44 532.82 179.41 530.23 178.89C530.23 178.89 539.04 166.98 533.34 163.36C533.34 163.36 538.26 163.65 540.14 159.01L540.14 159.01Z" />
			<path id="Layer" fill-rule="evenodd" class="shp0" d="M406.96 140.73L404.22 141.87L405.67 144.46C405.9 144.86 411.2 154.09 420.4 154.09C428.38 154.09 430.81 152.39 430.81 146.79C430.81 141.72 424.49 137.94 418.85 137.94C413.72 137.93 407.23 140.61 406.96 140.73L406.96 140.73Z" />
			<path id="Layer" fill-rule="evenodd" class="shp1" d="M407.98 143.17C407.98 143.17 412.64 151.45 420.4 151.45C428.17 151.45 428.17 149.9 428.17 146.79C428.17 143.68 423.51 140.58 418.85 140.58C414.19 140.58 407.98 143.17 407.98 143.17L407.98 143.17Z" />
			<path id="Layer" fill-rule="evenodd" class="shp0" d="M428.94 146.79C428.94 152.39 431.38 154.09 439.35 154.09C448.56 154.09 453.85 144.86 454.08 144.46L455.53 141.87L452.8 140.73C452.52 140.61 446.03 137.93 440.9 137.93C435.26 137.93 428.94 141.72 428.94 146.79L428.94 146.79Z" />
			<path id="Layer" fill-rule="evenodd" class="shp1" d="M451.78 143.17C451.78 143.17 447.12 151.45 439.35 151.45C431.58 151.45 431.58 149.9 431.58 146.79C431.58 143.68 436.24 140.58 440.9 140.58C445.56 140.58 451.78 143.17 451.78 143.17L451.78 143.17Z" />
			<path id="Layer" fill-rule="evenodd" class="shp0" d="M418.02 161.29C418.02 167.86 423.36 173.2 429.93 173.2C436.49 173.2 441.84 167.86 441.84 161.29C441.84 154.72 436.49 149.38 429.93 149.38C423.36 149.38 418.02 154.73 418.02 161.29L418.02 161.29Z" />
			<path id="Layer" fill-rule="evenodd" class="shp1" d="M421.13 161.29C421.13 156.44 425.08 152.49 429.93 152.49C434.78 152.49 438.73 156.44 438.73 161.29C438.73 166.14 434.78 170.09 429.93 170.09C425.08 170.09 421.13 166.14 421.13 161.29L421.13 161.29Z" />
			<path id="Layer" fill-rule="evenodd" class="shp1" d="M420.96 94.21C416.99 92 412.91 88.74 411.08 84.14C411.08 84.14 407.7 94.38 412.49 104.02C414.07 99.83 417.09 96.35 420.96 94.21L420.96 94.21Z" />
			<path id="Layer" fill-rule="evenodd" class="shp1" d="M438.93 94.21C442.9 92 446.98 88.74 448.82 84.14C448.82 84.14 452.2 94.38 447.41 104.02C445.83 99.83 442.81 96.35 438.93 94.21L438.93 94.21Z" />
			<path id="Layer" fill-rule="evenodd" class="shp1" d="M326.81 152.13C328.03 151.59 329.06 151.75 330.3 151.94C333.13 152.36 335.52 152.78 337.53 150.38C339.2 148.38 340.73 145.96 343.25 144.98C345.62 144.07 348.19 145.79 348.92 148.08C350.49 153 347.09 158.05 341.83 158.05C339.38 158.05 337.48 157.15 334.97 157.89C332.67 158.57 330.71 159.88 328.24 158.86C326.33 158.07 324.71 156.44 325 154.43C325 154.43 326.09 152.45 326.81 152.13L326.81 152.13Z" />
			<path id="Layer" fill-rule="evenodd" class="shp1" d="M535.48 152.13C534.25 151.59 533.23 151.75 531.98 151.94C529.16 152.36 526.76 152.78 524.76 150.38C523.09 148.38 521.56 145.96 519.04 144.98C516.67 144.07 514.1 145.79 513.37 148.08C511.81 153 515.2 158.05 520.46 158.05C522.91 158.05 524.81 157.15 527.32 157.89C529.62 158.57 531.58 159.88 534.05 158.86C535.96 158.07 537.58 156.44 537.28 154.43C537.28 154.43 536.2 152.45 535.48 152.13L535.48 152.13Z" />
			<path id="Layer" fill-rule="evenodd" class="shp1" d="M300.11 150.71C300.11 150.71 305.43 157.7 302.1 162.03C302.1 162.03 291.45 157.37 286.79 159.36C286.79 159.36 285.45 157.36 286.79 155.03C286.79 155.03 293.45 150.38 300.11 150.71L300.11 150.71Z" />
			<path id="Layer" fill-rule="evenodd" class="shp1" d="M564.66 150.71C564.66 150.71 559.33 157.7 562.67 162.03C562.67 162.03 573.32 157.37 577.98 159.36C577.98 159.36 579.32 157.36 577.98 155.03C577.98 155.03 571.32 150.38 564.66 150.71L564.66 150.71Z" />
			<path id="Layer" fill-rule="evenodd" class="shp1" d="M287.27 161.27C287.27 161.27 296.84 161.27 303.35 166.32C303.35 166.32 307.14 158.65 305.78 156.75C305.78 156.75 310.48 158.65 311.66 154.04C311.66 154.04 319.33 177.89 321.14 181.14C321.14 181.14 314.64 182.4 313.55 182.76C313.55 182.76 306.06 177.8 305.61 177.52C305.61 177.52 306.51 172.01 304.79 169.94C303.07 167.86 295.4 161.89 289.34 166.59C289.34 166.59 287.45 164.52 287.27 161.27L287.27 161.27Z" />
			<path id="Layer" fill-rule="evenodd" class="shp1" d="M575.21 161.27C575.21 161.27 565.63 161.27 559.13 166.32C559.13 166.32 555.34 158.65 556.69 156.75C556.69 156.75 551.53 160.2 550.36 155.59C550.36 155.59 543.14 177.89 541.34 181.14C541.34 181.14 547.83 182.4 548.92 182.76C548.92 182.76 556.42 177.8 556.87 177.52C556.87 177.52 555.96 172.01 557.68 169.94C559.4 167.86 567.08 161.89 573.13 166.59C573.13 166.59 575.02 164.52 575.21 161.27L575.21 161.27Z" />
		</g>
	</g>
</svg>