<svg xmlns="http://www.w3.org/2000/svg" xmlns:xlink="http://www.w3.org/1999/xlink" width="388" zoomAndPan="magnify" viewBox="0 0 291 155.999997" height="208" preserveAspectRatio="xMidYMid meet" version="1.0"><defs><g/></defs><g fill="#000000" fill-opacity="0.4"><g transform="translate(54.009427, 74.173385)"><g/></g></g><g fill="#ff7828" fill-opacity="1"><g transform="translate(51.816287, 71.980245)"><g/></g></g><g fill="#000000" fill-opacity="0.4"><g transform="translate(66.563761, 74.173385)"><g><path d="M 8.75 -32.5 L 13.6875 -32.5 C 19.457031 -31.414062 22.34375 -28.941406 22.34375 -25.078125 L 22.34375 -22.609375 L 18.21875 -16.84375 L 18.640625 -16.84375 L 22.75 -20.546875 L 22.75 -19.71875 C 21.34375 -16.582031 19.554688 -14.523438 17.390625 -13.546875 L 14.921875 -12.71875 L 14.921875 -11.078125 C 15.523438 -11.078125 18.410156 -7.503906 23.578125 -0.359375 C 24.671875 0.0859375 25.769531 1.1875 26.875 2.9375 L 26.875 3.34375 L 24.8125 1.703125 L 24.8125 2.109375 C 26.1875 3.554688 26.875 4.65625 26.875 5.40625 L 26.453125 5.40625 L 24.40625 6.640625 L 23.984375 6.640625 L 23.171875 5.40625 L 22.75 5.8125 L 22.34375 5.8125 C 16.851562 1.320312 13.007812 -3.207031 10.8125 -7.78125 L 8.75 -11.890625 C 7.78125 -11.890625 7.226562 -10.242188 7.09375 -6.953125 C 7.269531 -4.203125 7.132812 -2.53125 6.6875 -1.9375 C 5.875 -1.269531 5.738281 -0.609375 6.28125 0.046875 L 6.28125 0.875 L 5.046875 0.875 C 4.492188 0.875 4.21875 0.320312 4.21875 -0.78125 L 3.796875 -0.78125 C 3.796875 0.320312 3.28125 0.734375 2.25 0.453125 L 0.4375 -1.96875 L 0.921875 -5.71875 L 0.921875 -7.359375 L 3.390625 -18.90625 L 3.796875 -18.90625 L 3.796875 -17.25 L 4.21875 -17.25 L 6.28125 -25.90625 C 5.726562 -25.90625 5.453125 -25.351562 5.453125 -24.25 L 5.046875 -24.25 L 5.046875 -25.078125 L 2.5625 -25.078125 L 2.5625 -25.484375 C 2.5625 -26.035156 3.390625 -26.453125 5.046875 -26.734375 L 5.046875 -27.140625 L 4.21875 -27.140625 L 1.75 -26.3125 L 1.328125 -26.3125 C 1.328125 -26.863281 1.878906 -27.140625 2.984375 -27.140625 L 2.984375 -27.546875 C 1.878906 -27.546875 1.328125 -27.957031 1.328125 -28.78125 Z M 9.15625 -17.671875 L 9.578125 -17.671875 C 13.890625 -19.734375 16.910156 -21.925781 18.640625 -24.25 L 18.640625 -25.078125 C 18.640625 -26.015625 16.988281 -26.976562 13.6875 -27.96875 L 11.21875 -27.140625 Z M 17.390625 -27.96875 C 17.941406 -26.71875 18.492188 -26.03125 19.046875 -25.90625 L 19.046875 -26.734375 Z M 19.875 -25.484375 L 19.453125 -23.4375 L 19.875 -23.4375 L 20.28125 -23.84375 L 20.28125 -25.484375 Z M 4.625 -24.25 L 5.046875 -24.25 L 5.046875 -23.015625 L 4.625 -21.375 L 4.21875 -21.375 L 4.21875 -22.609375 Z M 18.640625 -22.609375 L 16.578125 -19.71875 L 16.984375 -19.71875 L 19.046875 -22.203125 L 19.046875 -22.609375 Z M 22.75 -21.78125 L 23.578125 -21.78125 L 23.171875 -20.546875 L 22.75 -20.546875 Z M 3.796875 -20.546875 L 4.21875 -20.546875 L 4.21875 -18.90625 L 3.796875 -18.90625 Z M 2.984375 -15.1875 L 2.984375 -13.546875 L 3.390625 -13.546875 L 3.390625 -15.1875 Z M 15.34375 -2.828125 L 15.34375 -2.421875 L 16.984375 -0.78125 C 16.453125 -2.019531 15.90625 -2.703125 15.34375 -2.828125 Z M 17.390625 0.046875 L 17.390625 0.453125 L 19.046875 1.703125 L 19.046875 1.28125 Z M 17.390625 0.046875 "/></g></g></g><g fill="#000000" fill-opacity="0.4"><g transform="translate(89.9393, 74.173385)"><g><path d="M 22.796875 -32.28125 L 24.78125 -30.890625 C 24.207031 -28.453125 23.160156 -27.28125 21.640625 -27.375 L 10.875 -26.890625 L 10.828125 -26.078125 L 12.859375 -25.921875 L 15.359375 -26.171875 L 15.75 -25.703125 L 16.15625 -25.6875 L 19.0625 -25.921875 L 19.890625 -25.859375 L 19.875 -25.4375 L 10.296875 -24.453125 L 9.546875 -19.125 L 9.953125 -19.09375 L 21.15625 -19.984375 L 21.515625 -19.546875 L 21.5 -19.140625 L 20.671875 -19.21875 L 20.671875 -18.796875 L 23.5 -18.171875 L 23.484375 -17.765625 C 22.878906 -16.222656 18.9375 -14.976562 11.65625 -14.03125 L 7.515625 -13.890625 L 7.90625 -13.46875 L 5.90625 -8.234375 L 5.5 -8.234375 L 5.75 -11.953125 L 5.328125 -11.96875 L 4.53125 -6.25 C 12.75 -7.351562 18.554688 -7.789062 21.953125 -7.5625 L 23.96875 -7 L 23.9375 -6.171875 L 23.109375 -6.234375 L 23.484375 -5.796875 L 23.40625 -4.5625 C 22.613281 -3.519531 20.929688 -3.082031 18.359375 -3.25 L 18.34375 -2.828125 L 21.640625 -2.609375 L 21.5625 -1.796875 L 2.40625 1.015625 L 1.984375 1 C 0.660156 0.707031 0 0.273438 0 -0.296875 L 0 -0.359375 L 0.078125 -1.59375 L 1.21875 -6.0625 L 0.828125 -6.5 L 1.640625 -6.46875 L 1.5 -4.40625 L 1.921875 -4.359375 C 2.078125 -5.734375 2.398438 -6.394531 2.890625 -6.34375 L 2.5 -6.8125 L 2.78125 -10.90625 L 1.96875 -10.984375 L 1.40625 -8.9375 L 1.859375 -9.328125 L 2.28125 -9.3125 L 2.109375 -6.828125 L 1.703125 -6.875 L 1.765625 -8.09375 L 1.359375 -8.125 L 1.3125 -7.296875 L 0.890625 -7.3125 L 0.9375 -8.140625 L 2.25 -15.09375 L 1.84375 -15.125 L 2.78125 -17.109375 L 2.40625 -17.546875 L 2.421875 -17.953125 L 3.3125 -24.90625 L 3.703125 -24.46875 L 4.125 -24.453125 L 4.171875 -25.265625 L 3.90625 -27.359375 L 4.5625 -31.046875 L 4.625 -32.28125 L 5.046875 -32.234375 L 5.421875 -31.796875 L 5.859375 -32.171875 L 6.28125 -32.125 L 6.65625 -31.71875 L 7.09375 -32.109375 L 8.328125 -32.015625 Z M 2.1875 -14.265625 L 1.984375 -11.390625 L 2.40625 -11.359375 L 2.59375 -14.21875 Z M 15.78125 -13.734375 L 16.1875 -13.734375 L 16.140625 -13.328125 L 8.671875 -12.578125 L 8.28125 -13.03125 L 8.3125 -13.421875 L 12.046875 -13.59375 L 12.015625 -13.1875 Z M 15.78125 -13.734375 "/></g></g></g><g fill="#000000" fill-opacity="0.4"><g transform="translate(113.605582, 74.173385)"><g><path d="M 13.234375 -32.875 C 13.960938 -32.332031 16.269531 -32.0625 20.15625 -32.0625 L 20.140625 -31.640625 L 17.25 -31.640625 L 17.234375 -31.234375 C 20.671875 -31.234375 22.816406 -30.410156 23.671875 -28.765625 L 23.625 -27.9375 L 21.5625 -27.9375 L 21.546875 -27.53125 L 24.40625 -27.109375 L 24.375 -26.703125 L 21.90625 -26.703125 L 21.875 -26.296875 C 22.695312 -26.296875 23.09375 -26.019531 23.0625 -25.46875 C 18.164062 -25.46875 13.796875 -23.679688 9.953125 -20.109375 L 9.9375 -19.703125 C 15.25 -18.273438 19.457031 -15.113281 22.5625 -10.21875 L 22.53125 -9.8125 C 21.53125 -6.257812 18.726562 -2.960938 14.125 0.078125 L 11.609375 0.484375 L 11.578125 0.890625 L 12.40625 0.890625 C 12.375 1.640625 9.851562 2.46875 4.84375 3.375 L 4.890625 2.546875 L 6.953125 2.546875 L 7 2.125 C 5.238281 2.125 3.648438 1.164062 2.234375 -0.75 C 1.003906 -1.382812 0.390625 -2.585938 0.390625 -4.359375 C 0.390625 -4.523438 0.394531 -4.695312 0.40625 -4.875 L 1.703125 -5.6875 L 2.890625 -4.875 L 3.703125 -4.875 C 11.460938 -6.082031 15.460938 -8.550781 15.703125 -12.28125 C 12.453125 -13.925781 10.300781 -14.75 9.25 -14.75 L 9.234375 -14.34375 L 5.1875 -16 L 5.578125 -15.578125 L 5.546875 -14.75 C 2.117188 -17.269531 0.445312 -19.195312 0.53125 -20.53125 L 3.75 -26.296875 L 5.90625 -27.9375 L 5.859375 -27.109375 Z M 7.609375 -21.765625 L 7.578125 -21.34375 L 14.859375 -25.875 L 18.203125 -26.703125 L 18.25 -27.53125 L 17.421875 -27.53125 C 13.078125 -25.914062 9.804688 -23.992188 7.609375 -21.765625 Z M 9.890625 -4.875 L 10.296875 -4.875 L 11.171875 -5.6875 L 10.765625 -5.6875 Z M 17.296875 -4.875 L 15.53125 -2.8125 L 15.9375 -2.8125 L 17.71875 -4.875 Z M 12.140625 -1.578125 L 12.140625 -1.15625 L 12.546875 -1.15625 L 14.265625 -2.40625 Z M 7.46875 1.3125 L 7.4375 1.71875 L 9.09375 1.71875 L 11.171875 1.3125 L 11.171875 0.890625 L 10.765625 0.890625 Z M 7.46875 1.3125 "/></g></g></g><g fill="#640a34" fill-opacity="1"><g transform="translate(64.370621, 71.980245)"><g><path d="M 8.75 -32.5 L 13.6875 -32.5 C 19.457031 -31.414062 22.34375 -28.941406 22.34375 -25.078125 L 22.34375 -22.609375 L 18.21875 -16.84375 L 18.640625 -16.84375 L 22.75 -20.546875 L 22.75 -19.71875 C 21.34375 -16.582031 19.554688 -14.523438 17.390625 -13.546875 L 14.921875 -12.71875 L 14.921875 -11.078125 C 15.523438 -11.078125 18.410156 -7.503906 23.578125 -0.359375 C 24.671875 0.0859375 25.769531 1.1875 26.875 2.9375 L 26.875 3.34375 L 24.8125 1.703125 L 24.8125 2.109375 C 26.1875 3.554688 26.875 4.65625 26.875 5.40625 L 26.453125 5.40625 L 24.40625 6.640625 L 23.984375 6.640625 L 23.171875 5.40625 L 22.75 5.8125 L 22.34375 5.8125 C 16.851562 1.320312 13.007812 -3.207031 10.8125 -7.78125 L 8.75 -11.890625 C 7.78125 -11.890625 7.226562 -10.242188 7.09375 -6.953125 C 7.269531 -4.203125 7.132812 -2.53125 6.6875 -1.9375 C 5.875 -1.269531 5.738281 -0.609375 6.28125 0.046875 L 6.28125 0.875 L 5.046875 0.875 C 4.492188 0.875 4.21875 0.320312 4.21875 -0.78125 L 3.796875 -0.78125 C 3.796875 0.320312 3.28125 0.734375 2.25 0.453125 L 0.4375 -1.96875 L 0.921875 -5.71875 L 0.921875 -7.359375 L 3.390625 -18.90625 L 3.796875 -18.90625 L 3.796875 -17.25 L 4.21875 -17.25 L 6.28125 -25.90625 C 5.726562 -25.90625 5.453125 -25.351562 5.453125 -24.25 L 5.046875 -24.25 L 5.046875 -25.078125 L 2.5625 -25.078125 L 2.5625 -25.484375 C 2.5625 -26.035156 3.390625 -26.453125 5.046875 -26.734375 L 5.046875 -27.140625 L 4.21875 -27.140625 L 1.75 -26.3125 L 1.328125 -26.3125 C 1.328125 -26.863281 1.878906 -27.140625 2.984375 -27.140625 L 2.984375 -27.546875 C 1.878906 -27.546875 1.328125 -27.957031 1.328125 -28.78125 Z M 9.15625 -17.671875 L 9.578125 -17.671875 C 13.890625 -19.734375 16.910156 -21.925781 18.640625 -24.25 L 18.640625 -25.078125 C 18.640625 -26.015625 16.988281 -26.976562 13.6875 -27.96875 L 11.21875 -27.140625 Z M 17.390625 -27.96875 C 17.941406 -26.71875 18.492188 -26.03125 19.046875 -25.90625 L 19.046875 -26.734375 Z M 19.875 -25.484375 L 19.453125 -23.4375 L 19.875 -23.4375 L 20.28125 -23.84375 L 20.28125 -25.484375 Z M 4.625 -24.25 L 5.046875 -24.25 L 5.046875 -23.015625 L 4.625 -21.375 L 4.21875 -21.375 L 4.21875 -22.609375 Z M 18.640625 -22.609375 L 16.578125 -19.71875 L 16.984375 -19.71875 L 19.046875 -22.203125 L 19.046875 -22.609375 Z M 22.75 -21.78125 L 23.578125 -21.78125 L 23.171875 -20.546875 L 22.75 -20.546875 Z M 3.796875 -20.546875 L 4.21875 -20.546875 L 4.21875 -18.90625 L 3.796875 -18.90625 Z M 2.984375 -15.1875 L 2.984375 -13.546875 L 3.390625 -13.546875 L 3.390625 -15.1875 Z M 15.34375 -2.828125 L 15.34375 -2.421875 L 16.984375 -0.78125 C 16.453125 -2.019531 15.90625 -2.703125 15.34375 -2.828125 Z M 17.390625 0.046875 L 17.390625 0.453125 L 19.046875 1.703125 L 19.046875 1.28125 Z M 17.390625 0.046875 "/></g></g></g><g fill="#640a34" fill-opacity="1"><g transform="translate(87.74616, 71.980245)"><g><path d="M 22.796875 -32.28125 L 24.78125 -30.890625 C 24.207031 -28.453125 23.160156 -27.28125 21.640625 -27.375 L 10.875 -26.890625 L 10.828125 -26.078125 L 12.859375 -25.921875 L 15.359375 -26.171875 L 15.75 -25.703125 L 16.15625 -25.6875 L 19.0625 -25.921875 L 19.890625 -25.859375 L 19.875 -25.4375 L 10.296875 -24.453125 L 9.546875 -19.125 L 9.953125 -19.09375 L 21.15625 -19.984375 L 21.515625 -19.546875 L 21.5 -19.140625 L 20.671875 -19.21875 L 20.671875 -18.796875 L 23.5 -18.171875 L 23.484375 -17.765625 C 22.878906 -16.222656 18.9375 -14.976562 11.65625 -14.03125 L 7.515625 -13.890625 L 7.90625 -13.46875 L 5.90625 -8.234375 L 5.5 -8.234375 L 5.75 -11.953125 L 5.328125 -11.96875 L 4.53125 -6.25 C 12.75 -7.351562 18.554688 -7.789062 21.953125 -7.5625 L 23.96875 -7 L 23.9375 -6.171875 L 23.109375 -6.234375 L 23.484375 -5.796875 L 23.40625 -4.5625 C 22.613281 -3.519531 20.929688 -3.082031 18.359375 -3.25 L 18.34375 -2.828125 L 21.640625 -2.609375 L 21.5625 -1.796875 L 2.40625 1.015625 L 1.984375 1 C 0.660156 0.707031 0 0.273438 0 -0.296875 L 0 -0.359375 L 0.078125 -1.59375 L 1.21875 -6.0625 L 0.828125 -6.5 L 1.640625 -6.46875 L 1.5 -4.40625 L 1.921875 -4.359375 C 2.078125 -5.734375 2.398438 -6.394531 2.890625 -6.34375 L 2.5 -6.8125 L 2.78125 -10.90625 L 1.96875 -10.984375 L 1.40625 -8.9375 L 1.859375 -9.328125 L 2.28125 -9.3125 L 2.109375 -6.828125 L 1.703125 -6.875 L 1.765625 -8.09375 L 1.359375 -8.125 L 1.3125 -7.296875 L 0.890625 -7.3125 L 0.9375 -8.140625 L 2.25 -15.09375 L 1.84375 -15.125 L 2.78125 -17.109375 L 2.40625 -17.546875 L 2.421875 -17.953125 L 3.3125 -24.90625 L 3.703125 -24.46875 L 4.125 -24.453125 L 4.171875 -25.265625 L 3.90625 -27.359375 L 4.5625 -31.046875 L 4.625 -32.28125 L 5.046875 -32.234375 L 5.421875 -31.796875 L 5.859375 -32.171875 L 6.28125 -32.125 L 6.65625 -31.71875 L 7.09375 -32.109375 L 8.328125 -32.015625 Z M 2.1875 -14.265625 L 1.984375 -11.390625 L 2.40625 -11.359375 L 2.59375 -14.21875 Z M 15.78125 -13.734375 L 16.1875 -13.734375 L 16.140625 -13.328125 L 8.671875 -12.578125 L 8.28125 -13.03125 L 8.3125 -13.421875 L 12.046875 -13.59375 L 12.015625 -13.1875 Z M 15.78125 -13.734375 "/></g></g></g><g fill="#640a34" fill-opacity="1"><g transform="translate(111.412442, 71.980245)"><g><path d="M 13.234375 -32.875 C 13.960938 -32.332031 16.269531 -32.0625 20.15625 -32.0625 L 20.140625 -31.640625 L 17.25 -31.640625 L 17.234375 -31.234375 C 20.671875 -31.234375 22.816406 -30.410156 23.671875 -28.765625 L 23.625 -27.9375 L 21.5625 -27.9375 L 21.546875 -27.53125 L 24.40625 -27.109375 L 24.375 -26.703125 L 21.90625 -26.703125 L 21.875 -26.296875 C 22.695312 -26.296875 23.09375 -26.019531 23.0625 -25.46875 C 18.164062 -25.46875 13.796875 -23.679688 9.953125 -20.109375 L 9.9375 -19.703125 C 15.25 -18.273438 19.457031 -15.113281 22.5625 -10.21875 L 22.53125 -9.8125 C 21.53125 -6.257812 18.726562 -2.960938 14.125 0.078125 L 11.609375 0.484375 L 11.578125 0.890625 L 12.40625 0.890625 C 12.375 1.640625 9.851562 2.46875 4.84375 3.375 L 4.890625 2.546875 L 6.953125 2.546875 L 7 2.125 C 5.238281 2.125 3.648438 1.164062 2.234375 -0.75 C 1.003906 -1.382812 0.390625 -2.585938 0.390625 -4.359375 C 0.390625 -4.523438 0.394531 -4.695312 0.40625 -4.875 L 1.703125 -5.6875 L 2.890625 -4.875 L 3.703125 -4.875 C 11.460938 -6.082031 15.460938 -8.550781 15.703125 -12.28125 C 12.453125 -13.925781 10.300781 -14.75 9.25 -14.75 L 9.234375 -14.34375 L 5.1875 -16 L 5.578125 -15.578125 L 5.546875 -14.75 C 2.117188 -17.269531 0.445312 -19.195312 0.53125 -20.53125 L 3.75 -26.296875 L 5.90625 -27.9375 L 5.859375 -27.109375 Z M 7.609375 -21.765625 L 7.578125 -21.34375 L 14.859375 -25.875 L 18.203125 -26.703125 L 18.25 -27.53125 L 17.421875 -27.53125 C 13.078125 -25.914062 9.804688 -23.992188 7.609375 -21.765625 Z M 9.890625 -4.875 L 10.296875 -4.875 L 11.171875 -5.6875 L 10.765625 -5.6875 Z M 17.296875 -4.875 L 15.53125 -2.8125 L 15.9375 -2.8125 L 17.71875 -4.875 Z M 12.140625 -1.578125 L 12.140625 -1.15625 L 12.546875 -1.15625 L 14.265625 -2.40625 Z M 7.46875 1.3125 L 7.4375 1.71875 L 9.09375 1.71875 L 11.171875 1.3125 L 11.171875 0.890625 L 10.765625 0.890625 Z M 7.46875 1.3125 "/></g></g></g><g fill="#000000" fill-opacity="0.4"><g transform="translate(136.26056, 74.173385)"><g/></g></g><g fill="#ff7828" fill-opacity="1"><g transform="translate(134.06742, 71.980245)"><g/></g></g><g fill="#000000" fill-opacity="0.4"><g transform="translate(148.814893, 74.173385)"><g><path d="M 8.390625 -32.078125 L 11.265625 -29.609375 C 11.265625 -30.429688 11.539062 -30.84375 12.09375 -30.84375 L 12.5 -30.84375 L 18.265625 -16.015625 L 18.265625 -15.1875 L 17.859375 -15.1875 L 17.03125 -17.671875 L 16.625 -17.671875 L 16.625 -16.84375 L 19.5 -9.84375 L 19.921875 -9.84375 C 21.015625 -16.976562 22.597656 -24.429688 24.671875 -32.203125 L 25.90625 -31.375 L 27.140625 -31.796875 L 29.609375 -30.5625 L 29.609375 -30.140625 C 28.785156 -30.140625 28.375 -29.59375 28.375 -28.5 L 28.78125 -28.5 L 29.203125 -28.078125 L 29.609375 -28.078125 L 30.015625 -30.140625 L 30.84375 -30.140625 L 30.84375 -29.734375 L 30.4375 -29.3125 L 30.84375 -28.90625 L 30.84375 -28.5 C 28.78125 -22.144531 26.921875 -13.039062 25.265625 -1.1875 L 24.453125 -1.1875 L 25.265625 -7.78125 C 24.722656 -7.78125 23.898438 -5.171875 22.796875 0.046875 C 21.785156 0.867188 20.828125 1.28125 19.921875 1.28125 L 19.921875 2.109375 L 19.5 2.109375 C 19.5 1.554688 18.953125 1.28125 17.859375 1.28125 L 17.859375 -1.59375 C 17.859375 -2.84375 15.113281 -9.710938 9.625 -22.203125 L 9.203125 -22.203125 C 8.109375 -17.304688 7.148438 -10.710938 6.328125 -2.421875 L 5.90625 -2.828125 C 4.257812 -2.347656 3.4375 -1.664062 3.4375 -0.78125 L 2.609375 -0.78125 C 2.066406 -1.8125 1.796875 -3.59375 1.796875 -6.125 L 1.375 -6.125 L 1.375 -2.421875 L 0.5625 -2.421875 L 0.140625 -4.484375 C 0.140625 -11.941406 1.789062 -21.003906 5.09375 -31.671875 Z M 2.609375 -21.78125 L 2.609375 -21.375 L 3.03125 -20.953125 L 2.609375 -20.546875 L 2.609375 -19.71875 L 3.03125 -19.71875 L 3.4375 -21.375 L 3.03125 -21.78125 Z M 18.265625 -15.1875 C 18.984375 -15.1875 19.535156 -14.085938 19.921875 -11.890625 L 19.921875 -11.484375 L 19.5 -11.484375 Z M 18.265625 -15.1875 "/></g></g></g><g fill="#000000" fill-opacity="0.4"><g transform="translate(178.65945, 74.173385)"><g><path d="M 18.46875 -32.390625 C 21.695312 -32.390625 24.71875 -31.429688 27.53125 -29.515625 L 27.109375 -29.09375 L 27.109375 -28.6875 L 28.765625 -26.21875 L 27.9375 -26.21875 L 27.53125 -26.625 L 27.109375 -26.625 L 28.34375 -17.5625 L 28.765625 -17.5625 C 28.765625 -18.9375 29.039062 -19.625 29.59375 -19.625 L 29.59375 -17.984375 C 29.59375 -16.429688 28.21875 -12.859375 25.46875 -7.265625 L 25.875 -7.265625 C 23.9375 -4.597656 21.054688 -2.128906 17.234375 0.140625 L 15.171875 0.5625 L 14.75 0.5625 C 8.226562 0.5625 4.113281 -2.046875 2.40625 -7.265625 L 0.75 -9.734375 L 1.15625 -10.15625 L 0.75 -13.03125 L 0.75 -13.859375 C 0.75 -16.140625 2.945312 -20.125 7.34375 -25.8125 L 7.34375 -25.390625 C 5.320312 -22.679688 3.675781 -19.660156 2.40625 -16.328125 L 2.40625 -15.921875 L 2.8125 -15.921875 C 3.8125 -19.941406 7.519531 -25.019531 13.9375 -31.15625 L 11.046875 -29.515625 L 10.640625 -29.515625 C 10.640625 -30.773438 13.25 -31.734375 18.46875 -32.390625 Z M 16.40625 -25.390625 L 16 -25.8125 L 16 -25.390625 L 16.40625 -24.984375 L 13.515625 -22.515625 C 11.242188 -22.515625 9.050781 -18.671875 6.9375 -10.984375 C 6.9375 -8.785156 8.171875 -6.859375 10.640625 -5.203125 L 11.046875 -5.203125 C 14.054688 -5.203125 17.488281 -8.363281 21.34375 -14.6875 C 22.71875 -17.6875 23.40625 -19.882812 23.40625 -21.28125 L 23.40625 -24.5625 C 23.40625 -25.320312 22.03125 -25.875 19.28125 -26.21875 L 18.875 -26.21875 L 18.46875 -25.8125 L 18.046875 -25.8125 L 18.046875 -26.21875 Z M 28.34375 -24.15625 L 29.171875 -24.15625 L 29.171875 -22.09375 L 28.34375 -22.09375 Z M 7.34375 -19.625 L 6.109375 -17.15625 L 6.515625 -17.15625 L 7.75 -19.625 Z M 23.40625 -17.15625 L 21.765625 -13.03125 L 23 -13.03125 L 24.234375 -15.921875 L 23.8125 -17.15625 Z M 26.296875 -15.515625 L 25.875 -14.265625 L 25.875 -13.453125 L 26.296875 -13.453125 L 26.703125 -15.09375 L 26.703125 -15.515625 Z M 1.984375 -13.859375 L 1.984375 -10.5625 L 2.40625 -10.5625 L 2.40625 -13.859375 Z M 21.34375 -12.625 L 19.703125 -10.5625 L 20.109375 -10.5625 L 21.765625 -12.625 Z M 8.171875 -3.5625 L 8.171875 -3.15625 L 10.21875 -1.921875 L 10.21875 -2.328125 Z M 8.171875 -3.5625 "/></g></g></g><g fill="#000000" fill-opacity="0.4"><g transform="translate(207.704461, 74.173385)"><g><path d="M 8.390625 -32.078125 L 11.265625 -29.609375 C 11.265625 -30.429688 11.539062 -30.84375 12.09375 -30.84375 L 12.5 -30.84375 L 18.265625 -16.015625 L 18.265625 -15.1875 L 17.859375 -15.1875 L 17.03125 -17.671875 L 16.625 -17.671875 L 16.625 -16.84375 L 19.5 -9.84375 L 19.921875 -9.84375 C 21.015625 -16.976562 22.597656 -24.429688 24.671875 -32.203125 L 25.90625 -31.375 L 27.140625 -31.796875 L 29.609375 -30.5625 L 29.609375 -30.140625 C 28.785156 -30.140625 28.375 -29.59375 28.375 -28.5 L 28.78125 -28.5 L 29.203125 -28.078125 L 29.609375 -28.078125 L 30.015625 -30.140625 L 30.84375 -30.140625 L 30.84375 -29.734375 L 30.4375 -29.3125 L 30.84375 -28.90625 L 30.84375 -28.5 C 28.78125 -22.144531 26.921875 -13.039062 25.265625 -1.1875 L 24.453125 -1.1875 L 25.265625 -7.78125 C 24.722656 -7.78125 23.898438 -5.171875 22.796875 0.046875 C 21.785156 0.867188 20.828125 1.28125 19.921875 1.28125 L 19.921875 2.109375 L 19.5 2.109375 C 19.5 1.554688 18.953125 1.28125 17.859375 1.28125 L 17.859375 -1.59375 C 17.859375 -2.84375 15.113281 -9.710938 9.625 -22.203125 L 9.203125 -22.203125 C 8.109375 -17.304688 7.148438 -10.710938 6.328125 -2.421875 L 5.90625 -2.828125 C 4.257812 -2.347656 3.4375 -1.664062 3.4375 -0.78125 L 2.609375 -0.78125 C 2.066406 -1.8125 1.796875 -3.59375 1.796875 -6.125 L 1.375 -6.125 L 1.375 -2.421875 L 0.5625 -2.421875 L 0.140625 -4.484375 C 0.140625 -11.941406 1.789062 -21.003906 5.09375 -31.671875 Z M 2.609375 -21.78125 L 2.609375 -21.375 L 3.03125 -20.953125 L 2.609375 -20.546875 L 2.609375 -19.71875 L 3.03125 -19.71875 L 3.4375 -21.375 L 3.03125 -21.78125 Z M 18.265625 -15.1875 C 18.984375 -15.1875 19.535156 -14.085938 19.921875 -11.890625 L 19.921875 -11.484375 L 19.5 -11.484375 Z M 18.265625 -15.1875 "/></g></g></g><g fill="#fadf00" fill-opacity="1"><g transform="translate(146.621753, 71.980245)"><g><path d="M 8.390625 -32.078125 L 11.265625 -29.609375 C 11.265625 -30.429688 11.539062 -30.84375 12.09375 -30.84375 L 12.5 -30.84375 L 18.265625 -16.015625 L 18.265625 -15.1875 L 17.859375 -15.1875 L 17.03125 -17.671875 L 16.625 -17.671875 L 16.625 -16.84375 L 19.5 -9.84375 L 19.921875 -9.84375 C 21.015625 -16.976562 22.597656 -24.429688 24.671875 -32.203125 L 25.90625 -31.375 L 27.140625 -31.796875 L 29.609375 -30.5625 L 29.609375 -30.140625 C 28.785156 -30.140625 28.375 -29.59375 28.375 -28.5 L 28.78125 -28.5 L 29.203125 -28.078125 L 29.609375 -28.078125 L 30.015625 -30.140625 L 30.84375 -30.140625 L 30.84375 -29.734375 L 30.4375 -29.3125 L 30.84375 -28.90625 L 30.84375 -28.5 C 28.78125 -22.144531 26.921875 -13.039062 25.265625 -1.1875 L 24.453125 -1.1875 L 25.265625 -7.78125 C 24.722656 -7.78125 23.898438 -5.171875 22.796875 0.046875 C 21.785156 0.867188 20.828125 1.28125 19.921875 1.28125 L 19.921875 2.109375 L 19.5 2.109375 C 19.5 1.554688 18.953125 1.28125 17.859375 1.28125 L 17.859375 -1.59375 C 17.859375 -2.84375 15.113281 -9.710938 9.625 -22.203125 L 9.203125 -22.203125 C 8.109375 -17.304688 7.148438 -10.710938 6.328125 -2.421875 L 5.90625 -2.828125 C 4.257812 -2.347656 3.4375 -1.664062 3.4375 -0.78125 L 2.609375 -0.78125 C 2.066406 -1.8125 1.796875 -3.59375 1.796875 -6.125 L 1.375 -6.125 L 1.375 -2.421875 L 0.5625 -2.421875 L 0.140625 -4.484375 C 0.140625 -11.941406 1.789062 -21.003906 5.09375 -31.671875 Z M 2.609375 -21.78125 L 2.609375 -21.375 L 3.03125 -20.953125 L 2.609375 -20.546875 L 2.609375 -19.71875 L 3.03125 -19.71875 L 3.4375 -21.375 L 3.03125 -21.78125 Z M 18.265625 -15.1875 C 18.984375 -15.1875 19.535156 -14.085938 19.921875 -11.890625 L 19.921875 -11.484375 L 19.5 -11.484375 Z M 18.265625 -15.1875 "/></g></g></g><g fill="#fadf00" fill-opacity="1"><g transform="translate(176.46631, 71.980245)"><g><path d="M 18.46875 -32.390625 C 21.695312 -32.390625 24.71875 -31.429688 27.53125 -29.515625 L 27.109375 -29.09375 L 27.109375 -28.6875 L 28.765625 -26.21875 L 27.9375 -26.21875 L 27.53125 -26.625 L 27.109375 -26.625 L 28.34375 -17.5625 L 28.765625 -17.5625 C 28.765625 -18.9375 29.039062 -19.625 29.59375 -19.625 L 29.59375 -17.984375 C 29.59375 -16.429688 28.21875 -12.859375 25.46875 -7.265625 L 25.875 -7.265625 C 23.9375 -4.597656 21.054688 -2.128906 17.234375 0.140625 L 15.171875 0.5625 L 14.75 0.5625 C 8.226562 0.5625 4.113281 -2.046875 2.40625 -7.265625 L 0.75 -9.734375 L 1.15625 -10.15625 L 0.75 -13.03125 L 0.75 -13.859375 C 0.75 -16.140625 2.945312 -20.125 7.34375 -25.8125 L 7.34375 -25.390625 C 5.320312 -22.679688 3.675781 -19.660156 2.40625 -16.328125 L 2.40625 -15.921875 L 2.8125 -15.921875 C 3.8125 -19.941406 7.519531 -25.019531 13.9375 -31.15625 L 11.046875 -29.515625 L 10.640625 -29.515625 C 10.640625 -30.773438 13.25 -31.734375 18.46875 -32.390625 Z M 16.40625 -25.390625 L 16 -25.8125 L 16 -25.390625 L 16.40625 -24.984375 L 13.515625 -22.515625 C 11.242188 -22.515625 9.050781 -18.671875 6.9375 -10.984375 C 6.9375 -8.785156 8.171875 -6.859375 10.640625 -5.203125 L 11.046875 -5.203125 C 14.054688 -5.203125 17.488281 -8.363281 21.34375 -14.6875 C 22.71875 -17.6875 23.40625 -19.882812 23.40625 -21.28125 L 23.40625 -24.5625 C 23.40625 -25.320312 22.03125 -25.875 19.28125 -26.21875 L 18.875 -26.21875 L 18.46875 -25.8125 L 18.046875 -25.8125 L 18.046875 -26.21875 Z M 28.34375 -24.15625 L 29.171875 -24.15625 L 29.171875 -22.09375 L 28.34375 -22.09375 Z M 7.34375 -19.625 L 6.109375 -17.15625 L 6.515625 -17.15625 L 7.75 -19.625 Z M 23.40625 -17.15625 L 21.765625 -13.03125 L 23 -13.03125 L 24.234375 -15.921875 L 23.8125 -17.15625 Z M 26.296875 -15.515625 L 25.875 -14.265625 L 25.875 -13.453125 L 26.296875 -13.453125 L 26.703125 -15.09375 L 26.703125 -15.515625 Z M 1.984375 -13.859375 L 1.984375 -10.5625 L 2.40625 -10.5625 L 2.40625 -13.859375 Z M 21.34375 -12.625 L 19.703125 -10.5625 L 20.109375 -10.5625 L 21.765625 -12.625 Z M 8.171875 -3.5625 L 8.171875 -3.15625 L 10.21875 -1.921875 L 10.21875 -2.328125 Z M 8.171875 -3.5625 "/></g></g></g><g fill="#fadf00" fill-opacity="1"><g transform="translate(205.511321, 71.980245)"><g><path d="M 8.390625 -32.078125 L 11.265625 -29.609375 C 11.265625 -30.429688 11.539062 -30.84375 12.09375 -30.84375 L 12.5 -30.84375 L 18.265625 -16.015625 L 18.265625 -15.1875 L 17.859375 -15.1875 L 17.03125 -17.671875 L 16.625 -17.671875 L 16.625 -16.84375 L 19.5 -9.84375 L 19.921875 -9.84375 C 21.015625 -16.976562 22.597656 -24.429688 24.671875 -32.203125 L 25.90625 -31.375 L 27.140625 -31.796875 L 29.609375 -30.5625 L 29.609375 -30.140625 C 28.785156 -30.140625 28.375 -29.59375 28.375 -28.5 L 28.78125 -28.5 L 29.203125 -28.078125 L 29.609375 -28.078125 L 30.015625 -30.140625 L 30.84375 -30.140625 L 30.84375 -29.734375 L 30.4375 -29.3125 L 30.84375 -28.90625 L 30.84375 -28.5 C 28.78125 -22.144531 26.921875 -13.039062 25.265625 -1.1875 L 24.453125 -1.1875 L 25.265625 -7.78125 C 24.722656 -7.78125 23.898438 -5.171875 22.796875 0.046875 C 21.785156 0.867188 20.828125 1.28125 19.921875 1.28125 L 19.921875 2.109375 L 19.5 2.109375 C 19.5 1.554688 18.953125 1.28125 17.859375 1.28125 L 17.859375 -1.59375 C 17.859375 -2.84375 15.113281 -9.710938 9.625 -22.203125 L 9.203125 -22.203125 C 8.109375 -17.304688 7.148438 -10.710938 6.328125 -2.421875 L 5.90625 -2.828125 C 4.257812 -2.347656 3.4375 -1.664062 3.4375 -0.78125 L 2.609375 -0.78125 C 2.066406 -1.8125 1.796875 -3.59375 1.796875 -6.125 L 1.375 -6.125 L 1.375 -2.421875 L 0.5625 -2.421875 L 0.140625 -4.484375 C 0.140625 -11.941406 1.789062 -21.003906 5.09375 -31.671875 Z M 2.609375 -21.78125 L 2.609375 -21.375 L 3.03125 -20.953125 L 2.609375 -20.546875 L 2.609375 -19.71875 L 3.03125 -19.71875 L 3.4375 -21.375 L 3.03125 -21.78125 Z M 18.265625 -15.1875 C 18.984375 -15.1875 19.535156 -14.085938 19.921875 -11.890625 L 19.921875 -11.484375 L 19.5 -11.484375 Z M 18.265625 -15.1875 "/></g></g></g><g fill="#000000" fill-opacity="0.4"><g transform="translate(82.428793, 131.194357)"><g><path d="M -0.296875 -32.34375 C 3.003906 -32.34375 4.65625 -31.242188 4.65625 -29.046875 L 5.0625 -29.046875 L 5.0625 -30.28125 L 5.890625 -30.28125 C 6.984375 -27.070312 7.941406 -22.679688 8.765625 -17.109375 L 8.359375 -17.109375 L 8.765625 -16.6875 L 8.765625 -12.984375 L 9.59375 -12.984375 L 9.1875 -12.578125 L 9.1875 -10.515625 L 9.59375 -10.515625 C 10.675781 -13.242188 12.875 -16.953125 16.1875 -21.640625 L 16.59375 -21.21875 L 17.421875 -22.46875 L 17.015625 -22.46875 L 16.1875 -21.640625 L 16.1875 -22.046875 L 20.71875 -27 L 21.546875 -27 L 23.1875 -25.34375 L 21.125 -22.875 L 22.359375 -22.875 C 22.359375 -23.726562 23.1875 -24.6875 24.84375 -25.75 L 24.84375 -24.515625 C 23.738281 -24.390625 23.1875 -23.976562 23.1875 -23.28125 L 24.015625 -23.28125 C 24.015625 -24.101562 24.425781 -24.515625 25.25 -24.515625 L 25.25 -23.28125 C 23.84375 -22.457031 21.78125 -19.988281 19.0625 -15.875 L 10.421875 -0.21875 L 9.59375 -0.21875 L 9.1875 -0.625 C 8.363281 -0.625 7.953125 -0.078125 7.953125 1.015625 L 7.125 1.015625 C 5.195312 1.015625 4.234375 0.0546875 4.234375 -1.859375 L 4.65625 -3.109375 L 3.828125 -2.28125 L 3.828125 -1.046875 L 4.234375 -0.625 L 4.234375 -0.21875 L 3.828125 0.1875 L 3 0.1875 L 2.59375 -1.859375 L 3 -3.109375 L 2.59375 -3.109375 L 3 -3.515625 L 3 -5.984375 C 2.664062 -21.085938 1.707031 -28.640625 0.125 -28.640625 L 0.53125 -29.875 Z M 19.484375 -27.40625 L 19.484375 -27 L 17.828125 -25.34375 L 17.421875 -25.34375 C 18.066406 -26.539062 18.753906 -27.226562 19.484375 -27.40625 Z M 16.59375 -24.515625 L 16.59375 -24.109375 L 12.890625 -19.171875 L 12.890625 -19.578125 C 13.515625 -21.128906 14.75 -22.773438 16.59375 -24.515625 Z M 19.890625 -22.046875 L 18.65625 -19.984375 L 19.0625 -19.984375 L 20.3125 -21.640625 L 20.3125 -22.046875 Z M 3.421875 -19.984375 L 3.421875 -17.9375 L 3.828125 -17.9375 L 3.828125 -19.984375 Z M 11.65625 -17.9375 L 12.0625 -17.9375 L 12.0625 -16.6875 L 11.65625 -16.28125 L 11.25 -16.28125 L 11.25 -16.6875 Z M 3.828125 -16.6875 L 3.828125 -12.15625 L 4.234375 -12.15625 L 4.234375 -16.6875 Z M 11.25 -16.28125 L 11.25 -15.875 L 10 -14.21875 L 10 -14.640625 Z M 12.0625 -8.046875 L 12.0625 -7.625 L 13.296875 -8.875 L 13.296875 -9.28125 Z M 10 -4.75 L 10.421875 -4.34375 L 10.828125 -4.34375 L 11.65625 -6.8125 C 11.09375 -6.675781 10.539062 -5.988281 10 -4.75 Z M 10 -4.75 "/></g></g></g><g fill="#000000" fill-opacity="0.4"><g transform="translate(106.410051, 131.194357)"><g><path d="M 22.796875 -32.28125 L 24.78125 -30.890625 C 24.207031 -28.453125 23.160156 -27.28125 21.640625 -27.375 L 10.875 -26.890625 L 10.828125 -26.078125 L 12.859375 -25.921875 L 15.359375 -26.171875 L 15.75 -25.703125 L 16.15625 -25.6875 L 19.0625 -25.921875 L 19.890625 -25.859375 L 19.875 -25.4375 L 10.296875 -24.453125 L 9.546875 -19.125 L 9.953125 -19.09375 L 21.15625 -19.984375 L 21.515625 -19.546875 L 21.5 -19.140625 L 20.671875 -19.21875 L 20.671875 -18.796875 L 23.5 -18.171875 L 23.484375 -17.765625 C 22.878906 -16.222656 18.9375 -14.976562 11.65625 -14.03125 L 7.515625 -13.890625 L 7.90625 -13.46875 L 5.90625 -8.234375 L 5.5 -8.234375 L 5.75 -11.953125 L 5.328125 -11.96875 L 4.53125 -6.25 C 12.75 -7.351562 18.554688 -7.789062 21.953125 -7.5625 L 23.96875 -7 L 23.9375 -6.171875 L 23.109375 -6.234375 L 23.484375 -5.796875 L 23.40625 -4.5625 C 22.613281 -3.519531 20.929688 -3.082031 18.359375 -3.25 L 18.34375 -2.828125 L 21.640625 -2.609375 L 21.5625 -1.796875 L 2.40625 1.015625 L 1.984375 1 C 0.660156 0.707031 0 0.273438 0 -0.296875 L 0 -0.359375 L 0.078125 -1.59375 L 1.21875 -6.0625 L 0.828125 -6.5 L 1.640625 -6.46875 L 1.5 -4.40625 L 1.921875 -4.359375 C 2.078125 -5.734375 2.398438 -6.394531 2.890625 -6.34375 L 2.5 -6.8125 L 2.78125 -10.90625 L 1.96875 -10.984375 L 1.40625 -8.9375 L 1.859375 -9.328125 L 2.28125 -9.3125 L 2.109375 -6.828125 L 1.703125 -6.875 L 1.765625 -8.09375 L 1.359375 -8.125 L 1.3125 -7.296875 L 0.890625 -7.3125 L 0.9375 -8.140625 L 2.25 -15.09375 L 1.84375 -15.125 L 2.78125 -17.109375 L 2.40625 -17.546875 L 2.421875 -17.953125 L 3.3125 -24.90625 L 3.703125 -24.46875 L 4.125 -24.453125 L 4.171875 -25.265625 L 3.90625 -27.359375 L 4.5625 -31.046875 L 4.625 -32.28125 L 5.046875 -32.234375 L 5.421875 -31.796875 L 5.859375 -32.171875 L 6.28125 -32.125 L 6.65625 -31.71875 L 7.09375 -32.109375 L 8.328125 -32.015625 Z M 2.1875 -14.265625 L 1.984375 -11.390625 L 2.40625 -11.359375 L 2.59375 -14.21875 Z M 15.78125 -13.734375 L 16.1875 -13.734375 L 16.140625 -13.328125 L 8.671875 -12.578125 L 8.28125 -13.03125 L 8.3125 -13.421875 L 12.046875 -13.59375 L 12.015625 -13.1875 Z M 15.78125 -13.734375 "/></g></g></g><g fill="#000000" fill-opacity="0.4"><g transform="translate(130.076332, 131.194357)"><g><path d="M 8.75 -32.5 L 13.6875 -32.5 C 19.457031 -31.414062 22.34375 -28.941406 22.34375 -25.078125 L 22.34375 -22.609375 L 18.21875 -16.84375 L 18.640625 -16.84375 L 22.75 -20.546875 L 22.75 -19.71875 C 21.34375 -16.582031 19.554688 -14.523438 17.390625 -13.546875 L 14.921875 -12.71875 L 14.921875 -11.078125 C 15.523438 -11.078125 18.410156 -7.503906 23.578125 -0.359375 C 24.671875 0.0859375 25.769531 1.1875 26.875 2.9375 L 26.875 3.34375 L 24.8125 1.703125 L 24.8125 2.109375 C 26.1875 3.554688 26.875 4.65625 26.875 5.40625 L 26.453125 5.40625 L 24.40625 6.640625 L 23.984375 6.640625 L 23.171875 5.40625 L 22.75 5.8125 L 22.34375 5.8125 C 16.851562 1.320312 13.007812 -3.207031 10.8125 -7.78125 L 8.75 -11.890625 C 7.78125 -11.890625 7.226562 -10.242188 7.09375 -6.953125 C 7.269531 -4.203125 7.132812 -2.53125 6.6875 -1.9375 C 5.875 -1.269531 5.738281 -0.609375 6.28125 0.046875 L 6.28125 0.875 L 5.046875 0.875 C 4.492188 0.875 4.21875 0.320312 4.21875 -0.78125 L 3.796875 -0.78125 C 3.796875 0.320312 3.28125 0.734375 2.25 0.453125 L 0.4375 -1.96875 L 0.921875 -5.71875 L 0.921875 -7.359375 L 3.390625 -18.90625 L 3.796875 -18.90625 L 3.796875 -17.25 L 4.21875 -17.25 L 6.28125 -25.90625 C 5.726562 -25.90625 5.453125 -25.351562 5.453125 -24.25 L 5.046875 -24.25 L 5.046875 -25.078125 L 2.5625 -25.078125 L 2.5625 -25.484375 C 2.5625 -26.035156 3.390625 -26.453125 5.046875 -26.734375 L 5.046875 -27.140625 L 4.21875 -27.140625 L 1.75 -26.3125 L 1.328125 -26.3125 C 1.328125 -26.863281 1.878906 -27.140625 2.984375 -27.140625 L 2.984375 -27.546875 C 1.878906 -27.546875 1.328125 -27.957031 1.328125 -28.78125 Z M 9.15625 -17.671875 L 9.578125 -17.671875 C 13.890625 -19.734375 16.910156 -21.925781 18.640625 -24.25 L 18.640625 -25.078125 C 18.640625 -26.015625 16.988281 -26.976562 13.6875 -27.96875 L 11.21875 -27.140625 Z M 17.390625 -27.96875 C 17.941406 -26.71875 18.492188 -26.03125 19.046875 -25.90625 L 19.046875 -26.734375 Z M 19.875 -25.484375 L 19.453125 -23.4375 L 19.875 -23.4375 L 20.28125 -23.84375 L 20.28125 -25.484375 Z M 4.625 -24.25 L 5.046875 -24.25 L 5.046875 -23.015625 L 4.625 -21.375 L 4.21875 -21.375 L 4.21875 -22.609375 Z M 18.640625 -22.609375 L 16.578125 -19.71875 L 16.984375 -19.71875 L 19.046875 -22.203125 L 19.046875 -22.609375 Z M 22.75 -21.78125 L 23.578125 -21.78125 L 23.171875 -20.546875 L 22.75 -20.546875 Z M 3.796875 -20.546875 L 4.21875 -20.546875 L 4.21875 -18.90625 L 3.796875 -18.90625 Z M 2.984375 -15.1875 L 2.984375 -13.546875 L 3.390625 -13.546875 L 3.390625 -15.1875 Z M 15.34375 -2.828125 L 15.34375 -2.421875 L 16.984375 -0.78125 C 16.453125 -2.019531 15.90625 -2.703125 15.34375 -2.828125 Z M 17.390625 0.046875 L 17.390625 0.453125 L 19.046875 1.703125 L 19.046875 1.28125 Z M 17.390625 0.046875 "/></g></g></g><g fill="#000000" fill-opacity="0.4"><g transform="translate(153.451872, 131.194357)"><g><path d="M 16.765625 -33.515625 L 18.75 -32.875 L 18.703125 -32.46875 L 16.671875 -32.6875 Z M 8.890625 -33.5625 L 10.03125 -32.59375 L 13.8125 -33 L 14.171875 -32.546875 L 14.59375 -32.5 L 15.84375 -32.765625 C 20.46875 -32.273438 23.804688 -29.976562 25.859375 -25.875 C 26.398438 -25.8125 26.597656 -25.101562 26.453125 -23.75 L 26.140625 -20.859375 L 25.328125 -20.953125 L 25.375 -21.375 L 25.921875 -22.5625 L 25.5625 -23.015625 L 26 -23.390625 L 25.640625 -23.84375 L 24.84375 -23.921875 C 24.65625 -22.347656 23.085938 -20.722656 20.140625 -19.046875 L 20.09375 -18.640625 L 20.5 -18.609375 C 21.53125 -18.484375 22.976562 -19.007812 24.84375 -20.1875 L 24.765625 -19.359375 L 22.40625 -17.125 C 23.925781 -16.96875 26.148438 -14.523438 29.078125 -9.796875 C 28.753906 -6.785156 24.269531 -3.679688 15.625 -0.484375 C 11.925781 1.304688 9.078125 2.097656 7.078125 1.890625 L 6.34375 0.9375 L 5.9375 0.921875 C 5.851562 1.742188 5.265625 2.09375 4.171875 1.96875 C 4.066406 2.726562 3.789062 3.109375 3.34375 3.109375 L 3.203125 3.109375 C 2.648438 3.035156 2.488281 2.046875 2.71875 0.140625 L 2.296875 0.125 L 1.671875 2.109375 L 1.265625 2.0625 C 1.554688 -0.65625 1.285156 -2.050781 0.453125 -2.125 L 0.25 -3.828125 L 0.703125 -4.1875 L 0.3125 -4.65625 L 4.3125 -22.046875 L 3.953125 -22.484375 L 4.359375 -22.4375 L 4 -22.875 L 5.09375 -28.984375 L 5.109375 -29.390625 L 4.609375 -32.34375 L 5.015625 -32.328125 C 6.546875 -33.160156 7.75 -33.578125 8.625 -33.578125 C 8.71875 -33.578125 8.804688 -33.570312 8.890625 -33.5625 Z M 18.6875 -28.328125 L 18.640625 -27.921875 L 21.875 -27.140625 C 21.925781 -27.691406 21.546875 -28.003906 20.734375 -28.078125 Z M 10.765625 -24.234375 L 10.875 -21.328125 L 14.640625 -21.734375 L 14.5625 -20.90625 L 20.640625 -23.546875 L 20.59375 -23.140625 L 17.46875 -21.015625 C 20.875 -21.941406 22.707031 -23.53125 22.96875 -25.78125 L 22.140625 -25.875 C 21.984375 -24.519531 21.5 -23.882812 20.6875 -23.96875 L 20.765625 -24.78125 L 20.359375 -24.8125 L 20.90625 -26.03125 L 21.28125 -25.5625 L 21.6875 -25.484375 L 21.734375 -25.90625 C 20.734375 -26.851562 19.132812 -27.441406 16.9375 -27.671875 C 13.125 -28.109375 11.066406 -26.960938 10.765625 -24.234375 Z M 20.359375 -24.8125 L 20.328125 -24.40625 L 19.40625 -23.703125 L 19 -23.71875 Z M 18.46875 -15.078125 L 18.4375 -14.6875 L 22.46875 -13.8125 L 22.875 -13.78125 L 22.921875 -14.203125 L 21.328125 -14.78125 Z M 9.203125 -13.625 L 7.96875 -6.296875 L 8.328125 -5.84375 L 8.75 -5.796875 C 10.71875 -5.566406 15.179688 -7.285156 22.140625 -10.953125 L 23.0625 -11.671875 C 23.019531 -12.785156 21.988281 -13.453125 19.96875 -13.671875 L 16.6875 -14.046875 Z M 23.9375 -12.015625 L 22.953125 -10.4375 L 24.71875 -11.484375 L 24.359375 -11.953125 Z M 26.625 -10.0625 C 26.53125 -9.195312 23.816406 -7.144531 18.484375 -3.90625 C 24.554688 -6.320312 27.660156 -8.1875 27.796875 -9.5 L 27.375 -9.546875 L 27.046875 -10 Z M 26.625 -10.0625 "/></g></g></g><g fill="#000000" fill-opacity="0.4"><g transform="translate(181.285457, 131.194357)"><g><path d="M 16.40625 -34.171875 C 16.582031 -33.347656 17.679688 -32.9375 19.703125 -32.9375 L 23 -18.515625 L 25.875 -18.515625 L 25.875 -18.09375 L 23.40625 -17.6875 L 23.40625 -17.28125 C 24.226562 -17.28125 24.640625 -17.003906 24.640625 -16.453125 L 27.9375 -16.453125 L 27.9375 -16.046875 C 27.9375 -15.429688 26.5625 -14.878906 23.8125 -14.390625 L 24.640625 -11.921875 L 24.234375 -10.6875 L 24.640625 -8.21875 L 24.234375 -7.796875 L 24.640625 -7.796875 L 24.234375 -7.390625 L 24.640625 -2.453125 L 24.640625 0.03125 L 24.234375 -0.390625 L 23.8125 -0.390625 L 25.0625 5.796875 L 24.234375 5.796875 C 24.234375 4.972656 23.957031 4.5625 23.40625 4.5625 L 23.40625 4.96875 L 23.8125 6.203125 L 23.40625 6.203125 L 23 5.796875 L 22.578125 5.796875 C 22.578125 6.617188 22.304688 7.03125 21.765625 7.03125 L 19.703125 0.03125 L 19.28125 0.03125 L 19.28125 1.671875 L 18.875 1.671875 L 18.046875 -3.265625 L 19.28125 -2.453125 L 19.28125 -2.859375 C 19.0625 -5.328125 18.648438 -6.5625 18.046875 -6.5625 L 18.46875 -6.984375 L 18.46875 -8.21875 L 17.640625 -8.21875 L 17.640625 -6.984375 L 17.234375 -6.984375 L 17.234375 -8.625 L 17.640625 -9.03125 L 17.234375 -9.03125 L 16.8125 -8.625 L 16.8125 -10.28125 L 17.234375 -10.28125 L 17.640625 -9.859375 L 18.046875 -9.859375 L 17.640625 -10.28125 L 17.640625 -12.75 L 8.578125 -10.6875 L 8.578125 -9.859375 L 11.46875 -10.6875 L 13.109375 -10.28125 L 15.171875 -10.6875 L 15.171875 -9.859375 C 9.398438 -8.828125 6.515625 -7.457031 6.515625 -5.75 C 5.785156 -2.726562 4.960938 -0.800781 4.046875 0.03125 L 4.046875 0.84375 L 2.8125 0.84375 L 2.40625 0.4375 L 1.984375 0.4375 L 1.984375 0.84375 L 0.75 0.03125 L 1.578125 -2.453125 L 1.15625 -2.453125 C 0.332031 -2.453125 -0.078125 -1.351562 -0.078125 0.84375 L -0.890625 0.03125 L -0.484375 -2.453125 L -1.71875 -3.6875 L 5.28125 -20.578125 L 5.6875 -20.578125 C 5.6875 -19.753906 5.960938 -19.34375 6.515625 -19.34375 L 6.9375 -21.390625 L 6.515625 -20.984375 L 6.109375 -20.984375 L 6.109375 -22.625 L 6.515625 -24.6875 L 6.9375 -24.28125 L 7.34375 -24.28125 L 6.9375 -24.6875 L 6.9375 -25.109375 L 7.75 -26.75 L 8.171875 -26.75 L 8.578125 -26.34375 L 8.984375 -26.34375 L 8.984375 -26.75 C 8.984375 -27.300781 8.570312 -27.578125 7.75 -27.578125 L 9.8125 -33.34375 L 11.46875 -33.34375 L 11.046875 -32.9375 L 11.046875 -32.515625 C 12.953125 -33.617188 14.738281 -34.171875 16.40625 -34.171875 Z M 13.9375 -24.6875 L 10.640625 -16.046875 L 11.46875 -16.046875 C 14.207031 -16.046875 15.71875 -16.867188 16 -18.515625 L 14.34375 -24.6875 Z M 10.21875 -22.21875 L 9.40625 -19.34375 L 8.984375 -19.75 L 8.578125 -19.75 L 8.984375 -18.09375 L 9.40625 -18.09375 L 10.640625 -21.8125 L 10.640625 -22.21875 Z M 5.6875 -18.515625 L 5.28125 -18.09375 L 5.28125 -17.28125 L 5.6875 -17.28125 L 6.109375 -18.515625 Z M 8.171875 -16.859375 L 7.75 -15.21875 L 8.171875 -15.21875 L 8.578125 -15.625 L 8.578125 -16.859375 Z M 4.453125 -16.453125 L 4.046875 -14.8125 L 4.453125 -14.8125 L 5.28125 -16.453125 Z M 11.46875 -15.21875 L 11.46875 -14.8125 L 12.28125 -14.8125 C 14.757812 -15.082031 16 -15.492188 16 -16.046875 L 15.578125 -16.046875 Z M 17.234375 -6.15625 L 18.046875 -6.15625 L 18.046875 -3.6875 L 17.640625 -3.6875 Z M 23 -3.265625 L 23 -2.453125 L 23.40625 -0.796875 L 23.8125 -0.796875 L 23.8125 -1.625 L 23.40625 -3.265625 Z M 18.875 -2.03125 L 18.875 -1.21875 L 20.109375 -1.625 L 20.109375 -2.453125 Z M 18.875 -2.03125 "/></g></g></g><g fill="#4c8cc6" fill-opacity="1"><g transform="translate(80.235653, 129.001217)"><g><path d="M -0.296875 -32.34375 C 3.003906 -32.34375 4.65625 -31.242188 4.65625 -29.046875 L 5.0625 -29.046875 L 5.0625 -30.28125 L 5.890625 -30.28125 C 6.984375 -27.070312 7.941406 -22.679688 8.765625 -17.109375 L 8.359375 -17.109375 L 8.765625 -16.6875 L 8.765625 -12.984375 L 9.59375 -12.984375 L 9.1875 -12.578125 L 9.1875 -10.515625 L 9.59375 -10.515625 C 10.675781 -13.242188 12.875 -16.953125 16.1875 -21.640625 L 16.59375 -21.21875 L 17.421875 -22.46875 L 17.015625 -22.46875 L 16.1875 -21.640625 L 16.1875 -22.046875 L 20.71875 -27 L 21.546875 -27 L 23.1875 -25.34375 L 21.125 -22.875 L 22.359375 -22.875 C 22.359375 -23.726562 23.1875 -24.6875 24.84375 -25.75 L 24.84375 -24.515625 C 23.738281 -24.390625 23.1875 -23.976562 23.1875 -23.28125 L 24.015625 -23.28125 C 24.015625 -24.101562 24.425781 -24.515625 25.25 -24.515625 L 25.25 -23.28125 C 23.84375 -22.457031 21.78125 -19.988281 19.0625 -15.875 L 10.421875 -0.21875 L 9.59375 -0.21875 L 9.1875 -0.625 C 8.363281 -0.625 7.953125 -0.078125 7.953125 1.015625 L 7.125 1.015625 C 5.195312 1.015625 4.234375 0.0546875 4.234375 -1.859375 L 4.65625 -3.109375 L 3.828125 -2.28125 L 3.828125 -1.046875 L 4.234375 -0.625 L 4.234375 -0.21875 L 3.828125 0.1875 L 3 0.1875 L 2.59375 -1.859375 L 3 -3.109375 L 2.59375 -3.109375 L 3 -3.515625 L 3 -5.984375 C 2.664062 -21.085938 1.707031 -28.640625 0.125 -28.640625 L 0.53125 -29.875 Z M 19.484375 -27.40625 L 19.484375 -27 L 17.828125 -25.34375 L 17.421875 -25.34375 C 18.066406 -26.539062 18.753906 -27.226562 19.484375 -27.40625 Z M 16.59375 -24.515625 L 16.59375 -24.109375 L 12.890625 -19.171875 L 12.890625 -19.578125 C 13.515625 -21.128906 14.75 -22.773438 16.59375 -24.515625 Z M 19.890625 -22.046875 L 18.65625 -19.984375 L 19.0625 -19.984375 L 20.3125 -21.640625 L 20.3125 -22.046875 Z M 3.421875 -19.984375 L 3.421875 -17.9375 L 3.828125 -17.9375 L 3.828125 -19.984375 Z M 11.65625 -17.9375 L 12.0625 -17.9375 L 12.0625 -16.6875 L 11.65625 -16.28125 L 11.25 -16.28125 L 11.25 -16.6875 Z M 3.828125 -16.6875 L 3.828125 -12.15625 L 4.234375 -12.15625 L 4.234375 -16.6875 Z M 11.25 -16.28125 L 11.25 -15.875 L 10 -14.21875 L 10 -14.640625 Z M 12.0625 -8.046875 L 12.0625 -7.625 L 13.296875 -8.875 L 13.296875 -9.28125 Z M 10 -4.75 L 10.421875 -4.34375 L 10.828125 -4.34375 L 11.65625 -6.8125 C 11.09375 -6.675781 10.539062 -5.988281 10 -4.75 Z M 10 -4.75 "/></g></g></g><g fill="#4c8cc6" fill-opacity="1"><g transform="translate(104.21691, 129.001217)"><g><path d="M 22.796875 -32.28125 L 24.78125 -30.890625 C 24.207031 -28.453125 23.160156 -27.28125 21.640625 -27.375 L 10.875 -26.890625 L 10.828125 -26.078125 L 12.859375 -25.921875 L 15.359375 -26.171875 L 15.75 -25.703125 L 16.15625 -25.6875 L 19.0625 -25.921875 L 19.890625 -25.859375 L 19.875 -25.4375 L 10.296875 -24.453125 L 9.546875 -19.125 L 9.953125 -19.09375 L 21.15625 -19.984375 L 21.515625 -19.546875 L 21.5 -19.140625 L 20.671875 -19.21875 L 20.671875 -18.796875 L 23.5 -18.171875 L 23.484375 -17.765625 C 22.878906 -16.222656 18.9375 -14.976562 11.65625 -14.03125 L 7.515625 -13.890625 L 7.90625 -13.46875 L 5.90625 -8.234375 L 5.5 -8.234375 L 5.75 -11.953125 L 5.328125 -11.96875 L 4.53125 -6.25 C 12.75 -7.351562 18.554688 -7.789062 21.953125 -7.5625 L 23.96875 -7 L 23.9375 -6.171875 L 23.109375 -6.234375 L 23.484375 -5.796875 L 23.40625 -4.5625 C 22.613281 -3.519531 20.929688 -3.082031 18.359375 -3.25 L 18.34375 -2.828125 L 21.640625 -2.609375 L 21.5625 -1.796875 L 2.40625 1.015625 L 1.984375 1 C 0.660156 0.707031 0 0.273438 0 -0.296875 L 0 -0.359375 L 0.078125 -1.59375 L 1.21875 -6.0625 L 0.828125 -6.5 L 1.640625 -6.46875 L 1.5 -4.40625 L 1.921875 -4.359375 C 2.078125 -5.734375 2.398438 -6.394531 2.890625 -6.34375 L 2.5 -6.8125 L 2.78125 -10.90625 L 1.96875 -10.984375 L 1.40625 -8.9375 L 1.859375 -9.328125 L 2.28125 -9.3125 L 2.109375 -6.828125 L 1.703125 -6.875 L 1.765625 -8.09375 L 1.359375 -8.125 L 1.3125 -7.296875 L 0.890625 -7.3125 L 0.9375 -8.140625 L 2.25 -15.09375 L 1.84375 -15.125 L 2.78125 -17.109375 L 2.40625 -17.546875 L 2.421875 -17.953125 L 3.3125 -24.90625 L 3.703125 -24.46875 L 4.125 -24.453125 L 4.171875 -25.265625 L 3.90625 -27.359375 L 4.5625 -31.046875 L 4.625 -32.28125 L 5.046875 -32.234375 L 5.421875 -31.796875 L 5.859375 -32.171875 L 6.28125 -32.125 L 6.65625 -31.71875 L 7.09375 -32.109375 L 8.328125 -32.015625 Z M 2.1875 -14.265625 L 1.984375 -11.390625 L 2.40625 -11.359375 L 2.59375 -14.21875 Z M 15.78125 -13.734375 L 16.1875 -13.734375 L 16.140625 -13.328125 L 8.671875 -12.578125 L 8.28125 -13.03125 L 8.3125 -13.421875 L 12.046875 -13.59375 L 12.015625 -13.1875 Z M 15.78125 -13.734375 "/></g></g></g><g fill="#4c8cc6" fill-opacity="1"><g transform="translate(127.883192, 129.001217)"><g><path d="M 8.75 -32.5 L 13.6875 -32.5 C 19.457031 -31.414062 22.34375 -28.941406 22.34375 -25.078125 L 22.34375 -22.609375 L 18.21875 -16.84375 L 18.640625 -16.84375 L 22.75 -20.546875 L 22.75 -19.71875 C 21.34375 -16.582031 19.554688 -14.523438 17.390625 -13.546875 L 14.921875 -12.71875 L 14.921875 -11.078125 C 15.523438 -11.078125 18.410156 -7.503906 23.578125 -0.359375 C 24.671875 0.0859375 25.769531 1.1875 26.875 2.9375 L 26.875 3.34375 L 24.8125 1.703125 L 24.8125 2.109375 C 26.1875 3.554688 26.875 4.65625 26.875 5.40625 L 26.453125 5.40625 L 24.40625 6.640625 L 23.984375 6.640625 L 23.171875 5.40625 L 22.75 5.8125 L 22.34375 5.8125 C 16.851562 1.320312 13.007812 -3.207031 10.8125 -7.78125 L 8.75 -11.890625 C 7.78125 -11.890625 7.226562 -10.242188 7.09375 -6.953125 C 7.269531 -4.203125 7.132812 -2.53125 6.6875 -1.9375 C 5.875 -1.269531 5.738281 -0.609375 6.28125 0.046875 L 6.28125 0.875 L 5.046875 0.875 C 4.492188 0.875 4.21875 0.320312 4.21875 -0.78125 L 3.796875 -0.78125 C 3.796875 0.320312 3.28125 0.734375 2.25 0.453125 L 0.4375 -1.96875 L 0.921875 -5.71875 L 0.921875 -7.359375 L 3.390625 -18.90625 L 3.796875 -18.90625 L 3.796875 -17.25 L 4.21875 -17.25 L 6.28125 -25.90625 C 5.726562 -25.90625 5.453125 -25.351562 5.453125 -24.25 L 5.046875 -24.25 L 5.046875 -25.078125 L 2.5625 -25.078125 L 2.5625 -25.484375 C 2.5625 -26.035156 3.390625 -26.453125 5.046875 -26.734375 L 5.046875 -27.140625 L 4.21875 -27.140625 L 1.75 -26.3125 L 1.328125 -26.3125 C 1.328125 -26.863281 1.878906 -27.140625 2.984375 -27.140625 L 2.984375 -27.546875 C 1.878906 -27.546875 1.328125 -27.957031 1.328125 -28.78125 Z M 9.15625 -17.671875 L 9.578125 -17.671875 C 13.890625 -19.734375 16.910156 -21.925781 18.640625 -24.25 L 18.640625 -25.078125 C 18.640625 -26.015625 16.988281 -26.976562 13.6875 -27.96875 L 11.21875 -27.140625 Z M 17.390625 -27.96875 C 17.941406 -26.71875 18.492188 -26.03125 19.046875 -25.90625 L 19.046875 -26.734375 Z M 19.875 -25.484375 L 19.453125 -23.4375 L 19.875 -23.4375 L 20.28125 -23.84375 L 20.28125 -25.484375 Z M 4.625 -24.25 L 5.046875 -24.25 L 5.046875 -23.015625 L 4.625 -21.375 L 4.21875 -21.375 L 4.21875 -22.609375 Z M 18.640625 -22.609375 L 16.578125 -19.71875 L 16.984375 -19.71875 L 19.046875 -22.203125 L 19.046875 -22.609375 Z M 22.75 -21.78125 L 23.578125 -21.78125 L 23.171875 -20.546875 L 22.75 -20.546875 Z M 3.796875 -20.546875 L 4.21875 -20.546875 L 4.21875 -18.90625 L 3.796875 -18.90625 Z M 2.984375 -15.1875 L 2.984375 -13.546875 L 3.390625 -13.546875 L 3.390625 -15.1875 Z M 15.34375 -2.828125 L 15.34375 -2.421875 L 16.984375 -0.78125 C 16.453125 -2.019531 15.90625 -2.703125 15.34375 -2.828125 Z M 17.390625 0.046875 L 17.390625 0.453125 L 19.046875 1.703125 L 19.046875 1.28125 Z M 17.390625 0.046875 "/></g></g></g><g fill="#4c8cc6" fill-opacity="1"><g transform="translate(151.258731, 129.001217)"><g><path d="M 16.765625 -33.515625 L 18.75 -32.875 L 18.703125 -32.46875 L 16.671875 -32.6875 Z M 8.890625 -33.5625 L 10.03125 -32.59375 L 13.8125 -33 L 14.171875 -32.546875 L 14.59375 -32.5 L 15.84375 -32.765625 C 20.46875 -32.273438 23.804688 -29.976562 25.859375 -25.875 C 26.398438 -25.8125 26.597656 -25.101562 26.453125 -23.75 L 26.140625 -20.859375 L 25.328125 -20.953125 L 25.375 -21.375 L 25.921875 -22.5625 L 25.5625 -23.015625 L 26 -23.390625 L 25.640625 -23.84375 L 24.84375 -23.921875 C 24.65625 -22.347656 23.085938 -20.722656 20.140625 -19.046875 L 20.09375 -18.640625 L 20.5 -18.609375 C 21.53125 -18.484375 22.976562 -19.007812 24.84375 -20.1875 L 24.765625 -19.359375 L 22.40625 -17.125 C 23.925781 -16.96875 26.148438 -14.523438 29.078125 -9.796875 C 28.753906 -6.785156 24.269531 -3.679688 15.625 -0.484375 C 11.925781 1.304688 9.078125 2.097656 7.078125 1.890625 L 6.34375 0.9375 L 5.9375 0.921875 C 5.851562 1.742188 5.265625 2.09375 4.171875 1.96875 C 4.066406 2.726562 3.789062 3.109375 3.34375 3.109375 L 3.203125 3.109375 C 2.648438 3.035156 2.488281 2.046875 2.71875 0.140625 L 2.296875 0.125 L 1.671875 2.109375 L 1.265625 2.0625 C 1.554688 -0.65625 1.285156 -2.050781 0.453125 -2.125 L 0.25 -3.828125 L 0.703125 -4.1875 L 0.3125 -4.65625 L 4.3125 -22.046875 L 3.953125 -22.484375 L 4.359375 -22.4375 L 4 -22.875 L 5.09375 -28.984375 L 5.109375 -29.390625 L 4.609375 -32.34375 L 5.015625 -32.328125 C 6.546875 -33.160156 7.75 -33.578125 8.625 -33.578125 C 8.71875 -33.578125 8.804688 -33.570312 8.890625 -33.5625 Z M 18.6875 -28.328125 L 18.640625 -27.921875 L 21.875 -27.140625 C 21.925781 -27.691406 21.546875 -28.003906 20.734375 -28.078125 Z M 10.765625 -24.234375 L 10.875 -21.328125 L 14.640625 -21.734375 L 14.5625 -20.90625 L 20.640625 -23.546875 L 20.59375 -23.140625 L 17.46875 -21.015625 C 20.875 -21.941406 22.707031 -23.53125 22.96875 -25.78125 L 22.140625 -25.875 C 21.984375 -24.519531 21.5 -23.882812 20.6875 -23.96875 L 20.765625 -24.78125 L 20.359375 -24.8125 L 20.90625 -26.03125 L 21.28125 -25.5625 L 21.6875 -25.484375 L 21.734375 -25.90625 C 20.734375 -26.851562 19.132812 -27.441406 16.9375 -27.671875 C 13.125 -28.109375 11.066406 -26.960938 10.765625 -24.234375 Z M 20.359375 -24.8125 L 20.328125 -24.40625 L 19.40625 -23.703125 L 19 -23.71875 Z M 18.46875 -15.078125 L 18.4375 -14.6875 L 22.46875 -13.8125 L 22.875 -13.78125 L 22.921875 -14.203125 L 21.328125 -14.78125 Z M 9.203125 -13.625 L 7.96875 -6.296875 L 8.328125 -5.84375 L 8.75 -5.796875 C 10.71875 -5.566406 15.179688 -7.285156 22.140625 -10.953125 L 23.0625 -11.671875 C 23.019531 -12.785156 21.988281 -13.453125 19.96875 -13.671875 L 16.6875 -14.046875 Z M 23.9375 -12.015625 L 22.953125 -10.4375 L 24.71875 -11.484375 L 24.359375 -11.953125 Z M 26.625 -10.0625 C 26.53125 -9.195312 23.816406 -7.144531 18.484375 -3.90625 C 24.554688 -6.320312 27.660156 -8.1875 27.796875 -9.5 L 27.375 -9.546875 L 27.046875 -10 Z M 26.625 -10.0625 "/></g></g></g><g fill="#4c8cc6" fill-opacity="1"><g transform="translate(179.092317, 129.001217)"><g><path d="M 16.40625 -34.171875 C 16.582031 -33.347656 17.679688 -32.9375 19.703125 -32.9375 L 23 -18.515625 L 25.875 -18.515625 L 25.875 -18.09375 L 23.40625 -17.6875 L 23.40625 -17.28125 C 24.226562 -17.28125 24.640625 -17.003906 24.640625 -16.453125 L 27.9375 -16.453125 L 27.9375 -16.046875 C 27.9375 -15.429688 26.5625 -14.878906 23.8125 -14.390625 L 24.640625 -11.921875 L 24.234375 -10.6875 L 24.640625 -8.21875 L 24.234375 -7.796875 L 24.640625 -7.796875 L 24.234375 -7.390625 L 24.640625 -2.453125 L 24.640625 0.03125 L 24.234375 -0.390625 L 23.8125 -0.390625 L 25.0625 5.796875 L 24.234375 5.796875 C 24.234375 4.972656 23.957031 4.5625 23.40625 4.5625 L 23.40625 4.96875 L 23.8125 6.203125 L 23.40625 6.203125 L 23 5.796875 L 22.578125 5.796875 C 22.578125 6.617188 22.304688 7.03125 21.765625 7.03125 L 19.703125 0.03125 L 19.28125 0.03125 L 19.28125 1.671875 L 18.875 1.671875 L 18.046875 -3.265625 L 19.28125 -2.453125 L 19.28125 -2.859375 C 19.0625 -5.328125 18.648438 -6.5625 18.046875 -6.5625 L 18.46875 -6.984375 L 18.46875 -8.21875 L 17.640625 -8.21875 L 17.640625 -6.984375 L 17.234375 -6.984375 L 17.234375 -8.625 L 17.640625 -9.03125 L 17.234375 -9.03125 L 16.8125 -8.625 L 16.8125 -10.28125 L 17.234375 -10.28125 L 17.640625 -9.859375 L 18.046875 -9.859375 L 17.640625 -10.28125 L 17.640625 -12.75 L 8.578125 -10.6875 L 8.578125 -9.859375 L 11.46875 -10.6875 L 13.109375 -10.28125 L 15.171875 -10.6875 L 15.171875 -9.859375 C 9.398438 -8.828125 6.515625 -7.457031 6.515625 -5.75 C 5.785156 -2.726562 4.960938 -0.800781 4.046875 0.03125 L 4.046875 0.84375 L 2.8125 0.84375 L 2.40625 0.4375 L 1.984375 0.4375 L 1.984375 0.84375 L 0.75 0.03125 L 1.578125 -2.453125 L 1.15625 -2.453125 C 0.332031 -2.453125 -0.078125 -1.351562 -0.078125 0.84375 L -0.890625 0.03125 L -0.484375 -2.453125 L -1.71875 -3.6875 L 5.28125 -20.578125 L 5.6875 -20.578125 C 5.6875 -19.753906 5.960938 -19.34375 6.515625 -19.34375 L 6.9375 -21.390625 L 6.515625 -20.984375 L 6.109375 -20.984375 L 6.109375 -22.625 L 6.515625 -24.6875 L 6.9375 -24.28125 L 7.34375 -24.28125 L 6.9375 -24.6875 L 6.9375 -25.109375 L 7.75 -26.75 L 8.171875 -26.75 L 8.578125 -26.34375 L 8.984375 -26.34375 L 8.984375 -26.75 C 8.984375 -27.300781 8.570312 -27.578125 7.75 -27.578125 L 9.8125 -33.34375 L 11.46875 -33.34375 L 11.046875 -32.9375 L 11.046875 -32.515625 C 12.953125 -33.617188 14.738281 -34.171875 16.40625 -34.171875 Z M 13.9375 -24.6875 L 10.640625 -16.046875 L 11.46875 -16.046875 C 14.207031 -16.046875 15.71875 -16.867188 16 -18.515625 L 14.34375 -24.6875 Z M 10.21875 -22.21875 L 9.40625 -19.34375 L 8.984375 -19.75 L 8.578125 -19.75 L 8.984375 -18.09375 L 9.40625 -18.09375 L 10.640625 -21.8125 L 10.640625 -22.21875 Z M 5.6875 -18.515625 L 5.28125 -18.09375 L 5.28125 -17.28125 L 5.6875 -17.28125 L 6.109375 -18.515625 Z M 8.171875 -16.859375 L 7.75 -15.21875 L 8.171875 -15.21875 L 8.578125 -15.625 L 8.578125 -16.859375 Z M 4.453125 -16.453125 L 4.046875 -14.8125 L 4.453125 -14.8125 L 5.28125 -16.453125 Z M 11.46875 -15.21875 L 11.46875 -14.8125 L 12.28125 -14.8125 C 14.757812 -15.082031 16 -15.492188 16 -16.046875 L 15.578125 -16.046875 Z M 17.234375 -6.15625 L 18.046875 -6.15625 L 18.046875 -3.6875 L 17.640625 -3.6875 Z M 23 -3.265625 L 23 -2.453125 L 23.40625 -0.796875 L 23.8125 -0.796875 L 23.8125 -1.625 L 23.40625 -3.265625 Z M 18.875 -2.03125 L 18.875 -1.21875 L 20.109375 -1.625 L 20.109375 -2.453125 Z M 18.875 -2.03125 "/></g></g></g></svg>