<svg xmlns="http://www.w3.org/2000/svg" xmlns:xlink="http://www.w3.org/1999/xlink" width="1000" zoomAndPan="magnify" viewBox="0 0 750 412.499988" height="550" preserveAspectRatio="xMidYMid meet" version="1.0"><defs><g/><clipPath id="80ad931c0d"><path d="M 100.128906 172.089844 L 372.378906 172.089844 L 372.378906 215.734375 L 100.128906 215.734375 Z M 100.128906 172.089844 " clip-rule="nonzero"/></clipPath><clipPath id="6f73e6a85c"><path d="M 102.214844 201.910156 C 104.863281 199.527344 107.3125 197.660156 111.457031 196.207031 C 120.898438 192.839844 145.425781 189.054688 162.683594 186.460938 C 179.804688 183.921875 196.246094 182.574219 214.523438 180.8125 C 234.972656 178.789062 258.003906 176.609375 279.609375 175.160156 C 301.011719 173.8125 328.730469 172.722656 343.609375 172.359375 C 351.628906 172.152344 358.355469 172.050781 362.023438 172.308594 C 363.585938 172.464844 364.332031 172.515625 365.351562 172.828125 C 366.4375 173.136719 367.457031 173.605469 368.339844 174.121094 C 369.226562 174.691406 370.039062 175.367188 370.652344 176.09375 C 371.261719 176.871094 371.671875 177.699219 371.941406 178.53125 C 372.214844 179.359375 372.28125 180.292969 372.214844 181.121094 C 372.078125 182.003906 371.808594 182.882812 371.332031 183.664062 C 370.921875 184.492188 370.242188 185.269531 369.496094 185.890625 C 368.679688 186.515625 367.796875 187.085938 366.777344 187.5 C 365.761719 187.914062 364.671875 188.226562 363.519531 188.378906 C 362.429688 188.535156 361.207031 188.535156 360.121094 188.433594 C 358.964844 188.328125 357.8125 188.015625 356.859375 187.65625 C 355.839844 187.238281 354.820312 186.722656 354.074219 186.097656 C 353.257812 185.476562 352.578125 184.75 352.105469 183.972656 C 351.558594 183.195312 351.21875 182.3125 351.085938 181.433594 C 350.949219 180.601562 351.015625 179.671875 351.21875 178.839844 C 351.425781 177.960938 351.898438 177.128906 352.445312 176.351562 C 352.988281 175.625 353.800781 174.902344 354.617188 174.332031 C 355.433594 173.761719 356.519531 173.292969 357.539062 172.929688 C 358.558594 172.621094 359.714844 172.410156 360.867188 172.359375 C 362.023438 172.257812 363.179688 172.359375 364.265625 172.566406 C 365.351562 172.773438 366.507812 173.136719 367.457031 173.65625 C 368.410156 174.121094 369.292969 174.746094 369.972656 175.417969 C 370.652344 176.09375 371.261719 176.871094 371.601562 177.699219 C 372.011719 178.53125 372.214844 179.410156 372.28125 180.292969 C 372.28125 181.121094 372.078125 182.054688 371.738281 182.882812 C 371.398438 183.714844 370.855469 184.492188 370.175781 185.21875 C 369.566406 185.890625 368.679688 186.566406 367.730469 187.03125 C 366.847656 187.550781 365.761719 187.914062 364.671875 188.171875 C 363.585938 188.433594 362.839844 188.433594 361.277344 188.535156 C 357.402344 188.742188 349.996094 188.433594 341.574219 188.691406 C 326.421875 189.105469 295.507812 190.558594 277.980469 191.75 C 265.546875 192.578125 258.617188 193.253906 246.113281 194.496094 C 228.109375 196.207031 195.632812 199.628906 180.28125 201.550781 C 172.058594 202.585938 168.253906 203.050781 161.257812 204.246094 C 152.421875 205.75 138.769531 209.273438 131.566406 210.15625 C 127.558594 210.671875 124.226562 209.84375 122.121094 210.671875 C 120.558594 211.296875 120.152344 212.800781 119.132812 213.523438 C 118.386719 214.042969 117.839844 214.355469 116.824219 214.664062 C 115.464844 215.132812 113.289062 215.652344 111.523438 215.652344 C 109.757812 215.652344 107.785156 215.289062 106.222656 214.664062 C 104.660156 213.992188 103.097656 212.953125 102.148438 211.867188 C 101.128906 210.726562 100.449219 209.273438 100.246094 207.925781 C 100.039062 206.578125 100.449219 204.867188 100.925781 203.777344 C 101.265625 203 102.214844 201.910156 102.214844 201.910156 " clip-rule="nonzero"/></clipPath><clipPath id="17ada5e85f"><path d="M 594.011719 358.730469 L 619 358.730469 L 619 382.761719 L 594.011719 382.761719 Z M 594.011719 358.730469 " clip-rule="nonzero"/></clipPath><clipPath id="32b3d5a88c"><path d="M 594.019531 373.523438 C 594.433594 371.242188 594.589844 371.1875 594.589844 371.035156 C 594.589844 370.773438 594.226562 370.566406 594.226562 370.152344 C 594.226562 368.855469 595.886719 364.449219 597.597656 362.6875 C 599.152344 361.078125 601.691406 360.25 603.871094 359.628906 C 606.152344 359.003906 609.210938 358.488281 610.972656 358.953125 C 612.164062 359.316406 612.839844 360.5625 613.667969 360.925781 C 614.289062 361.234375 615.070312 361.027344 615.484375 361.390625 C 615.847656 361.703125 615.792969 362.273438 616.210938 362.738281 C 616.726562 363.359375 618.386719 363.929688 618.699219 364.554688 C 618.90625 364.917969 618.699219 365.589844 618.75 365.640625 C 618.75 365.640625 618.800781 365.640625 618.800781 365.640625 C 618.851562 365.746094 618.75 366.058594 618.75 366.316406 C 618.75 366.730469 618.75 367.558594 618.800781 367.871094 C 618.851562 368.027344 618.957031 368.078125 618.957031 368.183594 C 618.957031 368.335938 618.851562 368.492188 618.851562 368.753906 C 618.800781 369.375 619.0625 371.035156 618.90625 371.605469 C 618.851562 371.863281 618.644531 371.863281 618.542969 372.070312 C 618.492188 372.277344 618.492188 372.589844 618.542969 372.796875 C 618.542969 373.003906 618.699219 373.109375 618.699219 373.316406 C 618.59375 373.679688 617.816406 374.195312 617.609375 374.664062 C 617.453125 374.972656 617.453125 375.492188 617.402344 375.648438 C 617.351562 375.699219 617.296875 375.699219 617.296875 375.75 C 617.246094 375.804688 617.195312 376.113281 617.195312 376.113281 C 617.195312 376.113281 617.195312 376.167969 617.195312 376.21875 C 617.195312 376.21875 617.195312 376.167969 617.195312 376.167969 C 617.195312 376.167969 617.140625 376.269531 617.089844 376.375 C 617.039062 376.476562 616.882812 376.839844 616.78125 377.046875 C 616.675781 377.253906 616.570312 377.515625 616.519531 377.671875 C 616.46875 377.722656 616.417969 377.824219 616.417969 377.878906 C 616.363281 377.929688 616.363281 377.929688 616.363281 377.929688 C 616.363281 377.929688 616.3125 377.980469 616.3125 377.980469 C 616.3125 378.03125 616.105469 378.242188 616 378.394531 C 615.949219 378.5 615.949219 378.601562 615.898438 378.65625 C 615.792969 378.757812 615.691406 378.863281 615.535156 378.964844 C 615.378906 379.171875 615.015625 379.640625 615.015625 379.640625 C 615.015625 379.640625 614.808594 379.796875 614.757812 379.847656 C 614.652344 379.898438 614.652344 379.953125 614.601562 380.054688 C 614.5 380.105469 614.238281 380.261719 614.1875 380.261719 C 614.136719 380.3125 613.929688 380.523438 613.824219 380.625 C 613.773438 380.675781 613.722656 380.675781 613.617188 380.675781 C 613.566406 380.730469 613.359375 380.882812 613.359375 380.882812 C 613.359375 380.9375 612.789062 381.144531 612.582031 381.246094 C 612.425781 381.351562 612.320312 381.453125 612.164062 381.507812 C 612.0625 381.507812 611.957031 381.507812 611.855469 381.558594 C 611.75 381.609375 611.441406 381.714844 611.441406 381.765625 C 611.441406 381.765625 611.386719 381.765625 611.335938 381.765625 C 611.335938 381.765625 611.335938 381.765625 611.285156 381.765625 C 611.230469 381.816406 611.230469 381.765625 611.179688 381.816406 C 611.128906 381.816406 611.023438 381.972656 610.972656 382.023438 C 610.871094 382.023438 610.816406 381.871094 610.714844 381.871094 C 610.609375 381.871094 610.558594 381.921875 610.402344 381.921875 C 610.195312 381.972656 609.730469 382.023438 609.574219 382.078125 C 609.519531 382.078125 609.46875 382.078125 609.417969 382.078125 C 609.417969 382.078125 609.367188 382.078125 609.367188 382.078125 C 609.367188 382.078125 609.105469 382.023438 608.949219 382.023438 C 608.796875 382.023438 608.691406 382.078125 608.484375 382.078125 C 608.226562 382.078125 607.863281 381.921875 607.550781 381.871094 C 607.238281 381.816406 606.773438 381.816406 606.617188 381.765625 C 606.566406 381.765625 606.617188 381.765625 606.566406 381.765625 C 606.410156 381.765625 605.890625 382.128906 605.476562 382.230469 C 604.90625 382.441406 604.078125 382.59375 603.402344 382.648438 C 602.730469 382.699219 602.003906 382.699219 601.328125 382.542969 C 600.605469 382.441406 599.929688 382.230469 599.308594 381.972656 C 598.632812 381.660156 598.011719 381.300781 597.492188 380.882812 C 596.921875 380.46875 596.40625 379.953125 595.9375 379.433594 C 595.523438 378.863281 595.160156 378.292969 594.847656 377.617188 C 594.539062 376.996094 594.332031 376.320312 594.175781 375.648438 C 594.070312 374.972656 594.019531 373.523438 594.019531 373.523438 " clip-rule="nonzero"/></clipPath><clipPath id="ca5179f688"><path d="M 599.460938 208.539062 L 642.238281 208.539062 L 642.238281 345.566406 L 599.460938 345.566406 Z M 599.460938 208.539062 " clip-rule="nonzero"/></clipPath><clipPath id="aa72875015"><path d="M 613.488281 344.796875 C 611 345.558594 607.316406 345.769531 605.242188 344.378906 C 603.117188 342.917969 600.734375 339.511719 599.902344 336.449219 C 599.179688 333.53125 600.058594 330.472656 600.421875 326.578125 C 600.890625 320.945312 601.40625 314.617188 602.910156 305.992188 C 605.453125 290.835938 612.242188 258.222656 616.546875 244.246094 C 618.929688 236.527344 620.539062 228.113281 623.492188 227.140625 C 626.136719 226.234375 632.722656 234.230469 632.980469 235.691406 C 633.03125 236.039062 632.824219 236.386719 632.566406 236.527344 C 631.945312 236.875 629.765625 236.316406 628.574219 235.621094 C 627.332031 234.925781 626.035156 233.398438 625.308594 232.285156 C 624.789062 231.519531 624.53125 230.964844 624.21875 229.992188 C 623.804688 228.601562 623.339844 226.375 623.441406 224.566406 C 623.492188 222.828125 623.910156 220.882812 624.582031 219.351562 C 625.257812 217.820312 626.292969 216.359375 627.433594 215.386719 C 628.523438 214.484375 631.0625 213.230469 631.320312 213.71875 C 631.683594 214.554688 624.011719 225.539062 623.390625 224.984375 C 622.921875 224.636719 624.425781 218.167969 625.878906 215.527344 C 627.433594 212.746094 630.804688 209.546875 632.617188 208.78125 C 633.707031 208.363281 634.484375 208.710938 635.417969 208.992188 C 636.300781 209.199219 637.179688 209.6875 637.957031 210.3125 C 638.734375 210.9375 639.515625 211.773438 640.085938 212.675781 C 640.65625 213.648438 641.171875 214.691406 641.535156 215.875 C 641.847656 216.988281 642.105469 218.238281 642.15625 219.492188 C 642.210938 220.671875 642.105469 221.992188 641.847656 223.175781 C 641.640625 224.359375 641.222656 225.539062 640.707031 226.511719 C 640.1875 227.554688 639.566406 228.460938 638.839844 229.226562 C 638.113281 229.992188 637.234375 230.617188 636.402344 230.964844 C 635.523438 231.382812 634.589844 231.589844 633.65625 231.589844 C 632.773438 231.589844 631.789062 231.382812 630.960938 231.035156 C 630.078125 230.617188 629.25 230.058594 628.46875 229.296875 C 627.746094 228.601562 627.121094 227.625 626.605469 226.652344 C 626.085938 225.609375 625.671875 224.496094 625.410156 223.316406 C 625.152344 222.132812 625.050781 220.8125 625.101562 219.628906 C 625.152344 218.378906 625.359375 217.125 625.671875 216.011719 C 625.980469 214.832031 626.5 213.71875 627.070312 212.816406 C 627.640625 211.839844 628.417969 211.007812 629.195312 210.382812 C 629.921875 209.753906 630.855469 209.269531 631.738281 208.992188 C 632.617188 208.710938 633.601562 208.644531 634.484375 208.78125 C 635.367188 208.921875 636.300781 209.269531 637.128906 209.753906 C 637.957031 210.242188 638.789062 210.9375 639.460938 211.773438 C 640.136719 212.605469 640.707031 213.648438 641.121094 214.761719 C 641.585938 215.804688 641.898438 217.054688 642.054688 218.238281 C 642.15625 219.421875 642.210938 220.742188 642.054688 221.925781 C 641.898438 223.175781 641.585938 224.359375 641.171875 225.46875 C 640.757812 226.511719 640.1875 227.554688 639.515625 228.390625 C 638.890625 229.296875 638.0625 229.992188 637.234375 230.546875 C 636.402344 231.035156 634.691406 231.796875 634.589844 231.519531 C 634.433594 231.035156 640.34375 224.84375 640.445312 224.984375 C 640.601562 225.261719 634.953125 235.414062 632.566406 236.527344 C 631.167969 237.152344 629.765625 236.316406 628.574219 235.621094 C 627.332031 234.925781 626.035156 233.398438 625.308594 232.285156 C 624.789062 231.519531 624.53125 230.964844 624.21875 229.992188 C 623.804688 228.601562 623.441406 226.097656 623.441406 224.566406 C 623.390625 223.523438 623.492188 222.898438 623.753906 221.855469 C 624.167969 220.464844 624.894531 218.449219 625.828125 217.125 C 626.761719 215.875 628.261719 214.832031 629.300781 214.273438 C 630.027344 213.859375 631.269531 213.648438 631.320312 213.71875 C 631.320312 213.789062 627.539062 215.316406 627.539062 215.457031 C 627.589844 215.527344 632.410156 211.910156 634.382812 213.164062 C 637.234375 214.96875 640.914062 225.402344 640.808594 231.382812 C 640.757812 237.292969 635.675781 243.898438 633.914062 248.835938 C 632.722656 252.3125 632.203125 253.632812 631.0625 258.011719 C 628.417969 267.957031 621.9375 297.71875 620.175781 308.425781 C 619.347656 313.296875 619.65625 315.796875 618.929688 319.207031 C 618.207031 322.40625 617.6875 327.132812 615.871094 328.105469 C 613.746094 329.359375 606.175781 324.421875 606.230469 323.378906 C 606.230469 322.820312 608.25 322.265625 609.339844 322.125 C 610.636719 321.988281 612.242188 322.195312 613.539062 322.820312 C 614.785156 323.515625 616.132812 324.976562 616.960938 326.019531 C 617.53125 326.785156 617.84375 327.410156 618.152344 328.382812 C 618.621094 329.777344 619.136719 332 619.136719 333.808594 C 619.136719 335.617188 618.777344 337.632812 618.152344 339.300781 C 617.480469 340.902344 616.234375 342.5 615.355469 343.472656 C 614.730469 344.101562 613.488281 344.796875 613.488281 344.796875 " clip-rule="nonzero"/></clipPath></defs><g fill="#000000" fill-opacity="0.4"><g transform="translate(6.608145, 152.983121)"><g><path d="M 87.03125 -79.046875 L 81.40625 -50.046875 L 106.25 -50.046875 L 106.25 -37.890625 L 79.046875 -37.890625 L 71.625 0 L 58.75 0 L 66.171875 -37.890625 L 40.25 -37.890625 L 33.1875 0 L 20.484375 0 L 27.375 -37.890625 L 4.53125 -37.890625 L 4.53125 -50.046875 L 29.734375 -50.046875 L 35.53125 -79.046875 L 11.234375 -79.046875 L 11.234375 -91.015625 L 37.71875 -91.015625 L 44.96875 -129.453125 L 58.015625 -129.453125 L 50.765625 -91.015625 L 76.875 -91.015625 L 84.125 -129.453125 L 96.640625 -129.453125 L 89.390625 -91.015625 L 112.40625 -91.015625 L 112.40625 -79.046875 Z M 42.609375 -50.046875 L 68.53125 -50.046875 L 74.15625 -79.046875 L 48.234375 -79.046875 Z M 42.609375 -50.046875 "/></g></g></g><g fill="#000000" fill-opacity="0.4"><g transform="translate(119.192669, 152.983121)"><g><path d="M 31.953125 -118.71875 L 50.015625 -118.71875 C 71.085938 -114.769531 81.625 -105.738281 81.625 -91.625 L 81.625 -82.59375 L 66.578125 -61.53125 L 68.078125 -61.53125 L 83.125 -75.078125 L 83.125 -72.0625 C 77.988281 -60.613281 71.46875 -53.085938 63.5625 -49.484375 L 54.53125 -46.484375 L 54.53125 -40.453125 C 56.71875 -40.453125 67.253906 -27.410156 86.140625 -1.328125 C 90.148438 0.328125 94.164062 4.34375 98.1875 10.71875 L 98.1875 12.21875 L 90.65625 6.203125 L 90.65625 7.703125 C 95.675781 13.015625 98.1875 17.03125 98.1875 19.75 L 96.671875 19.75 L 89.15625 24.25 L 87.640625 24.25 L 84.640625 19.75 L 83.125 21.25 L 81.625 21.25 C 61.5625 4.84375 47.515625 -11.710938 39.484375 -28.421875 L 31.953125 -43.46875 C 28.410156 -43.46875 26.40625 -37.445312 25.9375 -25.40625 C 26.582031 -15.375 26.082031 -9.265625 24.4375 -7.078125 C 21.488281 -4.660156 20.984375 -2.242188 22.921875 0.171875 L 22.921875 3.1875 L 18.421875 3.1875 C 16.410156 3.1875 15.40625 1.179688 15.40625 -2.828125 L 13.90625 -2.828125 C 13.90625 1.179688 12.015625 2.6875 8.234375 1.6875 L 1.59375 -7.171875 L 3.359375 -20.890625 L 3.359375 -26.90625 L 12.390625 -69.046875 L 13.90625 -69.046875 L 13.90625 -63.03125 L 15.40625 -63.03125 L 22.921875 -94.640625 C 20.921875 -94.640625 19.921875 -92.632812 19.921875 -88.625 L 18.421875 -88.625 L 18.421875 -91.625 L 9.390625 -91.625 L 9.390625 -93.140625 C 9.390625 -95.140625 12.398438 -96.644531 18.421875 -97.65625 L 18.421875 -99.15625 L 15.40625 -99.15625 L 6.375 -96.140625 L 4.875 -96.140625 C 4.875 -98.148438 6.878906 -99.15625 10.890625 -99.15625 L 10.890625 -100.65625 C 6.878906 -100.65625 4.875 -102.160156 4.875 -105.171875 Z M 33.46875 -64.546875 L 34.96875 -64.546875 C 50.726562 -72.097656 61.765625 -80.125 68.078125 -88.625 L 68.078125 -91.625 C 68.078125 -95.050781 62.054688 -98.566406 50.015625 -102.171875 L 40.984375 -99.15625 Z M 63.5625 -102.171875 C 65.570312 -97.617188 67.578125 -95.109375 69.578125 -94.640625 L 69.578125 -97.65625 Z M 72.59375 -93.140625 L 71.09375 -85.609375 L 72.59375 -85.609375 L 74.09375 -87.109375 L 74.09375 -93.140625 Z M 16.90625 -88.625 L 18.421875 -88.625 L 18.421875 -84.109375 L 16.90625 -78.078125 L 15.40625 -78.078125 L 15.40625 -82.59375 Z M 68.078125 -82.59375 L 60.5625 -72.0625 L 62.0625 -72.0625 L 69.578125 -81.09375 L 69.578125 -82.59375 Z M 83.125 -79.59375 L 86.140625 -79.59375 L 84.640625 -75.078125 L 83.125 -75.078125 Z M 13.90625 -75.078125 L 15.40625 -75.078125 L 15.40625 -69.046875 L 13.90625 -69.046875 Z M 10.890625 -55.515625 L 10.890625 -49.484375 L 12.390625 -49.484375 L 12.390625 -55.515625 Z M 56.046875 -10.359375 L 56.046875 -8.859375 L 62.0625 -2.828125 C 60.113281 -7.378906 58.109375 -9.890625 56.046875 -10.359375 Z M 63.5625 0.171875 L 63.5625 1.6875 L 69.578125 6.203125 L 69.578125 4.6875 Z M 63.5625 0.171875 "/></g></g></g><g fill="#000000" fill-opacity="0.4"><g transform="translate(204.599632, 152.983121)"><g><path d="M 83.3125 -117.921875 L 90.5625 -112.875 C 88.4375 -103.96875 84.601562 -99.691406 79.0625 -100.046875 L 39.75 -98.265625 L 39.578125 -95.265625 L 47.015625 -94.734375 L 56.125 -95.609375 L 57.546875 -93.9375 L 59.046875 -93.84375 L 69.671875 -94.734375 L 72.6875 -94.46875 L 72.59375 -92.953125 L 37.625 -89.328125 L 34.875 -69.84375 L 36.390625 -69.765625 L 77.28125 -73.03125 L 78.609375 -71.4375 L 78.53125 -69.9375 L 75.515625 -70.203125 L 75.515625 -68.703125 L 85.875 -66.40625 L 85.78125 -64.890625 C 83.601562 -59.285156 69.203125 -54.742188 42.578125 -51.265625 L 27.4375 -50.734375 L 28.859375 -49.21875 L 21.609375 -30.09375 L 20.09375 -30.09375 L 20.984375 -43.640625 L 19.484375 -43.734375 L 16.5625 -22.84375 C 46.601562 -26.851562 67.816406 -28.445312 80.203125 -27.625 L 87.5625 -25.578125 L 87.46875 -22.578125 L 84.453125 -22.75 L 85.78125 -21.15625 L 85.515625 -16.640625 C 82.628906 -12.867188 76.492188 -11.273438 67.109375 -11.859375 L 67.015625 -10.359375 L 79.0625 -9.5625 L 78.796875 -6.546875 L 8.765625 3.71875 L 7.265625 3.625 C 2.421875 2.5625 0 1 0 -1.0625 L 0 -1.328125 L 0.265625 -5.84375 L 4.421875 -22.140625 L 3.015625 -23.71875 L 6.015625 -23.640625 L 5.484375 -16.109375 L 7 -15.9375 C 7.582031 -20.945312 8.757812 -23.363281 10.53125 -23.1875 L 9.125 -24.875 L 10.1875 -39.84375 L 7.171875 -40.109375 L 5.140625 -32.671875 L 6.8125 -34.078125 L 8.328125 -34 L 7.703125 -24.96875 L 6.203125 -25.140625 L 6.46875 -29.5625 L 4.953125 -29.65625 L 4.78125 -26.640625 L 3.28125 -26.734375 L 3.453125 -29.75 L 8.234375 -55.15625 L 6.734375 -55.25 L 10.1875 -62.5 L 8.765625 -64.09375 L 8.859375 -65.609375 L 12.125 -91.015625 L 13.546875 -89.421875 L 15.046875 -89.328125 L 15.234375 -92.34375 L 14.25 -99.953125 L 16.640625 -113.40625 L 16.90625 -117.921875 L 18.421875 -117.75 L 19.828125 -116.15625 L 21.421875 -117.5625 L 22.921875 -117.390625 L 24.34375 -115.890625 L 25.9375 -117.296875 L 30.453125 -116.953125 Z M 7.96875 -52.140625 L 7.265625 -41.609375 L 8.765625 -41.515625 L 9.46875 -51.96875 Z M 57.640625 -50.203125 L 59.140625 -50.203125 L 58.96875 -48.6875 L 31.6875 -45.953125 L 30.28125 -47.625 L 30.359375 -49.046875 L 44 -49.671875 L 43.90625 -48.15625 Z M 57.640625 -50.203125 "/></g></g></g><g fill="#000000" fill-opacity="0.4"><g transform="translate(291.068865, 152.983121)"><g><path d="M 48.34375 -120.140625 C 51 -118.128906 59.4375 -117.125 73.65625 -117.125 L 73.5625 -115.625 L 63.03125 -115.625 L 62.953125 -114.109375 C 75.515625 -114.109375 83.363281 -111.101562 86.5 -105.09375 L 86.3125 -102.078125 L 78.796875 -102.078125 L 78.703125 -100.578125 L 89.15625 -99.0625 L 89.0625 -97.5625 L 80.03125 -97.5625 L 79.9375 -96.0625 C 82.945312 -96.0625 84.394531 -95.054688 84.28125 -93.046875 C 66.394531 -93.046875 50.429688 -86.523438 36.390625 -73.484375 L 36.296875 -71.96875 C 55.710938 -66.78125 71.085938 -55.242188 82.421875 -37.359375 L 82.328125 -35.859375 C 78.671875 -22.867188 68.429688 -10.828125 51.609375 0.265625 L 42.40625 1.765625 L 42.3125 3.28125 L 45.328125 3.28125 C 45.210938 5.988281 36.003906 9 17.703125 12.3125 L 17.890625 9.296875 L 25.40625 9.296875 L 25.578125 7.796875 C 19.148438 7.796875 13.335938 4.28125 8.140625 -2.75 C 3.660156 -5.050781 1.421875 -9.445312 1.421875 -15.9375 C 1.421875 -16.53125 1.445312 -17.148438 1.5 -17.796875 L 6.203125 -20.8125 L 10.53125 -17.796875 L 13.546875 -17.796875 C 41.878906 -22.222656 56.488281 -31.253906 57.375 -44.890625 C 45.507812 -50.910156 37.65625 -53.921875 33.8125 -53.921875 L 33.734375 -52.40625 L 18.953125 -58.4375 L 20.359375 -56.921875 L 20.28125 -53.921875 C 7.757812 -63.128906 1.648438 -70.148438 1.953125 -74.984375 L 13.71875 -96.0625 L 21.609375 -102.078125 L 21.421875 -99.0625 Z M 27.796875 -79.5 L 27.703125 -78 L 54.265625 -94.546875 L 66.484375 -97.5625 L 66.671875 -100.578125 L 63.65625 -100.578125 C 47.78125 -94.671875 35.828125 -87.644531 27.796875 -79.5 Z M 36.125 -17.796875 L 37.625 -17.796875 L 40.8125 -20.8125 L 39.3125 -20.8125 Z M 63.21875 -17.796875 L 56.75 -10.265625 L 58.25 -10.265625 L 64.71875 -17.796875 Z M 44.359375 -5.75 L 44.359375 -4.25 L 45.859375 -4.25 L 52.140625 -8.765625 Z M 27.265625 4.78125 L 27.171875 6.28125 L 33.203125 6.28125 L 40.8125 4.78125 L 40.8125 3.28125 L 39.3125 3.28125 Z M 27.265625 4.78125 "/></g></g></g><g fill="#000000" fill-opacity="0.4"><g transform="translate(373.820131, 152.983121)"><g/></g></g><g fill="#000000" fill-opacity="0.4"><g transform="translate(419.657031, 152.983121)"><g><path d="M 30.625 -117.21875 L 41.171875 -108.1875 C 41.171875 -111.195312 42.171875 -112.703125 44.171875 -112.703125 L 45.6875 -112.703125 L 66.75 -58.515625 L 66.75 -55.515625 L 65.25 -55.515625 L 62.234375 -64.546875 L 60.734375 -64.546875 L 60.734375 -61.53125 L 71.265625 -35.9375 L 72.765625 -35.9375 C 76.785156 -62.03125 82.570312 -89.269531 90.125 -117.65625 L 94.640625 -114.640625 L 99.15625 -116.15625 L 108.1875 -111.640625 L 108.1875 -110.140625 C 105.175781 -110.140625 103.671875 -108.128906 103.671875 -104.109375 L 105.171875 -104.109375 L 106.6875 -102.609375 L 108.1875 -102.609375 L 109.6875 -110.140625 L 112.703125 -110.140625 L 112.703125 -108.625 L 111.203125 -107.125 L 112.703125 -105.625 L 112.703125 -104.109375 C 105.148438 -80.910156 98.363281 -47.65625 92.34375 -4.34375 L 89.328125 -4.34375 L 92.34375 -28.421875 C 90.332031 -28.421875 87.320312 -18.890625 83.3125 0.171875 C 79.59375 3.179688 76.078125 4.6875 72.765625 4.6875 L 72.765625 7.703125 L 71.265625 7.703125 C 71.265625 5.691406 69.257812 4.6875 65.25 4.6875 L 65.25 -5.84375 C 65.25 -10.382812 55.210938 -35.46875 35.140625 -81.09375 L 33.640625 -81.09375 C 29.628906 -63.207031 26.117188 -39.128906 23.109375 -8.859375 L 21.609375 -10.359375 C 15.585938 -8.585938 12.578125 -6.078125 12.578125 -2.828125 L 9.5625 -2.828125 C 7.550781 -6.609375 6.546875 -13.132812 6.546875 -22.40625 L 5.046875 -22.40625 L 5.046875 -8.859375 L 2.03125 -8.859375 L 0.53125 -16.375 C 0.53125 -43.644531 6.550781 -76.753906 18.59375 -115.703125 Z M 9.5625 -79.59375 L 9.5625 -78.078125 L 11.0625 -76.578125 L 9.5625 -75.078125 L 9.5625 -72.0625 L 11.0625 -72.0625 L 12.578125 -78.078125 L 11.0625 -79.59375 Z M 66.75 -55.515625 C 69.34375 -55.515625 71.347656 -51.5 72.765625 -43.46875 L 72.765625 -41.96875 L 71.265625 -41.96875 Z M 66.75 -55.515625 "/></g></g></g><g fill="#000000" fill-opacity="0.4"><g transform="translate(528.699829, 152.983121)"><g><path d="M 67.46875 -118.359375 C 79.269531 -118.359375 90.304688 -114.847656 100.578125 -107.828125 L 99.0625 -106.328125 L 99.0625 -104.828125 L 105.09375 -95.796875 L 102.078125 -95.796875 L 100.578125 -97.296875 L 99.0625 -97.296875 L 103.578125 -64.1875 L 105.09375 -64.1875 C 105.09375 -69.195312 106.09375 -71.703125 108.09375 -71.703125 L 108.09375 -65.6875 C 108.09375 -60.019531 103.078125 -46.976562 93.046875 -26.5625 L 94.546875 -26.5625 C 87.460938 -16.820312 76.929688 -7.789062 62.953125 0.53125 L 55.421875 2.03125 L 53.921875 2.03125 C 30.078125 2.03125 15.023438 -7.5 8.765625 -26.5625 L 2.75 -35.59375 L 4.25 -37.09375 L 2.75 -47.625 L 2.75 -50.640625 C 2.75 -58.960938 10.773438 -73.507812 26.828125 -94.28125 L 26.828125 -92.78125 C 19.453125 -82.863281 13.429688 -71.828125 8.765625 -59.671875 L 8.765625 -58.171875 L 10.265625 -58.171875 C 13.929688 -72.859375 27.476562 -91.414062 50.90625 -113.84375 L 40.375 -107.828125 L 38.859375 -107.828125 C 38.859375 -112.429688 48.394531 -115.941406 67.46875 -118.359375 Z M 59.9375 -92.78125 L 58.4375 -94.28125 L 58.4375 -92.78125 L 59.9375 -91.28125 L 49.40625 -82.25 C 41.082031 -82.25 33.050781 -68.203125 25.3125 -40.109375 C 25.3125 -32.078125 29.828125 -25.050781 38.859375 -19.03125 L 40.375 -19.03125 C 51.351562 -19.03125 63.894531 -30.570312 78 -53.65625 C 83.007812 -64.625 85.515625 -72.648438 85.515625 -77.734375 L 85.515625 -89.765625 C 85.515625 -92.546875 80.5 -94.554688 70.46875 -95.796875 L 68.96875 -95.796875 L 67.46875 -94.28125 L 65.953125 -94.28125 L 65.953125 -95.796875 Z M 103.578125 -88.265625 L 106.59375 -88.265625 L 106.59375 -80.734375 L 103.578125 -80.734375 Z M 26.828125 -71.703125 L 22.3125 -62.6875 L 23.8125 -62.6875 L 28.328125 -71.703125 Z M 85.515625 -62.6875 L 79.5 -47.625 L 84.015625 -47.625 L 88.53125 -58.171875 L 87.03125 -62.6875 Z M 96.0625 -56.65625 L 94.546875 -52.140625 L 94.546875 -49.140625 L 96.0625 -49.140625 L 97.5625 -55.15625 L 97.5625 -56.65625 Z M 7.265625 -50.640625 L 7.265625 -38.59375 L 8.765625 -38.59375 L 8.765625 -50.640625 Z M 78 -46.125 L 71.96875 -38.59375 L 73.484375 -38.59375 L 79.5 -46.125 Z M 29.828125 -13.015625 L 29.828125 -11.515625 L 37.359375 -7 L 37.359375 -8.5 Z M 29.828125 -13.015625 "/></g></g></g><g fill="#000000" fill-opacity="0.4"><g transform="translate(634.821333, 152.983121)"><g><path d="M 30.625 -117.21875 L 41.171875 -108.1875 C 41.171875 -111.195312 42.171875 -112.703125 44.171875 -112.703125 L 45.6875 -112.703125 L 66.75 -58.515625 L 66.75 -55.515625 L 65.25 -55.515625 L 62.234375 -64.546875 L 60.734375 -64.546875 L 60.734375 -61.53125 L 71.265625 -35.9375 L 72.765625 -35.9375 C 76.785156 -62.03125 82.570312 -89.269531 90.125 -117.65625 L 94.640625 -114.640625 L 99.15625 -116.15625 L 108.1875 -111.640625 L 108.1875 -110.140625 C 105.175781 -110.140625 103.671875 -108.128906 103.671875 -104.109375 L 105.171875 -104.109375 L 106.6875 -102.609375 L 108.1875 -102.609375 L 109.6875 -110.140625 L 112.703125 -110.140625 L 112.703125 -108.625 L 111.203125 -107.125 L 112.703125 -105.625 L 112.703125 -104.109375 C 105.148438 -80.910156 98.363281 -47.65625 92.34375 -4.34375 L 89.328125 -4.34375 L 92.34375 -28.421875 C 90.332031 -28.421875 87.320312 -18.890625 83.3125 0.171875 C 79.59375 3.179688 76.078125 4.6875 72.765625 4.6875 L 72.765625 7.703125 L 71.265625 7.703125 C 71.265625 5.691406 69.257812 4.6875 65.25 4.6875 L 65.25 -5.84375 C 65.25 -10.382812 55.210938 -35.46875 35.140625 -81.09375 L 33.640625 -81.09375 C 29.628906 -63.207031 26.117188 -39.128906 23.109375 -8.859375 L 21.609375 -10.359375 C 15.585938 -8.585938 12.578125 -6.078125 12.578125 -2.828125 L 9.5625 -2.828125 C 7.550781 -6.609375 6.546875 -13.132812 6.546875 -22.40625 L 5.046875 -22.40625 L 5.046875 -8.859375 L 2.03125 -8.859375 L 0.53125 -16.375 C 0.53125 -43.644531 6.550781 -76.753906 18.59375 -115.703125 Z M 9.5625 -79.59375 L 9.5625 -78.078125 L 11.0625 -76.578125 L 9.5625 -75.078125 L 9.5625 -72.0625 L 11.0625 -72.0625 L 12.578125 -78.078125 L 11.0625 -79.59375 Z M 66.75 -55.515625 C 69.34375 -55.515625 71.347656 -51.5 72.765625 -43.46875 L 72.765625 -41.96875 L 71.265625 -41.96875 Z M 66.75 -55.515625 "/></g></g></g><g fill="#640a34" fill-opacity="1"><g transform="translate(-1.405224, 144.969753)"><g><path d="M 87.03125 -79.046875 L 81.40625 -50.046875 L 106.25 -50.046875 L 106.25 -37.890625 L 79.046875 -37.890625 L 71.625 0 L 58.75 0 L 66.171875 -37.890625 L 40.25 -37.890625 L 33.1875 0 L 20.484375 0 L 27.375 -37.890625 L 4.53125 -37.890625 L 4.53125 -50.046875 L 29.734375 -50.046875 L 35.53125 -79.046875 L 11.234375 -79.046875 L 11.234375 -91.015625 L 37.71875 -91.015625 L 44.96875 -129.453125 L 58.015625 -129.453125 L 50.765625 -91.015625 L 76.875 -91.015625 L 84.125 -129.453125 L 96.640625 -129.453125 L 89.390625 -91.015625 L 112.40625 -91.015625 L 112.40625 -79.046875 Z M 42.609375 -50.046875 L 68.53125 -50.046875 L 74.15625 -79.046875 L 48.234375 -79.046875 Z M 42.609375 -50.046875 "/></g></g></g><g fill="#640a34" fill-opacity="1"><g transform="translate(111.179301, 144.969753)"><g><path d="M 31.953125 -118.71875 L 50.015625 -118.71875 C 71.085938 -114.769531 81.625 -105.738281 81.625 -91.625 L 81.625 -82.59375 L 66.578125 -61.53125 L 68.078125 -61.53125 L 83.125 -75.078125 L 83.125 -72.0625 C 77.988281 -60.613281 71.46875 -53.085938 63.5625 -49.484375 L 54.53125 -46.484375 L 54.53125 -40.453125 C 56.71875 -40.453125 67.253906 -27.410156 86.140625 -1.328125 C 90.148438 0.328125 94.164062 4.34375 98.1875 10.71875 L 98.1875 12.21875 L 90.65625 6.203125 L 90.65625 7.703125 C 95.675781 13.015625 98.1875 17.03125 98.1875 19.75 L 96.671875 19.75 L 89.15625 24.25 L 87.640625 24.25 L 84.640625 19.75 L 83.125 21.25 L 81.625 21.25 C 61.5625 4.84375 47.515625 -11.710938 39.484375 -28.421875 L 31.953125 -43.46875 C 28.410156 -43.46875 26.40625 -37.445312 25.9375 -25.40625 C 26.582031 -15.375 26.082031 -9.265625 24.4375 -7.078125 C 21.488281 -4.660156 20.984375 -2.242188 22.921875 0.171875 L 22.921875 3.1875 L 18.421875 3.1875 C 16.410156 3.1875 15.40625 1.179688 15.40625 -2.828125 L 13.90625 -2.828125 C 13.90625 1.179688 12.015625 2.6875 8.234375 1.6875 L 1.59375 -7.171875 L 3.359375 -20.890625 L 3.359375 -26.90625 L 12.390625 -69.046875 L 13.90625 -69.046875 L 13.90625 -63.03125 L 15.40625 -63.03125 L 22.921875 -94.640625 C 20.921875 -94.640625 19.921875 -92.632812 19.921875 -88.625 L 18.421875 -88.625 L 18.421875 -91.625 L 9.390625 -91.625 L 9.390625 -93.140625 C 9.390625 -95.140625 12.398438 -96.644531 18.421875 -97.65625 L 18.421875 -99.15625 L 15.40625 -99.15625 L 6.375 -96.140625 L 4.875 -96.140625 C 4.875 -98.148438 6.878906 -99.15625 10.890625 -99.15625 L 10.890625 -100.65625 C 6.878906 -100.65625 4.875 -102.160156 4.875 -105.171875 Z M 33.46875 -64.546875 L 34.96875 -64.546875 C 50.726562 -72.097656 61.765625 -80.125 68.078125 -88.625 L 68.078125 -91.625 C 68.078125 -95.050781 62.054688 -98.566406 50.015625 -102.171875 L 40.984375 -99.15625 Z M 63.5625 -102.171875 C 65.570312 -97.617188 67.578125 -95.109375 69.578125 -94.640625 L 69.578125 -97.65625 Z M 72.59375 -93.140625 L 71.09375 -85.609375 L 72.59375 -85.609375 L 74.09375 -87.109375 L 74.09375 -93.140625 Z M 16.90625 -88.625 L 18.421875 -88.625 L 18.421875 -84.109375 L 16.90625 -78.078125 L 15.40625 -78.078125 L 15.40625 -82.59375 Z M 68.078125 -82.59375 L 60.5625 -72.0625 L 62.0625 -72.0625 L 69.578125 -81.09375 L 69.578125 -82.59375 Z M 83.125 -79.59375 L 86.140625 -79.59375 L 84.640625 -75.078125 L 83.125 -75.078125 Z M 13.90625 -75.078125 L 15.40625 -75.078125 L 15.40625 -69.046875 L 13.90625 -69.046875 Z M 10.890625 -55.515625 L 10.890625 -49.484375 L 12.390625 -49.484375 L 12.390625 -55.515625 Z M 56.046875 -10.359375 L 56.046875 -8.859375 L 62.0625 -2.828125 C 60.113281 -7.378906 58.109375 -9.890625 56.046875 -10.359375 Z M 63.5625 0.171875 L 63.5625 1.6875 L 69.578125 6.203125 L 69.578125 4.6875 Z M 63.5625 0.171875 "/></g></g></g><g fill="#640a34" fill-opacity="1"><g transform="translate(196.586263, 144.969753)"><g><path d="M 83.3125 -117.921875 L 90.5625 -112.875 C 88.4375 -103.96875 84.601562 -99.691406 79.0625 -100.046875 L 39.75 -98.265625 L 39.578125 -95.265625 L 47.015625 -94.734375 L 56.125 -95.609375 L 57.546875 -93.9375 L 59.046875 -93.84375 L 69.671875 -94.734375 L 72.6875 -94.46875 L 72.59375 -92.953125 L 37.625 -89.328125 L 34.875 -69.84375 L 36.390625 -69.765625 L 77.28125 -73.03125 L 78.609375 -71.4375 L 78.53125 -69.9375 L 75.515625 -70.203125 L 75.515625 -68.703125 L 85.875 -66.40625 L 85.78125 -64.890625 C 83.601562 -59.285156 69.203125 -54.742188 42.578125 -51.265625 L 27.4375 -50.734375 L 28.859375 -49.21875 L 21.609375 -30.09375 L 20.09375 -30.09375 L 20.984375 -43.640625 L 19.484375 -43.734375 L 16.5625 -22.84375 C 46.601562 -26.851562 67.816406 -28.445312 80.203125 -27.625 L 87.5625 -25.578125 L 87.46875 -22.578125 L 84.453125 -22.75 L 85.78125 -21.15625 L 85.515625 -16.640625 C 82.628906 -12.867188 76.492188 -11.273438 67.109375 -11.859375 L 67.015625 -10.359375 L 79.0625 -9.5625 L 78.796875 -6.546875 L 8.765625 3.71875 L 7.265625 3.625 C 2.421875 2.5625 0 1 0 -1.0625 L 0 -1.328125 L 0.265625 -5.84375 L 4.421875 -22.140625 L 3.015625 -23.71875 L 6.015625 -23.640625 L 5.484375 -16.109375 L 7 -15.9375 C 7.582031 -20.945312 8.757812 -23.363281 10.53125 -23.1875 L 9.125 -24.875 L 10.1875 -39.84375 L 7.171875 -40.109375 L 5.140625 -32.671875 L 6.8125 -34.078125 L 8.328125 -34 L 7.703125 -24.96875 L 6.203125 -25.140625 L 6.46875 -29.5625 L 4.953125 -29.65625 L 4.78125 -26.640625 L 3.28125 -26.734375 L 3.453125 -29.75 L 8.234375 -55.15625 L 6.734375 -55.25 L 10.1875 -62.5 L 8.765625 -64.09375 L 8.859375 -65.609375 L 12.125 -91.015625 L 13.546875 -89.421875 L 15.046875 -89.328125 L 15.234375 -92.34375 L 14.25 -99.953125 L 16.640625 -113.40625 L 16.90625 -117.921875 L 18.421875 -117.75 L 19.828125 -116.15625 L 21.421875 -117.5625 L 22.921875 -117.390625 L 24.34375 -115.890625 L 25.9375 -117.296875 L 30.453125 -116.953125 Z M 7.96875 -52.140625 L 7.265625 -41.609375 L 8.765625 -41.515625 L 9.46875 -51.96875 Z M 57.640625 -50.203125 L 59.140625 -50.203125 L 58.96875 -48.6875 L 31.6875 -45.953125 L 30.28125 -47.625 L 30.359375 -49.046875 L 44 -49.671875 L 43.90625 -48.15625 Z M 57.640625 -50.203125 "/></g></g></g><g fill="#640a34" fill-opacity="1"><g transform="translate(283.055496, 144.969753)"><g><path d="M 48.34375 -120.140625 C 51 -118.128906 59.4375 -117.125 73.65625 -117.125 L 73.5625 -115.625 L 63.03125 -115.625 L 62.953125 -114.109375 C 75.515625 -114.109375 83.363281 -111.101562 86.5 -105.09375 L 86.3125 -102.078125 L 78.796875 -102.078125 L 78.703125 -100.578125 L 89.15625 -99.0625 L 89.0625 -97.5625 L 80.03125 -97.5625 L 79.9375 -96.0625 C 82.945312 -96.0625 84.394531 -95.054688 84.28125 -93.046875 C 66.394531 -93.046875 50.429688 -86.523438 36.390625 -73.484375 L 36.296875 -71.96875 C 55.710938 -66.78125 71.085938 -55.242188 82.421875 -37.359375 L 82.328125 -35.859375 C 78.671875 -22.867188 68.429688 -10.828125 51.609375 0.265625 L 42.40625 1.765625 L 42.3125 3.28125 L 45.328125 3.28125 C 45.210938 5.988281 36.003906 9 17.703125 12.3125 L 17.890625 9.296875 L 25.40625 9.296875 L 25.578125 7.796875 C 19.148438 7.796875 13.335938 4.28125 8.140625 -2.75 C 3.660156 -5.050781 1.421875 -9.445312 1.421875 -15.9375 C 1.421875 -16.53125 1.445312 -17.148438 1.5 -17.796875 L 6.203125 -20.8125 L 10.53125 -17.796875 L 13.546875 -17.796875 C 41.878906 -22.222656 56.488281 -31.253906 57.375 -44.890625 C 45.507812 -50.910156 37.65625 -53.921875 33.8125 -53.921875 L 33.734375 -52.40625 L 18.953125 -58.4375 L 20.359375 -56.921875 L 20.28125 -53.921875 C 7.757812 -63.128906 1.648438 -70.148438 1.953125 -74.984375 L 13.71875 -96.0625 L 21.609375 -102.078125 L 21.421875 -99.0625 Z M 27.796875 -79.5 L 27.703125 -78 L 54.265625 -94.546875 L 66.484375 -97.5625 L 66.671875 -100.578125 L 63.65625 -100.578125 C 47.78125 -94.671875 35.828125 -87.644531 27.796875 -79.5 Z M 36.125 -17.796875 L 37.625 -17.796875 L 40.8125 -20.8125 L 39.3125 -20.8125 Z M 63.21875 -17.796875 L 56.75 -10.265625 L 58.25 -10.265625 L 64.71875 -17.796875 Z M 44.359375 -5.75 L 44.359375 -4.25 L 45.859375 -4.25 L 52.140625 -8.765625 Z M 27.265625 4.78125 L 27.171875 6.28125 L 33.203125 6.28125 L 40.8125 4.78125 L 40.8125 3.28125 L 39.3125 3.28125 Z M 27.265625 4.78125 "/></g></g></g><g fill="#640a34" fill-opacity="1"><g transform="translate(365.806763, 144.969753)"><g/></g></g><g fill="#640a34" fill-opacity="1"><g transform="translate(411.643663, 144.969753)"><g><path d="M 30.625 -117.21875 L 41.171875 -108.1875 C 41.171875 -111.195312 42.171875 -112.703125 44.171875 -112.703125 L 45.6875 -112.703125 L 66.75 -58.515625 L 66.75 -55.515625 L 65.25 -55.515625 L 62.234375 -64.546875 L 60.734375 -64.546875 L 60.734375 -61.53125 L 71.265625 -35.9375 L 72.765625 -35.9375 C 76.785156 -62.03125 82.570312 -89.269531 90.125 -117.65625 L 94.640625 -114.640625 L 99.15625 -116.15625 L 108.1875 -111.640625 L 108.1875 -110.140625 C 105.175781 -110.140625 103.671875 -108.128906 103.671875 -104.109375 L 105.171875 -104.109375 L 106.6875 -102.609375 L 108.1875 -102.609375 L 109.6875 -110.140625 L 112.703125 -110.140625 L 112.703125 -108.625 L 111.203125 -107.125 L 112.703125 -105.625 L 112.703125 -104.109375 C 105.148438 -80.910156 98.363281 -47.65625 92.34375 -4.34375 L 89.328125 -4.34375 L 92.34375 -28.421875 C 90.332031 -28.421875 87.320312 -18.890625 83.3125 0.171875 C 79.59375 3.179688 76.078125 4.6875 72.765625 4.6875 L 72.765625 7.703125 L 71.265625 7.703125 C 71.265625 5.691406 69.257812 4.6875 65.25 4.6875 L 65.25 -5.84375 C 65.25 -10.382812 55.210938 -35.46875 35.140625 -81.09375 L 33.640625 -81.09375 C 29.628906 -63.207031 26.117188 -39.128906 23.109375 -8.859375 L 21.609375 -10.359375 C 15.585938 -8.585938 12.578125 -6.078125 12.578125 -2.828125 L 9.5625 -2.828125 C 7.550781 -6.609375 6.546875 -13.132812 6.546875 -22.40625 L 5.046875 -22.40625 L 5.046875 -8.859375 L 2.03125 -8.859375 L 0.53125 -16.375 C 0.53125 -43.644531 6.550781 -76.753906 18.59375 -115.703125 Z M 9.5625 -79.59375 L 9.5625 -78.078125 L 11.0625 -76.578125 L 9.5625 -75.078125 L 9.5625 -72.0625 L 11.0625 -72.0625 L 12.578125 -78.078125 L 11.0625 -79.59375 Z M 66.75 -55.515625 C 69.34375 -55.515625 71.347656 -51.5 72.765625 -43.46875 L 72.765625 -41.96875 L 71.265625 -41.96875 Z M 66.75 -55.515625 "/></g></g></g><g fill="#640a34" fill-opacity="1"><g transform="translate(520.686461, 144.969753)"><g><path d="M 67.46875 -118.359375 C 79.269531 -118.359375 90.304688 -114.847656 100.578125 -107.828125 L 99.0625 -106.328125 L 99.0625 -104.828125 L 105.09375 -95.796875 L 102.078125 -95.796875 L 100.578125 -97.296875 L 99.0625 -97.296875 L 103.578125 -64.1875 L 105.09375 -64.1875 C 105.09375 -69.195312 106.09375 -71.703125 108.09375 -71.703125 L 108.09375 -65.6875 C 108.09375 -60.019531 103.078125 -46.976562 93.046875 -26.5625 L 94.546875 -26.5625 C 87.460938 -16.820312 76.929688 -7.789062 62.953125 0.53125 L 55.421875 2.03125 L 53.921875 2.03125 C 30.078125 2.03125 15.023438 -7.5 8.765625 -26.5625 L 2.75 -35.59375 L 4.25 -37.09375 L 2.75 -47.625 L 2.75 -50.640625 C 2.75 -58.960938 10.773438 -73.507812 26.828125 -94.28125 L 26.828125 -92.78125 C 19.453125 -82.863281 13.429688 -71.828125 8.765625 -59.671875 L 8.765625 -58.171875 L 10.265625 -58.171875 C 13.929688 -72.859375 27.476562 -91.414062 50.90625 -113.84375 L 40.375 -107.828125 L 38.859375 -107.828125 C 38.859375 -112.429688 48.394531 -115.941406 67.46875 -118.359375 Z M 59.9375 -92.78125 L 58.4375 -94.28125 L 58.4375 -92.78125 L 59.9375 -91.28125 L 49.40625 -82.25 C 41.082031 -82.25 33.050781 -68.203125 25.3125 -40.109375 C 25.3125 -32.078125 29.828125 -25.050781 38.859375 -19.03125 L 40.375 -19.03125 C 51.351562 -19.03125 63.894531 -30.570312 78 -53.65625 C 83.007812 -64.625 85.515625 -72.648438 85.515625 -77.734375 L 85.515625 -89.765625 C 85.515625 -92.546875 80.5 -94.554688 70.46875 -95.796875 L 68.96875 -95.796875 L 67.46875 -94.28125 L 65.953125 -94.28125 L 65.953125 -95.796875 Z M 103.578125 -88.265625 L 106.59375 -88.265625 L 106.59375 -80.734375 L 103.578125 -80.734375 Z M 26.828125 -71.703125 L 22.3125 -62.6875 L 23.8125 -62.6875 L 28.328125 -71.703125 Z M 85.515625 -62.6875 L 79.5 -47.625 L 84.015625 -47.625 L 88.53125 -58.171875 L 87.03125 -62.6875 Z M 96.0625 -56.65625 L 94.546875 -52.140625 L 94.546875 -49.140625 L 96.0625 -49.140625 L 97.5625 -55.15625 L 97.5625 -56.65625 Z M 7.265625 -50.640625 L 7.265625 -38.59375 L 8.765625 -38.59375 L 8.765625 -50.640625 Z M 78 -46.125 L 71.96875 -38.59375 L 73.484375 -38.59375 L 79.5 -46.125 Z M 29.828125 -13.015625 L 29.828125 -11.515625 L 37.359375 -7 L 37.359375 -8.5 Z M 29.828125 -13.015625 "/></g></g></g><g fill="#640a34" fill-opacity="1"><g transform="translate(626.807964, 144.969753)"><g><path d="M 30.625 -117.21875 L 41.171875 -108.1875 C 41.171875 -111.195312 42.171875 -112.703125 44.171875 -112.703125 L 45.6875 -112.703125 L 66.75 -58.515625 L 66.75 -55.515625 L 65.25 -55.515625 L 62.234375 -64.546875 L 60.734375 -64.546875 L 60.734375 -61.53125 L 71.265625 -35.9375 L 72.765625 -35.9375 C 76.785156 -62.03125 82.570312 -89.269531 90.125 -117.65625 L 94.640625 -114.640625 L 99.15625 -116.15625 L 108.1875 -111.640625 L 108.1875 -110.140625 C 105.175781 -110.140625 103.671875 -108.128906 103.671875 -104.109375 L 105.171875 -104.109375 L 106.6875 -102.609375 L 108.1875 -102.609375 L 109.6875 -110.140625 L 112.703125 -110.140625 L 112.703125 -108.625 L 111.203125 -107.125 L 112.703125 -105.625 L 112.703125 -104.109375 C 105.148438 -80.910156 98.363281 -47.65625 92.34375 -4.34375 L 89.328125 -4.34375 L 92.34375 -28.421875 C 90.332031 -28.421875 87.320312 -18.890625 83.3125 0.171875 C 79.59375 3.179688 76.078125 4.6875 72.765625 4.6875 L 72.765625 7.703125 L 71.265625 7.703125 C 71.265625 5.691406 69.257812 4.6875 65.25 4.6875 L 65.25 -5.84375 C 65.25 -10.382812 55.210938 -35.46875 35.140625 -81.09375 L 33.640625 -81.09375 C 29.628906 -63.207031 26.117188 -39.128906 23.109375 -8.859375 L 21.609375 -10.359375 C 15.585938 -8.585938 12.578125 -6.078125 12.578125 -2.828125 L 9.5625 -2.828125 C 7.550781 -6.609375 6.546875 -13.132812 6.546875 -22.40625 L 5.046875 -22.40625 L 5.046875 -8.859375 L 2.03125 -8.859375 L 0.53125 -16.375 C 0.53125 -43.644531 6.550781 -76.753906 18.59375 -115.703125 Z M 9.5625 -79.59375 L 9.5625 -78.078125 L 11.0625 -76.578125 L 9.5625 -75.078125 L 9.5625 -72.0625 L 11.0625 -72.0625 L 12.578125 -78.078125 L 11.0625 -79.59375 Z M 66.75 -55.515625 C 69.34375 -55.515625 71.347656 -51.5 72.765625 -43.46875 L 72.765625 -41.96875 L 71.265625 -41.96875 Z M 66.75 -55.515625 "/></g></g></g><g fill="#000000" fill-opacity="0.4"><g transform="translate(120.886562, 361.700896)"><g><path d="M -1.0625 -118.1875 C 10.976562 -118.1875 17 -114.175781 17 -106.15625 L 18.5 -106.15625 L 18.5 -110.671875 L 21.515625 -110.671875 C 25.523438 -98.921875 29.035156 -82.863281 32.046875 -62.5 L 30.546875 -62.5 L 32.046875 -61 L 32.046875 -47.453125 L 35.0625 -47.453125 L 33.546875 -45.953125 L 33.546875 -38.421875 L 35.0625 -38.421875 C 39.007812 -48.398438 47.035156 -61.945312 59.140625 -79.0625 L 60.640625 -77.546875 L 63.65625 -82.0625 L 62.15625 -82.0625 L 59.140625 -79.0625 L 59.140625 -80.5625 L 75.6875 -98.625 L 78.703125 -98.625 L 84.71875 -92.609375 L 77.203125 -83.578125 L 81.71875 -83.578125 C 81.71875 -86.703125 84.726562 -90.210938 90.75 -94.109375 L 90.75 -89.59375 C 86.726562 -89.125 84.71875 -87.617188 84.71875 -85.078125 L 87.734375 -85.078125 C 87.734375 -88.085938 89.238281 -89.59375 92.25 -89.59375 L 92.25 -85.078125 C 87.113281 -82.066406 79.585938 -73.035156 69.671875 -57.984375 L 38.0625 -0.796875 L 35.0625 -0.796875 L 33.546875 -2.296875 C 30.535156 -2.296875 29.03125 -0.289062 29.03125 3.71875 L 26.03125 3.71875 C 19.007812 3.71875 15.5 0.207031 15.5 -6.8125 L 17 -11.328125 L 13.984375 -8.328125 L 13.984375 -3.8125 L 15.5 -2.296875 L 15.5 -0.796875 L 13.984375 0.703125 L 10.984375 0.703125 L 9.46875 -6.8125 L 10.984375 -11.328125 L 9.46875 -11.328125 L 10.984375 -12.84375 L 10.984375 -21.875 C 9.742188 -77.050781 6.226562 -104.640625 0.4375 -104.640625 L 1.953125 -109.15625 Z M 71.171875 -100.125 L 71.171875 -98.625 L 65.15625 -92.609375 L 63.65625 -92.609375 C 66.019531 -96.972656 68.523438 -99.476562 71.171875 -100.125 Z M 60.640625 -89.59375 L 60.640625 -88.09375 L 47.09375 -70.03125 L 47.09375 -71.53125 C 49.394531 -77.195312 53.910156 -83.21875 60.640625 -89.59375 Z M 72.6875 -80.5625 L 68.171875 -73.03125 L 69.671875 -73.03125 L 74.1875 -79.0625 L 74.1875 -80.5625 Z M 12.484375 -73.03125 L 12.484375 -65.515625 L 13.984375 -65.515625 L 13.984375 -73.03125 Z M 42.578125 -65.515625 L 44.09375 -65.515625 L 44.09375 -61 L 42.578125 -59.5 L 41.078125 -59.5 L 41.078125 -61 Z M 13.984375 -61 L 13.984375 -44.4375 L 15.5 -44.4375 L 15.5 -61 Z M 41.078125 -59.5 L 41.078125 -57.984375 L 36.5625 -51.96875 L 36.5625 -53.46875 Z M 44.09375 -29.390625 L 44.09375 -27.890625 L 48.609375 -32.40625 L 48.609375 -33.90625 Z M 36.5625 -17.359375 L 38.0625 -15.84375 L 39.578125 -15.84375 L 42.578125 -24.875 C 40.515625 -24.40625 38.507812 -21.898438 36.5625 -17.359375 Z M 36.5625 -17.359375 "/></g></g></g><g fill="#000000" fill-opacity="0.4"><g transform="translate(208.506628, 361.700896)"><g><path d="M 83.3125 -117.921875 L 90.5625 -112.875 C 88.4375 -103.96875 84.601562 -99.691406 79.0625 -100.046875 L 39.75 -98.265625 L 39.578125 -95.265625 L 47.015625 -94.734375 L 56.125 -95.609375 L 57.546875 -93.9375 L 59.046875 -93.84375 L 69.671875 -94.734375 L 72.6875 -94.46875 L 72.59375 -92.953125 L 37.625 -89.328125 L 34.875 -69.84375 L 36.390625 -69.765625 L 77.28125 -73.03125 L 78.609375 -71.4375 L 78.53125 -69.9375 L 75.515625 -70.203125 L 75.515625 -68.703125 L 85.875 -66.40625 L 85.78125 -64.890625 C 83.601562 -59.285156 69.203125 -54.742188 42.578125 -51.265625 L 27.4375 -50.734375 L 28.859375 -49.21875 L 21.609375 -30.09375 L 20.09375 -30.09375 L 20.984375 -43.640625 L 19.484375 -43.734375 L 16.5625 -22.84375 C 46.601562 -26.851562 67.816406 -28.445312 80.203125 -27.625 L 87.5625 -25.578125 L 87.46875 -22.578125 L 84.453125 -22.75 L 85.78125 -21.15625 L 85.515625 -16.640625 C 82.628906 -12.867188 76.492188 -11.273438 67.109375 -11.859375 L 67.015625 -10.359375 L 79.0625 -9.5625 L 78.796875 -6.546875 L 8.765625 3.71875 L 7.265625 3.625 C 2.421875 2.5625 0 1 0 -1.0625 L 0 -1.328125 L 0.265625 -5.84375 L 4.421875 -22.140625 L 3.015625 -23.71875 L 6.015625 -23.640625 L 5.484375 -16.109375 L 7 -15.9375 C 7.582031 -20.945312 8.757812 -23.363281 10.53125 -23.1875 L 9.125 -24.875 L 10.1875 -39.84375 L 7.171875 -40.109375 L 5.140625 -32.671875 L 6.8125 -34.078125 L 8.328125 -34 L 7.703125 -24.96875 L 6.203125 -25.140625 L 6.46875 -29.5625 L 4.953125 -29.65625 L 4.78125 -26.640625 L 3.28125 -26.734375 L 3.453125 -29.75 L 8.234375 -55.15625 L 6.734375 -55.25 L 10.1875 -62.5 L 8.765625 -64.09375 L 8.859375 -65.609375 L 12.125 -91.015625 L 13.546875 -89.421875 L 15.046875 -89.328125 L 15.234375 -92.34375 L 14.25 -99.953125 L 16.640625 -113.40625 L 16.90625 -117.921875 L 18.421875 -117.75 L 19.828125 -116.15625 L 21.421875 -117.5625 L 22.921875 -117.390625 L 24.34375 -115.890625 L 25.9375 -117.296875 L 30.453125 -116.953125 Z M 7.96875 -52.140625 L 7.265625 -41.609375 L 8.765625 -41.515625 L 9.46875 -51.96875 Z M 57.640625 -50.203125 L 59.140625 -50.203125 L 58.96875 -48.6875 L 31.6875 -45.953125 L 30.28125 -47.625 L 30.359375 -49.046875 L 44 -49.671875 L 43.90625 -48.15625 Z M 57.640625 -50.203125 "/></g></g></g><g fill="#000000" fill-opacity="0.4"><g transform="translate(294.975873, 361.700896)"><g><path d="M 31.953125 -118.71875 L 50.015625 -118.71875 C 71.085938 -114.769531 81.625 -105.738281 81.625 -91.625 L 81.625 -82.59375 L 66.578125 -61.53125 L 68.078125 -61.53125 L 83.125 -75.078125 L 83.125 -72.0625 C 77.988281 -60.613281 71.46875 -53.085938 63.5625 -49.484375 L 54.53125 -46.484375 L 54.53125 -40.453125 C 56.71875 -40.453125 67.253906 -27.410156 86.140625 -1.328125 C 90.148438 0.328125 94.164062 4.34375 98.1875 10.71875 L 98.1875 12.21875 L 90.65625 6.203125 L 90.65625 7.703125 C 95.675781 13.015625 98.1875 17.03125 98.1875 19.75 L 96.671875 19.75 L 89.15625 24.25 L 87.640625 24.25 L 84.640625 19.75 L 83.125 21.25 L 81.625 21.25 C 61.5625 4.84375 47.515625 -11.710938 39.484375 -28.421875 L 31.953125 -43.46875 C 28.410156 -43.46875 26.40625 -37.445312 25.9375 -25.40625 C 26.582031 -15.375 26.082031 -9.265625 24.4375 -7.078125 C 21.488281 -4.660156 20.984375 -2.242188 22.921875 0.171875 L 22.921875 3.1875 L 18.421875 3.1875 C 16.410156 3.1875 15.40625 1.179688 15.40625 -2.828125 L 13.90625 -2.828125 C 13.90625 1.179688 12.015625 2.6875 8.234375 1.6875 L 1.59375 -7.171875 L 3.359375 -20.890625 L 3.359375 -26.90625 L 12.390625 -69.046875 L 13.90625 -69.046875 L 13.90625 -63.03125 L 15.40625 -63.03125 L 22.921875 -94.640625 C 20.921875 -94.640625 19.921875 -92.632812 19.921875 -88.625 L 18.421875 -88.625 L 18.421875 -91.625 L 9.390625 -91.625 L 9.390625 -93.140625 C 9.390625 -95.140625 12.398438 -96.644531 18.421875 -97.65625 L 18.421875 -99.15625 L 15.40625 -99.15625 L 6.375 -96.140625 L 4.875 -96.140625 C 4.875 -98.148438 6.878906 -99.15625 10.890625 -99.15625 L 10.890625 -100.65625 C 6.878906 -100.65625 4.875 -102.160156 4.875 -105.171875 Z M 33.46875 -64.546875 L 34.96875 -64.546875 C 50.726562 -72.097656 61.765625 -80.125 68.078125 -88.625 L 68.078125 -91.625 C 68.078125 -95.050781 62.054688 -98.566406 50.015625 -102.171875 L 40.984375 -99.15625 Z M 63.5625 -102.171875 C 65.570312 -97.617188 67.578125 -95.109375 69.578125 -94.640625 L 69.578125 -97.65625 Z M 72.59375 -93.140625 L 71.09375 -85.609375 L 72.59375 -85.609375 L 74.09375 -87.109375 L 74.09375 -93.140625 Z M 16.90625 -88.625 L 18.421875 -88.625 L 18.421875 -84.109375 L 16.90625 -78.078125 L 15.40625 -78.078125 L 15.40625 -82.59375 Z M 68.078125 -82.59375 L 60.5625 -72.0625 L 62.0625 -72.0625 L 69.578125 -81.09375 L 69.578125 -82.59375 Z M 83.125 -79.59375 L 86.140625 -79.59375 L 84.640625 -75.078125 L 83.125 -75.078125 Z M 13.90625 -75.078125 L 15.40625 -75.078125 L 15.40625 -69.046875 L 13.90625 -69.046875 Z M 10.890625 -55.515625 L 10.890625 -49.484375 L 12.390625 -49.484375 L 12.390625 -55.515625 Z M 56.046875 -10.359375 L 56.046875 -8.859375 L 62.0625 -2.828125 C 60.113281 -7.378906 58.109375 -9.890625 56.046875 -10.359375 Z M 63.5625 0.171875 L 63.5625 1.6875 L 69.578125 6.203125 L 69.578125 4.6875 Z M 63.5625 0.171875 "/></g></g></g><g fill="#000000" fill-opacity="0.4"><g transform="translate(380.382849, 361.700896)"><g><path d="M 61.265625 -122.4375 L 68.515625 -120.140625 L 68.34375 -118.625 L 60.90625 -119.421875 Z M 32.484375 -122.609375 L 36.65625 -119.078125 L 50.46875 -120.578125 L 51.796875 -118.890625 L 53.296875 -118.71875 L 57.90625 -119.6875 C 74.78125 -117.914062 86.96875 -109.535156 94.46875 -94.546875 C 96.46875 -94.316406 97.203125 -91.722656 96.671875 -86.765625 L 95.53125 -76.21875 L 92.515625 -76.578125 L 92.6875 -78.078125 L 94.734375 -82.421875 L 93.40625 -84.109375 L 95 -85.4375 L 93.671875 -87.109375 L 90.75 -87.375 C 90.09375 -81.65625 84.363281 -75.722656 73.5625 -69.578125 L 73.390625 -68.078125 L 74.890625 -68 C 78.671875 -67.519531 83.957031 -69.4375 90.75 -73.75 L 90.484375 -70.734375 L 81.890625 -62.59375 C 87.441406 -62 95.554688 -53.054688 106.234375 -35.765625 C 105.054688 -24.785156 88.679688 -13.453125 57.109375 -1.765625 C 43.585938 4.785156 33.164062 7.675781 25.84375 6.90625 L 23.1875 3.453125 L 21.6875 3.359375 C 21.394531 6.367188 19.242188 7.640625 15.234375 7.171875 C 14.878906 9.941406 13.875 11.328125 12.21875 11.328125 L 11.6875 11.328125 C 9.675781 11.097656 9.085938 7.5 9.921875 0.53125 L 8.40625 0.4375 L 6.109375 7.703125 L 4.609375 7.53125 C 5.671875 -2.382812 4.695312 -7.492188 1.6875 -7.796875 L 0.890625 -13.984375 L 2.5625 -15.3125 L 1.15625 -17 L 15.765625 -80.5625 L 14.4375 -82.15625 L 15.9375 -81.984375 L 14.609375 -83.578125 L 18.59375 -105.890625 L 18.6875 -107.390625 L 16.828125 -118.1875 L 18.328125 -118.09375 C 23.929688 -121.164062 28.328125 -122.703125 31.515625 -122.703125 C 31.867188 -122.703125 32.191406 -122.671875 32.484375 -122.609375 Z M 68.25 -103.5 L 68.078125 -101.984375 L 79.9375 -99.15625 C 80.113281 -101.164062 78.726562 -102.316406 75.78125 -102.609375 Z M 39.3125 -88.53125 L 39.75 -77.90625 L 53.46875 -79.40625 L 53.203125 -76.40625 L 75.421875 -86.046875 L 75.25 -84.546875 L 63.828125 -76.75 C 76.285156 -80.175781 82.984375 -85.992188 83.921875 -94.203125 L 80.921875 -94.546875 C 80.328125 -89.585938 78.554688 -87.257812 75.609375 -87.5625 L 75.875 -90.5625 L 74.359375 -90.65625 L 76.40625 -95.078125 L 77.734375 -93.40625 L 79.234375 -93.140625 L 79.40625 -94.640625 C 75.75 -98.117188 69.910156 -100.273438 61.890625 -101.109375 C 47.953125 -102.703125 40.425781 -98.507812 39.3125 -88.53125 Z M 74.359375 -90.65625 L 74.28125 -89.15625 L 70.90625 -86.578125 L 69.40625 -86.671875 Z M 67.46875 -55.0625 L 67.375 -53.65625 L 82.0625 -50.46875 L 83.578125 -50.375 L 83.75 -51.875 L 77.90625 -54 Z M 33.640625 -49.75 L 29.125 -23.015625 L 30.453125 -21.34375 L 31.953125 -21.15625 C 39.160156 -20.332031 55.484375 -26.617188 80.921875 -40.015625 L 84.28125 -42.671875 C 84.101562 -46.742188 80.328125 -49.164062 72.953125 -49.9375 L 61 -51.34375 Z M 87.46875 -43.90625 L 83.84375 -38.15625 L 90.296875 -41.96875 L 88.96875 -43.640625 Z M 97.296875 -36.734375 C 96.941406 -33.609375 87.023438 -26.113281 67.546875 -14.25 C 89.742188 -23.101562 101.078125 -29.921875 101.546875 -34.703125 L 100.046875 -34.875 L 98.796875 -36.5625 Z M 97.296875 -36.734375 "/></g></g></g><g fill="#000000" fill-opacity="0.4"><g transform="translate(482.078145, 361.700896)"><g><path d="M 59.9375 -124.828125 C 60.582031 -121.816406 64.59375 -120.3125 71.96875 -120.3125 L 84.015625 -67.640625 L 94.546875 -67.640625 L 94.546875 -66.140625 L 85.515625 -64.625 L 85.515625 -63.125 C 88.523438 -63.125 90.03125 -62.117188 90.03125 -60.109375 L 102.078125 -60.109375 L 102.078125 -58.609375 C 102.078125 -56.367188 97.0625 -54.363281 87.03125 -52.59375 L 90.03125 -43.5625 L 88.53125 -39.046875 L 90.03125 -30.015625 L 88.53125 -28.5 L 90.03125 -28.5 L 88.53125 -27 L 90.03125 -8.9375 L 90.03125 0.09375 L 88.53125 -1.421875 L 87.03125 -1.421875 L 91.546875 21.15625 L 88.53125 21.15625 C 88.53125 18.144531 87.523438 16.640625 85.515625 16.640625 L 85.515625 18.15625 L 87.03125 22.671875 L 85.515625 22.671875 L 84.015625 21.15625 L 82.515625 21.15625 C 82.515625 24.164062 81.507812 25.671875 79.5 25.671875 L 71.96875 0.09375 L 70.46875 0.09375 L 70.46875 6.109375 L 68.96875 6.109375 L 65.953125 -11.953125 L 70.46875 -8.9375 L 70.46875 -10.453125 C 69.644531 -19.472656 68.140625 -23.984375 65.953125 -23.984375 L 67.46875 -25.5 L 67.46875 -30.015625 L 64.453125 -30.015625 L 64.453125 -25.5 L 62.953125 -25.5 L 62.953125 -31.515625 L 64.453125 -33.015625 L 62.953125 -33.015625 L 61.4375 -31.515625 L 61.4375 -37.53125 L 62.953125 -37.53125 L 64.453125 -36.03125 L 65.953125 -36.03125 L 64.453125 -37.53125 L 64.453125 -46.5625 L 31.34375 -39.046875 L 31.34375 -36.03125 L 41.875 -39.046875 L 47.890625 -37.53125 L 55.421875 -39.046875 L 55.421875 -36.03125 C 34.347656 -32.25 23.8125 -27.234375 23.8125 -20.984375 C 21.15625 -9.941406 18.144531 -2.914062 14.78125 0.09375 L 14.78125 3.09375 L 10.265625 3.09375 L 8.765625 1.59375 L 7.265625 1.59375 L 7.265625 3.09375 L 2.75 0.09375 L 5.75 -8.9375 L 4.25 -8.9375 C 1.238281 -8.9375 -0.265625 -4.925781 -0.265625 3.09375 L -3.28125 0.09375 L -1.765625 -8.9375 L -6.28125 -13.453125 L 19.296875 -75.15625 L 20.8125 -75.15625 C 20.8125 -72.144531 21.8125 -70.640625 23.8125 -70.640625 L 25.3125 -78.171875 L 23.8125 -76.671875 L 22.3125 -76.671875 L 22.3125 -82.6875 L 23.8125 -90.21875 L 25.3125 -88.703125 L 26.828125 -88.703125 L 25.3125 -90.21875 L 25.3125 -91.71875 L 28.328125 -97.734375 L 29.828125 -97.734375 L 31.34375 -96.234375 L 32.84375 -96.234375 L 32.84375 -97.734375 C 32.84375 -99.742188 31.335938 -100.75 28.328125 -100.75 L 35.859375 -121.8125 L 41.875 -121.8125 L 40.375 -120.3125 L 40.375 -118.8125 C 47.332031 -122.820312 53.851562 -124.828125 59.9375 -124.828125 Z M 50.90625 -90.21875 L 38.859375 -58.609375 L 41.875 -58.609375 C 51.90625 -58.609375 57.425781 -61.617188 58.4375 -67.640625 L 52.40625 -90.21875 Z M 37.359375 -81.1875 L 34.34375 -70.640625 L 32.84375 -72.15625 L 31.34375 -72.15625 L 32.84375 -66.140625 L 34.34375 -66.140625 L 38.859375 -79.671875 L 38.859375 -81.1875 Z M 20.8125 -67.640625 L 19.296875 -66.140625 L 19.296875 -63.125 L 20.8125 -63.125 L 22.3125 -67.640625 Z M 29.828125 -61.625 L 28.328125 -55.59375 L 29.828125 -55.59375 L 31.34375 -57.109375 L 31.34375 -61.625 Z M 16.296875 -60.109375 L 14.78125 -54.09375 L 16.296875 -54.09375 L 19.296875 -60.109375 Z M 41.875 -55.59375 L 41.875 -54.09375 L 44.890625 -54.09375 C 53.921875 -55.09375 58.4375 -56.597656 58.4375 -58.609375 L 56.921875 -58.609375 Z M 62.953125 -22.484375 L 65.953125 -22.484375 L 65.953125 -13.453125 L 64.453125 -13.453125 Z M 84.015625 -11.953125 L 84.015625 -8.9375 L 85.515625 -2.921875 L 87.03125 -2.921875 L 87.03125 -5.9375 L 85.515625 -11.953125 Z M 68.96875 -7.4375 L 68.96875 -4.421875 L 73.484375 -5.9375 L 73.484375 -8.9375 Z M 68.96875 -7.4375 "/></g></g></g><g fill="#640a34" fill-opacity="1"><g transform="translate(112.873193, 353.687528)"><g><path d="M -1.0625 -118.1875 C 10.976562 -118.1875 17 -114.175781 17 -106.15625 L 18.5 -106.15625 L 18.5 -110.671875 L 21.515625 -110.671875 C 25.523438 -98.921875 29.035156 -82.863281 32.046875 -62.5 L 30.546875 -62.5 L 32.046875 -61 L 32.046875 -47.453125 L 35.0625 -47.453125 L 33.546875 -45.953125 L 33.546875 -38.421875 L 35.0625 -38.421875 C 39.007812 -48.398438 47.035156 -61.945312 59.140625 -79.0625 L 60.640625 -77.546875 L 63.65625 -82.0625 L 62.15625 -82.0625 L 59.140625 -79.0625 L 59.140625 -80.5625 L 75.6875 -98.625 L 78.703125 -98.625 L 84.71875 -92.609375 L 77.203125 -83.578125 L 81.71875 -83.578125 C 81.71875 -86.703125 84.726562 -90.210938 90.75 -94.109375 L 90.75 -89.59375 C 86.726562 -89.125 84.71875 -87.617188 84.71875 -85.078125 L 87.734375 -85.078125 C 87.734375 -88.085938 89.238281 -89.59375 92.25 -89.59375 L 92.25 -85.078125 C 87.113281 -82.066406 79.585938 -73.035156 69.671875 -57.984375 L 38.0625 -0.796875 L 35.0625 -0.796875 L 33.546875 -2.296875 C 30.535156 -2.296875 29.03125 -0.289062 29.03125 3.71875 L 26.03125 3.71875 C 19.007812 3.71875 15.5 0.207031 15.5 -6.8125 L 17 -11.328125 L 13.984375 -8.328125 L 13.984375 -3.8125 L 15.5 -2.296875 L 15.5 -0.796875 L 13.984375 0.703125 L 10.984375 0.703125 L 9.46875 -6.8125 L 10.984375 -11.328125 L 9.46875 -11.328125 L 10.984375 -12.84375 L 10.984375 -21.875 C 9.742188 -77.050781 6.226562 -104.640625 0.4375 -104.640625 L 1.953125 -109.15625 Z M 71.171875 -100.125 L 71.171875 -98.625 L 65.15625 -92.609375 L 63.65625 -92.609375 C 66.019531 -96.972656 68.523438 -99.476562 71.171875 -100.125 Z M 60.640625 -89.59375 L 60.640625 -88.09375 L 47.09375 -70.03125 L 47.09375 -71.53125 C 49.394531 -77.195312 53.910156 -83.21875 60.640625 -89.59375 Z M 72.6875 -80.5625 L 68.171875 -73.03125 L 69.671875 -73.03125 L 74.1875 -79.0625 L 74.1875 -80.5625 Z M 12.484375 -73.03125 L 12.484375 -65.515625 L 13.984375 -65.515625 L 13.984375 -73.03125 Z M 42.578125 -65.515625 L 44.09375 -65.515625 L 44.09375 -61 L 42.578125 -59.5 L 41.078125 -59.5 L 41.078125 -61 Z M 13.984375 -61 L 13.984375 -44.4375 L 15.5 -44.4375 L 15.5 -61 Z M 41.078125 -59.5 L 41.078125 -57.984375 L 36.5625 -51.96875 L 36.5625 -53.46875 Z M 44.09375 -29.390625 L 44.09375 -27.890625 L 48.609375 -32.40625 L 48.609375 -33.90625 Z M 36.5625 -17.359375 L 38.0625 -15.84375 L 39.578125 -15.84375 L 42.578125 -24.875 C 40.515625 -24.40625 38.507812 -21.898438 36.5625 -17.359375 Z M 36.5625 -17.359375 "/></g></g></g><g fill="#640a34" fill-opacity="1"><g transform="translate(200.49326, 353.687528)"><g><path d="M 83.3125 -117.921875 L 90.5625 -112.875 C 88.4375 -103.96875 84.601562 -99.691406 79.0625 -100.046875 L 39.75 -98.265625 L 39.578125 -95.265625 L 47.015625 -94.734375 L 56.125 -95.609375 L 57.546875 -93.9375 L 59.046875 -93.84375 L 69.671875 -94.734375 L 72.6875 -94.46875 L 72.59375 -92.953125 L 37.625 -89.328125 L 34.875 -69.84375 L 36.390625 -69.765625 L 77.28125 -73.03125 L 78.609375 -71.4375 L 78.53125 -69.9375 L 75.515625 -70.203125 L 75.515625 -68.703125 L 85.875 -66.40625 L 85.78125 -64.890625 C 83.601562 -59.285156 69.203125 -54.742188 42.578125 -51.265625 L 27.4375 -50.734375 L 28.859375 -49.21875 L 21.609375 -30.09375 L 20.09375 -30.09375 L 20.984375 -43.640625 L 19.484375 -43.734375 L 16.5625 -22.84375 C 46.601562 -26.851562 67.816406 -28.445312 80.203125 -27.625 L 87.5625 -25.578125 L 87.46875 -22.578125 L 84.453125 -22.75 L 85.78125 -21.15625 L 85.515625 -16.640625 C 82.628906 -12.867188 76.492188 -11.273438 67.109375 -11.859375 L 67.015625 -10.359375 L 79.0625 -9.5625 L 78.796875 -6.546875 L 8.765625 3.71875 L 7.265625 3.625 C 2.421875 2.5625 0 1 0 -1.0625 L 0 -1.328125 L 0.265625 -5.84375 L 4.421875 -22.140625 L 3.015625 -23.71875 L 6.015625 -23.640625 L 5.484375 -16.109375 L 7 -15.9375 C 7.582031 -20.945312 8.757812 -23.363281 10.53125 -23.1875 L 9.125 -24.875 L 10.1875 -39.84375 L 7.171875 -40.109375 L 5.140625 -32.671875 L 6.8125 -34.078125 L 8.328125 -34 L 7.703125 -24.96875 L 6.203125 -25.140625 L 6.46875 -29.5625 L 4.953125 -29.65625 L 4.78125 -26.640625 L 3.28125 -26.734375 L 3.453125 -29.75 L 8.234375 -55.15625 L 6.734375 -55.25 L 10.1875 -62.5 L 8.765625 -64.09375 L 8.859375 -65.609375 L 12.125 -91.015625 L 13.546875 -89.421875 L 15.046875 -89.328125 L 15.234375 -92.34375 L 14.25 -99.953125 L 16.640625 -113.40625 L 16.90625 -117.921875 L 18.421875 -117.75 L 19.828125 -116.15625 L 21.421875 -117.5625 L 22.921875 -117.390625 L 24.34375 -115.890625 L 25.9375 -117.296875 L 30.453125 -116.953125 Z M 7.96875 -52.140625 L 7.265625 -41.609375 L 8.765625 -41.515625 L 9.46875 -51.96875 Z M 57.640625 -50.203125 L 59.140625 -50.203125 L 58.96875 -48.6875 L 31.6875 -45.953125 L 30.28125 -47.625 L 30.359375 -49.046875 L 44 -49.671875 L 43.90625 -48.15625 Z M 57.640625 -50.203125 "/></g></g></g><g fill="#640a34" fill-opacity="1"><g transform="translate(286.962505, 353.687528)"><g><path d="M 31.953125 -118.71875 L 50.015625 -118.71875 C 71.085938 -114.769531 81.625 -105.738281 81.625 -91.625 L 81.625 -82.59375 L 66.578125 -61.53125 L 68.078125 -61.53125 L 83.125 -75.078125 L 83.125 -72.0625 C 77.988281 -60.613281 71.46875 -53.085938 63.5625 -49.484375 L 54.53125 -46.484375 L 54.53125 -40.453125 C 56.71875 -40.453125 67.253906 -27.410156 86.140625 -1.328125 C 90.148438 0.328125 94.164062 4.34375 98.1875 10.71875 L 98.1875 12.21875 L 90.65625 6.203125 L 90.65625 7.703125 C 95.675781 13.015625 98.1875 17.03125 98.1875 19.75 L 96.671875 19.75 L 89.15625 24.25 L 87.640625 24.25 L 84.640625 19.75 L 83.125 21.25 L 81.625 21.25 C 61.5625 4.84375 47.515625 -11.710938 39.484375 -28.421875 L 31.953125 -43.46875 C 28.410156 -43.46875 26.40625 -37.445312 25.9375 -25.40625 C 26.582031 -15.375 26.082031 -9.265625 24.4375 -7.078125 C 21.488281 -4.660156 20.984375 -2.242188 22.921875 0.171875 L 22.921875 3.1875 L 18.421875 3.1875 C 16.410156 3.1875 15.40625 1.179688 15.40625 -2.828125 L 13.90625 -2.828125 C 13.90625 1.179688 12.015625 2.6875 8.234375 1.6875 L 1.59375 -7.171875 L 3.359375 -20.890625 L 3.359375 -26.90625 L 12.390625 -69.046875 L 13.90625 -69.046875 L 13.90625 -63.03125 L 15.40625 -63.03125 L 22.921875 -94.640625 C 20.921875 -94.640625 19.921875 -92.632812 19.921875 -88.625 L 18.421875 -88.625 L 18.421875 -91.625 L 9.390625 -91.625 L 9.390625 -93.140625 C 9.390625 -95.140625 12.398438 -96.644531 18.421875 -97.65625 L 18.421875 -99.15625 L 15.40625 -99.15625 L 6.375 -96.140625 L 4.875 -96.140625 C 4.875 -98.148438 6.878906 -99.15625 10.890625 -99.15625 L 10.890625 -100.65625 C 6.878906 -100.65625 4.875 -102.160156 4.875 -105.171875 Z M 33.46875 -64.546875 L 34.96875 -64.546875 C 50.726562 -72.097656 61.765625 -80.125 68.078125 -88.625 L 68.078125 -91.625 C 68.078125 -95.050781 62.054688 -98.566406 50.015625 -102.171875 L 40.984375 -99.15625 Z M 63.5625 -102.171875 C 65.570312 -97.617188 67.578125 -95.109375 69.578125 -94.640625 L 69.578125 -97.65625 Z M 72.59375 -93.140625 L 71.09375 -85.609375 L 72.59375 -85.609375 L 74.09375 -87.109375 L 74.09375 -93.140625 Z M 16.90625 -88.625 L 18.421875 -88.625 L 18.421875 -84.109375 L 16.90625 -78.078125 L 15.40625 -78.078125 L 15.40625 -82.59375 Z M 68.078125 -82.59375 L 60.5625 -72.0625 L 62.0625 -72.0625 L 69.578125 -81.09375 L 69.578125 -82.59375 Z M 83.125 -79.59375 L 86.140625 -79.59375 L 84.640625 -75.078125 L 83.125 -75.078125 Z M 13.90625 -75.078125 L 15.40625 -75.078125 L 15.40625 -69.046875 L 13.90625 -69.046875 Z M 10.890625 -55.515625 L 10.890625 -49.484375 L 12.390625 -49.484375 L 12.390625 -55.515625 Z M 56.046875 -10.359375 L 56.046875 -8.859375 L 62.0625 -2.828125 C 60.113281 -7.378906 58.109375 -9.890625 56.046875 -10.359375 Z M 63.5625 0.171875 L 63.5625 1.6875 L 69.578125 6.203125 L 69.578125 4.6875 Z M 63.5625 0.171875 "/></g></g></g><g fill="#640a34" fill-opacity="1"><g transform="translate(372.369481, 353.687528)"><g><path d="M 61.265625 -122.4375 L 68.515625 -120.140625 L 68.34375 -118.625 L 60.90625 -119.421875 Z M 32.484375 -122.609375 L 36.65625 -119.078125 L 50.46875 -120.578125 L 51.796875 -118.890625 L 53.296875 -118.71875 L 57.90625 -119.6875 C 74.78125 -117.914062 86.96875 -109.535156 94.46875 -94.546875 C 96.46875 -94.316406 97.203125 -91.722656 96.671875 -86.765625 L 95.53125 -76.21875 L 92.515625 -76.578125 L 92.6875 -78.078125 L 94.734375 -82.421875 L 93.40625 -84.109375 L 95 -85.4375 L 93.671875 -87.109375 L 90.75 -87.375 C 90.09375 -81.65625 84.363281 -75.722656 73.5625 -69.578125 L 73.390625 -68.078125 L 74.890625 -68 C 78.671875 -67.519531 83.957031 -69.4375 90.75 -73.75 L 90.484375 -70.734375 L 81.890625 -62.59375 C 87.441406 -62 95.554688 -53.054688 106.234375 -35.765625 C 105.054688 -24.785156 88.679688 -13.453125 57.109375 -1.765625 C 43.585938 4.785156 33.164062 7.675781 25.84375 6.90625 L 23.1875 3.453125 L 21.6875 3.359375 C 21.394531 6.367188 19.242188 7.640625 15.234375 7.171875 C 14.878906 9.941406 13.875 11.328125 12.21875 11.328125 L 11.6875 11.328125 C 9.675781 11.097656 9.085938 7.5 9.921875 0.53125 L 8.40625 0.4375 L 6.109375 7.703125 L 4.609375 7.53125 C 5.671875 -2.382812 4.695312 -7.492188 1.6875 -7.796875 L 0.890625 -13.984375 L 2.5625 -15.3125 L 1.15625 -17 L 15.765625 -80.5625 L 14.4375 -82.15625 L 15.9375 -81.984375 L 14.609375 -83.578125 L 18.59375 -105.890625 L 18.6875 -107.390625 L 16.828125 -118.1875 L 18.328125 -118.09375 C 23.929688 -121.164062 28.328125 -122.703125 31.515625 -122.703125 C 31.867188 -122.703125 32.191406 -122.671875 32.484375 -122.609375 Z M 68.25 -103.5 L 68.078125 -101.984375 L 79.9375 -99.15625 C 80.113281 -101.164062 78.726562 -102.316406 75.78125 -102.609375 Z M 39.3125 -88.53125 L 39.75 -77.90625 L 53.46875 -79.40625 L 53.203125 -76.40625 L 75.421875 -86.046875 L 75.25 -84.546875 L 63.828125 -76.75 C 76.285156 -80.175781 82.984375 -85.992188 83.921875 -94.203125 L 80.921875 -94.546875 C 80.328125 -89.585938 78.554688 -87.257812 75.609375 -87.5625 L 75.875 -90.5625 L 74.359375 -90.65625 L 76.40625 -95.078125 L 77.734375 -93.40625 L 79.234375 -93.140625 L 79.40625 -94.640625 C 75.75 -98.117188 69.910156 -100.273438 61.890625 -101.109375 C 47.953125 -102.703125 40.425781 -98.507812 39.3125 -88.53125 Z M 74.359375 -90.65625 L 74.28125 -89.15625 L 70.90625 -86.578125 L 69.40625 -86.671875 Z M 67.46875 -55.0625 L 67.375 -53.65625 L 82.0625 -50.46875 L 83.578125 -50.375 L 83.75 -51.875 L 77.90625 -54 Z M 33.640625 -49.75 L 29.125 -23.015625 L 30.453125 -21.34375 L 31.953125 -21.15625 C 39.160156 -20.332031 55.484375 -26.617188 80.921875 -40.015625 L 84.28125 -42.671875 C 84.101562 -46.742188 80.328125 -49.164062 72.953125 -49.9375 L 61 -51.34375 Z M 87.46875 -43.90625 L 83.84375 -38.15625 L 90.296875 -41.96875 L 88.96875 -43.640625 Z M 97.296875 -36.734375 C 96.941406 -33.609375 87.023438 -26.113281 67.546875 -14.25 C 89.742188 -23.101562 101.078125 -29.921875 101.546875 -34.703125 L 100.046875 -34.875 L 98.796875 -36.5625 Z M 97.296875 -36.734375 "/></g></g></g><g fill="#640a34" fill-opacity="1"><g transform="translate(474.064776, 353.687528)"><g><path d="M 59.9375 -124.828125 C 60.582031 -121.816406 64.59375 -120.3125 71.96875 -120.3125 L 84.015625 -67.640625 L 94.546875 -67.640625 L 94.546875 -66.140625 L 85.515625 -64.625 L 85.515625 -63.125 C 88.523438 -63.125 90.03125 -62.117188 90.03125 -60.109375 L 102.078125 -60.109375 L 102.078125 -58.609375 C 102.078125 -56.367188 97.0625 -54.363281 87.03125 -52.59375 L 90.03125 -43.5625 L 88.53125 -39.046875 L 90.03125 -30.015625 L 88.53125 -28.5 L 90.03125 -28.5 L 88.53125 -27 L 90.03125 -8.9375 L 90.03125 0.09375 L 88.53125 -1.421875 L 87.03125 -1.421875 L 91.546875 21.15625 L 88.53125 21.15625 C 88.53125 18.144531 87.523438 16.640625 85.515625 16.640625 L 85.515625 18.15625 L 87.03125 22.671875 L 85.515625 22.671875 L 84.015625 21.15625 L 82.515625 21.15625 C 82.515625 24.164062 81.507812 25.671875 79.5 25.671875 L 71.96875 0.09375 L 70.46875 0.09375 L 70.46875 6.109375 L 68.96875 6.109375 L 65.953125 -11.953125 L 70.46875 -8.9375 L 70.46875 -10.453125 C 69.644531 -19.472656 68.140625 -23.984375 65.953125 -23.984375 L 67.46875 -25.5 L 67.46875 -30.015625 L 64.453125 -30.015625 L 64.453125 -25.5 L 62.953125 -25.5 L 62.953125 -31.515625 L 64.453125 -33.015625 L 62.953125 -33.015625 L 61.4375 -31.515625 L 61.4375 -37.53125 L 62.953125 -37.53125 L 64.453125 -36.03125 L 65.953125 -36.03125 L 64.453125 -37.53125 L 64.453125 -46.5625 L 31.34375 -39.046875 L 31.34375 -36.03125 L 41.875 -39.046875 L 47.890625 -37.53125 L 55.421875 -39.046875 L 55.421875 -36.03125 C 34.347656 -32.25 23.8125 -27.234375 23.8125 -20.984375 C 21.15625 -9.941406 18.144531 -2.914062 14.78125 0.09375 L 14.78125 3.09375 L 10.265625 3.09375 L 8.765625 1.59375 L 7.265625 1.59375 L 7.265625 3.09375 L 2.75 0.09375 L 5.75 -8.9375 L 4.25 -8.9375 C 1.238281 -8.9375 -0.265625 -4.925781 -0.265625 3.09375 L -3.28125 0.09375 L -1.765625 -8.9375 L -6.28125 -13.453125 L 19.296875 -75.15625 L 20.8125 -75.15625 C 20.8125 -72.144531 21.8125 -70.640625 23.8125 -70.640625 L 25.3125 -78.171875 L 23.8125 -76.671875 L 22.3125 -76.671875 L 22.3125 -82.6875 L 23.8125 -90.21875 L 25.3125 -88.703125 L 26.828125 -88.703125 L 25.3125 -90.21875 L 25.3125 -91.71875 L 28.328125 -97.734375 L 29.828125 -97.734375 L 31.34375 -96.234375 L 32.84375 -96.234375 L 32.84375 -97.734375 C 32.84375 -99.742188 31.335938 -100.75 28.328125 -100.75 L 35.859375 -121.8125 L 41.875 -121.8125 L 40.375 -120.3125 L 40.375 -118.8125 C 47.332031 -122.820312 53.851562 -124.828125 59.9375 -124.828125 Z M 50.90625 -90.21875 L 38.859375 -58.609375 L 41.875 -58.609375 C 51.90625 -58.609375 57.425781 -61.617188 58.4375 -67.640625 L 52.40625 -90.21875 Z M 37.359375 -81.1875 L 34.34375 -70.640625 L 32.84375 -72.15625 L 31.34375 -72.15625 L 32.84375 -66.140625 L 34.34375 -66.140625 L 38.859375 -79.671875 L 38.859375 -81.1875 Z M 20.8125 -67.640625 L 19.296875 -66.140625 L 19.296875 -63.125 L 20.8125 -63.125 L 22.3125 -67.640625 Z M 29.828125 -61.625 L 28.328125 -55.59375 L 29.828125 -55.59375 L 31.34375 -57.109375 L 31.34375 -61.625 Z M 16.296875 -60.109375 L 14.78125 -54.09375 L 16.296875 -54.09375 L 19.296875 -60.109375 Z M 41.875 -55.59375 L 41.875 -54.09375 L 44.890625 -54.09375 C 53.921875 -55.09375 58.4375 -56.597656 58.4375 -58.609375 L 56.921875 -58.609375 Z M 62.953125 -22.484375 L 65.953125 -22.484375 L 65.953125 -13.453125 L 64.453125 -13.453125 Z M 84.015625 -11.953125 L 84.015625 -8.9375 L 85.515625 -2.921875 L 87.03125 -2.921875 L 87.03125 -5.9375 L 85.515625 -11.953125 Z M 68.96875 -7.4375 L 68.96875 -4.421875 L 73.484375 -5.9375 L 73.484375 -8.9375 Z M 68.96875 -7.4375 "/></g></g></g><g clip-path="url(#80ad931c0d)"><g clip-path="url(#6f73e6a85c)"><path fill="#0d99ff" d="M 97.527344 170.234375 L 374.980469 170.234375 L 374.980469 217.777344 L 97.527344 217.777344 Z M 97.527344 170.234375 " fill-opacity="1" fill-rule="nonzero"/></g></g><g clip-path="url(#17ada5e85f)"><g clip-path="url(#32b3d5a88c)"><path fill="#fadf00" d="M 591.945312 356.878906 L 620.984375 356.878906 L 620.984375 384.722656 L 591.945312 384.722656 Z M 591.945312 356.878906 " fill-opacity="1" fill-rule="nonzero"/></g></g><g clip-path="url(#ca5179f688)"><g clip-path="url(#aa72875015)"><path fill="#fadf00" d="M 597.832031 206 L 644.230469 206 L 644.230469 348.105469 L 597.832031 348.105469 Z M 597.832031 206 " fill-opacity="1" fill-rule="nonzero"/></g></g></svg>