<svg xmlns="http://www.w3.org/2000/svg" xmlns:xlink="http://www.w3.org/1999/xlink" width="500" zoomAndPan="magnify" viewBox="0 0 375 374.999991" height="500" preserveAspectRatio="xMidYMid meet" version="1.0"><defs><filter x="0%" y="0%" width="100%" height="100%" id="72d50db20b"><feColorMatrix values="0 0 0 0 1 0 0 0 0 1 0 0 0 0 1 0 0 0 1 0" color-interpolation-filters="sRGB"/></filter><g/><clipPath id="bb774fd3ed"><path d="M 110.675781 186.011719 L 257.421875 186.011719 L 257.421875 228.960938 L 110.675781 228.960938 Z M 110.675781 186.011719 " clip-rule="nonzero"/></clipPath><clipPath id="2f0fc0fe57"><path d="M 110.851562 193.125 C 128.699219 186.523438 130.949219 185.625 133.125 186.375 C 135.449219 187.199219 138.601562 190.351562 139.273438 192.75 C 139.949219 194.925781 138.75 197.25 137.851562 200.023438 C 136.5 204.074219 133.125 214.199219 131.023438 214.273438 C 129.449219 214.351562 126 209.476562 126.601562 206.851562 C 127.800781 201.75 145.574219 192.074219 152.398438 189.601562 C 156.226562 188.25 159.898438 187.351562 162.226562 188.550781 C 164.324219 189.601562 166.050781 192.75 166.199219 195.523438 C 166.5 199.273438 162.523438 206.625 160.726562 209.023438 C 159.898438 210.148438 159.226562 210.675781 158.25 211.125 C 157.351562 211.574219 156.148438 211.800781 155.101562 211.800781 C 154.050781 211.800781 152.925781 211.425781 151.949219 210.976562 C 151.050781 210.449219 150.226562 209.625 149.625 208.726562 C 149.023438 207.824219 148.648438 206.699219 148.574219 205.648438 C 148.5 204.675781 148.351562 203.699219 149.023438 202.5 C 150.675781 199.726562 159 194.398438 163.050781 191.925781 C 165.898438 190.273438 168.226562 188.625 170.851562 188.398438 C 173.324219 188.175781 176.773438 188.773438 178.574219 190.425781 C 180.375 192.148438 181.199219 196.050781 181.273438 198.976562 C 181.351562 201.898438 180.675781 206.625 178.875 207.824219 C 177.300781 208.875 171.898438 207.75 171.675781 206.773438 C 171.375 204.75 190.949219 195.976562 196.875 193.050781 C 200.023438 191.550781 201.675781 190.125 204.148438 189.898438 C 206.773438 189.75 210.675781 190.5 212.398438 192.375 C 214.199219 194.25 214.425781 197.925781 214.351562 201.523438 C 214.273438 207 212.324219 220.648438 209.324219 221.925781 C 207.375 222.75 202.273438 219.523438 201.976562 217.800781 C 201.675781 216.074219 204.675781 213.898438 207.226562 211.648438 C 211.351562 207.976562 220.949219 201.976562 225.824219 199.199219 C 228.824219 197.550781 230.699219 195.824219 233.324219 195.75 C 236.101562 195.675781 240.675781 197.023438 242.101562 199.199219 C 243.601562 201.300781 242.851562 205.199219 242.175781 208.726562 C 241.199219 213.375 237.824219 223.949219 235.425781 224.324219 C 233.625 224.550781 229.800781 219.824219 229.800781 217.273438 C 229.648438 214.425781 233.699219 210.976562 236.476562 207.898438 C 239.773438 204.226562 245.101562 196.800781 248.699219 197.023438 C 252 197.25 257.625 203.550781 257.398438 207.375 C 256.949219 213.074219 240.898438 224.476562 235.273438 227.25 C 232.574219 228.601562 230.398438 229.425781 228.449219 228.523438 C 226.050781 227.476562 223.050781 223.050781 222.75 219.523438 C 222.449219 215.023438 228.148438 203.25 229.949219 203.324219 C 231.148438 203.398438 233.550781 208.199219 232.726562 210.824219 C 231.074219 216.074219 214.050781 226.726562 207.300781 228.375 C 203.550781 229.273438 199.351562 229.050781 197.550781 227.101562 C 195.601562 224.851562 196.5 218.175781 197.476562 214.425781 C 198.449219 210.898438 203.851562 205.949219 203.023438 205.125 C 201.675781 203.625 183.523438 217.050781 177.148438 218.699219 C 173.773438 219.601562 171 220.273438 168.898438 219 C 166.574219 217.574219 163.875 212.175781 164.25 209.476562 C 164.625 207.074219 170.476562 203.851562 170.175781 203.398438 C 169.875 202.949219 163.273438 206.175781 161.550781 207.601562 C 160.5 208.5 160.425781 209.550781 159.601562 210.226562 C 158.851562 210.898438 157.800781 211.5 156.75 211.648438 C 155.324219 211.875 153.226562 211.574219 151.949219 210.976562 C 150.976562 210.449219 150.226562 209.625 149.625 208.726562 C 149.023438 207.824219 148.648438 206.773438 148.574219 205.648438 C 148.5 204.449219 148.574219 203.101562 149.25 201.824219 C 150.074219 200.023438 152.625 196.273438 153.976562 196.5 C 155.25 196.648438 157.574219 200.625 157.050781 202.726562 C 156.148438 206.175781 146.175781 210.601562 141.300781 213.449219 C 137.324219 215.851562 133.800781 218.699219 130.125 219.226562 C 127.050781 219.75 122.851562 219.523438 120.976562 217.726562 C 119.023438 215.925781 118.5 211.5 119.023438 208.125 C 119.625 203.851562 123.675781 194.851562 125.925781 194.550781 C 127.5 194.398438 130.875 198.375 130.425781 199.949219 C 129.898438 202.273438 119.324219 207.148438 116.023438 205.726562 C 112.949219 204.449219 110.851562 193.125 110.851562 193.125 " clip-rule="nonzero"/></clipPath><mask id="bceae179da"><g filter="url(#72d50db20b)"><rect x="-37.5" width="450" fill="#000000" y="-37.499999" height="449.999989" fill-opacity="0.5"/></g></mask><clipPath id="2559900469"><path d="M 0.675781 0.0117188 L 147.421875 0.0117188 L 147.421875 42.960938 L 0.675781 42.960938 Z M 0.675781 0.0117188 " clip-rule="nonzero"/></clipPath><clipPath id="66dc9b93dd"><path d="M 0.851562 7.125 C 18.699219 0.523438 20.949219 -0.375 23.125 0.375 C 25.449219 1.199219 28.601562 4.351562 29.273438 6.75 C 29.949219 8.925781 28.75 11.25 27.851562 14.023438 C 26.5 18.074219 23.125 28.199219 21.023438 28.273438 C 19.449219 28.351562 16 23.476562 16.601562 20.851562 C 17.800781 15.75 35.574219 6.074219 42.398438 3.601562 C 46.226562 2.25 49.898438 1.351562 52.226562 2.550781 C 54.324219 3.601562 56.050781 6.75 56.199219 9.523438 C 56.5 13.273438 52.523438 20.625 50.726562 23.023438 C 49.898438 24.148438 49.226562 24.675781 48.25 25.125 C 47.351562 25.574219 46.148438 25.800781 45.101562 25.800781 C 44.050781 25.800781 42.925781 25.425781 41.949219 24.976562 C 41.050781 24.449219 40.226562 23.625 39.625 22.726562 C 39.023438 21.824219 38.648438 20.699219 38.574219 19.648438 C 38.5 18.675781 38.351562 17.699219 39.023438 16.5 C 40.675781 13.726562 49 8.398438 53.050781 5.925781 C 55.898438 4.273438 58.226562 2.625 60.851562 2.398438 C 63.324219 2.175781 66.773438 2.773438 68.574219 4.425781 C 70.375 6.148438 71.199219 10.050781 71.273438 12.976562 C 71.351562 15.898438 70.675781 20.625 68.875 21.824219 C 67.300781 22.875 61.898438 21.75 61.675781 20.773438 C 61.375 18.75 80.949219 9.976562 86.875 7.050781 C 90.023438 5.550781 91.675781 4.125 94.148438 3.898438 C 96.773438 3.75 100.675781 4.5 102.398438 6.375 C 104.199219 8.25 104.425781 11.925781 104.351562 15.523438 C 104.273438 21 102.324219 34.648438 99.324219 35.925781 C 97.375 36.75 92.273438 33.523438 91.976562 31.800781 C 91.675781 30.074219 94.675781 27.898438 97.226562 25.648438 C 101.351562 21.976562 110.949219 15.976562 115.824219 13.199219 C 118.824219 11.550781 120.699219 9.824219 123.324219 9.75 C 126.101562 9.675781 130.675781 11.023438 132.101562 13.199219 C 133.601562 15.300781 132.851562 19.199219 132.175781 22.726562 C 131.199219 27.375 127.824219 37.949219 125.425781 38.324219 C 123.625 38.550781 119.800781 33.824219 119.800781 31.273438 C 119.648438 28.425781 123.699219 24.976562 126.476562 21.898438 C 129.773438 18.226562 135.101562 10.800781 138.699219 11.023438 C 142 11.25 147.625 17.550781 147.398438 21.375 C 146.949219 27.074219 130.898438 38.476562 125.273438 41.25 C 122.574219 42.601562 120.398438 43.425781 118.449219 42.523438 C 116.050781 41.476562 113.050781 37.050781 112.75 33.523438 C 112.449219 29.023438 118.148438 17.25 119.949219 17.324219 C 121.148438 17.398438 123.550781 22.199219 122.726562 24.824219 C 121.074219 30.074219 104.050781 40.726562 97.300781 42.375 C 93.550781 43.273438 89.351562 43.050781 87.550781 41.101562 C 85.601562 38.851562 86.5 32.175781 87.476562 28.425781 C 88.449219 24.898438 93.851562 19.949219 93.023438 19.125 C 91.675781 17.625 73.523438 31.050781 67.148438 32.699219 C 63.773438 33.601562 61 34.273438 58.898438 33 C 56.574219 31.574219 53.875 26.175781 54.25 23.476562 C 54.625 21.074219 60.476562 17.851562 60.175781 17.398438 C 59.875 16.949219 53.273438 20.175781 51.550781 21.601562 C 50.5 22.5 50.425781 23.550781 49.601562 24.226562 C 48.851562 24.898438 47.800781 25.5 46.75 25.648438 C 45.324219 25.875 43.226562 25.574219 41.949219 24.976562 C 40.976562 24.449219 40.226562 23.625 39.625 22.726562 C 39.023438 21.824219 38.648438 20.773438 38.574219 19.648438 C 38.5 18.449219 38.574219 17.101562 39.25 15.824219 C 40.074219 14.023438 42.625 10.273438 43.976562 10.5 C 45.25 10.648438 47.574219 14.625 47.050781 16.726562 C 46.148438 20.175781 36.175781 24.601562 31.300781 27.449219 C 27.324219 29.851562 23.800781 32.699219 20.125 33.226562 C 17.050781 33.75 12.851562 33.523438 10.976562 31.726562 C 9.023438 29.925781 8.5 25.5 9.023438 22.125 C 9.625 17.851562 13.675781 8.851562 15.925781 8.550781 C 17.5 8.398438 20.875 12.375 20.425781 13.949219 C 19.898438 16.273438 9.324219 21.148438 6.023438 19.726562 C 2.949219 18.449219 0.851562 7.125 0.851562 7.125 " clip-rule="nonzero"/></clipPath><clipPath id="e44a22c654"><rect x="0" width="148" y="0" height="43"/></clipPath><clipPath id="459b18f47d"><path d="M 106.132812 163.542969 L 170.636719 163.542969 L 170.636719 179 L 106.132812 179 Z M 106.132812 163.542969 " clip-rule="nonzero"/></clipPath><clipPath id="a60cd2732d"><path d="M 107.925781 174.523438 C 132.523438 165.523438 138.375 164.625 144.601562 164.101562 C 151.199219 163.574219 160.648438 163.273438 165.148438 164.175781 C 167.398438 164.625 169.351562 165.300781 170.101562 166.273438 C 170.625 166.875 170.699219 167.773438 170.476562 168.375 C 170.324219 168.898438 169.574219 169.574219 168.976562 169.800781 C 168.523438 170.023438 168 169.949219 167.550781 169.800781 C 167.023438 169.5 166.351562 168.824219 166.199219 168.226562 C 166.050781 167.625 166.273438 166.648438 166.648438 166.125 C 167.101562 165.675781 168.074219 165.375 168.675781 165.449219 C 169.273438 165.523438 170.101562 166.199219 170.398438 166.648438 C 170.625 167.101562 170.699219 167.625 170.550781 168.074219 C 170.324219 168.75 169.425781 169.648438 168.523438 169.875 C 167.101562 170.25 165.226562 168.824219 162.675781 168.523438 C 157.800781 168 147.75 168.226562 141.449219 168.898438 C 136.425781 169.351562 132.75 170.101562 127.875 171.449219 C 121.949219 173.175781 111.226562 178.949219 108.449219 178.949219 C 107.625 178.949219 107.324219 178.726562 106.949219 178.351562 C 106.574219 178.050781 106.273438 177.449219 106.199219 176.925781 C 106.125 176.476562 106.351562 175.800781 106.574219 175.425781 C 106.875 174.976562 107.925781 174.523438 107.925781 174.523438 " clip-rule="nonzero"/></clipPath></defs><g fill="#000000" fill-opacity="0.4"><g transform="translate(91.418655, 161.018814)"><g/></g></g><g fill="#640a34" fill-opacity="1"><g transform="translate(89.225513, 158.825673)"><g/></g></g><g fill="#000000" fill-opacity="0.4"><g transform="translate(103.969435, 161.018814)"><g><path d="M 8.75 -32.5 L 13.6875 -32.5 C 19.457031 -31.414062 22.34375 -28.941406 22.34375 -25.078125 L 22.34375 -22.609375 L 18.21875 -16.84375 L 18.640625 -16.84375 L 22.75 -20.546875 L 22.75 -19.71875 C 21.34375 -16.582031 19.554688 -14.523438 17.390625 -13.546875 L 14.921875 -12.71875 L 14.921875 -11.078125 C 15.523438 -11.078125 18.410156 -7.503906 23.578125 -0.359375 C 24.671875 0.0859375 25.769531 1.1875 26.875 2.9375 L 26.875 3.34375 L 24.8125 1.703125 L 24.8125 2.109375 C 26.1875 3.554688 26.875 4.65625 26.875 5.40625 L 26.453125 5.40625 L 24.40625 6.640625 L 23.984375 6.640625 L 23.171875 5.40625 L 22.75 5.8125 L 22.34375 5.8125 C 16.851562 1.320312 13.007812 -3.207031 10.8125 -7.78125 L 8.75 -11.890625 C 7.78125 -11.890625 7.226562 -10.242188 7.09375 -6.953125 C 7.269531 -4.203125 7.132812 -2.53125 6.6875 -1.9375 C 5.875 -1.269531 5.738281 -0.609375 6.28125 0.046875 L 6.28125 0.875 L 5.046875 0.875 C 4.492188 0.875 4.21875 0.320312 4.21875 -0.78125 L 3.796875 -0.78125 C 3.796875 0.320312 3.28125 0.734375 2.25 0.453125 L 0.4375 -1.96875 L 0.921875 -5.71875 L 0.921875 -7.359375 L 3.390625 -18.90625 L 3.796875 -18.90625 L 3.796875 -17.25 L 4.21875 -17.25 L 6.28125 -25.90625 C 5.726562 -25.90625 5.453125 -25.351562 5.453125 -24.25 L 5.046875 -24.25 L 5.046875 -25.078125 L 2.5625 -25.078125 L 2.5625 -25.484375 C 2.5625 -26.035156 3.390625 -26.453125 5.046875 -26.734375 L 5.046875 -27.140625 L 4.21875 -27.140625 L 1.75 -26.3125 L 1.328125 -26.3125 C 1.328125 -26.863281 1.878906 -27.140625 2.984375 -27.140625 L 2.984375 -27.546875 C 1.878906 -27.546875 1.328125 -27.957031 1.328125 -28.78125 Z M 9.15625 -17.671875 L 9.578125 -17.671875 C 13.890625 -19.734375 16.910156 -21.925781 18.640625 -24.25 L 18.640625 -25.078125 C 18.640625 -26.015625 16.988281 -26.976562 13.6875 -27.96875 L 11.21875 -27.140625 Z M 17.390625 -27.96875 C 17.941406 -26.71875 18.492188 -26.03125 19.046875 -25.90625 L 19.046875 -26.734375 Z M 19.875 -25.484375 L 19.453125 -23.4375 L 19.875 -23.4375 L 20.28125 -23.84375 L 20.28125 -25.484375 Z M 4.625 -24.25 L 5.046875 -24.25 L 5.046875 -23.015625 L 4.625 -21.375 L 4.21875 -21.375 L 4.21875 -22.609375 Z M 18.640625 -22.609375 L 16.578125 -19.71875 L 16.984375 -19.71875 L 19.046875 -22.203125 L 19.046875 -22.609375 Z M 22.75 -21.78125 L 23.578125 -21.78125 L 23.171875 -20.546875 L 22.75 -20.546875 Z M 3.796875 -20.546875 L 4.21875 -20.546875 L 4.21875 -18.90625 L 3.796875 -18.90625 Z M 2.984375 -15.1875 L 2.984375 -13.546875 L 3.390625 -13.546875 L 3.390625 -15.1875 Z M 15.34375 -2.828125 L 15.34375 -2.421875 L 16.984375 -0.78125 C 16.453125 -2.019531 15.90625 -2.703125 15.34375 -2.828125 Z M 17.390625 0.046875 L 17.390625 0.453125 L 19.046875 1.703125 L 19.046875 1.28125 Z M 17.390625 0.046875 "/></g></g></g><g fill="#000000" fill-opacity="0.4"><g transform="translate(127.343582, 161.018814)"><g><path d="M 22.796875 -32.28125 L 24.78125 -30.890625 C 24.207031 -28.453125 23.160156 -27.28125 21.640625 -27.375 L 10.875 -26.890625 L 10.828125 -26.078125 L 12.859375 -25.921875 L 15.359375 -26.171875 L 15.75 -25.703125 L 16.15625 -25.6875 L 19.0625 -25.921875 L 19.890625 -25.859375 L 19.875 -25.4375 L 10.296875 -24.453125 L 9.546875 -19.125 L 9.953125 -19.09375 L 21.15625 -19.984375 L 21.515625 -19.546875 L 21.5 -19.140625 L 20.671875 -19.21875 L 20.671875 -18.796875 L 23.5 -18.171875 L 23.484375 -17.765625 C 22.878906 -16.222656 18.9375 -14.976562 11.65625 -14.03125 L 7.515625 -13.890625 L 7.90625 -13.46875 L 5.90625 -8.234375 L 5.5 -8.234375 L 5.75 -11.953125 L 5.328125 -11.96875 L 4.53125 -6.25 C 12.75 -7.351562 18.554688 -7.789062 21.953125 -7.5625 L 23.96875 -7 L 23.9375 -6.171875 L 23.109375 -6.234375 L 23.484375 -5.796875 L 23.40625 -4.5625 C 22.613281 -3.519531 20.929688 -3.082031 18.359375 -3.25 L 18.34375 -2.828125 L 21.640625 -2.609375 L 21.5625 -1.796875 L 2.40625 1.015625 L 1.984375 1 C 0.660156 0.707031 0 0.273438 0 -0.296875 L 0 -0.359375 L 0.078125 -1.59375 L 1.21875 -6.0625 L 0.828125 -6.5 L 1.640625 -6.46875 L 1.5 -4.40625 L 1.921875 -4.359375 C 2.078125 -5.734375 2.398438 -6.394531 2.890625 -6.34375 L 2.5 -6.8125 L 2.78125 -10.90625 L 1.96875 -10.984375 L 1.40625 -8.9375 L 1.859375 -9.328125 L 2.28125 -9.3125 L 2.109375 -6.828125 L 1.703125 -6.875 L 1.765625 -8.09375 L 1.359375 -8.125 L 1.3125 -7.296875 L 0.890625 -7.3125 L 0.9375 -8.140625 L 2.25 -15.09375 L 1.84375 -15.125 L 2.78125 -17.109375 L 2.40625 -17.546875 L 2.421875 -17.953125 L 3.3125 -24.90625 L 3.703125 -24.46875 L 4.125 -24.453125 L 4.171875 -25.265625 L 3.90625 -27.359375 L 4.5625 -31.046875 L 4.625 -32.28125 L 5.046875 -32.234375 L 5.421875 -31.796875 L 5.859375 -32.171875 L 6.28125 -32.125 L 6.65625 -31.71875 L 7.09375 -32.109375 L 8.328125 -32.015625 Z M 2.1875 -14.265625 L 1.984375 -11.390625 L 2.40625 -11.359375 L 2.59375 -14.21875 Z M 15.78125 -13.734375 L 16.1875 -13.734375 L 16.140625 -13.328125 L 8.671875 -12.578125 L 8.28125 -13.03125 L 8.3125 -13.421875 L 12.046875 -13.59375 L 12.015625 -13.1875 Z M 15.78125 -13.734375 "/></g></g></g><g fill="#000000" fill-opacity="0.4"><g transform="translate(151.008454, 161.018814)"><g><path d="M 13.234375 -32.875 C 13.960938 -32.332031 16.269531 -32.0625 20.15625 -32.0625 L 20.140625 -31.640625 L 17.25 -31.640625 L 17.234375 -31.234375 C 20.671875 -31.234375 22.816406 -30.410156 23.671875 -28.765625 L 23.625 -27.9375 L 21.5625 -27.9375 L 21.546875 -27.53125 L 24.40625 -27.109375 L 24.375 -26.703125 L 21.90625 -26.703125 L 21.875 -26.296875 C 22.695312 -26.296875 23.09375 -26.019531 23.0625 -25.46875 C 18.164062 -25.46875 13.796875 -23.679688 9.953125 -20.109375 L 9.9375 -19.703125 C 15.25 -18.273438 19.457031 -15.113281 22.5625 -10.21875 L 22.53125 -9.8125 C 21.53125 -6.257812 18.726562 -2.960938 14.125 0.078125 L 11.609375 0.484375 L 11.578125 0.890625 L 12.40625 0.890625 C 12.375 1.640625 9.851562 2.46875 4.84375 3.375 L 4.890625 2.546875 L 6.953125 2.546875 L 7 2.125 C 5.238281 2.125 3.648438 1.164062 2.234375 -0.75 C 1.003906 -1.382812 0.390625 -2.585938 0.390625 -4.359375 C 0.390625 -4.523438 0.394531 -4.695312 0.40625 -4.875 L 1.703125 -5.6875 L 2.890625 -4.875 L 3.703125 -4.875 C 11.460938 -6.082031 15.460938 -8.550781 15.703125 -12.28125 C 12.453125 -13.925781 10.300781 -14.75 9.25 -14.75 L 9.234375 -14.34375 L 5.1875 -16 L 5.578125 -15.578125 L 5.546875 -14.75 C 2.117188 -17.269531 0.445312 -19.195312 0.53125 -20.53125 L 3.75 -26.296875 L 5.90625 -27.9375 L 5.859375 -27.109375 Z M 7.609375 -21.765625 L 7.578125 -21.34375 L 14.859375 -25.875 L 18.203125 -26.703125 L 18.25 -27.53125 L 17.421875 -27.53125 C 13.078125 -25.914062 9.804688 -23.992188 7.609375 -21.765625 Z M 9.890625 -4.875 L 10.296875 -4.875 L 11.171875 -5.6875 L 10.765625 -5.6875 Z M 17.296875 -4.875 L 15.53125 -2.8125 L 15.9375 -2.8125 L 17.71875 -4.875 Z M 12.140625 -1.578125 L 12.140625 -1.15625 L 12.546875 -1.15625 L 14.265625 -2.40625 Z M 7.46875 1.3125 L 7.4375 1.71875 L 9.09375 1.71875 L 11.171875 1.3125 L 11.171875 0.890625 L 10.765625 0.890625 Z M 7.46875 1.3125 "/></g></g></g><g fill="#000000" fill-opacity="0.4"><g transform="translate(173.655789, 161.018814)"><g/></g></g><g fill="#000000" fill-opacity="0.4"><g transform="translate(186.200401, 161.018814)"><g><path d="M 8.390625 -32.078125 L 11.265625 -29.609375 C 11.265625 -30.429688 11.539062 -30.84375 12.09375 -30.84375 L 12.5 -30.84375 L 18.265625 -16.015625 L 18.265625 -15.1875 L 17.859375 -15.1875 L 17.03125 -17.671875 L 16.625 -17.671875 L 16.625 -16.84375 L 19.5 -9.84375 L 19.921875 -9.84375 C 21.015625 -16.976562 22.597656 -24.429688 24.671875 -32.203125 L 25.90625 -31.375 L 27.140625 -31.796875 L 29.609375 -30.5625 L 29.609375 -30.140625 C 28.785156 -30.140625 28.375 -29.59375 28.375 -28.5 L 28.78125 -28.5 L 29.203125 -28.078125 L 29.609375 -28.078125 L 30.015625 -30.140625 L 30.84375 -30.140625 L 30.84375 -29.734375 L 30.4375 -29.3125 L 30.84375 -28.90625 L 30.84375 -28.5 C 28.78125 -22.144531 26.921875 -13.039062 25.265625 -1.1875 L 24.453125 -1.1875 L 25.265625 -7.78125 C 24.722656 -7.78125 23.898438 -5.171875 22.796875 0.046875 C 21.785156 0.867188 20.828125 1.28125 19.921875 1.28125 L 19.921875 2.109375 L 19.5 2.109375 C 19.5 1.554688 18.953125 1.28125 17.859375 1.28125 L 17.859375 -1.59375 C 17.859375 -2.84375 15.113281 -9.710938 9.625 -22.203125 L 9.203125 -22.203125 C 8.109375 -17.304688 7.148438 -10.710938 6.328125 -2.421875 L 5.90625 -2.828125 C 4.257812 -2.347656 3.4375 -1.664062 3.4375 -0.78125 L 2.609375 -0.78125 C 2.066406 -1.8125 1.796875 -3.59375 1.796875 -6.125 L 1.375 -6.125 L 1.375 -2.421875 L 0.5625 -2.421875 L 0.140625 -4.484375 C 0.140625 -11.941406 1.789062 -21.003906 5.09375 -31.671875 Z M 2.609375 -21.78125 L 2.609375 -21.375 L 3.03125 -20.953125 L 2.609375 -20.546875 L 2.609375 -19.71875 L 3.03125 -19.71875 L 3.4375 -21.375 L 3.03125 -21.78125 Z M 18.265625 -15.1875 C 18.984375 -15.1875 19.535156 -14.085938 19.921875 -11.890625 L 19.921875 -11.484375 L 19.5 -11.484375 Z M 18.265625 -15.1875 "/></g></g></g><g fill="#000000" fill-opacity="0.4"><g transform="translate(216.043192, 161.018814)"><g><path d="M 18.46875 -32.390625 C 21.695312 -32.390625 24.71875 -31.429688 27.53125 -29.515625 L 27.109375 -29.09375 L 27.109375 -28.6875 L 28.765625 -26.21875 L 27.9375 -26.21875 L 27.53125 -26.625 L 27.109375 -26.625 L 28.34375 -17.5625 L 28.765625 -17.5625 C 28.765625 -18.9375 29.039062 -19.625 29.59375 -19.625 L 29.59375 -17.984375 C 29.59375 -16.429688 28.21875 -12.859375 25.46875 -7.265625 L 25.875 -7.265625 C 23.9375 -4.597656 21.054688 -2.128906 17.234375 0.140625 L 15.171875 0.5625 L 14.75 0.5625 C 8.226562 0.5625 4.113281 -2.046875 2.40625 -7.265625 L 0.75 -9.734375 L 1.15625 -10.15625 L 0.75 -13.03125 L 0.75 -13.859375 C 0.75 -16.140625 2.945312 -20.125 7.34375 -25.8125 L 7.34375 -25.390625 C 5.320312 -22.679688 3.675781 -19.660156 2.40625 -16.328125 L 2.40625 -15.921875 L 2.8125 -15.921875 C 3.8125 -19.941406 7.519531 -25.019531 13.9375 -31.15625 L 11.046875 -29.515625 L 10.640625 -29.515625 C 10.640625 -30.773438 13.25 -31.734375 18.46875 -32.390625 Z M 16.40625 -25.390625 L 16 -25.8125 L 16 -25.390625 L 16.40625 -24.984375 L 13.515625 -22.515625 C 11.242188 -22.515625 9.050781 -18.671875 6.9375 -10.984375 C 6.9375 -8.785156 8.171875 -6.859375 10.640625 -5.203125 L 11.046875 -5.203125 C 14.054688 -5.203125 17.488281 -8.363281 21.34375 -14.6875 C 22.71875 -17.6875 23.40625 -19.882812 23.40625 -21.28125 L 23.40625 -24.5625 C 23.40625 -25.320312 22.03125 -25.875 19.28125 -26.21875 L 18.875 -26.21875 L 18.46875 -25.8125 L 18.046875 -25.8125 L 18.046875 -26.21875 Z M 28.34375 -24.15625 L 29.171875 -24.15625 L 29.171875 -22.09375 L 28.34375 -22.09375 Z M 7.34375 -19.625 L 6.109375 -17.15625 L 6.515625 -17.15625 L 7.75 -19.625 Z M 23.40625 -17.15625 L 21.765625 -13.03125 L 23 -13.03125 L 24.234375 -15.921875 L 23.8125 -17.15625 Z M 26.296875 -15.515625 L 25.875 -14.265625 L 25.875 -13.453125 L 26.296875 -13.453125 L 26.703125 -15.09375 L 26.703125 -15.515625 Z M 1.984375 -13.859375 L 1.984375 -10.5625 L 2.40625 -10.5625 L 2.40625 -13.859375 Z M 21.34375 -12.625 L 19.703125 -10.5625 L 20.109375 -10.5625 L 21.765625 -12.625 Z M 8.171875 -3.5625 L 8.171875 -3.15625 L 10.21875 -1.921875 L 10.21875 -2.328125 Z M 8.171875 -3.5625 "/></g></g></g><g fill="#000000" fill-opacity="0.4"><g transform="translate(245.086487, 161.018814)"><g><path d="M 8.390625 -32.078125 L 11.265625 -29.609375 C 11.265625 -30.429688 11.539062 -30.84375 12.09375 -30.84375 L 12.5 -30.84375 L 18.265625 -16.015625 L 18.265625 -15.1875 L 17.859375 -15.1875 L 17.03125 -17.671875 L 16.625 -17.671875 L 16.625 -16.84375 L 19.5 -9.84375 L 19.921875 -9.84375 C 21.015625 -16.976562 22.597656 -24.429688 24.671875 -32.203125 L 25.90625 -31.375 L 27.140625 -31.796875 L 29.609375 -30.5625 L 29.609375 -30.140625 C 28.785156 -30.140625 28.375 -29.59375 28.375 -28.5 L 28.78125 -28.5 L 29.203125 -28.078125 L 29.609375 -28.078125 L 30.015625 -30.140625 L 30.84375 -30.140625 L 30.84375 -29.734375 L 30.4375 -29.3125 L 30.84375 -28.90625 L 30.84375 -28.5 C 28.78125 -22.144531 26.921875 -13.039062 25.265625 -1.1875 L 24.453125 -1.1875 L 25.265625 -7.78125 C 24.722656 -7.78125 23.898438 -5.171875 22.796875 0.046875 C 21.785156 0.867188 20.828125 1.28125 19.921875 1.28125 L 19.921875 2.109375 L 19.5 2.109375 C 19.5 1.554688 18.953125 1.28125 17.859375 1.28125 L 17.859375 -1.59375 C 17.859375 -2.84375 15.113281 -9.710938 9.625 -22.203125 L 9.203125 -22.203125 C 8.109375 -17.304688 7.148438 -10.710938 6.328125 -2.421875 L 5.90625 -2.828125 C 4.257812 -2.347656 3.4375 -1.664062 3.4375 -0.78125 L 2.609375 -0.78125 C 2.066406 -1.8125 1.796875 -3.59375 1.796875 -6.125 L 1.375 -6.125 L 1.375 -2.421875 L 0.5625 -2.421875 L 0.140625 -4.484375 C 0.140625 -11.941406 1.789062 -21.003906 5.09375 -31.671875 Z M 2.609375 -21.78125 L 2.609375 -21.375 L 3.03125 -20.953125 L 2.609375 -20.546875 L 2.609375 -19.71875 L 3.03125 -19.71875 L 3.4375 -21.375 L 3.03125 -21.78125 Z M 18.265625 -15.1875 C 18.984375 -15.1875 19.535156 -14.085938 19.921875 -11.890625 L 19.921875 -11.484375 L 19.5 -11.484375 Z M 18.265625 -15.1875 "/></g></g></g><g fill="#640a34" fill-opacity="1"><g transform="translate(101.776294, 158.825673)"><g><path d="M 8.75 -32.5 L 13.6875 -32.5 C 19.457031 -31.414062 22.34375 -28.941406 22.34375 -25.078125 L 22.34375 -22.609375 L 18.21875 -16.84375 L 18.640625 -16.84375 L 22.75 -20.546875 L 22.75 -19.71875 C 21.34375 -16.582031 19.554688 -14.523438 17.390625 -13.546875 L 14.921875 -12.71875 L 14.921875 -11.078125 C 15.523438 -11.078125 18.410156 -7.503906 23.578125 -0.359375 C 24.671875 0.0859375 25.769531 1.1875 26.875 2.9375 L 26.875 3.34375 L 24.8125 1.703125 L 24.8125 2.109375 C 26.1875 3.554688 26.875 4.65625 26.875 5.40625 L 26.453125 5.40625 L 24.40625 6.640625 L 23.984375 6.640625 L 23.171875 5.40625 L 22.75 5.8125 L 22.34375 5.8125 C 16.851562 1.320312 13.007812 -3.207031 10.8125 -7.78125 L 8.75 -11.890625 C 7.78125 -11.890625 7.226562 -10.242188 7.09375 -6.953125 C 7.269531 -4.203125 7.132812 -2.53125 6.6875 -1.9375 C 5.875 -1.269531 5.738281 -0.609375 6.28125 0.046875 L 6.28125 0.875 L 5.046875 0.875 C 4.492188 0.875 4.21875 0.320312 4.21875 -0.78125 L 3.796875 -0.78125 C 3.796875 0.320312 3.28125 0.734375 2.25 0.453125 L 0.4375 -1.96875 L 0.921875 -5.71875 L 0.921875 -7.359375 L 3.390625 -18.90625 L 3.796875 -18.90625 L 3.796875 -17.25 L 4.21875 -17.25 L 6.28125 -25.90625 C 5.726562 -25.90625 5.453125 -25.351562 5.453125 -24.25 L 5.046875 -24.25 L 5.046875 -25.078125 L 2.5625 -25.078125 L 2.5625 -25.484375 C 2.5625 -26.035156 3.390625 -26.453125 5.046875 -26.734375 L 5.046875 -27.140625 L 4.21875 -27.140625 L 1.75 -26.3125 L 1.328125 -26.3125 C 1.328125 -26.863281 1.878906 -27.140625 2.984375 -27.140625 L 2.984375 -27.546875 C 1.878906 -27.546875 1.328125 -27.957031 1.328125 -28.78125 Z M 9.15625 -17.671875 L 9.578125 -17.671875 C 13.890625 -19.734375 16.910156 -21.925781 18.640625 -24.25 L 18.640625 -25.078125 C 18.640625 -26.015625 16.988281 -26.976562 13.6875 -27.96875 L 11.21875 -27.140625 Z M 17.390625 -27.96875 C 17.941406 -26.71875 18.492188 -26.03125 19.046875 -25.90625 L 19.046875 -26.734375 Z M 19.875 -25.484375 L 19.453125 -23.4375 L 19.875 -23.4375 L 20.28125 -23.84375 L 20.28125 -25.484375 Z M 4.625 -24.25 L 5.046875 -24.25 L 5.046875 -23.015625 L 4.625 -21.375 L 4.21875 -21.375 L 4.21875 -22.609375 Z M 18.640625 -22.609375 L 16.578125 -19.71875 L 16.984375 -19.71875 L 19.046875 -22.203125 L 19.046875 -22.609375 Z M 22.75 -21.78125 L 23.578125 -21.78125 L 23.171875 -20.546875 L 22.75 -20.546875 Z M 3.796875 -20.546875 L 4.21875 -20.546875 L 4.21875 -18.90625 L 3.796875 -18.90625 Z M 2.984375 -15.1875 L 2.984375 -13.546875 L 3.390625 -13.546875 L 3.390625 -15.1875 Z M 15.34375 -2.828125 L 15.34375 -2.421875 L 16.984375 -0.78125 C 16.453125 -2.019531 15.90625 -2.703125 15.34375 -2.828125 Z M 17.390625 0.046875 L 17.390625 0.453125 L 19.046875 1.703125 L 19.046875 1.28125 Z M 17.390625 0.046875 "/></g></g></g><g fill="#640a34" fill-opacity="1"><g transform="translate(125.15044, 158.825673)"><g><path d="M 22.796875 -32.28125 L 24.78125 -30.890625 C 24.207031 -28.453125 23.160156 -27.28125 21.640625 -27.375 L 10.875 -26.890625 L 10.828125 -26.078125 L 12.859375 -25.921875 L 15.359375 -26.171875 L 15.75 -25.703125 L 16.15625 -25.6875 L 19.0625 -25.921875 L 19.890625 -25.859375 L 19.875 -25.4375 L 10.296875 -24.453125 L 9.546875 -19.125 L 9.953125 -19.09375 L 21.15625 -19.984375 L 21.515625 -19.546875 L 21.5 -19.140625 L 20.671875 -19.21875 L 20.671875 -18.796875 L 23.5 -18.171875 L 23.484375 -17.765625 C 22.878906 -16.222656 18.9375 -14.976562 11.65625 -14.03125 L 7.515625 -13.890625 L 7.90625 -13.46875 L 5.90625 -8.234375 L 5.5 -8.234375 L 5.75 -11.953125 L 5.328125 -11.96875 L 4.53125 -6.25 C 12.75 -7.351562 18.554688 -7.789062 21.953125 -7.5625 L 23.96875 -7 L 23.9375 -6.171875 L 23.109375 -6.234375 L 23.484375 -5.796875 L 23.40625 -4.5625 C 22.613281 -3.519531 20.929688 -3.082031 18.359375 -3.25 L 18.34375 -2.828125 L 21.640625 -2.609375 L 21.5625 -1.796875 L 2.40625 1.015625 L 1.984375 1 C 0.660156 0.707031 0 0.273438 0 -0.296875 L 0 -0.359375 L 0.078125 -1.59375 L 1.21875 -6.0625 L 0.828125 -6.5 L 1.640625 -6.46875 L 1.5 -4.40625 L 1.921875 -4.359375 C 2.078125 -5.734375 2.398438 -6.394531 2.890625 -6.34375 L 2.5 -6.8125 L 2.78125 -10.90625 L 1.96875 -10.984375 L 1.40625 -8.9375 L 1.859375 -9.328125 L 2.28125 -9.3125 L 2.109375 -6.828125 L 1.703125 -6.875 L 1.765625 -8.09375 L 1.359375 -8.125 L 1.3125 -7.296875 L 0.890625 -7.3125 L 0.9375 -8.140625 L 2.25 -15.09375 L 1.84375 -15.125 L 2.78125 -17.109375 L 2.40625 -17.546875 L 2.421875 -17.953125 L 3.3125 -24.90625 L 3.703125 -24.46875 L 4.125 -24.453125 L 4.171875 -25.265625 L 3.90625 -27.359375 L 4.5625 -31.046875 L 4.625 -32.28125 L 5.046875 -32.234375 L 5.421875 -31.796875 L 5.859375 -32.171875 L 6.28125 -32.125 L 6.65625 -31.71875 L 7.09375 -32.109375 L 8.328125 -32.015625 Z M 2.1875 -14.265625 L 1.984375 -11.390625 L 2.40625 -11.359375 L 2.59375 -14.21875 Z M 15.78125 -13.734375 L 16.1875 -13.734375 L 16.140625 -13.328125 L 8.671875 -12.578125 L 8.28125 -13.03125 L 8.3125 -13.421875 L 12.046875 -13.59375 L 12.015625 -13.1875 Z M 15.78125 -13.734375 "/></g></g></g><g fill="#640a34" fill-opacity="1"><g transform="translate(148.815312, 158.825673)"><g><path d="M 13.234375 -32.875 C 13.960938 -32.332031 16.269531 -32.0625 20.15625 -32.0625 L 20.140625 -31.640625 L 17.25 -31.640625 L 17.234375 -31.234375 C 20.671875 -31.234375 22.816406 -30.410156 23.671875 -28.765625 L 23.625 -27.9375 L 21.5625 -27.9375 L 21.546875 -27.53125 L 24.40625 -27.109375 L 24.375 -26.703125 L 21.90625 -26.703125 L 21.875 -26.296875 C 22.695312 -26.296875 23.09375 -26.019531 23.0625 -25.46875 C 18.164062 -25.46875 13.796875 -23.679688 9.953125 -20.109375 L 9.9375 -19.703125 C 15.25 -18.273438 19.457031 -15.113281 22.5625 -10.21875 L 22.53125 -9.8125 C 21.53125 -6.257812 18.726562 -2.960938 14.125 0.078125 L 11.609375 0.484375 L 11.578125 0.890625 L 12.40625 0.890625 C 12.375 1.640625 9.851562 2.46875 4.84375 3.375 L 4.890625 2.546875 L 6.953125 2.546875 L 7 2.125 C 5.238281 2.125 3.648438 1.164062 2.234375 -0.75 C 1.003906 -1.382812 0.390625 -2.585938 0.390625 -4.359375 C 0.390625 -4.523438 0.394531 -4.695312 0.40625 -4.875 L 1.703125 -5.6875 L 2.890625 -4.875 L 3.703125 -4.875 C 11.460938 -6.082031 15.460938 -8.550781 15.703125 -12.28125 C 12.453125 -13.925781 10.300781 -14.75 9.25 -14.75 L 9.234375 -14.34375 L 5.1875 -16 L 5.578125 -15.578125 L 5.546875 -14.75 C 2.117188 -17.269531 0.445312 -19.195312 0.53125 -20.53125 L 3.75 -26.296875 L 5.90625 -27.9375 L 5.859375 -27.109375 Z M 7.609375 -21.765625 L 7.578125 -21.34375 L 14.859375 -25.875 L 18.203125 -26.703125 L 18.25 -27.53125 L 17.421875 -27.53125 C 13.078125 -25.914062 9.804688 -23.992188 7.609375 -21.765625 Z M 9.890625 -4.875 L 10.296875 -4.875 L 11.171875 -5.6875 L 10.765625 -5.6875 Z M 17.296875 -4.875 L 15.53125 -2.8125 L 15.9375 -2.8125 L 17.71875 -4.875 Z M 12.140625 -1.578125 L 12.140625 -1.15625 L 12.546875 -1.15625 L 14.265625 -2.40625 Z M 7.46875 1.3125 L 7.4375 1.71875 L 9.09375 1.71875 L 11.171875 1.3125 L 11.171875 0.890625 L 10.765625 0.890625 Z M 7.46875 1.3125 "/></g></g></g><g fill="#640a34" fill-opacity="1"><g transform="translate(171.462648, 158.825673)"><g/></g></g><g fill="#640a34" fill-opacity="1"><g transform="translate(184.00726, 158.825673)"><g><path d="M 8.390625 -32.078125 L 11.265625 -29.609375 C 11.265625 -30.429688 11.539062 -30.84375 12.09375 -30.84375 L 12.5 -30.84375 L 18.265625 -16.015625 L 18.265625 -15.1875 L 17.859375 -15.1875 L 17.03125 -17.671875 L 16.625 -17.671875 L 16.625 -16.84375 L 19.5 -9.84375 L 19.921875 -9.84375 C 21.015625 -16.976562 22.597656 -24.429688 24.671875 -32.203125 L 25.90625 -31.375 L 27.140625 -31.796875 L 29.609375 -30.5625 L 29.609375 -30.140625 C 28.785156 -30.140625 28.375 -29.59375 28.375 -28.5 L 28.78125 -28.5 L 29.203125 -28.078125 L 29.609375 -28.078125 L 30.015625 -30.140625 L 30.84375 -30.140625 L 30.84375 -29.734375 L 30.4375 -29.3125 L 30.84375 -28.90625 L 30.84375 -28.5 C 28.78125 -22.144531 26.921875 -13.039062 25.265625 -1.1875 L 24.453125 -1.1875 L 25.265625 -7.78125 C 24.722656 -7.78125 23.898438 -5.171875 22.796875 0.046875 C 21.785156 0.867188 20.828125 1.28125 19.921875 1.28125 L 19.921875 2.109375 L 19.5 2.109375 C 19.5 1.554688 18.953125 1.28125 17.859375 1.28125 L 17.859375 -1.59375 C 17.859375 -2.84375 15.113281 -9.710938 9.625 -22.203125 L 9.203125 -22.203125 C 8.109375 -17.304688 7.148438 -10.710938 6.328125 -2.421875 L 5.90625 -2.828125 C 4.257812 -2.347656 3.4375 -1.664062 3.4375 -0.78125 L 2.609375 -0.78125 C 2.066406 -1.8125 1.796875 -3.59375 1.796875 -6.125 L 1.375 -6.125 L 1.375 -2.421875 L 0.5625 -2.421875 L 0.140625 -4.484375 C 0.140625 -11.941406 1.789062 -21.003906 5.09375 -31.671875 Z M 2.609375 -21.78125 L 2.609375 -21.375 L 3.03125 -20.953125 L 2.609375 -20.546875 L 2.609375 -19.71875 L 3.03125 -19.71875 L 3.4375 -21.375 L 3.03125 -21.78125 Z M 18.265625 -15.1875 C 18.984375 -15.1875 19.535156 -14.085938 19.921875 -11.890625 L 19.921875 -11.484375 L 19.5 -11.484375 Z M 18.265625 -15.1875 "/></g></g></g><g fill="#640a34" fill-opacity="1"><g transform="translate(213.85005, 158.825673)"><g><path d="M 18.46875 -32.390625 C 21.695312 -32.390625 24.71875 -31.429688 27.53125 -29.515625 L 27.109375 -29.09375 L 27.109375 -28.6875 L 28.765625 -26.21875 L 27.9375 -26.21875 L 27.53125 -26.625 L 27.109375 -26.625 L 28.34375 -17.5625 L 28.765625 -17.5625 C 28.765625 -18.9375 29.039062 -19.625 29.59375 -19.625 L 29.59375 -17.984375 C 29.59375 -16.429688 28.21875 -12.859375 25.46875 -7.265625 L 25.875 -7.265625 C 23.9375 -4.597656 21.054688 -2.128906 17.234375 0.140625 L 15.171875 0.5625 L 14.75 0.5625 C 8.226562 0.5625 4.113281 -2.046875 2.40625 -7.265625 L 0.75 -9.734375 L 1.15625 -10.15625 L 0.75 -13.03125 L 0.75 -13.859375 C 0.75 -16.140625 2.945312 -20.125 7.34375 -25.8125 L 7.34375 -25.390625 C 5.320312 -22.679688 3.675781 -19.660156 2.40625 -16.328125 L 2.40625 -15.921875 L 2.8125 -15.921875 C 3.8125 -19.941406 7.519531 -25.019531 13.9375 -31.15625 L 11.046875 -29.515625 L 10.640625 -29.515625 C 10.640625 -30.773438 13.25 -31.734375 18.46875 -32.390625 Z M 16.40625 -25.390625 L 16 -25.8125 L 16 -25.390625 L 16.40625 -24.984375 L 13.515625 -22.515625 C 11.242188 -22.515625 9.050781 -18.671875 6.9375 -10.984375 C 6.9375 -8.785156 8.171875 -6.859375 10.640625 -5.203125 L 11.046875 -5.203125 C 14.054688 -5.203125 17.488281 -8.363281 21.34375 -14.6875 C 22.71875 -17.6875 23.40625 -19.882812 23.40625 -21.28125 L 23.40625 -24.5625 C 23.40625 -25.320312 22.03125 -25.875 19.28125 -26.21875 L 18.875 -26.21875 L 18.46875 -25.8125 L 18.046875 -25.8125 L 18.046875 -26.21875 Z M 28.34375 -24.15625 L 29.171875 -24.15625 L 29.171875 -22.09375 L 28.34375 -22.09375 Z M 7.34375 -19.625 L 6.109375 -17.15625 L 6.515625 -17.15625 L 7.75 -19.625 Z M 23.40625 -17.15625 L 21.765625 -13.03125 L 23 -13.03125 L 24.234375 -15.921875 L 23.8125 -17.15625 Z M 26.296875 -15.515625 L 25.875 -14.265625 L 25.875 -13.453125 L 26.296875 -13.453125 L 26.703125 -15.09375 L 26.703125 -15.515625 Z M 1.984375 -13.859375 L 1.984375 -10.5625 L 2.40625 -10.5625 L 2.40625 -13.859375 Z M 21.34375 -12.625 L 19.703125 -10.5625 L 20.109375 -10.5625 L 21.765625 -12.625 Z M 8.171875 -3.5625 L 8.171875 -3.15625 L 10.21875 -1.921875 L 10.21875 -2.328125 Z M 8.171875 -3.5625 "/></g></g></g><g fill="#640a34" fill-opacity="1"><g transform="translate(242.893345, 158.825673)"><g><path d="M 8.390625 -32.078125 L 11.265625 -29.609375 C 11.265625 -30.429688 11.539062 -30.84375 12.09375 -30.84375 L 12.5 -30.84375 L 18.265625 -16.015625 L 18.265625 -15.1875 L 17.859375 -15.1875 L 17.03125 -17.671875 L 16.625 -17.671875 L 16.625 -16.84375 L 19.5 -9.84375 L 19.921875 -9.84375 C 21.015625 -16.976562 22.597656 -24.429688 24.671875 -32.203125 L 25.90625 -31.375 L 27.140625 -31.796875 L 29.609375 -30.5625 L 29.609375 -30.140625 C 28.785156 -30.140625 28.375 -29.59375 28.375 -28.5 L 28.78125 -28.5 L 29.203125 -28.078125 L 29.609375 -28.078125 L 30.015625 -30.140625 L 30.84375 -30.140625 L 30.84375 -29.734375 L 30.4375 -29.3125 L 30.84375 -28.90625 L 30.84375 -28.5 C 28.78125 -22.144531 26.921875 -13.039062 25.265625 -1.1875 L 24.453125 -1.1875 L 25.265625 -7.78125 C 24.722656 -7.78125 23.898438 -5.171875 22.796875 0.046875 C 21.785156 0.867188 20.828125 1.28125 19.921875 1.28125 L 19.921875 2.109375 L 19.5 2.109375 C 19.5 1.554688 18.953125 1.28125 17.859375 1.28125 L 17.859375 -1.59375 C 17.859375 -2.84375 15.113281 -9.710938 9.625 -22.203125 L 9.203125 -22.203125 C 8.109375 -17.304688 7.148438 -10.710938 6.328125 -2.421875 L 5.90625 -2.828125 C 4.257812 -2.347656 3.4375 -1.664062 3.4375 -0.78125 L 2.609375 -0.78125 C 2.066406 -1.8125 1.796875 -3.59375 1.796875 -6.125 L 1.375 -6.125 L 1.375 -2.421875 L 0.5625 -2.421875 L 0.140625 -4.484375 C 0.140625 -11.941406 1.789062 -21.003906 5.09375 -31.671875 Z M 2.609375 -21.78125 L 2.609375 -21.375 L 3.03125 -20.953125 L 2.609375 -20.546875 L 2.609375 -19.71875 L 3.03125 -19.71875 L 3.4375 -21.375 L 3.03125 -21.78125 Z M 18.265625 -15.1875 C 18.984375 -15.1875 19.535156 -14.085938 19.921875 -11.890625 L 19.921875 -11.484375 L 19.5 -11.484375 Z M 18.265625 -15.1875 "/></g></g></g><g fill="#000000" fill-opacity="0.4"><g transform="translate(119.824903, 218.01881)"><g><path d="M -0.296875 -32.34375 C 3.003906 -32.34375 4.65625 -31.242188 4.65625 -29.046875 L 5.0625 -29.046875 L 5.0625 -30.28125 L 5.890625 -30.28125 C 6.984375 -27.070312 7.941406 -22.679688 8.765625 -17.109375 L 8.359375 -17.109375 L 8.765625 -16.6875 L 8.765625 -12.984375 L 9.59375 -12.984375 L 9.1875 -12.578125 L 9.1875 -10.515625 L 9.59375 -10.515625 C 10.675781 -13.242188 12.875 -16.953125 16.1875 -21.640625 L 16.59375 -21.21875 L 17.421875 -22.46875 L 17.015625 -22.46875 L 16.1875 -21.640625 L 16.1875 -22.046875 L 20.71875 -27 L 21.546875 -27 L 23.1875 -25.34375 L 21.125 -22.875 L 22.359375 -22.875 C 22.359375 -23.726562 23.1875 -24.6875 24.84375 -25.75 L 24.84375 -24.515625 C 23.738281 -24.390625 23.1875 -23.976562 23.1875 -23.28125 L 24.015625 -23.28125 C 24.015625 -24.101562 24.425781 -24.515625 25.25 -24.515625 L 25.25 -23.28125 C 23.84375 -22.457031 21.78125 -19.988281 19.0625 -15.875 L 10.421875 -0.21875 L 9.59375 -0.21875 L 9.1875 -0.625 C 8.363281 -0.625 7.953125 -0.078125 7.953125 1.015625 L 7.125 1.015625 C 5.195312 1.015625 4.234375 0.0546875 4.234375 -1.859375 L 4.65625 -3.109375 L 3.828125 -2.28125 L 3.828125 -1.046875 L 4.234375 -0.625 L 4.234375 -0.21875 L 3.828125 0.1875 L 3 0.1875 L 2.59375 -1.859375 L 3 -3.109375 L 2.59375 -3.109375 L 3 -3.515625 L 3 -5.984375 C 2.664062 -21.085938 1.707031 -28.640625 0.125 -28.640625 L 0.53125 -29.875 Z M 19.484375 -27.40625 L 19.484375 -27 L 17.828125 -25.34375 L 17.421875 -25.34375 C 18.066406 -26.539062 18.753906 -27.226562 19.484375 -27.40625 Z M 16.59375 -24.515625 L 16.59375 -24.109375 L 12.890625 -19.171875 L 12.890625 -19.578125 C 13.515625 -21.128906 14.75 -22.773438 16.59375 -24.515625 Z M 19.890625 -22.046875 L 18.65625 -19.984375 L 19.0625 -19.984375 L 20.3125 -21.640625 L 20.3125 -22.046875 Z M 3.421875 -19.984375 L 3.421875 -17.9375 L 3.828125 -17.9375 L 3.828125 -19.984375 Z M 11.65625 -17.9375 L 12.0625 -17.9375 L 12.0625 -16.6875 L 11.65625 -16.28125 L 11.25 -16.28125 L 11.25 -16.6875 Z M 3.828125 -16.6875 L 3.828125 -12.15625 L 4.234375 -12.15625 L 4.234375 -16.6875 Z M 11.25 -16.28125 L 11.25 -15.875 L 10 -14.21875 L 10 -14.640625 Z M 12.0625 -8.046875 L 12.0625 -7.625 L 13.296875 -8.875 L 13.296875 -9.28125 Z M 10 -4.75 L 10.421875 -4.34375 L 10.828125 -4.34375 L 11.65625 -6.8125 C 11.09375 -6.675781 10.539062 -5.988281 10 -4.75 Z M 10 -4.75 "/></g></g></g><g fill="#000000" fill-opacity="0.4"><g transform="translate(143.804728, 218.01881)"><g><path d="M 22.796875 -32.28125 L 24.78125 -30.890625 C 24.207031 -28.453125 23.160156 -27.28125 21.640625 -27.375 L 10.875 -26.890625 L 10.828125 -26.078125 L 12.859375 -25.921875 L 15.359375 -26.171875 L 15.75 -25.703125 L 16.15625 -25.6875 L 19.0625 -25.921875 L 19.890625 -25.859375 L 19.875 -25.4375 L 10.296875 -24.453125 L 9.546875 -19.125 L 9.953125 -19.09375 L 21.15625 -19.984375 L 21.515625 -19.546875 L 21.5 -19.140625 L 20.671875 -19.21875 L 20.671875 -18.796875 L 23.5 -18.171875 L 23.484375 -17.765625 C 22.878906 -16.222656 18.9375 -14.976562 11.65625 -14.03125 L 7.515625 -13.890625 L 7.90625 -13.46875 L 5.90625 -8.234375 L 5.5 -8.234375 L 5.75 -11.953125 L 5.328125 -11.96875 L 4.53125 -6.25 C 12.75 -7.351562 18.554688 -7.789062 21.953125 -7.5625 L 23.96875 -7 L 23.9375 -6.171875 L 23.109375 -6.234375 L 23.484375 -5.796875 L 23.40625 -4.5625 C 22.613281 -3.519531 20.929688 -3.082031 18.359375 -3.25 L 18.34375 -2.828125 L 21.640625 -2.609375 L 21.5625 -1.796875 L 2.40625 1.015625 L 1.984375 1 C 0.660156 0.707031 0 0.273438 0 -0.296875 L 0 -0.359375 L 0.078125 -1.59375 L 1.21875 -6.0625 L 0.828125 -6.5 L 1.640625 -6.46875 L 1.5 -4.40625 L 1.921875 -4.359375 C 2.078125 -5.734375 2.398438 -6.394531 2.890625 -6.34375 L 2.5 -6.8125 L 2.78125 -10.90625 L 1.96875 -10.984375 L 1.40625 -8.9375 L 1.859375 -9.328125 L 2.28125 -9.3125 L 2.109375 -6.828125 L 1.703125 -6.875 L 1.765625 -8.09375 L 1.359375 -8.125 L 1.3125 -7.296875 L 0.890625 -7.3125 L 0.9375 -8.140625 L 2.25 -15.09375 L 1.84375 -15.125 L 2.78125 -17.109375 L 2.40625 -17.546875 L 2.421875 -17.953125 L 3.3125 -24.90625 L 3.703125 -24.46875 L 4.125 -24.453125 L 4.171875 -25.265625 L 3.90625 -27.359375 L 4.5625 -31.046875 L 4.625 -32.28125 L 5.046875 -32.234375 L 5.421875 -31.796875 L 5.859375 -32.171875 L 6.28125 -32.125 L 6.65625 -31.71875 L 7.09375 -32.109375 L 8.328125 -32.015625 Z M 2.1875 -14.265625 L 1.984375 -11.390625 L 2.40625 -11.359375 L 2.59375 -14.21875 Z M 15.78125 -13.734375 L 16.1875 -13.734375 L 16.140625 -13.328125 L 8.671875 -12.578125 L 8.28125 -13.03125 L 8.3125 -13.421875 L 12.046875 -13.59375 L 12.015625 -13.1875 Z M 15.78125 -13.734375 "/></g></g></g><g fill="#000000" fill-opacity="0.4"><g transform="translate(167.469601, 218.01881)"><g><path d="M 8.75 -32.5 L 13.6875 -32.5 C 19.457031 -31.414062 22.34375 -28.941406 22.34375 -25.078125 L 22.34375 -22.609375 L 18.21875 -16.84375 L 18.640625 -16.84375 L 22.75 -20.546875 L 22.75 -19.71875 C 21.34375 -16.582031 19.554688 -14.523438 17.390625 -13.546875 L 14.921875 -12.71875 L 14.921875 -11.078125 C 15.523438 -11.078125 18.410156 -7.503906 23.578125 -0.359375 C 24.671875 0.0859375 25.769531 1.1875 26.875 2.9375 L 26.875 3.34375 L 24.8125 1.703125 L 24.8125 2.109375 C 26.1875 3.554688 26.875 4.65625 26.875 5.40625 L 26.453125 5.40625 L 24.40625 6.640625 L 23.984375 6.640625 L 23.171875 5.40625 L 22.75 5.8125 L 22.34375 5.8125 C 16.851562 1.320312 13.007812 -3.207031 10.8125 -7.78125 L 8.75 -11.890625 C 7.78125 -11.890625 7.226562 -10.242188 7.09375 -6.953125 C 7.269531 -4.203125 7.132812 -2.53125 6.6875 -1.9375 C 5.875 -1.269531 5.738281 -0.609375 6.28125 0.046875 L 6.28125 0.875 L 5.046875 0.875 C 4.492188 0.875 4.21875 0.320312 4.21875 -0.78125 L 3.796875 -0.78125 C 3.796875 0.320312 3.28125 0.734375 2.25 0.453125 L 0.4375 -1.96875 L 0.921875 -5.71875 L 0.921875 -7.359375 L 3.390625 -18.90625 L 3.796875 -18.90625 L 3.796875 -17.25 L 4.21875 -17.25 L 6.28125 -25.90625 C 5.726562 -25.90625 5.453125 -25.351562 5.453125 -24.25 L 5.046875 -24.25 L 5.046875 -25.078125 L 2.5625 -25.078125 L 2.5625 -25.484375 C 2.5625 -26.035156 3.390625 -26.453125 5.046875 -26.734375 L 5.046875 -27.140625 L 4.21875 -27.140625 L 1.75 -26.3125 L 1.328125 -26.3125 C 1.328125 -26.863281 1.878906 -27.140625 2.984375 -27.140625 L 2.984375 -27.546875 C 1.878906 -27.546875 1.328125 -27.957031 1.328125 -28.78125 Z M 9.15625 -17.671875 L 9.578125 -17.671875 C 13.890625 -19.734375 16.910156 -21.925781 18.640625 -24.25 L 18.640625 -25.078125 C 18.640625 -26.015625 16.988281 -26.976562 13.6875 -27.96875 L 11.21875 -27.140625 Z M 17.390625 -27.96875 C 17.941406 -26.71875 18.492188 -26.03125 19.046875 -25.90625 L 19.046875 -26.734375 Z M 19.875 -25.484375 L 19.453125 -23.4375 L 19.875 -23.4375 L 20.28125 -23.84375 L 20.28125 -25.484375 Z M 4.625 -24.25 L 5.046875 -24.25 L 5.046875 -23.015625 L 4.625 -21.375 L 4.21875 -21.375 L 4.21875 -22.609375 Z M 18.640625 -22.609375 L 16.578125 -19.71875 L 16.984375 -19.71875 L 19.046875 -22.203125 L 19.046875 -22.609375 Z M 22.75 -21.78125 L 23.578125 -21.78125 L 23.171875 -20.546875 L 22.75 -20.546875 Z M 3.796875 -20.546875 L 4.21875 -20.546875 L 4.21875 -18.90625 L 3.796875 -18.90625 Z M 2.984375 -15.1875 L 2.984375 -13.546875 L 3.390625 -13.546875 L 3.390625 -15.1875 Z M 15.34375 -2.828125 L 15.34375 -2.421875 L 16.984375 -0.78125 C 16.453125 -2.019531 15.90625 -2.703125 15.34375 -2.828125 Z M 17.390625 0.046875 L 17.390625 0.453125 L 19.046875 1.703125 L 19.046875 1.28125 Z M 17.390625 0.046875 "/></g></g></g><g fill="#000000" fill-opacity="0.4"><g transform="translate(190.84375, 218.01881)"><g><path d="M 16.765625 -33.515625 L 18.75 -32.875 L 18.703125 -32.46875 L 16.671875 -32.6875 Z M 8.890625 -33.5625 L 10.03125 -32.59375 L 13.8125 -33 L 14.171875 -32.546875 L 14.59375 -32.5 L 15.84375 -32.765625 C 20.46875 -32.273438 23.804688 -29.976562 25.859375 -25.875 C 26.398438 -25.8125 26.597656 -25.101562 26.453125 -23.75 L 26.140625 -20.859375 L 25.328125 -20.953125 L 25.375 -21.375 L 25.921875 -22.5625 L 25.5625 -23.015625 L 26 -23.390625 L 25.640625 -23.84375 L 24.84375 -23.921875 C 24.65625 -22.347656 23.085938 -20.722656 20.140625 -19.046875 L 20.09375 -18.640625 L 20.5 -18.609375 C 21.53125 -18.484375 22.976562 -19.007812 24.84375 -20.1875 L 24.765625 -19.359375 L 22.40625 -17.125 C 23.925781 -16.96875 26.148438 -14.523438 29.078125 -9.796875 C 28.753906 -6.785156 24.269531 -3.679688 15.625 -0.484375 C 11.925781 1.304688 9.078125 2.097656 7.078125 1.890625 L 6.34375 0.9375 L 5.9375 0.921875 C 5.851562 1.742188 5.265625 2.09375 4.171875 1.96875 C 4.066406 2.726562 3.789062 3.109375 3.34375 3.109375 L 3.203125 3.109375 C 2.648438 3.035156 2.488281 2.046875 2.71875 0.140625 L 2.296875 0.125 L 1.671875 2.109375 L 1.265625 2.0625 C 1.554688 -0.65625 1.285156 -2.050781 0.453125 -2.125 L 0.25 -3.828125 L 0.703125 -4.1875 L 0.3125 -4.65625 L 4.3125 -22.046875 L 3.953125 -22.484375 L 4.359375 -22.4375 L 4 -22.875 L 5.09375 -28.984375 L 5.109375 -29.390625 L 4.609375 -32.34375 L 5.015625 -32.328125 C 6.546875 -33.160156 7.75 -33.578125 8.625 -33.578125 C 8.71875 -33.578125 8.804688 -33.570312 8.890625 -33.5625 Z M 18.6875 -28.328125 L 18.640625 -27.921875 L 21.875 -27.140625 C 21.925781 -27.691406 21.546875 -28.003906 20.734375 -28.078125 Z M 10.765625 -24.234375 L 10.875 -21.328125 L 14.640625 -21.734375 L 14.5625 -20.90625 L 20.640625 -23.546875 L 20.59375 -23.140625 L 17.46875 -21.015625 C 20.875 -21.941406 22.707031 -23.53125 22.96875 -25.78125 L 22.140625 -25.875 C 21.984375 -24.519531 21.5 -23.882812 20.6875 -23.96875 L 20.765625 -24.78125 L 20.359375 -24.8125 L 20.90625 -26.03125 L 21.28125 -25.5625 L 21.6875 -25.484375 L 21.734375 -25.90625 C 20.734375 -26.851562 19.132812 -27.441406 16.9375 -27.671875 C 13.125 -28.109375 11.066406 -26.960938 10.765625 -24.234375 Z M 20.359375 -24.8125 L 20.328125 -24.40625 L 19.40625 -23.703125 L 19 -23.71875 Z M 18.46875 -15.078125 L 18.4375 -14.6875 L 22.46875 -13.8125 L 22.875 -13.78125 L 22.921875 -14.203125 L 21.328125 -14.78125 Z M 9.203125 -13.625 L 7.96875 -6.296875 L 8.328125 -5.84375 L 8.75 -5.796875 C 10.71875 -5.566406 15.179688 -7.285156 22.140625 -10.953125 L 23.0625 -11.671875 C 23.019531 -12.785156 21.988281 -13.453125 19.96875 -13.671875 L 16.6875 -14.046875 Z M 23.9375 -12.015625 L 22.953125 -10.4375 L 24.71875 -11.484375 L 24.359375 -11.953125 Z M 26.625 -10.0625 C 26.53125 -9.195312 23.816406 -7.144531 18.484375 -3.90625 C 24.554688 -6.320312 27.660156 -8.1875 27.796875 -9.5 L 27.375 -9.546875 L 27.046875 -10 Z M 26.625 -10.0625 "/></g></g></g><g fill="#000000" fill-opacity="0.4"><g transform="translate(218.675688, 218.01881)"><g><path d="M 16.40625 -34.171875 C 16.582031 -33.347656 17.679688 -32.9375 19.703125 -32.9375 L 23 -18.515625 L 25.875 -18.515625 L 25.875 -18.09375 L 23.40625 -17.6875 L 23.40625 -17.28125 C 24.226562 -17.28125 24.640625 -17.003906 24.640625 -16.453125 L 27.9375 -16.453125 L 27.9375 -16.046875 C 27.9375 -15.429688 26.5625 -14.878906 23.8125 -14.390625 L 24.640625 -11.921875 L 24.234375 -10.6875 L 24.640625 -8.21875 L 24.234375 -7.796875 L 24.640625 -7.796875 L 24.234375 -7.390625 L 24.640625 -2.453125 L 24.640625 0.03125 L 24.234375 -0.390625 L 23.8125 -0.390625 L 25.0625 5.796875 L 24.234375 5.796875 C 24.234375 4.972656 23.957031 4.5625 23.40625 4.5625 L 23.40625 4.96875 L 23.8125 6.203125 L 23.40625 6.203125 L 23 5.796875 L 22.578125 5.796875 C 22.578125 6.617188 22.304688 7.03125 21.765625 7.03125 L 19.703125 0.03125 L 19.28125 0.03125 L 19.28125 1.671875 L 18.875 1.671875 L 18.046875 -3.265625 L 19.28125 -2.453125 L 19.28125 -2.859375 C 19.0625 -5.328125 18.648438 -6.5625 18.046875 -6.5625 L 18.46875 -6.984375 L 18.46875 -8.21875 L 17.640625 -8.21875 L 17.640625 -6.984375 L 17.234375 -6.984375 L 17.234375 -8.625 L 17.640625 -9.03125 L 17.234375 -9.03125 L 16.8125 -8.625 L 16.8125 -10.28125 L 17.234375 -10.28125 L 17.640625 -9.859375 L 18.046875 -9.859375 L 17.640625 -10.28125 L 17.640625 -12.75 L 8.578125 -10.6875 L 8.578125 -9.859375 L 11.46875 -10.6875 L 13.109375 -10.28125 L 15.171875 -10.6875 L 15.171875 -9.859375 C 9.398438 -8.828125 6.515625 -7.457031 6.515625 -5.75 C 5.785156 -2.726562 4.960938 -0.800781 4.046875 0.03125 L 4.046875 0.84375 L 2.8125 0.84375 L 2.40625 0.4375 L 1.984375 0.4375 L 1.984375 0.84375 L 0.75 0.03125 L 1.578125 -2.453125 L 1.15625 -2.453125 C 0.332031 -2.453125 -0.078125 -1.351562 -0.078125 0.84375 L -0.890625 0.03125 L -0.484375 -2.453125 L -1.71875 -3.6875 L 5.28125 -20.578125 L 5.6875 -20.578125 C 5.6875 -19.753906 5.960938 -19.34375 6.515625 -19.34375 L 6.9375 -21.390625 L 6.515625 -20.984375 L 6.109375 -20.984375 L 6.109375 -22.625 L 6.515625 -24.6875 L 6.9375 -24.28125 L 7.34375 -24.28125 L 6.9375 -24.6875 L 6.9375 -25.109375 L 7.75 -26.75 L 8.171875 -26.75 L 8.578125 -26.34375 L 8.984375 -26.34375 L 8.984375 -26.75 C 8.984375 -27.300781 8.570312 -27.578125 7.75 -27.578125 L 9.8125 -33.34375 L 11.46875 -33.34375 L 11.046875 -32.9375 L 11.046875 -32.515625 C 12.953125 -33.617188 14.738281 -34.171875 16.40625 -34.171875 Z M 13.9375 -24.6875 L 10.640625 -16.046875 L 11.46875 -16.046875 C 14.207031 -16.046875 15.71875 -16.867188 16 -18.515625 L 14.34375 -24.6875 Z M 10.21875 -22.21875 L 9.40625 -19.34375 L 8.984375 -19.75 L 8.578125 -19.75 L 8.984375 -18.09375 L 9.40625 -18.09375 L 10.640625 -21.8125 L 10.640625 -22.21875 Z M 5.6875 -18.515625 L 5.28125 -18.09375 L 5.28125 -17.28125 L 5.6875 -17.28125 L 6.109375 -18.515625 Z M 8.171875 -16.859375 L 7.75 -15.21875 L 8.171875 -15.21875 L 8.578125 -15.625 L 8.578125 -16.859375 Z M 4.453125 -16.453125 L 4.046875 -14.8125 L 4.453125 -14.8125 L 5.28125 -16.453125 Z M 11.46875 -15.21875 L 11.46875 -14.8125 L 12.28125 -14.8125 C 14.757812 -15.082031 16 -15.492188 16 -16.046875 L 15.578125 -16.046875 Z M 17.234375 -6.15625 L 18.046875 -6.15625 L 18.046875 -3.6875 L 17.640625 -3.6875 Z M 23 -3.265625 L 23 -2.453125 L 23.40625 -0.796875 L 23.8125 -0.796875 L 23.8125 -1.625 L 23.40625 -3.265625 Z M 18.875 -2.03125 L 18.875 -1.21875 L 20.109375 -1.625 L 20.109375 -2.453125 Z M 18.875 -2.03125 "/></g></g></g><g fill="#640a34" fill-opacity="1"><g transform="translate(117.631761, 215.825669)"><g><path d="M -0.296875 -32.34375 C 3.003906 -32.34375 4.65625 -31.242188 4.65625 -29.046875 L 5.0625 -29.046875 L 5.0625 -30.28125 L 5.890625 -30.28125 C 6.984375 -27.070312 7.941406 -22.679688 8.765625 -17.109375 L 8.359375 -17.109375 L 8.765625 -16.6875 L 8.765625 -12.984375 L 9.59375 -12.984375 L 9.1875 -12.578125 L 9.1875 -10.515625 L 9.59375 -10.515625 C 10.675781 -13.242188 12.875 -16.953125 16.1875 -21.640625 L 16.59375 -21.21875 L 17.421875 -22.46875 L 17.015625 -22.46875 L 16.1875 -21.640625 L 16.1875 -22.046875 L 20.71875 -27 L 21.546875 -27 L 23.1875 -25.34375 L 21.125 -22.875 L 22.359375 -22.875 C 22.359375 -23.726562 23.1875 -24.6875 24.84375 -25.75 L 24.84375 -24.515625 C 23.738281 -24.390625 23.1875 -23.976562 23.1875 -23.28125 L 24.015625 -23.28125 C 24.015625 -24.101562 24.425781 -24.515625 25.25 -24.515625 L 25.25 -23.28125 C 23.84375 -22.457031 21.78125 -19.988281 19.0625 -15.875 L 10.421875 -0.21875 L 9.59375 -0.21875 L 9.1875 -0.625 C 8.363281 -0.625 7.953125 -0.078125 7.953125 1.015625 L 7.125 1.015625 C 5.195312 1.015625 4.234375 0.0546875 4.234375 -1.859375 L 4.65625 -3.109375 L 3.828125 -2.28125 L 3.828125 -1.046875 L 4.234375 -0.625 L 4.234375 -0.21875 L 3.828125 0.1875 L 3 0.1875 L 2.59375 -1.859375 L 3 -3.109375 L 2.59375 -3.109375 L 3 -3.515625 L 3 -5.984375 C 2.664062 -21.085938 1.707031 -28.640625 0.125 -28.640625 L 0.53125 -29.875 Z M 19.484375 -27.40625 L 19.484375 -27 L 17.828125 -25.34375 L 17.421875 -25.34375 C 18.066406 -26.539062 18.753906 -27.226562 19.484375 -27.40625 Z M 16.59375 -24.515625 L 16.59375 -24.109375 L 12.890625 -19.171875 L 12.890625 -19.578125 C 13.515625 -21.128906 14.75 -22.773438 16.59375 -24.515625 Z M 19.890625 -22.046875 L 18.65625 -19.984375 L 19.0625 -19.984375 L 20.3125 -21.640625 L 20.3125 -22.046875 Z M 3.421875 -19.984375 L 3.421875 -17.9375 L 3.828125 -17.9375 L 3.828125 -19.984375 Z M 11.65625 -17.9375 L 12.0625 -17.9375 L 12.0625 -16.6875 L 11.65625 -16.28125 L 11.25 -16.28125 L 11.25 -16.6875 Z M 3.828125 -16.6875 L 3.828125 -12.15625 L 4.234375 -12.15625 L 4.234375 -16.6875 Z M 11.25 -16.28125 L 11.25 -15.875 L 10 -14.21875 L 10 -14.640625 Z M 12.0625 -8.046875 L 12.0625 -7.625 L 13.296875 -8.875 L 13.296875 -9.28125 Z M 10 -4.75 L 10.421875 -4.34375 L 10.828125 -4.34375 L 11.65625 -6.8125 C 11.09375 -6.675781 10.539062 -5.988281 10 -4.75 Z M 10 -4.75 "/></g></g></g><g fill="#640a34" fill-opacity="1"><g transform="translate(141.611587, 215.825669)"><g><path d="M 22.796875 -32.28125 L 24.78125 -30.890625 C 24.207031 -28.453125 23.160156 -27.28125 21.640625 -27.375 L 10.875 -26.890625 L 10.828125 -26.078125 L 12.859375 -25.921875 L 15.359375 -26.171875 L 15.75 -25.703125 L 16.15625 -25.6875 L 19.0625 -25.921875 L 19.890625 -25.859375 L 19.875 -25.4375 L 10.296875 -24.453125 L 9.546875 -19.125 L 9.953125 -19.09375 L 21.15625 -19.984375 L 21.515625 -19.546875 L 21.5 -19.140625 L 20.671875 -19.21875 L 20.671875 -18.796875 L 23.5 -18.171875 L 23.484375 -17.765625 C 22.878906 -16.222656 18.9375 -14.976562 11.65625 -14.03125 L 7.515625 -13.890625 L 7.90625 -13.46875 L 5.90625 -8.234375 L 5.5 -8.234375 L 5.75 -11.953125 L 5.328125 -11.96875 L 4.53125 -6.25 C 12.75 -7.351562 18.554688 -7.789062 21.953125 -7.5625 L 23.96875 -7 L 23.9375 -6.171875 L 23.109375 -6.234375 L 23.484375 -5.796875 L 23.40625 -4.5625 C 22.613281 -3.519531 20.929688 -3.082031 18.359375 -3.25 L 18.34375 -2.828125 L 21.640625 -2.609375 L 21.5625 -1.796875 L 2.40625 1.015625 L 1.984375 1 C 0.660156 0.707031 0 0.273438 0 -0.296875 L 0 -0.359375 L 0.078125 -1.59375 L 1.21875 -6.0625 L 0.828125 -6.5 L 1.640625 -6.46875 L 1.5 -4.40625 L 1.921875 -4.359375 C 2.078125 -5.734375 2.398438 -6.394531 2.890625 -6.34375 L 2.5 -6.8125 L 2.78125 -10.90625 L 1.96875 -10.984375 L 1.40625 -8.9375 L 1.859375 -9.328125 L 2.28125 -9.3125 L 2.109375 -6.828125 L 1.703125 -6.875 L 1.765625 -8.09375 L 1.359375 -8.125 L 1.3125 -7.296875 L 0.890625 -7.3125 L 0.9375 -8.140625 L 2.25 -15.09375 L 1.84375 -15.125 L 2.78125 -17.109375 L 2.40625 -17.546875 L 2.421875 -17.953125 L 3.3125 -24.90625 L 3.703125 -24.46875 L 4.125 -24.453125 L 4.171875 -25.265625 L 3.90625 -27.359375 L 4.5625 -31.046875 L 4.625 -32.28125 L 5.046875 -32.234375 L 5.421875 -31.796875 L 5.859375 -32.171875 L 6.28125 -32.125 L 6.65625 -31.71875 L 7.09375 -32.109375 L 8.328125 -32.015625 Z M 2.1875 -14.265625 L 1.984375 -11.390625 L 2.40625 -11.359375 L 2.59375 -14.21875 Z M 15.78125 -13.734375 L 16.1875 -13.734375 L 16.140625 -13.328125 L 8.671875 -12.578125 L 8.28125 -13.03125 L 8.3125 -13.421875 L 12.046875 -13.59375 L 12.015625 -13.1875 Z M 15.78125 -13.734375 "/></g></g></g><g fill="#640a34" fill-opacity="1"><g transform="translate(165.276459, 215.825669)"><g><path d="M 8.75 -32.5 L 13.6875 -32.5 C 19.457031 -31.414062 22.34375 -28.941406 22.34375 -25.078125 L 22.34375 -22.609375 L 18.21875 -16.84375 L 18.640625 -16.84375 L 22.75 -20.546875 L 22.75 -19.71875 C 21.34375 -16.582031 19.554688 -14.523438 17.390625 -13.546875 L 14.921875 -12.71875 L 14.921875 -11.078125 C 15.523438 -11.078125 18.410156 -7.503906 23.578125 -0.359375 C 24.671875 0.0859375 25.769531 1.1875 26.875 2.9375 L 26.875 3.34375 L 24.8125 1.703125 L 24.8125 2.109375 C 26.1875 3.554688 26.875 4.65625 26.875 5.40625 L 26.453125 5.40625 L 24.40625 6.640625 L 23.984375 6.640625 L 23.171875 5.40625 L 22.75 5.8125 L 22.34375 5.8125 C 16.851562 1.320312 13.007812 -3.207031 10.8125 -7.78125 L 8.75 -11.890625 C 7.78125 -11.890625 7.226562 -10.242188 7.09375 -6.953125 C 7.269531 -4.203125 7.132812 -2.53125 6.6875 -1.9375 C 5.875 -1.269531 5.738281 -0.609375 6.28125 0.046875 L 6.28125 0.875 L 5.046875 0.875 C 4.492188 0.875 4.21875 0.320312 4.21875 -0.78125 L 3.796875 -0.78125 C 3.796875 0.320312 3.28125 0.734375 2.25 0.453125 L 0.4375 -1.96875 L 0.921875 -5.71875 L 0.921875 -7.359375 L 3.390625 -18.90625 L 3.796875 -18.90625 L 3.796875 -17.25 L 4.21875 -17.25 L 6.28125 -25.90625 C 5.726562 -25.90625 5.453125 -25.351562 5.453125 -24.25 L 5.046875 -24.25 L 5.046875 -25.078125 L 2.5625 -25.078125 L 2.5625 -25.484375 C 2.5625 -26.035156 3.390625 -26.453125 5.046875 -26.734375 L 5.046875 -27.140625 L 4.21875 -27.140625 L 1.75 -26.3125 L 1.328125 -26.3125 C 1.328125 -26.863281 1.878906 -27.140625 2.984375 -27.140625 L 2.984375 -27.546875 C 1.878906 -27.546875 1.328125 -27.957031 1.328125 -28.78125 Z M 9.15625 -17.671875 L 9.578125 -17.671875 C 13.890625 -19.734375 16.910156 -21.925781 18.640625 -24.25 L 18.640625 -25.078125 C 18.640625 -26.015625 16.988281 -26.976562 13.6875 -27.96875 L 11.21875 -27.140625 Z M 17.390625 -27.96875 C 17.941406 -26.71875 18.492188 -26.03125 19.046875 -25.90625 L 19.046875 -26.734375 Z M 19.875 -25.484375 L 19.453125 -23.4375 L 19.875 -23.4375 L 20.28125 -23.84375 L 20.28125 -25.484375 Z M 4.625 -24.25 L 5.046875 -24.25 L 5.046875 -23.015625 L 4.625 -21.375 L 4.21875 -21.375 L 4.21875 -22.609375 Z M 18.640625 -22.609375 L 16.578125 -19.71875 L 16.984375 -19.71875 L 19.046875 -22.203125 L 19.046875 -22.609375 Z M 22.75 -21.78125 L 23.578125 -21.78125 L 23.171875 -20.546875 L 22.75 -20.546875 Z M 3.796875 -20.546875 L 4.21875 -20.546875 L 4.21875 -18.90625 L 3.796875 -18.90625 Z M 2.984375 -15.1875 L 2.984375 -13.546875 L 3.390625 -13.546875 L 3.390625 -15.1875 Z M 15.34375 -2.828125 L 15.34375 -2.421875 L 16.984375 -0.78125 C 16.453125 -2.019531 15.90625 -2.703125 15.34375 -2.828125 Z M 17.390625 0.046875 L 17.390625 0.453125 L 19.046875 1.703125 L 19.046875 1.28125 Z M 17.390625 0.046875 "/></g></g></g><g fill="#640a34" fill-opacity="1"><g transform="translate(188.650609, 215.825669)"><g><path d="M 16.765625 -33.515625 L 18.75 -32.875 L 18.703125 -32.46875 L 16.671875 -32.6875 Z M 8.890625 -33.5625 L 10.03125 -32.59375 L 13.8125 -33 L 14.171875 -32.546875 L 14.59375 -32.5 L 15.84375 -32.765625 C 20.46875 -32.273438 23.804688 -29.976562 25.859375 -25.875 C 26.398438 -25.8125 26.597656 -25.101562 26.453125 -23.75 L 26.140625 -20.859375 L 25.328125 -20.953125 L 25.375 -21.375 L 25.921875 -22.5625 L 25.5625 -23.015625 L 26 -23.390625 L 25.640625 -23.84375 L 24.84375 -23.921875 C 24.65625 -22.347656 23.085938 -20.722656 20.140625 -19.046875 L 20.09375 -18.640625 L 20.5 -18.609375 C 21.53125 -18.484375 22.976562 -19.007812 24.84375 -20.1875 L 24.765625 -19.359375 L 22.40625 -17.125 C 23.925781 -16.96875 26.148438 -14.523438 29.078125 -9.796875 C 28.753906 -6.785156 24.269531 -3.679688 15.625 -0.484375 C 11.925781 1.304688 9.078125 2.097656 7.078125 1.890625 L 6.34375 0.9375 L 5.9375 0.921875 C 5.851562 1.742188 5.265625 2.09375 4.171875 1.96875 C 4.066406 2.726562 3.789062 3.109375 3.34375 3.109375 L 3.203125 3.109375 C 2.648438 3.035156 2.488281 2.046875 2.71875 0.140625 L 2.296875 0.125 L 1.671875 2.109375 L 1.265625 2.0625 C 1.554688 -0.65625 1.285156 -2.050781 0.453125 -2.125 L 0.25 -3.828125 L 0.703125 -4.1875 L 0.3125 -4.65625 L 4.3125 -22.046875 L 3.953125 -22.484375 L 4.359375 -22.4375 L 4 -22.875 L 5.09375 -28.984375 L 5.109375 -29.390625 L 4.609375 -32.34375 L 5.015625 -32.328125 C 6.546875 -33.160156 7.75 -33.578125 8.625 -33.578125 C 8.71875 -33.578125 8.804688 -33.570312 8.890625 -33.5625 Z M 18.6875 -28.328125 L 18.640625 -27.921875 L 21.875 -27.140625 C 21.925781 -27.691406 21.546875 -28.003906 20.734375 -28.078125 Z M 10.765625 -24.234375 L 10.875 -21.328125 L 14.640625 -21.734375 L 14.5625 -20.90625 L 20.640625 -23.546875 L 20.59375 -23.140625 L 17.46875 -21.015625 C 20.875 -21.941406 22.707031 -23.53125 22.96875 -25.78125 L 22.140625 -25.875 C 21.984375 -24.519531 21.5 -23.882812 20.6875 -23.96875 L 20.765625 -24.78125 L 20.359375 -24.8125 L 20.90625 -26.03125 L 21.28125 -25.5625 L 21.6875 -25.484375 L 21.734375 -25.90625 C 20.734375 -26.851562 19.132812 -27.441406 16.9375 -27.671875 C 13.125 -28.109375 11.066406 -26.960938 10.765625 -24.234375 Z M 20.359375 -24.8125 L 20.328125 -24.40625 L 19.40625 -23.703125 L 19 -23.71875 Z M 18.46875 -15.078125 L 18.4375 -14.6875 L 22.46875 -13.8125 L 22.875 -13.78125 L 22.921875 -14.203125 L 21.328125 -14.78125 Z M 9.203125 -13.625 L 7.96875 -6.296875 L 8.328125 -5.84375 L 8.75 -5.796875 C 10.71875 -5.566406 15.179688 -7.285156 22.140625 -10.953125 L 23.0625 -11.671875 C 23.019531 -12.785156 21.988281 -13.453125 19.96875 -13.671875 L 16.6875 -14.046875 Z M 23.9375 -12.015625 L 22.953125 -10.4375 L 24.71875 -11.484375 L 24.359375 -11.953125 Z M 26.625 -10.0625 C 26.53125 -9.195312 23.816406 -7.144531 18.484375 -3.90625 C 24.554688 -6.320312 27.660156 -8.1875 27.796875 -9.5 L 27.375 -9.546875 L 27.046875 -10 Z M 26.625 -10.0625 "/></g></g></g><g fill="#640a34" fill-opacity="1"><g transform="translate(216.482547, 215.825669)"><g><path d="M 16.40625 -34.171875 C 16.582031 -33.347656 17.679688 -32.9375 19.703125 -32.9375 L 23 -18.515625 L 25.875 -18.515625 L 25.875 -18.09375 L 23.40625 -17.6875 L 23.40625 -17.28125 C 24.226562 -17.28125 24.640625 -17.003906 24.640625 -16.453125 L 27.9375 -16.453125 L 27.9375 -16.046875 C 27.9375 -15.429688 26.5625 -14.878906 23.8125 -14.390625 L 24.640625 -11.921875 L 24.234375 -10.6875 L 24.640625 -8.21875 L 24.234375 -7.796875 L 24.640625 -7.796875 L 24.234375 -7.390625 L 24.640625 -2.453125 L 24.640625 0.03125 L 24.234375 -0.390625 L 23.8125 -0.390625 L 25.0625 5.796875 L 24.234375 5.796875 C 24.234375 4.972656 23.957031 4.5625 23.40625 4.5625 L 23.40625 4.96875 L 23.8125 6.203125 L 23.40625 6.203125 L 23 5.796875 L 22.578125 5.796875 C 22.578125 6.617188 22.304688 7.03125 21.765625 7.03125 L 19.703125 0.03125 L 19.28125 0.03125 L 19.28125 1.671875 L 18.875 1.671875 L 18.046875 -3.265625 L 19.28125 -2.453125 L 19.28125 -2.859375 C 19.0625 -5.328125 18.648438 -6.5625 18.046875 -6.5625 L 18.46875 -6.984375 L 18.46875 -8.21875 L 17.640625 -8.21875 L 17.640625 -6.984375 L 17.234375 -6.984375 L 17.234375 -8.625 L 17.640625 -9.03125 L 17.234375 -9.03125 L 16.8125 -8.625 L 16.8125 -10.28125 L 17.234375 -10.28125 L 17.640625 -9.859375 L 18.046875 -9.859375 L 17.640625 -10.28125 L 17.640625 -12.75 L 8.578125 -10.6875 L 8.578125 -9.859375 L 11.46875 -10.6875 L 13.109375 -10.28125 L 15.171875 -10.6875 L 15.171875 -9.859375 C 9.398438 -8.828125 6.515625 -7.457031 6.515625 -5.75 C 5.785156 -2.726562 4.960938 -0.800781 4.046875 0.03125 L 4.046875 0.84375 L 2.8125 0.84375 L 2.40625 0.4375 L 1.984375 0.4375 L 1.984375 0.84375 L 0.75 0.03125 L 1.578125 -2.453125 L 1.15625 -2.453125 C 0.332031 -2.453125 -0.078125 -1.351562 -0.078125 0.84375 L -0.890625 0.03125 L -0.484375 -2.453125 L -1.71875 -3.6875 L 5.28125 -20.578125 L 5.6875 -20.578125 C 5.6875 -19.753906 5.960938 -19.34375 6.515625 -19.34375 L 6.9375 -21.390625 L 6.515625 -20.984375 L 6.109375 -20.984375 L 6.109375 -22.625 L 6.515625 -24.6875 L 6.9375 -24.28125 L 7.34375 -24.28125 L 6.9375 -24.6875 L 6.9375 -25.109375 L 7.75 -26.75 L 8.171875 -26.75 L 8.578125 -26.34375 L 8.984375 -26.34375 L 8.984375 -26.75 C 8.984375 -27.300781 8.570312 -27.578125 7.75 -27.578125 L 9.8125 -33.34375 L 11.46875 -33.34375 L 11.046875 -32.9375 L 11.046875 -32.515625 C 12.953125 -33.617188 14.738281 -34.171875 16.40625 -34.171875 Z M 13.9375 -24.6875 L 10.640625 -16.046875 L 11.46875 -16.046875 C 14.207031 -16.046875 15.71875 -16.867188 16 -18.515625 L 14.34375 -24.6875 Z M 10.21875 -22.21875 L 9.40625 -19.34375 L 8.984375 -19.75 L 8.578125 -19.75 L 8.984375 -18.09375 L 9.40625 -18.09375 L 10.640625 -21.8125 L 10.640625 -22.21875 Z M 5.6875 -18.515625 L 5.28125 -18.09375 L 5.28125 -17.28125 L 5.6875 -17.28125 L 6.109375 -18.515625 Z M 8.171875 -16.859375 L 7.75 -15.21875 L 8.171875 -15.21875 L 8.578125 -15.625 L 8.578125 -16.859375 Z M 4.453125 -16.453125 L 4.046875 -14.8125 L 4.453125 -14.8125 L 5.28125 -16.453125 Z M 11.46875 -15.21875 L 11.46875 -14.8125 L 12.28125 -14.8125 C 14.757812 -15.082031 16 -15.492188 16 -16.046875 L 15.578125 -16.046875 Z M 17.234375 -6.15625 L 18.046875 -6.15625 L 18.046875 -3.6875 L 17.640625 -3.6875 Z M 23 -3.265625 L 23 -2.453125 L 23.40625 -0.796875 L 23.8125 -0.796875 L 23.8125 -1.625 L 23.40625 -3.265625 Z M 18.875 -2.03125 L 18.875 -1.21875 L 20.109375 -1.625 L 20.109375 -2.453125 Z M 18.875 -2.03125 "/></g></g></g><g clip-path="url(#bb774fd3ed)"><g clip-path="url(#2f0fc0fe57)"><g mask="url(#bceae179da)"><g transform="matrix(1, 0, 0, 1, 110, 186)"><g clip-path="url(#e44a22c654)"><g clip-path="url(#2559900469)"><g clip-path="url(#66dc9b93dd)"><rect x="-192.5" width="540" fill="#fff234" height="539.999987" y="-268.499998" fill-opacity="1"/></g></g></g></g></g></g></g><g clip-path="url(#459b18f47d)"><g clip-path="url(#a60cd2732d)"><path fill="#0571d3" d="M 103.199219 161.101562 L 173.648438 161.101562 L 173.648438 181.949219 L 103.199219 181.949219 Z M 103.199219 161.101562 " fill-opacity="1" fill-rule="nonzero"/></g></g></svg>