<svg xmlns="http://www.w3.org/2000/svg" xmlns:xlink="http://www.w3.org/1999/xlink" width="750" zoomAndPan="magnify" viewBox="0 0 562.5 309.74999" height="413" preserveAspectRatio="xMidYMid meet" version="1.0"><defs><clipPath id="e37de76ec5"><path d="M 74.789062 129.121094 L 279 129.121094 L 279 161.867188 L 74.789062 161.867188 Z M 74.789062 129.121094 " clip-rule="nonzero"/></clipPath><clipPath id="a2f979b86e"><path d="M 76.355469 151.496094 C 78.339844 149.707031 80.179688 148.304688 83.289062 147.214844 C 90.375 144.6875 108.777344 141.847656 121.726562 139.902344 C 134.574219 138 146.910156 136.988281 160.625 135.664062 C 175.96875 134.148438 193.25 132.511719 209.460938 131.425781 C 225.519531 130.414062 246.316406 129.597656 257.480469 129.324219 C 263.5 129.167969 268.546875 129.09375 271.296875 129.285156 C 272.46875 129.402344 273.03125 129.441406 273.792969 129.675781 C 274.609375 129.90625 275.375 130.257812 276.035156 130.644531 C 276.703125 131.074219 277.3125 131.582031 277.773438 132.125 C 278.230469 132.707031 278.535156 133.332031 278.738281 133.953125 C 278.945312 134.574219 278.996094 135.277344 278.945312 135.898438 C 278.84375 136.558594 278.640625 137.21875 278.28125 137.804688 C 277.972656 138.425781 277.464844 139.007812 276.90625 139.476562 C 276.292969 139.945312 275.628906 140.371094 274.863281 140.683594 C 274.101562 140.992188 273.285156 141.226562 272.421875 141.34375 C 271.601562 141.460938 270.683594 141.460938 269.871094 141.382812 C 269.003906 141.304688 268.136719 141.070312 267.421875 140.800781 C 266.65625 140.488281 265.894531 140.101562 265.332031 139.632812 C 264.71875 139.164062 264.210938 138.621094 263.855469 138.035156 C 263.445312 137.453125 263.191406 136.792969 263.089844 136.132812 C 262.988281 135.507812 263.039062 134.808594 263.191406 134.1875 C 263.347656 133.527344 263.699219 132.902344 264.109375 132.320312 C 264.519531 131.773438 265.128906 131.230469 265.742188 130.804688 C 266.351562 130.375 267.167969 130.023438 267.933594 129.75 C 268.699219 129.519531 269.566406 129.363281 270.429688 129.324219 C 271.296875 129.246094 272.164062 129.324219 272.980469 129.480469 C 273.792969 129.632812 274.664062 129.90625 275.375 130.296875 C 276.089844 130.644531 276.753906 131.113281 277.261719 131.617188 C 277.773438 132.125 278.230469 132.707031 278.484375 133.332031 C 278.792969 133.953125 278.945312 134.613281 278.996094 135.277344 C 278.996094 135.898438 278.84375 136.597656 278.585938 137.21875 C 278.332031 137.84375 277.925781 138.425781 277.414062 138.972656 C 276.957031 139.476562 276.292969 139.984375 275.578125 140.332031 C 274.917969 140.722656 274.101562 140.992188 273.285156 141.1875 C 272.46875 141.382812 271.910156 141.382812 270.738281 141.460938 C 267.832031 141.613281 262.273438 141.382812 255.953125 141.578125 C 244.585938 141.886719 221.386719 142.976562 208.238281 143.871094 C 198.90625 144.492188 193.707031 145 184.328125 145.933594 C 170.816406 147.214844 146.449219 149.78125 134.929688 151.222656 C 128.761719 152 125.90625 152.351562 120.65625 153.246094 C 114.027344 154.375 103.78125 157.019531 98.378906 157.679688 C 95.371094 158.066406 92.871094 157.445312 91.289062 158.066406 C 90.117188 158.535156 89.8125 159.664062 89.046875 160.207031 C 88.488281 160.597656 88.078125 160.832031 87.316406 161.0625 C 86.296875 161.414062 84.664062 161.804688 83.339844 161.804688 C 82.015625 161.804688 80.535156 161.53125 79.363281 161.0625 C 78.1875 160.558594 77.015625 159.777344 76.304688 158.964844 C 75.539062 158.109375 75.03125 157.019531 74.878906 156.007812 C 74.722656 154.996094 75.03125 153.710938 75.386719 152.894531 C 75.640625 152.3125 76.355469 151.496094 76.355469 151.496094 " clip-rule="nonzero"/></clipPath><clipPath id="03c4409b19"><path d="M 445.367188 269.148438 L 464.117188 269.148438 L 464.117188 287.175781 L 445.367188 287.175781 Z M 445.367188 269.148438 " clip-rule="nonzero"/></clipPath><clipPath id="f9ed56c7f4"><path d="M 445.371094 280.246094 C 445.683594 278.535156 445.800781 278.492188 445.800781 278.378906 C 445.800781 278.183594 445.527344 278.027344 445.527344 277.714844 C 445.527344 276.742188 446.773438 273.4375 448.054688 272.117188 C 449.222656 270.910156 451.128906 270.285156 452.765625 269.820312 C 454.476562 269.351562 456.769531 268.964844 458.09375 269.3125 C 458.984375 269.585938 459.492188 270.519531 460.113281 270.792969 C 460.582031 271.027344 461.167969 270.871094 461.476562 271.144531 C 461.75 271.378906 461.710938 271.804688 462.023438 272.152344 C 462.410156 272.621094 463.65625 273.046875 463.890625 273.515625 C 464.046875 273.789062 463.890625 274.292969 463.929688 274.332031 C 463.929688 274.332031 463.964844 274.332031 463.964844 274.332031 C 464.003906 274.410156 463.929688 274.644531 463.929688 274.839844 C 463.929688 275.148438 463.929688 275.769531 463.964844 276.003906 C 464.003906 276.121094 464.082031 276.160156 464.082031 276.238281 C 464.082031 276.351562 464.003906 276.46875 464.003906 276.667969 C 463.964844 277.132812 464.164062 278.378906 464.046875 278.804688 C 464.003906 279 463.847656 279 463.773438 279.15625 C 463.734375 279.308594 463.734375 279.542969 463.773438 279.699219 C 463.773438 279.855469 463.890625 279.933594 463.890625 280.089844 C 463.8125 280.363281 463.226562 280.75 463.070312 281.101562 C 462.953125 281.332031 462.953125 281.722656 462.917969 281.839844 C 462.878906 281.878906 462.835938 281.878906 462.835938 281.914062 C 462.800781 281.957031 462.761719 282.1875 462.761719 282.1875 C 462.761719 282.1875 462.761719 282.230469 462.761719 282.265625 C 462.761719 282.265625 462.761719 282.230469 462.761719 282.230469 C 462.761719 282.230469 462.71875 282.304688 462.683594 282.382812 C 462.644531 282.460938 462.527344 282.734375 462.449219 282.886719 C 462.371094 283.042969 462.292969 283.242188 462.253906 283.359375 C 462.214844 283.394531 462.179688 283.472656 462.179688 283.511719 C 462.136719 283.550781 462.136719 283.550781 462.136719 283.550781 C 462.136719 283.550781 462.097656 283.589844 462.097656 283.589844 C 462.097656 283.628906 461.945312 283.785156 461.863281 283.898438 C 461.828125 283.980469 461.828125 284.054688 461.789062 284.097656 C 461.710938 284.171875 461.632812 284.25 461.515625 284.328125 C 461.398438 284.484375 461.125 284.835938 461.125 284.835938 C 461.125 284.835938 460.96875 284.953125 460.933594 284.988281 C 460.851562 285.027344 460.851562 285.070312 460.816406 285.144531 C 460.738281 285.183594 460.542969 285.300781 460.503906 285.300781 C 460.464844 285.339844 460.3125 285.496094 460.230469 285.574219 C 460.195312 285.609375 460.15625 285.609375 460.078125 285.609375 C 460.039062 285.652344 459.882812 285.765625 459.882812 285.765625 C 459.882812 285.808594 459.457031 285.960938 459.300781 286.039062 C 459.183594 286.117188 459.101562 286.195312 458.984375 286.234375 C 458.910156 286.234375 458.832031 286.234375 458.753906 286.273438 C 458.675781 286.3125 458.445312 286.390625 458.445312 286.429688 C 458.445312 286.429688 458.402344 286.429688 458.363281 286.429688 C 458.363281 286.429688 458.363281 286.429688 458.328125 286.429688 C 458.285156 286.46875 458.285156 286.429688 458.246094 286.46875 C 458.210938 286.46875 458.128906 286.585938 458.09375 286.621094 C 458.015625 286.621094 457.976562 286.507812 457.898438 286.507812 C 457.820312 286.507812 457.78125 286.546875 457.664062 286.546875 C 457.507812 286.585938 457.160156 286.621094 457.042969 286.664062 C 457.003906 286.664062 456.964844 286.664062 456.925781 286.664062 C 456.925781 286.664062 456.886719 286.664062 456.886719 286.664062 C 456.886719 286.664062 456.691406 286.621094 456.574219 286.621094 C 456.460938 286.621094 456.378906 286.664062 456.226562 286.664062 C 456.03125 286.664062 455.757812 286.546875 455.523438 286.507812 C 455.289062 286.46875 454.941406 286.46875 454.824219 286.429688 C 454.785156 286.429688 454.824219 286.429688 454.785156 286.429688 C 454.667969 286.429688 454.277344 286.703125 453.96875 286.777344 C 453.539062 286.9375 452.917969 287.050781 452.410156 287.089844 C 451.90625 287.128906 451.363281 287.128906 450.855469 287.011719 C 450.3125 286.9375 449.804688 286.777344 449.339844 286.585938 C 448.832031 286.351562 448.367188 286.082031 447.976562 285.765625 C 447.550781 285.457031 447.164062 285.070312 446.8125 284.679688 C 446.5 284.25 446.226562 283.824219 445.992188 283.316406 C 445.761719 282.851562 445.605469 282.34375 445.488281 281.839844 C 445.410156 281.332031 445.371094 280.246094 445.371094 280.246094 " clip-rule="nonzero"/></clipPath><clipPath id="177a497fad"><path d="M 449.453125 156.46875 L 481.550781 156.46875 L 481.550781 259.269531 L 449.453125 259.269531 Z M 449.453125 156.46875 " clip-rule="nonzero"/></clipPath><clipPath id="8f6aecf80d"><path d="M 459.980469 258.695312 C 458.113281 259.265625 455.347656 259.421875 453.792969 258.378906 C 452.199219 257.285156 450.410156 254.726562 449.785156 252.429688 C 449.242188 250.242188 449.902344 247.945312 450.175781 245.023438 C 450.527344 240.800781 450.914062 236.050781 452.042969 229.582031 C 453.949219 218.210938 459.042969 193.742188 462.273438 183.257812 C 464.0625 177.464844 465.269531 171.152344 467.484375 170.421875 C 469.46875 169.742188 474.410156 175.742188 474.605469 176.839844 C 474.644531 177.097656 474.488281 177.359375 474.292969 177.464844 C 473.828125 177.726562 472.191406 177.308594 471.300781 176.785156 C 470.367188 176.265625 469.394531 175.117188 468.847656 174.28125 C 468.460938 173.707031 468.265625 173.292969 468.03125 172.5625 C 467.71875 171.519531 467.371094 169.847656 467.449219 168.492188 C 467.484375 167.1875 467.800781 165.726562 468.304688 164.578125 C 468.8125 163.429688 469.585938 162.335938 470.445312 161.605469 C 471.261719 160.929688 473.167969 159.988281 473.359375 160.351562 C 473.632812 160.980469 467.875 169.222656 467.410156 168.804688 C 467.058594 168.542969 468.1875 163.691406 469.277344 161.710938 C 470.445312 159.625 472.972656 157.222656 474.332031 156.648438 C 475.152344 156.335938 475.734375 156.597656 476.433594 156.808594 C 477.097656 156.960938 477.757812 157.328125 478.339844 157.796875 C 478.921875 158.265625 479.507812 158.894531 479.9375 159.570312 C 480.363281 160.300781 480.75 161.082031 481.023438 161.972656 C 481.257812 162.804688 481.453125 163.746094 481.492188 164.683594 C 481.53125 165.570312 481.453125 166.558594 481.257812 167.449219 C 481.101562 168.335938 480.789062 169.222656 480.402344 169.953125 C 480.011719 170.734375 479.546875 171.414062 479.003906 171.988281 C 478.457031 172.5625 477.796875 173.03125 477.171875 173.292969 C 476.511719 173.605469 475.8125 173.761719 475.113281 173.761719 C 474.449219 173.761719 473.710938 173.605469 473.089844 173.34375 C 472.429688 173.03125 471.804688 172.613281 471.21875 172.039062 C 470.679688 171.519531 470.210938 170.785156 469.820312 170.058594 C 469.433594 169.273438 469.121094 168.4375 468.925781 167.554688 C 468.730469 166.667969 468.65625 165.675781 468.695312 164.789062 C 468.730469 163.851562 468.886719 162.910156 469.121094 162.074219 C 469.351562 161.1875 469.742188 160.351562 470.171875 159.675781 C 470.597656 158.945312 471.183594 158.320312 471.765625 157.851562 C 472.3125 157.378906 473.011719 157.015625 473.671875 156.808594 C 474.332031 156.597656 475.070312 156.546875 475.734375 156.648438 C 476.394531 156.753906 477.097656 157.015625 477.71875 157.378906 C 478.339844 157.746094 478.964844 158.265625 479.46875 158.894531 C 479.976562 159.519531 480.402344 160.300781 480.714844 161.136719 C 481.0625 161.917969 481.296875 162.855469 481.414062 163.746094 C 481.492188 164.632812 481.53125 165.621094 481.414062 166.511719 C 481.296875 167.449219 481.0625 168.335938 480.75 169.167969 C 480.441406 169.953125 480.011719 170.734375 479.507812 171.359375 C 479.039062 172.039062 478.417969 172.5625 477.796875 172.980469 C 477.171875 173.34375 475.890625 173.917969 475.8125 173.707031 C 475.695312 173.34375 480.128906 168.699219 480.207031 168.804688 C 480.324219 169.011719 476.085938 176.628906 474.292969 177.464844 C 473.246094 177.933594 472.191406 177.308594 471.300781 176.785156 C 470.367188 176.265625 469.394531 175.117188 468.847656 174.28125 C 468.460938 173.707031 468.265625 173.292969 468.03125 172.5625 C 467.71875 171.519531 467.449219 169.640625 467.449219 168.492188 C 467.410156 167.710938 467.484375 167.242188 467.683594 166.457031 C 467.992188 165.414062 468.539062 163.902344 469.238281 162.910156 C 469.9375 161.972656 471.066406 161.1875 471.84375 160.769531 C 472.390625 160.457031 473.320312 160.300781 473.359375 160.351562 C 473.359375 160.40625 470.523438 161.550781 470.523438 161.65625 C 470.5625 161.710938 474.175781 158.996094 475.65625 159.9375 C 477.796875 161.292969 480.558594 169.117188 480.480469 173.605469 C 480.441406 178.039062 476.628906 182.996094 475.304688 186.699219 C 474.410156 189.308594 474.023438 190.296875 473.167969 193.582031 C 471.183594 201.046875 466.320312 223.375 464.996094 231.40625 C 464.375 235.0625 464.609375 236.9375 464.0625 239.496094 C 463.519531 241.894531 463.128906 245.441406 461.769531 246.171875 C 460.171875 247.113281 454.492188 243.40625 454.535156 242.625 C 454.535156 242.207031 456.050781 241.789062 456.867188 241.683594 C 457.839844 241.582031 459.042969 241.738281 460.019531 242.207031 C 460.953125 242.726562 461.964844 243.824219 462.585938 244.605469 C 463.011719 245.179688 463.246094 245.648438 463.480469 246.378906 C 463.832031 247.425781 464.21875 249.09375 464.21875 250.449219 C 464.21875 251.804688 463.949219 253.320312 463.480469 254.570312 C 462.976562 255.773438 462.039062 256.96875 461.382812 257.699219 C 460.910156 258.171875 459.980469 258.695312 459.980469 258.695312 " clip-rule="nonzero"/></clipPath></defs><path fill="#000000" d="M 69.921875 55.484375 L 65.699219 77.238281 L 84.339844 77.238281 L 84.339844 86.359375 L 63.929688 86.359375 L 58.359375 114.789062 L 48.699219 114.789062 L 54.269531 86.359375 L 34.820312 86.359375 L 29.519531 114.789062 L 19.988281 114.789062 L 25.15625 86.359375 L 8.019531 86.359375 L 8.019531 77.238281 L 26.929688 77.238281 L 31.277344 55.484375 L 13.046875 55.484375 L 13.046875 46.503906 L 32.917969 46.503906 L 38.359375 17.667969 L 48.148438 17.667969 L 42.707031 46.503906 L 62.300781 46.503906 L 67.738281 17.667969 L 77.128906 17.667969 L 71.691406 46.503906 L 88.960938 46.503906 L 88.960938 55.484375 Z M 36.589844 77.238281 L 56.039062 77.238281 L 60.257812 55.484375 L 40.808594 55.484375 Z M 36.589844 77.238281 " fill-opacity="0.4" fill-rule="nonzero"/><path fill="#000000" d="M 113.070312 25.71875 L 126.621094 25.71875 C 142.433594 28.683594 150.339844 35.457031 150.339844 46.046875 L 150.339844 52.820312 L 139.050781 68.625 L 140.175781 68.625 L 151.464844 58.460938 L 151.464844 60.722656 C 147.609375 69.3125 142.71875 74.960938 136.785156 77.660156 L 130.011719 79.914062 L 130.011719 84.4375 C 131.652344 84.4375 139.554688 94.222656 153.726562 113.789062 C 156.734375 115.035156 159.746094 118.046875 162.765625 122.828125 L 162.765625 123.953125 L 157.117188 119.441406 L 157.117188 120.566406 C 160.882812 124.550781 162.765625 127.566406 162.765625 129.605469 L 161.628906 129.605469 L 155.992188 132.980469 L 154.851562 132.980469 L 152.601562 129.605469 L 151.464844 130.730469 L 150.339844 130.730469 C 135.285156 118.421875 124.746094 106 118.71875 93.464844 L 113.070312 82.175781 C 110.410156 82.175781 108.90625 86.695312 108.554688 95.726562 C 109.039062 103.253906 108.664062 107.835938 107.429688 109.476562 C 105.21875 111.289062 104.839844 113.105469 106.292969 114.917969 L 106.292969 117.179688 L 102.917969 117.179688 C 101.40625 117.179688 100.652344 115.671875 100.652344 112.664062 L 99.527344 112.664062 C 99.527344 115.671875 98.109375 116.804688 95.273438 116.054688 L 90.289062 109.40625 L 91.613281 99.113281 L 91.613281 94.601562 L 98.390625 62.984375 L 99.527344 62.984375 L 99.527344 67.5 L 100.652344 67.5 L 106.292969 43.785156 C 104.792969 43.785156 104.042969 45.289062 104.042969 48.296875 L 102.917969 48.296875 L 102.917969 46.046875 L 96.140625 46.046875 L 96.140625 44.910156 C 96.140625 43.410156 98.398438 42.28125 102.917969 41.523438 L 102.917969 40.394531 L 100.652344 40.394531 L 93.878906 42.660156 L 92.75 42.660156 C 92.75 41.152344 94.253906 40.394531 97.265625 40.394531 L 97.265625 39.269531 C 94.253906 39.269531 92.75 38.144531 92.75 35.882812 Z M 114.207031 66.363281 L 115.332031 66.363281 C 127.15625 60.695312 135.4375 54.675781 140.175781 48.296875 L 140.175781 46.046875 C 140.175781 43.476562 135.65625 40.839844 126.621094 38.132812 L 119.84375 40.394531 Z M 136.785156 38.132812 C 138.292969 41.550781 139.800781 43.433594 141.300781 43.785156 L 141.300781 41.523438 Z M 143.5625 44.910156 L 142.4375 50.558594 L 143.5625 50.558594 L 144.6875 49.433594 L 144.6875 44.910156 Z M 101.777344 48.296875 L 102.917969 48.296875 L 102.917969 51.683594 L 101.777344 56.210938 L 100.652344 56.210938 L 100.652344 52.820312 Z M 140.175781 52.820312 L 134.535156 60.722656 L 135.660156 60.722656 L 141.300781 53.949219 L 141.300781 52.820312 Z M 151.464844 55.074219 L 153.726562 55.074219 L 152.601562 58.460938 L 151.464844 58.460938 Z M 99.527344 58.460938 L 100.652344 58.460938 L 100.652344 62.984375 L 99.527344 62.984375 Z M 97.265625 73.136719 L 97.265625 77.660156 L 98.390625 77.660156 L 98.390625 73.136719 Z M 131.148438 107.015625 L 131.148438 108.140625 L 135.660156 112.664062 C 134.199219 109.25 132.695312 107.367188 131.148438 107.015625 Z M 136.785156 114.917969 L 136.785156 116.054688 L 141.300781 119.441406 L 141.300781 118.304688 Z M 136.785156 114.917969 " fill-opacity="0.4" fill-rule="nonzero"/><path fill="#000000" d="M 215.6875 26.316406 L 221.128906 30.105469 C 219.535156 36.785156 216.65625 39.996094 212.5 39.726562 L 183.003906 41.066406 L 182.875 43.316406 L 188.453125 43.714844 L 195.289062 43.058594 L 196.355469 44.3125 L 197.480469 44.382812 L 205.453125 43.714844 L 207.71875 43.914062 L 207.648438 45.050781 L 181.410156 47.769531 L 179.34375 62.386719 L 180.480469 62.445312 L 211.164062 59.996094 L 212.160156 61.191406 L 212.101562 62.316406 L 209.839844 62.117188 L 209.839844 63.242188 L 217.613281 64.964844 L 217.542969 66.105469 C 215.90625 70.308594 205.101562 73.71875 185.125 76.324219 L 173.765625 76.722656 L 174.832031 77.863281 L 169.390625 92.210938 L 168.253906 92.210938 L 168.921875 82.046875 L 167.796875 81.976562 L 165.605469 97.648438 C 188.144531 94.640625 204.0625 93.445312 213.355469 94.0625 L 218.878906 95.597656 L 218.808594 97.847656 L 216.546875 97.71875 L 217.542969 98.914062 L 217.34375 102.304688 C 215.175781 105.132812 210.570312 106.328125 203.53125 105.890625 L 203.460938 107.015625 L 212.5 107.613281 L 212.300781 109.875 L 159.753906 117.578125 L 158.628906 117.507812 C 154.996094 116.710938 153.175781 115.539062 153.175781 113.988281 L 153.175781 113.789062 L 153.375 110.402344 L 156.496094 98.175781 L 155.441406 96.992188 L 157.691406 97.050781 L 157.292969 102.703125 L 158.429688 102.832031 C 158.867188 99.074219 159.75 97.257812 161.078125 97.390625 L 160.023438 96.125 L 160.820312 84.894531 L 158.558594 84.695312 L 157.035156 90.277344 L 158.289062 89.21875 L 159.425781 89.277344 L 158.957031 96.054688 L 157.832031 95.925781 L 158.03125 92.609375 L 156.894531 92.539062 L 156.765625 94.800781 L 155.640625 94.730469 L 155.769531 92.46875 L 159.355469 73.40625 L 158.230469 73.335938 L 160.820312 67.898438 L 159.753906 66.703125 L 159.824219 65.566406 L 162.273438 46.503906 L 163.34375 47.699219 L 164.46875 47.769531 L 164.609375 45.507812 L 163.871094 39.796875 L 165.664062 29.707031 L 165.863281 26.316406 L 167 26.445312 L 168.054688 27.640625 L 169.25 26.585938 L 170.375 26.714844 L 171.441406 27.839844 L 172.640625 26.785156 L 176.027344 27.042969 Z M 159.15625 75.667969 L 158.628906 83.570312 L 159.753906 83.640625 L 160.28125 75.796875 Z M 196.425781 77.121094 L 197.550781 77.121094 L 197.421875 78.261719 L 176.953125 80.3125 L 175.898438 79.058594 L 175.957031 77.992188 L 186.191406 77.519531 L 186.121094 78.660156 Z M 196.425781 77.121094 " fill-opacity="0.4" fill-rule="nonzero"/><path fill="#000000" d="M 254.332031 24.652344 C 256.324219 26.164062 262.65625 26.914062 273.324219 26.914062 L 273.253906 28.039062 L 265.351562 28.039062 L 265.292969 29.179688 C 274.71875 29.179688 280.609375 31.433594 282.960938 35.941406 L 282.820312 38.203125 L 277.183594 38.203125 L 277.113281 39.328125 L 284.953125 40.464844 L 284.882812 41.59375 L 278.109375 41.59375 L 278.039062 42.71875 C 280.292969 42.71875 281.382812 43.472656 281.296875 44.980469 C 267.875 44.980469 255.898438 49.875 245.363281 59.65625 L 245.292969 60.792969 C 259.859375 64.683594 271.394531 73.34375 279.902344 86.757812 L 279.832031 87.882812 C 277.089844 97.632812 269.402344 106.664062 256.78125 114.988281 L 249.875 116.113281 L 249.804688 117.25 L 252.070312 117.25 C 251.980469 119.28125 245.074219 121.539062 231.339844 124.023438 L 231.480469 121.761719 L 237.121094 121.761719 L 237.25 120.636719 C 232.425781 120.636719 228.0625 118 224.167969 112.722656 C 220.804688 110.996094 219.125 107.699219 219.125 102.832031 C 219.125 102.386719 219.140625 101.921875 219.183594 101.433594 L 222.710938 99.171875 L 225.960938 101.433594 L 228.222656 101.433594 C 249.480469 98.113281 260.441406 91.339844 261.109375 81.109375 C 252.203125 76.59375 246.3125 74.332031 243.429688 74.332031 L 243.371094 75.46875 L 232.277344 70.945312 L 233.335938 72.082031 L 233.277344 74.332031 C 223.878906 67.425781 219.292969 62.160156 219.523438 58.53125 L 228.351562 42.71875 L 234.273438 38.203125 L 234.132812 40.464844 Z M 238.914062 55.144531 L 238.84375 56.269531 L 258.773438 43.855469 L 267.945312 41.59375 L 268.085938 39.328125 L 265.820312 39.328125 C 253.910156 43.761719 244.941406 49.03125 238.914062 55.144531 Z M 245.164062 101.433594 L 246.289062 101.433594 L 248.679688 99.171875 L 247.554688 99.171875 Z M 265.492188 101.433594 L 260.640625 107.085938 L 261.765625 107.085938 L 266.617188 101.433594 Z M 251.34375 110.472656 L 251.34375 111.597656 L 252.46875 111.597656 L 257.179688 108.210938 Z M 238.515625 118.375 L 238.445312 119.5 L 242.972656 119.5 L 248.679688 118.375 L 248.679688 117.25 L 247.554688 117.25 Z M 238.515625 118.375 " fill-opacity="0.4" fill-rule="nonzero"/><path fill="#000000" d="M 337.519531 26.84375 L 345.433594 33.621094 C 345.433594 31.363281 346.183594 30.234375 347.6875 30.234375 L 348.824219 30.234375 L 364.625 70.886719 L 364.625 73.136719 L 363.5 73.136719 L 361.238281 66.363281 L 360.113281 66.363281 L 360.113281 68.625 L 368.015625 87.824219 L 369.140625 87.824219 C 372.15625 68.25 376.496094 47.8125 382.164062 26.515625 L 385.554688 28.777344 L 388.941406 27.640625 L 395.71875 31.03125 L 395.71875 32.15625 C 393.457031 32.15625 392.332031 33.664062 392.332031 36.679688 L 393.457031 36.679688 L 394.59375 37.804688 L 395.71875 37.804688 L 396.84375 32.15625 L 399.105469 32.15625 L 399.105469 33.292969 L 397.980469 34.417969 L 399.105469 35.542969 L 399.105469 36.679688 C 393.4375 54.085938 388.347656 79.035156 383.832031 111.527344 L 381.566406 111.527344 L 383.832031 93.464844 C 382.320312 93.464844 380.0625 100.613281 377.054688 114.917969 C 374.265625 117.171875 371.625 118.304688 369.140625 118.304688 L 369.140625 120.566406 L 368.015625 120.566406 C 368.015625 119.058594 366.507812 118.304688 363.5 118.304688 L 363.5 110.402344 C 363.5 106.996094 355.96875 88.175781 340.910156 53.949219 L 339.785156 53.949219 C 336.773438 67.367188 334.136719 85.429688 331.882812 108.140625 L 330.757812 107.015625 C 326.238281 108.34375 323.980469 110.226562 323.980469 112.664062 L 321.71875 112.664062 C 320.207031 109.828125 319.453125 104.933594 319.453125 97.976562 L 318.328125 97.976562 L 318.328125 108.140625 L 316.066406 108.140625 L 314.941406 102.503906 C 314.941406 82.042969 319.457031 57.203125 328.492188 27.980469 Z M 321.71875 55.074219 L 321.71875 56.210938 L 322.84375 57.335938 L 321.71875 58.460938 L 321.71875 60.722656 L 322.84375 60.722656 L 323.980469 56.210938 L 322.84375 55.074219 Z M 364.625 73.136719 C 366.574219 73.136719 368.078125 76.148438 369.140625 82.175781 L 369.140625 83.300781 L 368.015625 83.300781 Z M 364.625 73.136719 " fill-opacity="0.4" fill-rule="nonzero"/><path fill="#000000" d="M 446.984375 25.988281 C 455.839844 25.988281 464.117188 28.625 471.828125 33.890625 L 470.691406 35.015625 L 470.691406 36.140625 L 475.214844 42.917969 L 472.953125 42.917969 L 471.828125 41.792969 L 470.691406 41.792969 L 474.078125 66.632812 L 475.214844 66.632812 C 475.214844 62.875 475.964844 60.992188 477.464844 60.992188 L 477.464844 65.503906 C 477.464844 69.757812 473.703125 79.542969 466.175781 94.859375 L 467.300781 94.859375 C 461.984375 102.167969 454.082031 108.945312 443.597656 115.1875 L 437.945312 116.3125 L 436.820312 116.3125 C 418.929688 116.3125 407.632812 109.160156 402.9375 94.859375 L 398.421875 88.082031 L 399.550781 86.957031 L 398.421875 79.058594 L 398.421875 76.792969 C 398.421875 70.550781 404.445312 59.640625 416.492188 44.054688 L 416.492188 45.179688 C 410.957031 52.621094 406.4375 60.898438 402.9375 70.019531 L 402.9375 71.144531 L 404.0625 71.144531 C 406.8125 60.125 416.976562 46.203125 434.558594 29.378906 L 426.65625 33.890625 L 425.519531 33.890625 C 425.519531 30.4375 432.671875 27.804688 446.984375 25.988281 Z M 441.332031 45.179688 L 440.207031 44.054688 L 440.207031 45.179688 L 441.332031 46.304688 L 433.429688 53.078125 C 427.183594 53.078125 421.160156 63.617188 415.351562 84.695312 C 415.351562 90.722656 418.742188 95.992188 425.519531 100.507812 L 426.65625 100.507812 C 434.890625 100.507812 444.300781 91.851562 454.886719 74.53125 C 458.644531 66.304688 460.527344 60.285156 460.527344 56.46875 L 460.527344 47.441406 C 460.527344 45.355469 456.761719 43.847656 449.234375 42.917969 L 448.109375 42.917969 L 446.984375 44.054688 L 445.847656 44.054688 L 445.847656 42.917969 Z M 474.078125 48.566406 L 476.339844 48.566406 L 476.339844 54.21875 L 474.078125 54.21875 Z M 416.492188 60.992188 L 413.101562 67.757812 L 414.226562 67.757812 L 417.617188 60.992188 Z M 460.527344 67.757812 L 456.011719 79.058594 L 459.398438 79.058594 L 462.789062 71.144531 L 461.664062 67.757812 Z M 468.4375 72.28125 L 467.300781 75.667969 L 467.300781 77.921875 L 468.4375 77.921875 L 469.566406 73.40625 L 469.566406 72.28125 Z M 401.8125 76.792969 L 401.8125 85.832031 L 402.9375 85.832031 L 402.9375 76.792969 Z M 454.886719 80.183594 L 450.359375 85.832031 L 451.5 85.832031 L 456.011719 80.183594 Z M 418.742188 105.023438 L 418.742188 106.148438 L 424.390625 109.535156 L 424.390625 108.410156 Z M 418.742188 105.023438 " fill-opacity="0.4" fill-rule="nonzero"/><path fill="#000000" d="M 498.964844 26.84375 L 506.878906 33.621094 C 506.878906 31.363281 507.628906 30.234375 509.128906 30.234375 L 510.269531 30.234375 L 526.070312 70.886719 L 526.070312 73.136719 L 524.945312 73.136719 L 522.683594 66.363281 L 521.558594 66.363281 L 521.558594 68.625 L 529.460938 87.824219 L 530.585938 87.824219 C 533.601562 68.25 537.941406 47.8125 543.609375 26.515625 L 547 28.777344 L 550.386719 27.640625 L 557.164062 31.03125 L 557.164062 32.15625 C 554.902344 32.15625 553.773438 33.664062 553.773438 36.679688 L 554.902344 36.679688 L 556.039062 37.804688 L 557.164062 37.804688 L 558.289062 32.15625 L 560.550781 32.15625 L 560.550781 33.292969 L 559.425781 34.417969 L 560.550781 35.542969 L 560.550781 36.679688 C 554.882812 54.085938 549.792969 79.035156 545.273438 111.527344 L 543.011719 111.527344 L 545.273438 93.464844 C 543.765625 93.464844 541.507812 100.613281 538.5 114.917969 C 535.707031 117.171875 533.070312 118.304688 530.585938 118.304688 L 530.585938 120.566406 L 529.460938 120.566406 C 529.460938 119.058594 527.953125 118.304688 524.945312 118.304688 L 524.945312 110.402344 C 524.945312 106.996094 517.414062 88.175781 502.355469 53.949219 L 501.226562 53.949219 C 498.21875 67.367188 495.582031 85.429688 493.328125 108.140625 L 492.199219 107.015625 C 487.679688 108.34375 485.425781 110.226562 485.425781 112.664062 L 483.160156 112.664062 C 481.652344 109.828125 480.898438 104.933594 480.898438 97.976562 L 479.773438 97.976562 L 479.773438 108.140625 L 477.511719 108.140625 L 476.386719 102.503906 C 476.386719 82.042969 480.902344 57.203125 489.9375 27.980469 Z M 483.160156 55.074219 L 483.160156 56.210938 L 484.289062 57.335938 L 483.160156 58.460938 L 483.160156 60.722656 L 484.289062 60.722656 L 485.425781 56.210938 L 484.289062 55.074219 Z M 526.070312 73.136719 C 528.019531 73.136719 529.519531 76.148438 530.585938 82.175781 L 530.585938 83.300781 L 529.460938 83.300781 Z M 526.070312 73.136719 " fill-opacity="0.4" fill-rule="nonzero"/><path fill="#640a34" d="M 63.90625 49.472656 L 59.6875 71.226562 L 78.328125 71.226562 L 78.328125 80.347656 L 57.917969 80.347656 L 52.347656 108.773438 L 42.6875 108.773438 L 48.257812 80.347656 L 28.804688 80.347656 L 23.507812 108.773438 L 13.976562 108.773438 L 19.144531 80.347656 L 2.003906 80.347656 L 2.003906 71.226562 L 20.914062 71.226562 L 25.265625 49.472656 L 7.035156 49.472656 L 7.035156 40.492188 L 26.90625 40.492188 L 32.347656 11.65625 L 42.136719 11.65625 L 36.695312 40.492188 L 56.285156 40.492188 L 61.726562 11.65625 L 71.117188 11.65625 L 65.679688 40.492188 L 82.945312 40.492188 L 82.945312 49.472656 Z M 30.578125 71.226562 L 50.027344 71.226562 L 54.246094 49.472656 L 34.796875 49.472656 Z M 30.578125 71.226562 " fill-opacity="1" fill-rule="nonzero"/><path fill="#640a34" d="M 107.054688 19.707031 L 120.609375 19.707031 C 136.417969 22.671875 144.328125 29.445312 144.328125 40.035156 L 144.328125 46.808594 L 133.035156 62.613281 L 134.164062 62.613281 L 145.453125 52.449219 L 145.453125 54.710938 C 141.597656 63.300781 136.707031 68.949219 130.773438 71.648438 L 123.996094 73.902344 L 123.996094 78.425781 C 125.640625 78.425781 133.542969 88.210938 147.714844 107.777344 C 150.722656 109.019531 153.734375 112.035156 156.753906 116.816406 L 156.753906 117.941406 L 151.101562 113.429688 L 151.101562 114.554688 C 154.871094 118.539062 156.753906 121.554688 156.753906 123.59375 L 155.617188 123.59375 L 149.976562 126.96875 L 148.839844 126.96875 L 146.589844 123.59375 L 145.453125 124.71875 L 144.328125 124.71875 C 129.273438 112.410156 118.734375 99.988281 112.707031 87.453125 L 107.054688 76.164062 C 104.398438 76.164062 102.894531 80.683594 102.542969 89.714844 C 103.027344 97.242188 102.652344 101.824219 101.417969 103.464844 C 99.203125 105.277344 98.824219 107.09375 100.28125 108.902344 L 100.28125 111.167969 L 96.902344 111.167969 C 95.394531 111.167969 94.640625 109.660156 94.640625 106.652344 L 93.515625 106.652344 C 93.515625 109.660156 92.097656 110.792969 89.257812 110.042969 L 84.277344 103.394531 L 85.601562 93.101562 L 85.601562 88.589844 L 92.378906 56.972656 L 93.515625 56.972656 L 93.515625 61.488281 L 94.640625 61.488281 L 100.28125 37.773438 C 98.777344 37.773438 98.027344 39.277344 98.027344 42.285156 L 96.902344 42.285156 L 96.902344 40.035156 L 90.128906 40.035156 L 90.128906 38.898438 C 90.128906 37.398438 92.382812 36.269531 96.902344 35.507812 L 96.902344 34.382812 L 94.640625 34.382812 L 87.863281 36.648438 L 86.738281 36.648438 C 86.738281 35.140625 88.242188 34.382812 91.253906 34.382812 L 91.253906 33.257812 C 88.242188 33.257812 86.738281 32.128906 86.738281 29.871094 Z M 108.195312 60.351562 L 109.320312 60.351562 C 121.144531 54.683594 129.425781 48.664062 134.164062 42.285156 L 134.164062 40.035156 C 134.164062 37.464844 129.640625 34.828125 120.609375 32.121094 L 113.832031 34.382812 Z M 130.773438 32.121094 C 132.28125 35.539062 133.785156 37.421875 135.289062 37.773438 L 135.289062 35.507812 Z M 137.550781 38.898438 L 136.425781 44.546875 L 137.550781 44.546875 L 138.675781 43.421875 L 138.675781 38.898438 Z M 95.765625 42.285156 L 96.902344 42.285156 L 96.902344 45.671875 L 95.765625 50.199219 L 94.640625 50.199219 L 94.640625 46.808594 Z M 134.164062 46.808594 L 128.523438 54.710938 L 129.648438 54.710938 L 135.289062 47.933594 L 135.289062 46.808594 Z M 145.453125 49.0625 L 147.714844 49.0625 L 146.589844 52.449219 L 145.453125 52.449219 Z M 93.515625 52.449219 L 94.640625 52.449219 L 94.640625 56.972656 L 93.515625 56.972656 Z M 91.253906 67.125 L 91.253906 71.648438 L 92.378906 71.648438 L 92.378906 67.125 Z M 125.132812 101.003906 L 125.132812 102.128906 L 129.648438 106.652344 C 128.1875 103.238281 126.683594 101.355469 125.132812 101.003906 Z M 130.773438 108.902344 L 130.773438 110.042969 L 135.289062 113.429688 L 135.289062 112.292969 Z M 130.773438 108.902344 " fill-opacity="1" fill-rule="nonzero"/><path fill="#640a34" d="M 209.675781 20.304688 L 215.117188 24.09375 C 213.523438 30.773438 210.644531 33.984375 206.488281 33.714844 L 176.992188 35.050781 L 176.859375 37.304688 L 182.441406 37.703125 L 189.277344 37.046875 L 190.34375 38.300781 L 191.46875 38.371094 L 199.441406 37.703125 L 201.703125 37.902344 L 201.632812 39.039062 L 175.394531 41.757812 L 173.332031 56.375 L 174.46875 56.433594 L 205.152344 53.984375 L 206.148438 55.179688 L 206.089844 56.304688 L 203.828125 56.105469 L 203.828125 57.230469 L 211.597656 58.953125 L 211.527344 60.089844 C 209.894531 64.296875 199.089844 67.707031 179.113281 70.3125 L 167.75 70.710938 L 168.820312 71.847656 L 163.378906 86.199219 L 162.242188 86.199219 L 162.910156 76.035156 L 161.785156 75.964844 L 159.59375 91.636719 C 182.132812 88.628906 198.050781 87.433594 207.34375 88.050781 L 212.867188 89.585938 L 212.796875 91.835938 L 210.53125 91.707031 L 211.527344 92.902344 L 211.328125 96.289062 C 209.164062 99.121094 204.558594 100.316406 197.519531 99.878906 L 197.449219 101.003906 L 206.488281 101.601562 L 206.289062 103.863281 L 153.742188 111.566406 L 152.617188 111.496094 C 148.980469 110.699219 147.164062 109.527344 147.164062 107.976562 L 147.164062 107.777344 L 147.363281 104.390625 L 150.480469 92.164062 L 149.425781 90.980469 L 151.679688 91.039062 L 151.28125 96.6875 L 152.417969 96.816406 C 152.855469 93.0625 153.734375 91.246094 155.066406 91.378906 L 154.011719 90.113281 L 154.808594 78.882812 L 152.546875 78.683594 L 151.023438 84.261719 L 152.277344 83.207031 L 153.414062 83.265625 L 152.945312 90.042969 L 151.820312 89.914062 L 152.019531 86.597656 L 150.882812 86.527344 L 150.753906 88.789062 L 149.625 88.71875 L 149.753906 86.457031 L 153.34375 67.394531 L 152.21875 67.324219 L 154.808594 61.886719 L 153.742188 60.691406 L 153.8125 59.550781 L 156.261719 40.492188 L 157.328125 41.6875 L 158.453125 41.757812 L 158.59375 39.496094 L 157.855469 33.785156 L 159.652344 23.695312 L 159.851562 20.304688 L 160.988281 20.433594 L 162.042969 21.628906 L 163.238281 20.574219 L 164.363281 20.703125 L 165.429688 21.828125 L 166.625 20.773438 L 170.015625 21.03125 Z M 153.144531 69.65625 L 152.617188 77.558594 L 153.742188 77.628906 L 154.269531 69.785156 Z M 190.414062 71.109375 L 191.539062 71.109375 L 191.410156 72.246094 L 170.941406 74.300781 L 169.886719 73.046875 L 169.945312 71.976562 L 180.179688 71.507812 L 180.109375 72.648438 Z M 190.414062 71.109375 " fill-opacity="1" fill-rule="nonzero"/><path fill="#640a34" d="M 248.320312 18.640625 C 250.3125 20.148438 256.644531 20.902344 267.3125 20.902344 L 267.242188 22.027344 L 259.339844 22.027344 L 259.28125 23.164062 C 268.707031 23.164062 274.59375 25.421875 276.949219 29.929688 L 276.808594 32.191406 L 271.167969 32.191406 L 271.097656 33.316406 L 278.941406 34.453125 L 278.871094 35.578125 L 272.09375 35.578125 L 272.023438 36.707031 C 274.28125 36.707031 275.371094 37.460938 275.285156 38.96875 C 261.863281 38.96875 249.882812 43.863281 239.351562 53.644531 L 239.28125 54.78125 C 253.847656 58.671875 265.382812 67.332031 273.890625 80.746094 L 273.820312 81.871094 C 271.074219 91.621094 263.390625 100.652344 250.769531 108.972656 L 243.863281 110.101562 L 243.792969 111.238281 L 246.054688 111.238281 C 245.96875 113.269531 239.058594 115.527344 225.328125 118.011719 L 225.46875 115.75 L 231.109375 115.75 L 231.238281 114.625 C 226.414062 114.625 222.050781 111.988281 218.152344 106.710938 C 214.792969 104.984375 213.113281 101.6875 213.113281 96.816406 C 213.113281 96.371094 213.128906 95.910156 213.171875 95.421875 L 216.699219 93.160156 L 219.945312 95.421875 L 222.210938 95.421875 C 243.46875 92.101562 254.429688 85.328125 255.09375 75.097656 C 246.191406 70.582031 240.300781 68.320312 237.414062 68.320312 L 237.355469 69.457031 L 226.265625 64.933594 L 227.320312 66.070312 L 227.261719 68.320312 C 217.867188 61.414062 213.28125 56.148438 213.511719 52.519531 L 222.339844 36.707031 L 228.257812 32.191406 L 228.117188 34.453125 Z M 232.902344 49.132812 L 232.832031 50.257812 L 252.761719 37.84375 L 261.929688 35.578125 L 262.070312 33.316406 L 259.808594 33.316406 C 247.898438 37.75 238.929688 43.019531 232.902344 49.132812 Z M 239.152344 95.421875 L 240.277344 95.421875 L 242.667969 93.160156 L 241.542969 93.160156 Z M 259.480469 95.421875 L 254.625 101.074219 L 255.753906 101.074219 L 260.605469 95.421875 Z M 245.328125 104.460938 L 245.328125 105.585938 L 246.453125 105.585938 L 251.167969 102.199219 Z M 232.503906 112.363281 L 232.433594 113.488281 L 236.957031 113.488281 L 242.667969 112.363281 L 242.667969 111.238281 L 241.542969 111.238281 Z M 232.503906 112.363281 " fill-opacity="1" fill-rule="nonzero"/><path fill="#640a34" d="M 331.507812 20.832031 L 339.421875 27.609375 C 339.421875 25.351562 340.171875 24.222656 341.671875 24.222656 L 342.808594 24.222656 L 358.613281 64.875 L 358.613281 67.125 L 357.488281 67.125 L 355.226562 60.351562 L 354.101562 60.351562 L 354.101562 62.613281 L 362.003906 81.8125 L 363.128906 81.8125 C 366.144531 62.238281 370.484375 41.800781 376.152344 20.503906 L 379.542969 22.765625 L 382.929688 21.628906 L 389.707031 25.019531 L 389.707031 26.144531 C 387.445312 26.144531 386.316406 27.652344 386.316406 30.667969 L 387.441406 30.667969 L 388.582031 31.792969 L 389.707031 31.792969 L 390.832031 26.144531 L 393.09375 26.144531 L 393.09375 27.28125 L 391.96875 28.40625 L 393.09375 29.53125 L 393.09375 30.667969 C 387.425781 48.074219 382.335938 73.023438 377.816406 105.515625 L 375.554688 105.515625 L 377.816406 87.453125 C 376.308594 87.453125 374.046875 94.601562 371.042969 108.902344 C 368.25 111.160156 365.613281 112.292969 363.128906 112.292969 L 363.128906 114.554688 L 362.003906 114.554688 C 362.003906 113.046875 360.496094 112.292969 357.488281 112.292969 L 357.488281 104.390625 C 357.488281 100.984375 349.957031 82.164062 334.894531 47.933594 L 333.769531 47.933594 C 330.761719 61.355469 328.125 79.417969 325.867188 102.128906 L 324.742188 101.003906 C 320.222656 102.332031 317.96875 104.214844 317.96875 106.652344 L 315.703125 106.652344 C 314.195312 103.816406 313.441406 98.921875 313.441406 91.964844 L 312.316406 91.964844 L 312.316406 102.128906 L 310.054688 102.128906 L 308.929688 96.488281 C 308.929688 76.03125 313.445312 51.191406 322.480469 21.96875 Z M 315.703125 49.0625 L 315.703125 50.199219 L 316.828125 51.324219 L 315.703125 52.449219 L 315.703125 54.710938 L 316.828125 54.710938 L 317.96875 50.199219 L 316.828125 49.0625 Z M 358.613281 67.125 C 360.558594 67.125 362.0625 70.136719 363.128906 76.164062 L 363.128906 77.289062 L 362.003906 77.289062 Z M 358.613281 67.125 " fill-opacity="1" fill-rule="nonzero"/><path fill="#640a34" d="M 440.972656 19.976562 C 449.824219 19.976562 458.105469 22.613281 465.816406 27.878906 L 464.675781 29.003906 L 464.675781 30.128906 L 469.203125 36.90625 L 466.941406 36.90625 L 465.816406 35.78125 L 464.675781 35.78125 L 468.066406 60.621094 L 469.203125 60.621094 C 469.203125 56.863281 469.953125 54.980469 471.453125 54.980469 L 471.453125 59.492188 C 471.453125 63.746094 467.691406 73.53125 460.164062 88.847656 L 461.289062 88.847656 C 455.972656 96.15625 448.070312 102.929688 437.582031 109.171875 L 431.933594 110.300781 L 430.808594 110.300781 C 412.917969 110.300781 401.621094 103.148438 396.925781 88.847656 L 392.410156 82.070312 L 393.535156 80.945312 L 392.410156 73.046875 L 392.410156 70.78125 C 392.410156 64.539062 398.429688 53.625 410.476562 38.042969 L 410.476562 39.167969 C 404.945312 46.609375 400.425781 54.886719 396.925781 64.007812 L 396.925781 65.132812 L 398.050781 65.132812 C 400.800781 54.113281 410.964844 40.191406 428.542969 23.363281 L 420.640625 27.878906 L 419.503906 27.878906 C 419.503906 24.425781 426.660156 21.792969 440.972656 19.976562 Z M 435.320312 39.167969 L 434.195312 38.042969 L 434.195312 39.167969 L 435.320312 40.292969 L 427.417969 47.066406 C 421.171875 47.066406 415.148438 57.605469 409.339844 78.683594 C 409.339844 84.707031 412.730469 89.980469 419.503906 94.496094 L 420.640625 94.496094 C 428.878906 94.496094 438.289062 85.839844 448.875 68.519531 C 452.632812 60.292969 454.511719 54.273438 454.511719 50.457031 L 454.511719 41.429688 C 454.511719 39.34375 450.75 37.835938 443.222656 36.90625 L 442.097656 36.90625 L 440.972656 38.042969 L 439.835938 38.042969 L 439.835938 36.90625 Z M 468.066406 42.554688 L 470.328125 42.554688 L 470.328125 48.207031 L 468.066406 48.207031 Z M 410.476562 54.980469 L 407.089844 61.746094 L 408.214844 61.746094 L 411.601562 54.980469 Z M 454.511719 61.746094 L 450 73.046875 L 453.386719 73.046875 L 456.777344 65.132812 L 455.648438 61.746094 Z M 462.425781 66.269531 L 461.289062 69.65625 L 461.289062 71.90625 L 462.425781 71.90625 L 463.550781 67.394531 L 463.550781 66.269531 Z M 395.800781 70.78125 L 395.800781 79.820312 L 396.925781 79.820312 L 396.925781 70.78125 Z M 448.875 74.171875 L 444.347656 79.820312 L 445.484375 79.820312 L 450 74.171875 Z M 412.730469 99.011719 L 412.730469 100.136719 L 418.378906 103.523438 L 418.378906 102.398438 Z M 412.730469 99.011719 " fill-opacity="1" fill-rule="nonzero"/><path fill="#640a34" d="M 492.953125 20.832031 L 500.867188 27.609375 C 500.867188 25.351562 501.617188 24.222656 503.117188 24.222656 L 504.253906 24.222656 L 520.058594 64.875 L 520.058594 67.125 L 518.933594 67.125 L 516.671875 60.351562 L 515.546875 60.351562 L 515.546875 62.613281 L 523.445312 81.8125 L 524.574219 81.8125 C 527.589844 62.238281 531.929688 41.800781 537.597656 20.503906 L 540.984375 22.765625 L 544.375 21.628906 L 551.152344 25.019531 L 551.152344 26.144531 C 548.890625 26.144531 547.761719 27.652344 547.761719 30.667969 L 548.886719 30.667969 L 550.023438 31.792969 L 551.152344 31.792969 L 552.277344 26.144531 L 554.539062 26.144531 L 554.539062 27.28125 L 553.414062 28.40625 L 554.539062 29.53125 L 554.539062 30.667969 C 548.871094 48.074219 543.78125 73.023438 539.261719 105.515625 L 537 105.515625 L 539.261719 87.453125 C 537.753906 87.453125 535.492188 94.601562 532.484375 108.902344 C 529.695312 111.160156 527.058594 112.292969 524.574219 112.292969 L 524.574219 114.554688 L 523.445312 114.554688 C 523.445312 113.046875 521.941406 112.292969 518.933594 112.292969 L 518.933594 104.390625 C 518.933594 100.984375 511.402344 82.164062 496.339844 47.933594 L 495.214844 47.933594 C 492.207031 61.355469 489.570312 79.417969 487.3125 102.128906 L 486.1875 101.003906 C 481.667969 102.332031 479.410156 104.214844 479.410156 106.652344 L 477.148438 106.652344 C 475.640625 103.816406 474.886719 98.921875 474.886719 91.964844 L 473.761719 91.964844 L 473.761719 102.128906 L 471.5 102.128906 L 470.371094 96.488281 C 470.371094 76.03125 474.890625 51.191406 483.925781 21.96875 Z M 477.148438 49.0625 L 477.148438 50.199219 L 478.273438 51.324219 L 477.148438 52.449219 L 477.148438 54.710938 L 478.273438 54.710938 L 479.410156 50.199219 L 478.273438 49.0625 Z M 520.058594 67.125 C 522.003906 67.125 523.507812 70.136719 524.574219 76.164062 L 524.574219 77.289062 L 523.445312 77.289062 Z M 520.058594 67.125 " fill-opacity="1" fill-rule="nonzero"/><path fill="#000000" d="M 89.566406 182.707031 C 98.601562 182.707031 103.121094 185.714844 103.121094 191.734375 L 104.246094 191.734375 L 104.246094 188.34375 L 106.507812 188.34375 C 109.515625 197.160156 112.152344 209.207031 114.410156 224.484375 L 113.285156 224.484375 L 114.410156 225.609375 L 114.410156 235.773438 L 116.671875 235.773438 L 115.535156 236.898438 L 115.535156 242.550781 L 116.671875 242.550781 C 119.632812 235.066406 125.65625 224.902344 134.738281 212.058594 L 135.863281 213.195312 L 138.128906 209.808594 L 137.003906 209.808594 L 134.738281 212.058594 L 134.738281 210.933594 L 147.15625 197.382812 L 149.417969 197.382812 L 153.933594 201.894531 L 148.292969 208.671875 L 151.679688 208.671875 C 151.679688 206.328125 153.9375 203.695312 158.457031 200.769531 L 158.457031 204.160156 C 155.4375 204.511719 153.933594 205.640625 153.933594 207.546875 L 156.195312 207.546875 C 156.195312 205.289062 157.324219 204.160156 159.582031 204.160156 L 159.582031 207.546875 C 155.730469 209.804688 150.082031 216.582031 142.640625 227.875 L 118.925781 270.777344 L 116.671875 270.777344 L 115.535156 269.652344 C 113.277344 269.652344 112.148438 271.160156 112.148438 274.164062 L 109.898438 274.164062 C 104.625 274.164062 101.996094 271.53125 101.996094 266.265625 L 103.121094 262.875 L 100.859375 265.128906 L 100.859375 268.515625 L 101.996094 269.652344 L 101.996094 270.777344 L 100.859375 271.902344 L 98.605469 271.902344 L 97.46875 266.265625 L 98.605469 262.875 L 97.46875 262.875 L 98.605469 261.738281 L 98.605469 254.964844 C 97.675781 213.570312 95.035156 192.871094 90.691406 192.871094 L 91.828125 189.480469 Z M 143.765625 196.257812 L 143.765625 197.382812 L 139.253906 201.894531 L 138.128906 201.894531 C 139.902344 198.621094 141.78125 196.746094 143.765625 196.257812 Z M 135.863281 204.160156 L 135.863281 205.285156 L 125.699219 218.835938 L 125.699219 217.710938 C 127.425781 213.460938 130.816406 208.941406 135.863281 204.160156 Z M 144.90625 210.933594 L 141.515625 216.585938 L 142.640625 216.585938 L 146.03125 212.058594 L 146.03125 210.933594 Z M 99.730469 216.585938 L 99.730469 222.222656 L 100.859375 222.222656 L 100.859375 216.585938 Z M 122.3125 222.222656 L 123.449219 222.222656 L 123.449219 225.609375 L 122.3125 226.734375 L 121.1875 226.734375 L 121.1875 225.609375 Z M 100.859375 225.609375 L 100.859375 238.035156 L 101.996094 238.035156 L 101.996094 225.609375 Z M 121.1875 226.734375 L 121.1875 227.875 L 117.796875 232.386719 L 117.796875 231.261719 Z M 123.449219 249.324219 L 123.449219 250.449219 L 126.835938 247.0625 L 126.835938 245.9375 Z M 117.796875 258.351562 L 118.925781 259.488281 L 120.0625 259.488281 L 122.3125 252.714844 C 120.765625 253.066406 119.257812 254.945312 117.796875 258.351562 Z M 117.796875 258.351562 " fill-opacity="0.4" fill-rule="nonzero"/><path fill="#000000" d="M 218.621094 182.90625 L 224.0625 186.691406 C 222.464844 193.375 219.589844 196.582031 215.433594 196.316406 L 185.933594 197.652344 L 185.804688 199.902344 L 191.386719 200.300781 L 198.222656 199.644531 L 199.289062 200.898438 L 200.414062 200.96875 L 208.386719 200.300781 L 210.648438 200.5 L 210.578125 201.636719 L 184.339844 204.359375 L 182.277344 218.976562 L 183.414062 219.035156 L 214.09375 216.585938 L 215.09375 217.78125 L 215.035156 218.90625 L 212.769531 218.707031 L 212.769531 219.832031 L 220.542969 221.554688 L 220.472656 222.691406 C 218.835938 226.898438 208.035156 230.304688 188.054688 232.914062 L 176.695312 233.3125 L 177.761719 234.449219 L 172.324219 248.796875 L 171.1875 248.796875 L 171.855469 238.632812 L 170.730469 238.5625 L 168.535156 254.238281 C 191.074219 251.230469 206.992188 250.035156 216.289062 250.648438 L 221.808594 252.1875 L 221.738281 254.4375 L 219.476562 254.308594 L 220.472656 255.503906 L 220.273438 258.890625 C 218.109375 261.722656 213.503906 262.917969 206.464844 262.476562 L 206.394531 263.601562 L 215.433594 264.203125 L 215.234375 266.464844 L 162.6875 274.164062 L 161.558594 274.09375 C 157.925781 273.296875 156.109375 272.125 156.109375 270.578125 L 156.109375 270.378906 L 156.308594 266.992188 L 159.425781 254.765625 L 158.371094 253.582031 L 160.621094 253.640625 L 160.222656 259.289062 L 161.359375 259.417969 C 161.796875 255.660156 162.679688 253.847656 164.011719 253.980469 L 162.957031 252.714844 L 163.753906 241.484375 L 161.488281 241.285156 L 159.964844 246.863281 L 161.21875 245.808594 L 162.359375 245.867188 L 161.890625 252.644531 L 160.761719 252.515625 L 160.960938 249.195312 L 159.824219 249.125 L 159.695312 251.386719 L 158.570312 251.316406 L 158.699219 249.054688 L 162.289062 229.996094 L 161.160156 229.925781 L 163.753906 224.484375 L 162.6875 223.289062 L 162.757812 222.152344 L 165.207031 203.09375 L 166.273438 204.289062 L 167.398438 204.359375 L 167.539062 202.09375 L 166.800781 196.386719 L 168.59375 186.292969 L 168.792969 182.90625 L 169.929688 183.035156 L 170.988281 184.230469 L 172.183594 183.175781 L 173.308594 183.304688 L 174.375 184.429688 L 175.570312 183.375 L 178.957031 183.632812 Z M 162.089844 232.257812 L 161.558594 240.160156 L 162.6875 240.230469 L 163.214844 232.386719 Z M 199.359375 233.710938 L 200.484375 233.710938 L 200.355469 234.847656 L 179.886719 236.898438 L 178.828125 235.644531 L 178.886719 234.578125 L 189.125 234.109375 L 189.054688 235.246094 Z M 199.359375 233.710938 " fill-opacity="0.4" fill-rule="nonzero"/><path fill="#000000" d="M 244.964844 182.308594 L 258.519531 182.308594 C 274.328125 185.269531 282.234375 192.046875 282.234375 202.636719 L 282.234375 209.410156 L 270.945312 225.210938 L 272.070312 225.210938 L 283.359375 215.050781 L 283.359375 217.3125 C 279.507812 225.902344 274.613281 231.546875 268.683594 234.25 L 261.90625 236.5 L 261.90625 241.027344 C 263.546875 241.027344 271.453125 250.8125 285.625 270.378906 C 288.628906 271.621094 291.644531 274.632812 294.664062 279.417969 L 294.664062 280.542969 L 289.011719 276.03125 L 289.011719 277.15625 C 292.777344 281.140625 294.664062 284.152344 294.664062 286.191406 L 293.527344 286.191406 L 287.886719 289.570312 L 286.75 289.570312 L 284.5 286.191406 L 283.359375 287.316406 L 282.234375 287.316406 C 267.183594 275.007812 256.640625 262.589844 250.617188 250.050781 L 244.964844 238.761719 C 242.304688 238.761719 240.804688 243.28125 240.453125 252.316406 C 240.933594 259.839844 240.558594 264.425781 239.324219 266.066406 C 237.113281 267.878906 236.734375 269.691406 238.1875 271.503906 L 238.1875 273.765625 L 234.8125 273.765625 C 233.300781 273.765625 232.550781 272.261719 232.550781 269.253906 L 231.421875 269.253906 C 231.421875 272.261719 230.003906 273.390625 227.167969 272.640625 L 222.183594 265.996094 L 223.511719 255.703125 L 223.511719 251.1875 L 230.285156 219.574219 L 231.421875 219.574219 L 231.421875 224.085938 L 232.550781 224.085938 L 238.1875 200.371094 C 236.6875 200.371094 235.9375 201.878906 235.9375 204.886719 L 234.8125 204.886719 L 234.8125 202.636719 L 228.035156 202.636719 L 228.035156 201.496094 C 228.035156 199.996094 230.292969 198.867188 234.8125 198.109375 L 234.8125 196.984375 L 232.550781 196.984375 L 225.773438 199.246094 L 224.648438 199.246094 C 224.648438 197.742188 226.152344 196.984375 229.160156 196.984375 L 229.160156 195.859375 C 226.152344 195.859375 224.648438 194.730469 224.648438 192.472656 Z M 246.101562 222.949219 L 247.226562 222.949219 C 259.050781 217.285156 267.335938 211.261719 272.070312 204.886719 L 272.070312 202.636719 C 272.070312 200.066406 267.550781 197.425781 258.519531 194.722656 L 251.742188 196.984375 Z M 268.683594 194.722656 C 270.1875 198.140625 271.695312 200.019531 273.195312 200.371094 L 273.195312 198.109375 Z M 275.457031 201.496094 L 274.332031 207.148438 L 275.457031 207.148438 L 276.585938 206.023438 L 276.585938 201.496094 Z M 233.675781 204.886719 L 234.8125 204.886719 L 234.8125 208.273438 L 233.675781 212.796875 L 232.550781 212.796875 L 232.550781 209.410156 Z M 272.070312 209.410156 L 266.429688 217.3125 L 267.558594 217.3125 L 273.195312 210.535156 L 273.195312 209.410156 Z M 283.359375 211.660156 L 285.625 211.660156 L 284.5 215.050781 L 283.359375 215.050781 Z M 231.421875 215.050781 L 232.550781 215.050781 L 232.550781 219.574219 L 231.421875 219.574219 Z M 229.160156 229.726562 L 229.160156 234.25 L 230.285156 234.25 L 230.285156 229.726562 Z M 263.042969 263.601562 L 263.042969 264.730469 L 267.558594 269.253906 C 266.09375 265.839844 264.589844 263.957031 263.042969 263.601562 Z M 268.683594 271.503906 L 268.683594 272.640625 L 273.195312 276.03125 L 273.195312 274.890625 Z M 268.683594 271.503906 " fill-opacity="0.4" fill-rule="nonzero"/><path fill="#000000" d="M 331.042969 179.519531 L 336.484375 181.242188 L 336.355469 182.378906 L 330.773438 181.78125 Z M 309.449219 179.390625 L 312.578125 182.039062 L 322.941406 180.914062 L 323.9375 182.179688 L 325.0625 182.308594 L 328.523438 181.582031 C 341.183594 182.910156 350.328125 189.199219 355.957031 200.441406 C 357.457031 200.617188 358.007812 202.5625 357.609375 206.28125 L 356.753906 214.191406 L 354.492188 213.921875 L 354.621094 212.796875 L 356.15625 209.539062 L 355.160156 208.273438 L 356.355469 207.277344 L 355.359375 206.023438 L 353.164062 205.824219 C 352.671875 210.113281 348.375 214.566406 340.269531 219.175781 L 340.140625 220.300781 L 341.265625 220.359375 C 344.101562 220.71875 348.070312 219.28125 353.164062 216.046875 L 352.964844 218.308594 L 346.519531 224.414062 C 350.683594 224.859375 356.769531 231.570312 364.785156 244.542969 C 363.898438 252.78125 351.613281 261.28125 327.925781 270.050781 C 317.777344 274.964844 309.957031 277.132812 304.464844 276.558594 L 302.472656 273.964844 L 301.347656 273.894531 C 301.125 276.152344 299.511719 277.109375 296.503906 276.757812 C 296.238281 278.832031 295.484375 279.875 294.242188 279.875 L 293.84375 279.875 C 292.332031 279.703125 291.890625 277.003906 292.519531 271.773438 L 291.378906 271.703125 L 289.65625 277.15625 L 288.53125 277.027344 C 289.328125 269.585938 288.597656 265.753906 286.339844 265.527344 L 285.742188 260.882812 L 286.996094 259.886719 L 285.941406 258.621094 L 296.902344 210.933594 L 295.90625 209.738281 L 297.03125 209.867188 L 296.035156 208.671875 L 299.023438 191.933594 L 299.09375 190.808594 L 297.699219 182.707031 L 298.824219 182.777344 C 303.027344 180.472656 306.328125 179.320312 308.71875 179.320312 C 308.984375 179.320312 309.226562 179.34375 309.449219 179.390625 Z M 336.285156 193.726562 L 336.15625 194.863281 L 345.054688 196.984375 C 345.183594 195.476562 344.144531 194.613281 341.933594 194.394531 Z M 314.570312 204.957031 L 314.898438 212.925781 L 325.191406 211.800781 L 324.992188 214.050781 L 341.664062 206.820312 L 341.535156 207.945312 L 332.964844 213.792969 C 342.3125 211.222656 347.339844 206.859375 348.042969 200.699219 L 345.792969 200.441406 C 345.347656 204.164062 344.015625 205.910156 341.804688 205.683594 L 342.003906 203.433594 L 340.867188 203.363281 L 342.402344 200.042969 L 343.398438 201.296875 L 344.523438 201.496094 L 344.65625 200.371094 C 341.910156 197.765625 337.527344 196.144531 331.511719 195.519531 C 321.054688 194.324219 315.40625 197.472656 314.570312 204.957031 Z M 340.867188 203.363281 L 340.808594 204.488281 L 338.277344 206.421875 L 337.152344 206.351562 Z M 335.695312 230.066406 L 335.625 231.121094 L 346.648438 233.511719 L 347.785156 233.582031 L 347.914062 232.457031 L 343.527344 230.863281 Z M 310.316406 234.050781 L 306.925781 254.109375 L 307.921875 255.363281 L 309.046875 255.503906 C 314.457031 256.121094 326.703125 251.40625 345.792969 241.355469 L 348.3125 239.363281 C 348.175781 236.308594 345.347656 234.492188 339.8125 233.910156 L 330.84375 232.855469 Z M 350.703125 238.433594 L 347.984375 242.75 L 352.824219 239.890625 L 351.828125 238.632812 Z M 358.078125 243.816406 C 357.8125 246.160156 350.371094 251.785156 335.753906 260.683594 C 352.410156 254.042969 360.914062 248.925781 361.265625 245.339844 L 360.140625 245.210938 L 359.203125 243.945312 Z M 358.078125 243.816406 " fill-opacity="0.4" fill-rule="nonzero"/><path fill="#000000" d="M 406.351562 177.722656 C 406.835938 179.984375 409.84375 181.113281 415.378906 181.113281 L 424.417969 220.628906 L 432.320312 220.628906 L 432.320312 221.753906 L 425.542969 222.890625 L 425.542969 224.015625 C 427.800781 224.015625 428.933594 224.773438 428.933594 226.277344 L 437.972656 226.277344 L 437.972656 227.40625 C 437.972656 229.085938 434.207031 230.589844 426.679688 231.917969 L 428.933594 238.691406 L 427.804688 242.082031 L 428.933594 248.855469 L 427.804688 249.992188 L 428.933594 249.992188 L 427.804688 251.117188 L 428.933594 264.671875 L 428.933594 271.445312 L 427.804688 270.308594 L 426.679688 270.308594 L 430.070312 287.246094 L 427.804688 287.246094 C 427.804688 284.988281 427.050781 283.859375 425.542969 283.859375 L 425.542969 284.996094 L 426.679688 288.386719 L 425.542969 288.386719 L 424.417969 287.246094 L 423.292969 287.246094 C 423.292969 289.503906 422.535156 290.636719 421.03125 290.636719 L 415.378906 271.445312 L 414.253906 271.445312 L 414.253906 275.957031 L 413.128906 275.957031 L 410.867188 262.40625 L 414.253906 264.671875 L 414.253906 263.53125 C 413.636719 256.765625 412.507812 253.382812 410.867188 253.382812 L 412.003906 252.246094 L 412.003906 248.855469 L 409.738281 248.855469 L 409.738281 252.246094 L 408.613281 252.246094 L 408.613281 247.730469 L 409.738281 246.605469 L 408.613281 246.605469 L 407.476562 247.730469 L 407.476562 243.21875 L 408.613281 243.21875 L 409.738281 244.34375 L 410.867188 244.34375 L 409.738281 243.21875 L 409.738281 236.441406 L 384.898438 242.082031 L 384.898438 244.34375 L 392.796875 242.082031 L 397.3125 243.21875 L 402.964844 242.082031 L 402.964844 244.34375 C 387.152344 247.179688 379.246094 250.941406 379.246094 255.632812 C 377.253906 263.917969 374.992188 269.1875 372.46875 271.445312 L 372.46875 273.695312 L 369.082031 273.695312 L 367.957031 272.570312 L 366.832031 272.570312 L 366.832031 273.695312 L 363.441406 271.445312 L 365.691406 264.671875 L 364.566406 264.671875 C 362.308594 264.671875 361.179688 267.679688 361.179688 273.695312 L 358.917969 271.445312 L 360.054688 264.671875 L 356.664062 261.28125 L 375.859375 214.992188 L 376.996094 214.992188 C 376.996094 217.25 377.746094 218.378906 379.246094 218.378906 L 380.371094 212.726562 L 379.246094 213.851562 L 378.121094 213.851562 L 378.121094 209.339844 L 379.246094 203.691406 L 380.371094 204.828125 L 381.507812 204.828125 L 380.371094 203.691406 L 380.371094 202.566406 L 382.632812 198.050781 L 383.757812 198.050781 L 384.898438 199.175781 L 386.023438 199.175781 L 386.023438 198.050781 C 386.023438 196.546875 384.890625 195.789062 382.632812 195.789062 L 388.285156 179.988281 L 392.796875 179.988281 L 391.671875 181.113281 L 391.671875 182.238281 C 396.894531 179.230469 401.785156 177.722656 406.351562 177.722656 Z M 399.574219 203.691406 L 390.535156 227.40625 L 392.796875 227.40625 C 400.324219 227.40625 404.46875 225.148438 405.226562 220.628906 L 400.699219 203.691406 Z M 389.410156 210.464844 L 387.148438 218.378906 L 386.023438 217.242188 L 384.898438 217.242188 L 386.023438 221.753906 L 387.148438 221.753906 L 390.535156 211.601562 L 390.535156 210.464844 Z M 376.996094 220.628906 L 375.859375 221.753906 L 375.859375 224.015625 L 376.996094 224.015625 L 378.121094 220.628906 Z M 383.757812 225.140625 L 382.632812 229.667969 L 383.757812 229.667969 L 384.898438 228.53125 L 384.898438 225.140625 Z M 373.605469 226.277344 L 372.46875 230.792969 L 373.605469 230.792969 L 375.859375 226.277344 Z M 392.796875 229.667969 L 392.796875 230.792969 L 395.0625 230.792969 C 401.839844 230.042969 405.226562 228.914062 405.226562 227.40625 L 404.089844 227.40625 Z M 408.613281 254.507812 L 410.867188 254.507812 L 410.867188 261.28125 L 409.738281 261.28125 Z M 424.417969 262.40625 L 424.417969 264.671875 L 425.542969 269.183594 L 426.679688 269.183594 L 426.679688 266.921875 L 425.542969 262.40625 Z M 413.128906 265.796875 L 413.128906 268.058594 L 416.515625 266.921875 L 416.515625 264.671875 Z M 413.128906 265.796875 " fill-opacity="0.4" fill-rule="nonzero"/><path fill="#640a34" d="M 83.554688 176.695312 C 92.589844 176.695312 97.109375 179.703125 97.109375 185.722656 L 98.234375 185.722656 L 98.234375 182.332031 L 100.496094 182.332031 C 103.503906 191.148438 106.136719 203.195312 108.398438 218.472656 L 107.273438 218.472656 L 108.398438 219.597656 L 108.398438 229.761719 L 110.660156 229.761719 L 109.523438 230.886719 L 109.523438 236.539062 L 110.660156 236.539062 C 113.621094 229.054688 119.644531 218.890625 128.726562 206.046875 L 129.851562 207.183594 L 132.117188 203.796875 L 130.988281 203.796875 L 128.726562 206.046875 L 128.726562 204.921875 L 141.144531 191.371094 L 143.40625 191.371094 L 147.917969 195.882812 L 142.28125 202.660156 L 145.667969 202.660156 C 145.667969 200.316406 147.925781 197.683594 152.445312 194.757812 L 152.445312 198.148438 C 149.425781 198.5 147.917969 199.628906 147.917969 201.535156 L 150.183594 201.535156 C 150.183594 199.277344 151.308594 198.148438 153.570312 198.148438 L 153.570312 201.535156 C 149.714844 203.792969 144.066406 210.570312 136.628906 221.863281 L 112.910156 264.765625 L 110.660156 264.765625 L 109.523438 263.640625 C 107.261719 263.640625 106.136719 265.148438 106.136719 268.152344 L 103.882812 268.152344 C 98.613281 268.152344 95.980469 265.519531 95.980469 260.253906 L 97.109375 256.863281 L 94.84375 259.117188 L 94.84375 262.503906 L 95.980469 263.640625 L 95.980469 264.765625 L 94.84375 265.890625 L 92.59375 265.890625 L 91.457031 260.253906 L 92.59375 256.863281 L 91.457031 256.863281 L 92.59375 255.726562 L 92.59375 248.953125 C 91.660156 207.558594 89.023438 186.859375 84.679688 186.859375 L 85.816406 183.46875 Z M 137.753906 190.246094 L 137.753906 191.371094 L 133.242188 195.882812 L 132.117188 195.882812 C 133.886719 192.609375 135.765625 190.730469 137.753906 190.246094 Z M 129.851562 198.148438 L 129.851562 199.273438 L 119.6875 212.824219 L 119.6875 211.699219 C 121.414062 207.449219 124.800781 202.929688 129.851562 198.148438 Z M 138.890625 204.921875 L 135.503906 210.574219 L 136.628906 210.574219 L 140.015625 206.046875 L 140.015625 204.921875 Z M 93.71875 210.574219 L 93.71875 216.210938 L 94.84375 216.210938 L 94.84375 210.574219 Z M 116.300781 216.210938 L 117.4375 216.210938 L 117.4375 219.597656 L 116.300781 220.722656 L 115.175781 220.722656 L 115.175781 219.597656 Z M 94.84375 219.597656 L 94.84375 232.023438 L 95.980469 232.023438 L 95.980469 219.597656 Z M 115.175781 220.722656 L 115.175781 221.863281 L 111.785156 226.375 L 111.785156 225.25 Z M 117.4375 243.3125 L 117.4375 244.4375 L 120.824219 241.050781 L 120.824219 239.925781 Z M 111.785156 252.339844 L 112.910156 253.476562 L 114.046875 253.476562 L 116.300781 246.703125 C 114.753906 247.054688 113.246094 248.933594 111.785156 252.339844 Z M 111.785156 252.339844 " fill-opacity="1" fill-rule="nonzero"/><path fill="#640a34" d="M 212.609375 176.894531 L 218.046875 180.679688 C 216.453125 187.363281 213.574219 190.570312 209.417969 190.304688 L 179.921875 191.640625 L 179.792969 193.890625 L 185.375 194.289062 L 192.207031 193.632812 L 193.277344 194.886719 L 194.402344 194.957031 L 202.375 194.289062 L 204.636719 194.488281 L 204.566406 195.625 L 178.328125 198.347656 L 176.265625 212.964844 L 177.402344 213.023438 L 208.082031 210.574219 L 209.078125 211.769531 L 209.019531 212.894531 L 206.757812 212.695312 L 206.757812 213.820312 L 214.53125 215.542969 L 214.460938 216.679688 C 212.824219 220.886719 202.019531 224.292969 182.042969 226.902344 L 170.683594 227.300781 L 171.75 228.4375 L 166.308594 242.785156 L 165.171875 242.785156 L 165.839844 232.621094 L 164.714844 232.550781 L 162.523438 248.226562 C 185.0625 245.21875 200.980469 244.023438 210.273438 244.636719 L 215.796875 246.175781 L 215.726562 248.425781 L 213.464844 248.296875 L 214.460938 249.492188 L 214.261719 252.878906 C 212.09375 255.710938 207.492188 256.90625 200.449219 256.464844 L 200.378906 257.589844 L 209.417969 258.1875 L 209.21875 260.453125 L 156.671875 268.152344 L 155.546875 268.082031 C 151.914062 267.285156 150.097656 266.113281 150.097656 264.566406 L 150.097656 264.367188 L 150.296875 260.980469 L 153.414062 248.753906 L 152.359375 247.570312 L 154.609375 247.628906 L 154.210938 253.277344 L 155.347656 253.40625 C 155.785156 249.648438 156.667969 247.835938 157.996094 247.96875 L 156.941406 246.703125 L 157.738281 235.472656 L 155.476562 235.273438 L 153.953125 240.851562 L 155.207031 239.796875 L 156.34375 239.855469 L 155.875 246.632812 L 154.75 246.503906 L 154.949219 243.183594 L 153.8125 243.113281 L 153.683594 245.375 L 152.558594 245.304688 L 152.6875 243.042969 L 156.273438 223.984375 L 155.148438 223.914062 L 157.738281 218.472656 L 156.671875 217.277344 L 156.742188 216.140625 L 159.195312 197.078125 L 160.261719 198.277344 L 161.386719 198.347656 L 161.527344 196.082031 L 160.789062 190.375 L 162.582031 180.28125 L 162.78125 176.894531 L 163.917969 177.023438 L 164.972656 178.21875 L 166.167969 177.164062 L 167.296875 177.292969 L 168.363281 178.417969 L 169.558594 177.363281 L 172.945312 177.621094 Z M 156.074219 226.246094 L 155.546875 234.148438 L 156.671875 234.21875 L 157.199219 226.375 Z M 193.347656 227.699219 L 194.472656 227.699219 L 194.34375 228.835938 L 173.871094 230.886719 L 172.816406 229.632812 L 172.875 228.566406 L 183.109375 228.097656 L 183.039062 229.234375 Z M 193.347656 227.699219 " fill-opacity="1" fill-rule="nonzero"/><path fill="#640a34" d="M 238.953125 176.296875 L 252.503906 176.296875 C 268.316406 179.257812 276.222656 186.035156 276.222656 196.621094 L 276.222656 203.398438 L 264.933594 219.199219 L 266.058594 219.199219 L 277.347656 209.035156 L 277.347656 211.300781 C 273.492188 219.890625 268.601562 225.535156 262.667969 228.238281 L 255.894531 230.488281 L 255.894531 235.015625 C 257.535156 235.015625 265.441406 244.800781 279.609375 264.367188 C 282.617188 265.609375 285.632812 268.621094 288.648438 273.40625 L 288.648438 274.53125 L 283 270.015625 L 283 271.144531 C 286.765625 275.128906 288.648438 278.140625 288.648438 280.179688 L 287.511719 280.179688 L 281.875 283.558594 L 280.738281 283.558594 L 278.484375 280.179688 L 277.347656 281.304688 L 276.222656 281.304688 C 261.167969 268.996094 250.628906 256.578125 244.601562 244.039062 L 238.953125 232.75 C 236.292969 232.75 234.789062 237.269531 234.4375 246.304688 C 234.921875 253.828125 234.546875 258.414062 233.3125 260.054688 C 231.101562 261.867188 230.722656 263.679688 232.175781 265.492188 L 232.175781 267.753906 L 228.800781 267.753906 C 227.289062 267.753906 226.535156 266.25 226.535156 263.242188 L 225.410156 263.242188 C 225.410156 266.25 223.992188 267.378906 221.15625 266.628906 L 216.171875 259.984375 L 217.496094 249.691406 L 217.496094 245.175781 L 224.273438 213.5625 L 225.410156 213.5625 L 225.410156 218.074219 L 226.535156 218.074219 L 232.175781 194.359375 C 230.675781 194.359375 229.925781 195.867188 229.925781 198.875 L 228.800781 198.875 L 228.800781 196.621094 L 222.023438 196.621094 L 222.023438 195.484375 C 222.023438 193.984375 224.28125 192.855469 228.800781 192.097656 L 228.800781 190.972656 L 226.535156 190.972656 L 219.761719 193.234375 L 218.632812 193.234375 C 218.632812 191.730469 220.136719 190.972656 223.148438 190.972656 L 223.148438 189.847656 C 220.136719 189.847656 218.632812 188.71875 218.632812 186.460938 Z M 240.089844 216.9375 L 241.214844 216.9375 C 253.039062 211.273438 261.320312 205.25 266.058594 198.875 L 266.058594 196.621094 C 266.058594 194.050781 261.539062 191.414062 252.503906 188.710938 L 245.730469 190.972656 Z M 262.667969 188.710938 C 264.175781 192.128906 265.683594 194.007812 267.183594 194.359375 L 267.183594 192.097656 Z M 269.445312 195.484375 L 268.320312 201.136719 L 269.445312 201.136719 L 270.570312 200.011719 L 270.570312 195.484375 Z M 227.664062 198.875 L 228.800781 198.875 L 228.800781 202.261719 L 227.664062 206.785156 L 226.535156 206.785156 L 226.535156 203.398438 Z M 266.058594 203.398438 L 260.417969 211.300781 L 261.542969 211.300781 L 267.183594 204.523438 L 267.183594 203.398438 Z M 277.347656 205.648438 L 279.609375 205.648438 L 278.484375 209.035156 L 277.347656 209.035156 Z M 225.410156 209.035156 L 226.535156 209.035156 L 226.535156 213.5625 L 225.410156 213.5625 Z M 223.148438 223.714844 L 223.148438 228.238281 L 224.273438 228.238281 L 224.273438 223.714844 Z M 257.03125 257.589844 L 257.03125 258.71875 L 261.542969 263.242188 C 260.082031 259.828125 258.578125 257.941406 257.03125 257.589844 Z M 262.667969 265.492188 L 262.667969 266.628906 L 267.183594 270.015625 L 267.183594 268.878906 Z M 262.667969 265.492188 " fill-opacity="1" fill-rule="nonzero"/><path fill="#640a34" d="M 325.03125 173.507812 L 330.46875 175.230469 L 330.339844 176.367188 L 324.761719 175.769531 Z M 303.433594 173.378906 L 306.566406 176.027344 L 316.929688 174.902344 L 317.925781 176.167969 L 319.050781 176.296875 L 322.507812 175.570312 C 335.171875 176.898438 344.316406 183.1875 349.945312 194.429688 C 351.445312 194.605469 351.996094 196.550781 351.597656 200.269531 L 350.742188 208.179688 L 348.476562 207.910156 L 348.605469 206.785156 L 350.144531 203.527344 L 349.144531 202.261719 L 350.34375 201.265625 L 349.34375 200.011719 L 347.152344 199.8125 C 346.660156 204.101562 342.359375 208.554688 334.257812 213.164062 L 334.128906 214.289062 L 335.253906 214.347656 C 338.089844 214.707031 342.054688 213.269531 347.152344 210.035156 L 346.953125 212.296875 L 340.503906 218.402344 C 344.671875 218.847656 350.757812 225.558594 358.773438 238.53125 C 357.886719 246.769531 345.601562 255.269531 321.910156 264.039062 C 311.765625 268.953125 303.945312 271.121094 298.453125 270.542969 L 296.457031 267.953125 L 295.332031 267.882812 C 295.113281 270.140625 293.5 271.097656 290.492188 270.746094 C 290.226562 272.820312 289.472656 273.863281 288.230469 273.863281 L 287.828125 273.863281 C 286.320312 273.6875 285.878906 270.992188 286.503906 265.761719 L 285.367188 265.691406 L 283.644531 271.144531 L 282.519531 271.015625 C 283.316406 263.574219 282.582031 259.742188 280.328125 259.515625 L 279.730469 254.871094 L 280.984375 253.875 L 279.929688 252.609375 L 290.890625 204.921875 L 289.894531 203.726562 L 291.019531 203.855469 L 290.023438 202.660156 L 293.011719 185.921875 L 293.082031 184.792969 L 291.6875 176.695312 L 292.8125 176.765625 C 297.015625 174.460938 300.316406 173.308594 302.707031 173.308594 C 302.972656 173.308594 303.214844 173.332031 303.433594 173.378906 Z M 330.269531 187.714844 L 330.140625 188.851562 L 339.039062 190.972656 C 339.171875 189.464844 338.132812 188.601562 335.921875 188.382812 Z M 308.558594 198.945312 L 308.886719 206.914062 L 319.179688 205.789062 L 318.980469 208.039062 L 335.652344 200.808594 L 335.523438 201.933594 L 326.953125 207.78125 C 336.300781 205.210938 341.328125 200.847656 342.03125 194.6875 L 339.777344 194.429688 C 339.332031 198.152344 338.003906 199.898438 335.792969 199.671875 L 335.992188 197.421875 L 334.855469 197.351562 L 336.390625 194.03125 L 337.386719 195.285156 L 338.511719 195.484375 L 338.640625 194.359375 C 335.898438 191.753906 331.515625 190.132812 325.5 189.507812 C 315.042969 188.3125 309.394531 191.460938 308.558594 198.945312 Z M 334.855469 197.351562 L 334.796875 198.476562 L 332.265625 200.410156 L 331.136719 200.339844 Z M 329.683594 224.054688 L 329.613281 225.109375 L 340.632812 227.5 L 341.773438 227.570312 L 341.902344 226.445312 L 337.515625 224.851562 Z M 304.300781 228.039062 L 300.914062 248.097656 L 301.910156 249.351562 L 303.035156 249.492188 C 308.445312 250.109375 320.691406 245.394531 339.777344 235.34375 L 342.300781 233.347656 C 342.164062 230.296875 339.332031 228.480469 333.800781 227.898438 L 324.832031 226.84375 Z M 344.691406 232.421875 L 341.972656 236.738281 L 346.8125 233.875 L 345.816406 232.621094 Z M 352.066406 237.804688 C 351.800781 240.148438 344.355469 245.773438 329.742188 254.671875 C 346.398438 248.03125 354.902344 242.914062 355.253906 239.328125 L 354.128906 239.199219 L 353.191406 237.933594 Z M 352.066406 237.804688 " fill-opacity="1" fill-rule="nonzero"/><path fill="#640a34" d="M 400.339844 171.710938 C 400.824219 173.972656 403.832031 175.101562 409.367188 175.101562 L 418.40625 214.617188 L 426.308594 214.617188 L 426.308594 215.742188 L 419.53125 216.878906 L 419.53125 218.003906 C 421.789062 218.003906 422.917969 218.761719 422.917969 220.265625 L 431.957031 220.265625 L 431.957031 221.390625 C 431.957031 223.074219 428.195312 224.578125 420.667969 225.90625 L 422.917969 232.679688 L 421.792969 236.070312 L 422.917969 242.84375 L 421.792969 243.980469 L 422.917969 243.980469 L 421.792969 245.105469 L 422.917969 258.660156 L 422.917969 265.433594 L 421.792969 264.296875 L 420.667969 264.296875 L 424.054688 281.234375 L 421.792969 281.234375 C 421.792969 278.976562 421.039062 277.847656 419.53125 277.847656 L 419.53125 278.984375 L 420.667969 282.371094 L 419.53125 282.371094 L 418.40625 281.234375 L 417.28125 281.234375 C 417.28125 283.492188 416.523438 284.625 415.015625 284.625 L 409.367188 265.433594 L 408.242188 265.433594 L 408.242188 269.945312 L 407.117188 269.945312 L 404.851562 256.394531 L 408.242188 258.660156 L 408.242188 257.519531 C 407.621094 250.753906 406.492188 247.371094 404.851562 247.371094 L 405.988281 246.234375 L 405.988281 242.84375 L 403.726562 242.84375 L 403.726562 246.234375 L 402.601562 246.234375 L 402.601562 241.71875 L 403.726562 240.59375 L 402.601562 240.59375 L 401.464844 241.71875 L 401.464844 237.207031 L 402.601562 237.207031 L 403.726562 238.332031 L 404.851562 238.332031 L 403.726562 237.207031 L 403.726562 230.429688 L 378.882812 236.070312 L 378.882812 238.332031 L 386.785156 236.070312 L 391.300781 237.207031 L 396.949219 236.070312 L 396.949219 238.332031 C 381.136719 241.167969 373.234375 244.929688 373.234375 249.621094 C 371.238281 257.90625 368.980469 263.175781 366.457031 265.433594 L 366.457031 267.683594 L 363.070312 267.683594 L 361.941406 266.558594 L 360.816406 266.558594 L 360.816406 267.683594 L 357.429688 265.433594 L 359.679688 258.660156 L 358.554688 258.660156 C 356.296875 258.660156 355.167969 261.667969 355.167969 267.683594 L 352.902344 265.433594 L 354.042969 258.660156 L 350.652344 255.269531 L 369.84375 208.976562 L 370.980469 208.976562 C 370.980469 211.238281 371.734375 212.367188 373.234375 212.367188 L 374.359375 206.714844 L 373.234375 207.839844 L 372.109375 207.839844 L 372.109375 203.328125 L 373.234375 197.679688 L 374.359375 198.816406 L 375.496094 198.816406 L 374.359375 197.679688 L 374.359375 196.550781 L 376.621094 192.039062 L 377.746094 192.039062 L 378.882812 193.164062 L 380.007812 193.164062 L 380.007812 192.039062 C 380.007812 190.53125 378.878906 189.777344 376.621094 189.777344 L 382.273438 173.976562 L 386.785156 173.976562 L 385.660156 175.101562 L 385.660156 176.226562 C 390.878906 173.21875 395.773438 171.710938 400.339844 171.710938 Z M 393.5625 197.679688 L 384.523438 221.390625 L 386.785156 221.390625 C 394.3125 221.390625 398.453125 219.136719 399.214844 214.617188 L 394.6875 197.679688 Z M 383.398438 204.453125 L 381.136719 212.367188 L 380.007812 211.230469 L 378.882812 211.230469 L 380.007812 215.742188 L 381.136719 215.742188 L 384.523438 205.589844 L 384.523438 204.453125 Z M 370.980469 214.617188 L 369.84375 215.742188 L 369.84375 218.003906 L 370.980469 218.003906 L 372.109375 214.617188 Z M 377.746094 219.128906 L 376.621094 223.65625 L 377.746094 223.65625 L 378.882812 222.519531 L 378.882812 219.128906 Z M 367.59375 220.265625 L 366.457031 224.78125 L 367.59375 224.78125 L 369.84375 220.265625 Z M 386.785156 223.65625 L 386.785156 224.78125 L 389.046875 224.78125 C 395.824219 224.03125 399.214844 222.902344 399.214844 221.390625 L 398.078125 221.390625 Z M 402.601562 248.496094 L 404.851562 248.496094 L 404.851562 255.269531 L 403.726562 255.269531 Z M 418.40625 256.394531 L 418.40625 258.660156 L 419.53125 263.171875 L 420.667969 263.171875 L 420.667969 260.910156 L 419.53125 256.394531 Z M 407.117188 259.785156 L 407.117188 262.046875 L 410.503906 260.910156 L 410.503906 258.660156 Z M 407.117188 259.785156 " fill-opacity="1" fill-rule="nonzero"/><g clip-path="url(#e37de76ec5)"><g clip-path="url(#a2f979b86e)"><path fill="#0d99ff" d="M 72.835938 127.730469 L 281.019531 127.730469 L 281.019531 163.398438 L 72.835938 163.398438 Z M 72.835938 127.730469 " fill-opacity="1" fill-rule="nonzero"/></g></g><g clip-path="url(#03c4409b19)"><g clip-path="url(#f9ed56c7f4)"><path fill="#fadf00" d="M 443.816406 267.757812 L 465.605469 267.757812 L 465.605469 288.648438 L 443.816406 288.648438 Z M 443.816406 267.757812 " fill-opacity="1" fill-rule="nonzero"/></g></g><g clip-path="url(#177a497fad)"><g clip-path="url(#8f6aecf80d)"><path fill="#fadf00" d="M 448.234375 154.5625 L 483.046875 154.5625 L 483.046875 261.175781 L 448.234375 261.175781 Z M 448.234375 154.5625 " fill-opacity="1" fill-rule="nonzero"/></g></g></svg>